<svg xmlns="http://www.w3.org/2000/svg" viewBox="0 0 106.007 117.473"><g>
  <defs>
    <style>
      .cls-1 {
        fill: none;
      }

      .cls-2 {
        fill: #f39110;
      }

      .cls-3 {
        clip-path: url(#clip-path);
      }

      .cls-4 {
        fill: #fecc50;
      }

      .cls-5 {
        fill: #a11922;
      }

      .cls-6 {
        fill: #8d2a3e;
      }

      .cls-7 {
        fill: #2b2c29;
      }

      .cls-8 {
        fill: #e02233;
      }

      .cls-9 {
        fill: #e95b6f;
      }
    </style>
    <clipPath id="clip-path">
      <path class="cls-1" d="M53.83,33.61c-12.33,1-21.36,7.54-25.7,14.41a56.86,56.86,0,0,0-3.85,7,20.68,20.68,0,0,1,8.21,1.85C37,59.1,42.27,61.46,46.1,72.48,49,80.81,50.28,88.78,57,90.28c7.58,1.7,25,0,33.07-8.45s9.42-14.64,7-22.55-12.57-21.76-26-25C65.19,32.91,59.44,33.14,53.83,33.61Z"/>
    </clipPath>
  </defs>
  <g id="Layer_2" data-name="Layer 2">
    <g id="grid">
      <g id="wh_copy" data-name="wh copy">
        <g id="ffs">
          <g>
            <path class="cls-2" d="M106,48.81a43,43,0,0,0-2.46-15c-1.34,13.72-8.76,20.68-16.37,17.3C80,48,85,36,85.45,30.28c.72-9.7.23-20.82-17.28-30.28,7.15,14.11.56,22.74-6.24,23.18-7.55.49-14.36-6.66-11.67-18.1-8.33,6-8.7,16.21-6.24,22.86,2.57,6.94-.27,12.64-6.75,13.19C30,41.75,26.11,33.24,30,19.8a43.33,43.33,0,1,0,76,29Z"/>
            <g class="cls-3">
              <path class="cls-4" d="M89.67,62.28c.26,7.48-6.34,10.33-9.86,8.87-5.08-2.11-3.66-5.6-4.89-12.89s-6.2-12.4-13.65-14.72C66.53,59,58,64.51,53.53,65.46s-9.1-.11-9.5-9.83A29,29,0,0,0,35.2,76.14c0,.89,0,1.77.1,2.64a41.18,41.18,0,0,0,57.91.74c.09-.87.15-1.75.16-2.64A29,29,0,0,0,89.67,62.28Z"/>
            </g>
            <path class="cls-5" d="M46.3,65.06c0,5.94-10.36,10.75-23.14,10.75S0,71,0,65.06s10.36-4.13,23.15-4.13S46.3,59.13,46.3,65.06Z"/>
            <path class="cls-6" d="M90,81.83C82,90.28,64.55,92,57,90.28c-6.69-1.5-8-9.47-10.87-17.8C42.27,61.46,37,59.1,32.49,56.91a20.68,20.68,0,0,0-8.21-1.85v0c-5.63.14-11.21,1.55-15.5,5.38C-4.43,72.24,2.31,88.19,7.16,92.67s8.13,5.19,8.49,5.84-.45,3-.9,4.62c-.5,1.85-1.79,5.08-.61,7.45s4.94,3.59,7.61,3.74,7.5-.18,9.3-2.08c1.34-1.42,1.19-4.2,1-5.53s-.51-3.54-.51-3.54,5.15.39,9.05.52c4.3.14,11.43.21,11.43.21s.31,3.5.35,4.49.4,5.73,1.27,6.7,2.26,2.54,7.52,2.37c6.73-.23,9.47-3.13,10.32-4.83.94-1.88.23-4.6,0-6.51S70,99.51,70,99.51s5.27-3,7.23-4,6.1-3.87,6.1-3.87.46,2.19.61,2.85c.2.92,1.76,2.38,6.93,2.23,6.5-.18,8.86-4.73,9.3-6.38s-.9-5.8-1.34-7.53S97,75.63,97.15,74.49"/>
            <path class="cls-7" d="M33,70.51c.55,2.49-.64,5.13-3.39,5.48-2.27.29-4.13-1.23-4.68-3.72A4.4,4.4,0,0,1,28,66.87,4.38,4.38,0,0,1,33,70.51Z"/>
            <path class="cls-7" d="M16.75,71.38c.17,2.52-1.94,5.13-4.7,4.73-2.26-.34-3.63-2.28-3.49-4.79A4.38,4.38,0,0,1,13,67C15.25,67.14,16.58,68.76,16.75,71.38Z"/>
            <path class="cls-7" d="M24.18,80.4c1-.75,2.65-2.48,3.83-1.1s-.71,2.78-1.79,3.64-3.51,3-5.32,3-4.33-1.89-6-3.2c-1.37-1.07-2-2.49-1.33-3.39s1.88-.63,2.89.2c1.17,1,3.42,2.86,4.31,2.83S22.84,81.39,24.18,80.4Z"/>
            <path class="cls-8" d="M41.1,60.43c-1.42-.28-1.81-6.66-5.1-11.34-3.1-4.4-9-6.61-12.85-6.61S13.4,44.69,10.3,49.09C7,53.77,6.63,60.15,5.2,60.43-.28,61.53,0,64.38,0,65c.21-.77.73-2.6,6.45-2.71s10.88,1.34,16.69,1.34,11.06-1.44,16.69-1.34,6.25,1.94,6.45,2.71C46.33,64.38,46.59,61.53,41.1,60.43Z"/>
            <path class="cls-9" d="M23.16,42.48c-3.47,0-8.27,5.94-8.27,8.36v6.52S15.07,59,16.41,59H29.9c1.34,0,1.52-1.66,1.52-1.66V50.84C31.42,48.42,26.62,42.48,23.16,42.48Z"/>
          </g>
        </g>
      </g>
    </g>
  </g>
</g></svg>