<?xml version="1.0" encoding="UTF-8" standalone="no"?>
<!-- Generator: Adobe Illustrator 24.1.2, SVG Export Plug-In . SVG Version: 6.00 Build 0)  -->

<svg
   version="1.1"
   id="Layer_2"
   x="0px"
   y="0px"
   viewBox="0 0 118.84391 157.0864"
   xml:space="preserve"
   width="118.84391"
   height="157.0864"
   xmlns="http://www.w3.org/2000/svg"
   xmlns:svg="http://www.w3.org/2000/svg"><defs
   id="defs5505"><filter
     id="mask-powermask-path-effect6462_inverse"
     style="color-interpolation-filters:sRGB"
     height="100"
     width="100"
     x="-50"
     y="-50"><feColorMatrix
       id="mask-powermask-path-effect6462_primitive1"
       values="1"
       type="saturate"
       result="fbSourceGraphic" /><feColorMatrix
       id="mask-powermask-path-effect6462_primitive2"
       values="-1 0 0 0 1 0 -1 0 0 1 0 0 -1 0 1 0 0 0 1 0 "
       in="fbSourceGraphic" /></filter><clipPath
     clipPathUnits="userSpaceOnUse"
     id="clipPath6497"><path
       style="display:block;fill:#ffffff;fill-opacity:1"
       d="M 66.25,25.28 C 52.32,25.9 41.87,32.8 36.68,40.34 c -3.1,4.5 -4.65,7.74 -4.65,7.74 0,0 4.81,0.14 9.15,2.46 5,2.67 10.8,5.56 14.61,18.13 2.87,9.5 3.98,18.53 11.44,20.52 8.45,2.25 28.16,1.13 37.59,-8.02 9.43,-9.15 11.26,-16.05 8.87,-25.06 C 111.3,47.1 100.52,31.06 85.53,26.83 79.06,25 72.58,25 66.25,25.28 Z"
       id="path6499" /></clipPath><clipPath
     clipPathUnits="userSpaceOnUse"
     id="clipath_lpe_path-effect6571"><path
       style="display:none;fill:#ffffff;fill-opacity:1"
       d="M 66.25,25.28 C 52.32,25.9 41.87,32.8 36.68,40.34 c -3.1,4.5 -4.65,7.74 -4.65,7.74 0,0 4.81,0.14 9.15,2.46 5,2.67 10.8,5.56 14.61,18.13 2.87,9.5 3.98,18.53 11.44,20.52 8.45,2.25 28.16,1.13 37.59,-8.02 9.43,-9.15 11.26,-16.05 8.87,-25.06 C 111.3,47.1 100.52,31.06 85.53,26.83 79.06,25 72.58,25 66.25,25.28 Z"
       id="path6573" /><path
       id="lpe_path-effect6571"
       style="display:inline;fill:#ffffff;fill-opacity:1"
       class="powerclip"
       d="M -0.09788303,43.039649 H 128.74603 V 124.96059 H -0.09788303 Z M 66.25,25.28 C 52.32,25.9 41.87,32.8 36.68,40.34 c -3.1,4.5 -4.65,7.74 -4.65,7.74 0,0 4.81,0.14 9.15,2.46 5,2.67 10.8,5.56 14.61,18.13 2.87,9.5 3.98,18.53 11.44,20.52 8.45,2.25 28.16,1.13 37.59,-8.02 9.43,-9.15 11.26,-16.05 8.87,-25.06 C 111.3,47.1 100.52,31.06 85.53,26.83 79.06,25 72.58,25 66.25,25.28 Z" /></clipPath><radialGradient
     id="SVGID_1_"
     cx="64"
     cy="52.902599"
     r="43.973202"
     gradientTransform="matrix(0.9913,0,0,0.9913,0.5582,0.5582)"
     gradientUnits="userSpaceOnUse">
		<stop
   offset="0.57179999"
   style="stop-color:#ff6e42;stop-opacity:1;"
   id="stop126" />
		<stop
   offset="0.76819998"
   style="stop-color:#ff7046;stop-opacity:0.5411765;"
   id="stop128" />
		<stop
   offset="1"
   style="stop-color:#ff7555;stop-opacity:0;"
   id="stop130" />
	</radialGradient></defs>





<g
   id="g6301"
   transform="translate(-4.902117,37.125803)"><path
     style="display:inline;fill:#82aec0;fill-opacity:1"
     d="M 66.25,25.28 C 52.32,25.9 41.87,32.8 36.68,40.34 c -3.1,4.5 -4.65,7.74 -4.65,7.74 0,0 4.81,0.14 9.15,2.46 5,2.67 10.8,5.56 14.61,18.13 2.87,9.5 3.98,18.53 11.44,20.52 8.45,2.25 28.16,1.13 37.59,-8.02 9.43,-9.15 11.26,-16.05 8.87,-25.06 C 111.3,47.1 100.52,31.06 85.53,26.83 79.06,25 72.58,25 66.25,25.28 Z"
     id="path6523" /><path
     style="display:none;fill:#82aec0;fill-opacity:1"
     d="m 111.93,51.32 c -0.42,-0.99 -1.3,-2.5 -1.3,-2.5 0,0 -0.07,2.05 -0.25,3.13 -0.28,1.76 -1.25,5.42 -1.81,4.88 -1,-0.97 -5.73,-6.92 -7.98,-10.23 -1.71,-2.52 -7.6,-9.11 -7.74,-11.26 -0.07,-1.06 1.27,-4.65 1.27,-4.65 0,0 -1.22,-0.7 -2.35,-1.34 -0.88,-0.49 -2.16,-1.03 -2.16,-1.03 0,0 -0.77,4.9 -1.62,5.82 -0.75,0.81 -5.32,2.6 -8.87,3.94 -4.29,1.62 -8.45,3.73 -10,4.01 -1.36,0.25 -9.09,-1.41 -12,-1.97 -3.66,-0.7 -9.18,-2.26 -10.45,-3.17 -1.48,-1.06 -3.07,-3.78 -3.07,-3.78 0,0 -0.89,0.61 -1.78,1.31 -0.88,0.69 -2.02,2.06 -2.02,2.06 0,0 2.31,2.32 2.44,3.18 0.18,1.2 -1.27,2.83 -2.46,4.38 -0.72,0.93 -2.75,4.85 -2.75,4.85 0,0 0.97,0.09 2.15,0.63 1.23,0.57 2.38,1.16 2.38,1.16 0,0 2.97,-6.9 4.9,-7.53 1.65,-0.54 6.3,0.99 9.68,1.69 4.79,0.99 9.64,1.87 10.66,3.17 1.06,1.34 2.06,6.68 3.03,11.19 C 70.89,64.2 73.64,77.02 73,78 72.37,78.99 67.3,78.63 64.41,78.28 61.96,77.98 58,76.52 58,76.52 c 0,0 0.58,2.11 0.77,2.67 0.28,0.81 1.16,3.06 1.16,3.06 0,0 5.67,2.5 22.42,0.95 16.75,-1.55 25.03,-12.96 27.38,-18.02 3.14,-6.78 3.54,-10.39 3.54,-10.39 0,0 -0.92,-2.48 -1.34,-3.47 z M 96.65,73.21 C 92.41,75.88 81.45,78.7 79.47,77.64 77.89,76.79 75.53,63.7 74.4,57.86 73.68,54.12 71.95,48.44 72.99,46.67 c 0.7,-1.2 4.79,-2.99 7.81,-4.4 2.87,-1.33 6.97,-3.13 8.17,-2.99 1.7,0.2 5.35,6.12 9.01,11.19 3.66,5.07 7.67,10.35 7.74,12.18 0.09,1.84 -4.7,7.82 -9.07,10.56 z"
     id="path5494" /><g
     id="g137"
     transform="matrix(0.91467721,0,0,0.91467721,6.4789443,-40.784512)">
	<path
   style="fill:#82aec0"
   d="m 118.4,112.29 c -0.54,-2.88 -2.62,-18.81 -2.62,-18.81 H 12.22 c 0,0 -2.08,15.93 -2.62,18.81 -0.54,2.88 5.63,11.71 54.4,11.71 48.77,0 54.94,-8.83 54.4,-11.71 z"
   id="path118" />
	<path
   style="fill:#e0e0e0"
   d="m 12.19,93.96 c 0,-5.87 23.2,-10.63 51.81,-10.63 28.61,0 51.81,4.76 51.81,10.63 0,5.87 -23.2,11.6 -51.81,11.6 -28.61,0 -51.81,-5.73 -51.81,-11.6 z"
   id="path120" />
	
	<path
   style="fill:#f44336"
   d="M 97.78,16.32 C 94.94,7.27 85.48,4 63.99,4 42.5,4 33.05,7.27 30.21,16.32 24.49,34.55 19.35,92.03 19.35,92.03 c 0,0 4.47,7.49 44.65,7.49 40.18,0 44.66,-7.48 44.66,-7.48 0,0 -5.16,-57.49 -10.88,-75.72 z"
   id="path122" /><path
   style="opacity:0.9;fill:#c62828"
   d="m 19.34,92.14 c 0,-4.6 19.99,-8.33 44.66,-8.33 24.67,0 44.66,3.73 44.66,8.33 0,4.6 -19.99,9.09 -44.66,9.09 -24.67,0 -44.66,-4.49 -44.66,-9.09 z"
   id="path124" />
	
		<radialGradient
   id="radialGradient1340"
   cx="64"
   cy="52.902599"
   r="43.973202"
   gradientTransform="matrix(0.9913,0,0,0.9913,0.5582,0.5582)"
   gradientUnits="userSpaceOnUse">
		<stop
   offset="0.5718"
   style="stop-color:#FF6E40"
   id="stop1334" />
		<stop
   offset="0.7682"
   style="stop-color:#FF7046;stop-opacity:0.5414"
   id="stop1336" />
		<stop
   offset="1"
   style="stop-color:#FF7555;stop-opacity:0"
   id="stop1338" />
	</radialGradient>
	<path
   style="opacity:0.6;fill:url(#SVGID_1_)"
   d="M 72.59,35.73 94.42,13.2 c 0.42,-0.37 1.04,0.1 0.8,0.6 L 78.98,39.86 c -1.21,2.52 -0.14,4.15 2.66,4.08 l 20.65,-0.21 c 0.56,-0.01 0.73,0.75 0.22,0.98 l -18.84,7.26 c -2.55,1.15 -3.09,3.88 -0.91,5.62 l 23.49,16.94 c 0.44,0.35 0.08,1.04 -0.46,0.89 L 79.06,64.35 c -2.69,-0.76 -3.92,0.73 -3.37,3.47 l 8.62,28.89 c 0.11,0.55 -0.61,0.85 -0.92,0.39 L 68.68,71.05 c -1.57,-2.31 -3.47,-2.75 -4.8,-0.3 L 49.77,97.43 c -0.27,0.49 -1.01,0.26 -0.96,-0.3 L 56.1,68.34 C 56.38,65.56 55.1,64.98 52.5,66 L 22.25,81.51 c -0.52,0.2 -0.94,-0.45 -0.54,-0.84 L 47.09,59.6 c 2,-1.95 1.91,-4.08 -0.74,-4.97 L 25.17,47.41 c -0.53,-0.18 -0.43,-0.95 0.12,-0.99 l 20.84,0.4 c 2.79,-0.21 4.2,-2.99 2.74,-5.37 L 32.12,17.3 c -0.29,-0.48 0.28,-1.01 0.73,-0.68 l 22.34,19.4 c 2.27,1.63 4.26,1.48 4.67,-1.28 l 3.63,-26 c 0.08,-0.55 0.86,-0.59 1,-0.05 l 3.16,25.38 c 0.7,2.71 2.84,3.51 4.94,1.66 z"
   id="path133" />
	<path
   style="fill:#e88d7d;fill-opacity:1"
   d="m 65.85,34.06 9.36,-16.89 c 0.28,-0.48 1.02,-0.23 0.95,0.32 l -2.92,18.45 c -0.34,2.77 1.2,3.98 3.82,3.02 L 95.39,32.8 c 0.52,-0.19 0.93,0.47 0.52,0.85 L 81.55,45.91 c -2.05,1.9 -1.69,4.66 0.94,5.61 l 18.32,6.21 c 0.52,0.19 0.41,0.96 -0.15,0.99 l -19.52,0.39 c -2.79,0.14 -3.48,1.95 -2.08,4.37 l 9.86,16.84 c 0.28,0.48 -0.31,1 -0.75,0.66 L 73.44,68.78 c -2.23,-1.68 -4.16,-1.5 -4.64,1.25 l -3.5,19.94 c -0.1,0.55 -0.88,0.57 -1,0.03 L 60.66,70.23 C 60.04,67.51 58.64,67.37 56.5,69.16 L 41,82.19 c -0.43,0.36 -1.04,-0.13 -0.78,-0.62 l 9.11,-16.74 c 1.27,-2.49 0.51,-4.47 -2.29,-4.47 l -19.66,0.25 c -0.56,0 -0.71,-0.76 -0.2,-0.98 l 17.16,-6.61 c 2.57,-1.09 3.02,-4.17 0.88,-5.97 L 30.82,35.32 c -0.43,-0.36 -0.05,-1.04 0.48,-0.88 l 18.17,5.44 c 2.67,0.82 4.51,0.04 4.02,-2.71 L 49.72,18.16 c -0.1,-0.55 0.63,-0.83 0.93,-0.37 l 10.01,16.26 c 1.51,2.35 3.8,2.43 5.19,0.01 z"
   id="path135" />
</g><path
     style="display:inline;fill:#f44336;fill-opacity:1"
     d="m 112.7,59.21 c 0,0 3.94,-2.21 4.93,-2.77 0.99,-0.56 4.6,-2.82 5.91,-0.84 0.77,1.16 -0.7,4.44 -3.05,7.86 -2.14,3.13 -7.12,9.56 -7.4,10.83 -0.28,1.27 1.11,6.36 1.53,8.33 0.42,1.97 1.74,6.71 1.17,8.54 -0.57,1.83 -3.43,6.85 -10.75,6.76 -5.82,-0.07 -7.51,-1.78 -7.7,-2.82 -0.14,-0.75 -0.56,-3.24 -0.56,-3.24 0,0 -4.79,2.96 -7.04,4.08 -2.25,1.12 -8.31,4.22 -8.31,4.22 0,0 1.17,5.35 1.36,7.51 0.19,2.16 0.86,5.25 -0.28,7.32 -1.03,1.88 -4.25,5.02 -11.83,4.97 -5.92,-0.04 -7.41,-1.88 -8.35,-3 -0.94,-1.13 -1.13,-6.48 -1.13,-7.6 0,-1.12 -0.19,-5.07 -0.19,-5.07 0,0 -8.02,-0.4 -12.86,-0.75 -4.38,-0.32 -10.16,-0.99 -10.16,-0.99 0,0 0.21,2.33 0.42,4.01 0.19,1.5 0.23,4.64 -1.34,6.17 -2.11,2.06 -7.56,2.21 -10.56,1.92 -3,-0.28 -7.18,-1.83 -8.4,-4.55 -1.22,-2.72 0.38,-6.29 1.03,-8.35 0.58,-1.81 1.6,-4.41 1.22,-5.16 -0.38,-0.75 -4.04,-1.69 -9.29,-6.95 -5.26,-5.26 -12.13,-23.52 3.28,-36.23 15.49,-12.76 43.81,1.1 45.31,2.04 1.54,0.96 53.04,3.76 53.04,3.76 z"
     id="path6561"
     clip-path="url(#clipath_lpe_path-effect6571)" /><path
     style="display:inline;fill:#fee8e6;fill-opacity:1"
     d="m 41.18,65.86 c 0.5,2.83 -0.95,5.75 -4.07,6.02 -2.56,0.22 -4.59,-1.57 -5.09,-4.4 -0.5,-2.83 1.14,-5.49 3.68,-5.94 2.52,-0.45 4.98,1.48 5.48,4.32 z"
     id="path6563" /><path
     style="display:inline;fill:#fee8e6;fill-opacity:1"
     d="m 22.82,66.11 c 0.07,2.84 -2.42,5.69 -5.5,5.11 -2.53,-0.48 -3.99,-2.73 -3.71,-5.55 0.29,-2.82 2.59,-4.9 5.15,-4.65 2.56,0.25 3.99,2.13 4.06,5.09 z"
     id="path6565" /><path
     style="display:inline;fill:#fee8e6;fill-opacity:1"
     d="m 30.77,76.59 c 1.16,-0.79 3.1,-2.67 4.36,-1.06 1.27,1.62 -0.92,3.1 -2.18,4.01 -1.27,0.92 -4.08,3.17 -6.12,3.17 -1.9,0 -4.79,-2.32 -6.62,-3.87 -1.49,-1.26 -2.18,-2.89 -1.34,-3.87 0.84,-0.98 2.14,-0.62 3.24,0.35 1.27,1.13 3.72,3.38 4.72,3.38 0.98,0.01 2.39,-1.05 3.94,-2.11 z"
     id="path6567" /></g><g
   id="g1308"
   transform="matrix(0.60201411,0,0,0.60201411,75.574165,36.885563)"><g
     id="g101"
     transform="translate(-90.108555,-47.693811)">
	
	<path
   style="fill:#fcbcb6;fill-opacity:1;stroke-width:1.06356"
   d="m 71.386549,4 h -4.864018 c 2.601684,0 4.637785,1.9 4.524668,4.1 l -2.0361,80 C 68.897982,90.3 66.974998,92 64.486431,92 h 4.750901 c 2.488567,0 4.524667,-1.7 4.524667,-3.9 L 75.7981,8.1 C 76.024333,5.9 73.875116,4 71.386549,4 Z"
   id="path109" /><path
   style="fill:#fee8e6;fill-opacity:1"
   d="m 69.8,88.1 1.8,-80 C 71.7,5.9 69.8,4 67.6,4 H 55.9 c -2.3,0 -4.1,1.9 -4,4.1 l 1.8,80 c 0.1,2.2 1.8,3.9 4,3.9 h 8 c 2.2,0 4,-1.7 4.1,-3.9 z"
   id="path95" /><path
   id="circle99"
   style="display:none;opacity:0.2;fill:#ffffff;enable-background:new"
   d="m 62.899998,13.4 a 3.3,3.3 0 0 1 -3.3,3.3 3.3,3.3 0 0 1 -3.299999,-3.3 3.3,3.3 0 0 1 3.299999,-3.3 3.3,3.3 0 0 1 3.3,3.3 z M 64,50 c 0.3,-1.9 -0.5,-26.2 -0.5,-26.2 0,0 0.1,-3.5 -2.8,-3.8 -2.8,-0.3 -3.8,2.3 -3.8,4.1 0,1.8 0.4,21.5 0.6,23.3 0.1,1.8 1.9,3.7 3.6,4.2 1.7,0.5 2.7,-0.2 2.9,-1.6 z" />
</g><g
     id="g1167"
     transform="translate(-90.108555,-47.693811)"><circle
       style="fill:#fcbcb6;fill-opacity:1"
       cx="64.099998"
       cy="112"
       r="12"
       id="circle103" /><circle
       style="fill:#fee8e6;fill-opacity:1"
       cx="62.400002"
       cy="112"
       r="10.3"
       id="circle105" /><path
       style="display:none;opacity:0.2;fill:#ffffff;enable-background:new"
       d="m 56.5,108.4 c 1.2,-1.8 3.8,-3.3 6.5,-3.7 0.7,-0.1 1.3,-0.1 1.9,0.1 0.4,0.2 0.8,0.6 0.5,1 -0.2,0.4 -0.7,0.5 -1.1,0.6 -2.5,0.7 -4.8,2.4 -6.2,4.4 -0.5,0.8 -1.4,2.9 -2.4,2.4 -1,-0.7 -0.7,-2.6 0.8,-4.8 z"
       id="path107" /></g></g>
</svg>
