<?xml version="1.0" encoding="UTF-8" standalone="no"?>
<!-- Generator: Adobe Illustrator 19.0.0, SVG Export Plug-In . SVG Version: 6.00 Build 0)  -->

<svg
   version="1.1"
   id="Layer_1"
   x="0px"
   y="0px"
   viewBox="0 0 1007.3629 759.06305"
   xml:space="preserve"
   width="1007.3629"
   height="759.06305"
   xmlns="http://www.w3.org/2000/svg"
   xmlns:svg="http://www.w3.org/2000/svg"><defs
   id="defs9861"><linearGradient
     id="linearGradient957"><stop
       style="stop-color:#ffea02;stop-opacity:1;"
       offset="0.44166666"
       id="stop953" /><stop
       style="stop-color:#ffea02;stop-opacity:0;"
       offset="1"
       id="stop955" /></linearGradient><filter
     y="-0.039631157"
     height="1.0794706"
     style="color-interpolation-filters:sRGB;"
     id="filter2848"
     x="-0.019245258"
     width="1.0386964"><feGaussianBlur
       stdDeviation="0.085285851"
       result="result6"
       id="feGaussianBlur2838" /><feComposite
       result="result8"
       in="SourceGraphic"
       operator="atop"
       in2="result6"
       id="feComposite2840" /><feComposite
       result="result9"
       operator="over"
       in2="SourceAlpha"
       in="result8"
       id="feComposite2842" /><feColorMatrix
       values="1 0 0 0 0 0 1 0 0 0 0 0 1 0 0 0 0 0 1 0 "
       result="result10"
       id="feColorMatrix2844" /><feBlend
       in="result10"
       mode="normal"
       in2="result6"
       id="feBlend2846" /></filter><filter
     style="color-interpolation-filters:sRGB"
     id="filter2867"
     x="-0.43782361"
     y="-0.89498624"
     width="1.8756472"
     height="2.7899725"><feGaussianBlur
       stdDeviation="24.84877"
       id="feGaussianBlur2869" /></filter><filter
     style="color-interpolation-filters:sRGB"
     id="filter2877"
     x="-0.8116178"
     y="-0.72883136"
     width="2.6232356"
     height="2.4576627"><feGaussianBlur
       stdDeviation="25.017726"
       id="feGaussianBlur2879" /></filter><filter
     style="color-interpolation-filters:sRGB"
     id="filter2883"
     x="-0.81257065"
     y="-0.72806462"
     width="2.6251413"
     height="2.4561292"><feGaussianBlur
       stdDeviation="25.322481"
       id="feGaussianBlur2885" /></filter></defs>
<style
   type="text/css"
   id="style9809">
	.st0{fill:#0A0B1F;}
	.st1{fill:#12142D;}
	.st2{fill:#FFFE1A;}
	.st3{fill:url(#XMLID_15_);}
	.st4{fill:url(#XMLID_18_);}
	.st5{opacity:0.2;fill:#EEEEEE;enable-background:new    ;}
	.st6{fill:url(#XMLID_19_);}
	.st7{fill:#0C001E;}
	.st8{fill:#1E0604;}
</style>





<g
   id="g78450"><path
     id="XMLID_7_"
     class="st0"
     d="m 918.9,272.65836 c 0,0 31.5,-17.7 39.5,-22.2 7.9,-4.5 36.8,-22.6 47.3,-6.7 6.2,9.3 -5.6,35.5 -24.4,62.9 -17.1,25.1 -57,76.5 -59.2,86.7 -2.2,10.2 8.9,50.9 12.2,66.7 3.4,15.8 13.9,53.7 9.4,68.4 -4.6,14.6 -27.5,54.8 -86.1,54.1 -46.6,-0.6 -60.1,-14.2 -61.6,-22.6 -1.1,-6 -4.5,-25.9 -4.5,-25.9 0,0 -38.3,23.7 -56.4,32.7 -18,9 -66.5,33.8 -66.5,33.8 0,0 9.4,42.8 10.9,60.1 1.5,17.3 6.9,42 -2.2,58.6 -8.2,15 -34,40.2 -94.7,39.8 -47.4,-0.3 -59.3,-15 -66.8,-24 -7.5,-9 -9,-51.9 -9,-60.8 0,-9 -1.5,-40.6 -1.5,-40.6 0,0 -64.2,-3.2 -102.9,-6 -35.1,-2.6 -81.3,-7.9 -81.3,-7.9 0,0 1.7,18.7 3.4,32.1 1.5,12 1.8,37.1 -10.7,49.4 -16.9,16.5 -60.5,17.7 -84.5,15.4 -24,-2.2 -57.5,-14.6 -67.2,-36.4 -9.8,-21.8 3,-50.4 8.2,-66.8 4.6,-14.5 12.8,-35.3 9.8,-41.3 -3,-6 -32.3,-13.5 -74.4,-55.6 -42.1,-42.1 -97.1,-188.3 26.3,-290 124,-102.1 350.7,8.8 362.7,16.3 11.9,7.4 424.2,29.8 424.2,29.8 z" /><path
     id="XMLID_6_"
     class="st0"
     d="m 547.1,1.0583575 c -111.5,5 -195.2,60.1999995 -236.7,120.6000025 -24.8,36 -37.2,62 -37.2,62 0,0 38.5,1.1 73.2,19.7 40,21.4 86.5,44.5 117,145.1 23,76.1 31.9,148.3 91.6,164.3 67.6,18 225.4,9 300.9,-64.2 75.5,-73.2 90.1,-128.5 71,-200.6 C 907.8,175.85836 821.4,47.358357 701.4,13.458357 649.6,-1.1416425 597.7,-1.1416425 547.1,1.0583575 Z" /><path
     id="XMLID_12_"
     class="st1"
     d="m 912.8,209.55836 c -3.4,-7.9 -10.4,-20 -10.4,-20 0,0 -0.6,16.4 -2,25.1 -2.2,14.1 -10,43.4 -14.5,39.1 -8,-7.8 -45.9,-55.4 -63.9,-81.9 -13.7,-20.2 -60.8,-72.900003 -62,-90.100003 -0.6,-8.5 10.2,-37.2 10.2,-37.2 0,0 -9.8,-5.6 -18.8,-10.7 -7,-3.9 -17.3,-8.2 -17.3,-8.2 0,0 -6.2,39.2 -13,46.6 -6,6.5 -42.6,20.8 -71,31.500003 -34.3,13 -67.6,29.9 -80.1,32.1 -10.9,2 -72.8,-11.3 -96.1,-15.8 -29.3,-5.6 -73.5,-18.1 -83.7,-25.400003 -11.8,-8.5 -24.6,-30.3 -24.6,-30.3 0,0 -7.1,4.9 -14.2,10.5 -7,5.5 -16.2,16.5 -16.2,16.5 0,0 18.5,18.600003 19.5,25.500003 1.4,9.6 -10.2,22.7 -19.7,35.1 -5.8,7.4 -22,38.8 -22,38.8 0,0 7.8,0.7 17.2,5 9.8,4.6 19.1,9.3 19.1,9.3 0,0 23.8,-55.2 39.2,-60.3 13.2,-4.3 50.4,7.9 77.5,13.5 38.3,7.9 77.2,15 85.3,25.4 8.5,10.7 16.5,53.5 24.3,89.6 8.5,39.5 30.5,142.2 25.4,150 -5,7.9 -45.6,5 -68.8,2.2 -19.6,-2.4 -51.3,-14.1 -51.3,-14.1 0,0 4.6,16.9 6.2,21.4 2.2,6.5 9.3,24.5 9.3,24.5 0,0 45.4,20 179.5,7.6 134.1,-12.4 200.4,-103.9 219.2,-144.4 25.1,-54.3 28.3,-83.2 28.3,-83.2 0,0 -7.3,-19.8 -10.6,-27.7 z m -122.4,175.2 c -33.9,21.4 -121.7,43.9 -137.5,35.5 -12.6,-6.8 -31.5,-111.6 -40.6,-158.3 -5.8,-29.9 -19.6,-75.4 -11.3,-89.6 5.6,-9.6 38.3,-23.9 62.5,-35.2 23,-10.6 55.8,-25.1 65.4,-23.9 13.6,1.6 42.8,49 72.1,89.6 29.3,40.6 61.4,82.9 62,97.5 0.8,14.6 -37.6,62.5 -72.6,84.4 z" /><g
     id="XMLID_3_"
     transform="translate(-8.3,-165.54164)">
	
		
	<path
   id="XMLID_56_"
   class="st2"
   d="m 354.7,491.5 c 4,22.7 -7.6,46 -32.6,48.2 -20.5,1.8 -36.7,-12.6 -40.7,-35.2 -4,-22.7 9.1,-43.9 29.5,-47.6 20.1,-3.6 39.8,11.8 43.8,34.6 z"
   style="fill:#ffc100;fill-opacity:1;filter:url(#filter2883);opacity:1" /><path
   id="path2881"
   class="st2"
   d="m 354.7,491.5 c 4,22.7 -7.6,46 -32.6,48.2 -20.5,1.8 -36.7,-12.6 -40.7,-35.2 -4,-22.7 9.1,-43.9 29.5,-47.6 20.1,-3.6 39.8,11.8 43.8,34.6 z"
   style="display:inline" />
</g><g
     id="XMLID_2_"
     transform="translate(-8.3,-165.54164)"
     style="display:inline">
	
		
	<path
   id="XMLID_58_"
   class="st2"
   d="m 207.7,493.5 c 0.6,22.7 -19.4,45.6 -44,40.9 -20.3,-3.8 -31.9,-21.9 -29.7,-44.4 2.3,-22.6 20.7,-39.2 41.2,-37.2 20.5,1.9 31.9,17 32.5,40.7 z"
   style="display:inline;fill:#ffc100;fill-opacity:1;filter:url(#filter2877);opacity:1" /><path
   id="path2875"
   class="st2"
   d="m 207.7,493.5 c 0.6,22.7 -19.4,45.6 -44,40.9 -20.3,-3.8 -31.9,-21.9 -29.7,-44.4 2.3,-22.6 20.7,-39.2 41.2,-37.2 20.5,1.9 31.9,17 32.5,40.7 z"
   style="display:inline" />
</g><g
     id="g2863"
     transform="translate(-8.3,-165.54164)"
     style="display:inline">
	
		
	<path
   id="path2859"
   class="st2"
   d="m 271.3,577.4 c 9.3,-6.3 24.8,-21.4 34.9,-8.5 10.2,13 -7.4,24.8 -17.5,32.1 -10.2,7.4 -32.7,25.4 -49,25.4 -15.2,0 -38.3,-18.6 -53,-31 -11.9,-10.1 -17.5,-23.1 -10.7,-31 6.7,-7.8 17.1,-5 25.9,2.8 10.2,9 29.8,27.1 37.8,27.1 7.9,0 19.2,-8.4 31.6,-16.9 z"
   style="display:inline;opacity:1;filter:url(#filter2867);fill:#ffc100;fill-opacity:1" /><path
   id="path2865"
   class="st2"
   d="m 271.3,577.4 c 9.3,-6.3 24.8,-21.4 34.9,-8.5 10.2,13 -7.4,24.8 -17.5,32.1 -10.2,7.4 -32.7,25.4 -49,25.4 -15.2,0 -38.3,-18.6 -53,-31 -11.9,-10.1 -17.5,-23.1 -10.7,-31 6.7,-7.8 17.1,-5 25.9,2.8 10.2,9 29.8,27.1 37.8,27.1 7.9,0 19.2,-8.4 31.6,-16.9 z"
   style="display:inline;opacity:1" />
</g></g>
<g
   id="hat"
   transform="translate(-8.3,-165.54164)"
   style="display:inline">
	
		<radialGradient
   id="XMLID_15_"
   cx="349.40948"
   cy="3072.5522"
   r="296.53241"
   gradientTransform="matrix(0.9182,0,0,0.2298,-57.585,-279.4877)"
   gradientUnits="userSpaceOnUse">
		<stop
   offset="3.200000e-003"
   style="stop-color:#661616"
   id="stop9826" />
		<stop
   offset="0.7449"
   style="stop-color:#681E0E"
   id="stop9828" />
		<stop
   offset="1"
   style="stop-color:#783C19"
   id="stop9830" />
	</radialGradient>
	<path
   id="XMLID_13_"
   class="st3"
   d="m 449.3,387.9 c -25,-6.3 -60.5,-11.5 -94.3,-15 -28.3,-2.9 -59.4,2.9 -91.5,2.9 -32.1,0 -63.2,-5.8 -91.5,-2.9 -33.8,2.9 -76,15 -101,21.3 -43.3,11 -62.7,22.5 -62.7,38.6 0,16.1 22.7,23.6 66.6,34.6 25,6.3 44.4,20.7 88.2,25.9 28.3,3.4 75.4,-6.9 107.1,-6.9 32.2,0 74.3,10.4 102.6,7.5 33.8,-2.9 53.8,-16.7 78.8,-23 43.8,-10.9 66.6,-22.5 66.6,-38.6 0,-16.1 -25,-33.5 -68.9,-44.4 z"
   style="fill:url(#XMLID_15_)" />
	
		<radialGradient
   id="XMLID_18_"
   cx="399.2142"
   cy="-122.202"
   r="206.4062"
   gradientTransform="matrix(0,0.9331,-1.4131,0,87.1972,-123.8433)"
   gradientUnits="userSpaceOnUse">
		<stop
   offset="3.200000e-003"
   style="stop-color:#661616"
   id="stop9834" />
		<stop
   offset="0.3326"
   style="stop-color:#681E0E"
   id="stop9836" />
		<stop
   offset="1"
   style="stop-color:#783C19"
   id="stop9838" />
	</radialGradient>
	<path
   id="XMLID_11_"
   class="st4"
   d="m 344.5,232 c -15.5,-4 -41,-2.3 -56.6,0 -39.4,6.9 -33.8,2.9 -71,-0.6 -15,-1.7 -34.9,-2.9 -49.4,1.7 -55.5,17.3 -62.1,98.3 -97.1,173.2 0.6,68.6 388.3,68 387.7,0 C 424.4,334.9 402.2,247.5 344.5,232 Z"
   style="fill:url(#XMLID_18_)" />
	<path
   id="XMLID_10_"
   class="st5"
   d="m 201.4,276.2 c 17.8,12.6 39.4,19 61,16.1 19.4,-2.3 38.3,-9.8 56,-18.4 2.8,-1.7 6.1,1.7 5,5.2 -2.8,7.5 -30.5,35.7 -63.2,35.7 -30.5,0 -51,-13.3 -61.6,-32.3 -2.2,-2.8 -1.1,-9.1 2.8,-6.3 z" />
	<g
   id="XMLID_17_">
		
			<linearGradient
   id="XMLID_19_"
   gradientUnits="userSpaceOnUse"
   x1="343.34979"
   y1="307.66599"
   x2="429.66931"
   y2="367.5661"
   gradientTransform="matrix(0.9984,-0.227,0,1,0.3504,83.6229)">
			<stop
   offset="0"
   style="stop-color:#F3EBFF"
   id="stop9843" />
			<stop
   offset="1"
   style="stop-color:#CEC5DB"
   id="stop9845" />
		</linearGradient>
		<polygon
   id="XMLID_14_"
   class="st6"
   points="442,380.8 320.2,408.5 320.2,281.3 442,253.6 "
   style="fill:url(#XMLID_19_)" />
		<g
   id="XMLID_16_">
			<path
   id="XMLID_21_"
   class="st7"
   d="m 345.8,294.3 v 0.3 c 0,7.8 -4.6,13.4 -13.7,16.7 l -0.2,11.6 -6.4,1.7 c 0.1,-4.2 0.2,-8.3 0.2,-12.5 0,-4.2 0.1,-8.5 0.1,-12.8 0,-2 0,-4 0,-6 0,-2 0,-4 0,-6.1 1.2,-0.7 3.4,-1.5 6.7,-2.2 0.7,-0.2 1.4,-0.3 2.2,-0.5 0.8,-0.2 1.6,-0.3 2.5,-0.5 5.7,-1 8.6,2.4 8.6,10.3 z m -14,-2.9 0.1,13.5 c 3.4,-1 5.6,-2.8 6.5,-5.4 0.5,-1.5 0.8,-2.8 0.8,-4.1 0,-1 -0.2,-2 -0.5,-3 -0.6,-1.7 -2.2,-2.3 -4.8,-1.7 -0.5,0.2 -1.2,0.4 -2.1,0.7 z" />
			<path
   id="XMLID_24_"
   class="st7"
   d="m 348.7,319.1 c 0.1,-7.1 0.1,-13.8 0.2,-20.1 0,-6.3 0,-12.2 0,-17.7 2.4,-1 4.9,-1.8 7.3,-2.4 0.9,-0.2 1.8,-0.4 2.6,-0.5 0.9,-0.1 1.8,-0.3 2.7,-0.3 4.1,-0.3 6.6,1.3 7.3,5.1 0.3,1.9 0.5,3.6 0.5,5.2 0,1.7 -0.2,3.2 -0.6,4.6 -0.7,2.7 -2.6,5.3 -5.7,7.6 l 6.3,13.2 -6.2,3.5 -5.8,-13.2 -2.3,0.6 0.1,12.7 z m 6.2,-33.5 0.1,12.7 c 2.9,-0.7 5,-2.2 6.3,-4.5 0.8,-1.4 1.1,-2.7 1.1,-4.1 0,-0.9 -0.2,-1.9 -0.5,-2.9 -0.7,-1.9 -2.2,-2.6 -4.7,-2 -0.4,0.1 -0.8,0.2 -1.2,0.3 -0.2,0.1 -0.7,0.3 -1.1,0.5 z" />
			<path
   id="XMLID_32_"
   class="st7"
   d="m 388.5,270.5 0.3,6.5 -10.3,2.9 v 10.6 l 8.5,-2.6 0.4,6 -8.6,2.8 v 9.1 l 10.3,-2.9 0.2,6.3 -17.1,5 v -19.4 c 0,-6.4 0,-12.9 0,-19.4 z" />
			<path
   id="XMLID_37_"
   class="st7"
   d="m 402.6,301.7 c 0,0 0.1,0 0.2,0 2.4,-0.6 3.8,-2.1 4.2,-4.6 v -0.5 c 0,-2.4 -2.2,-4.2 -6.7,-5.3 -4.9,-1.1 -7.3,-4 -7.4,-8.5 0,-0.1 0,-0.2 0,-0.4 0,-4.3 1.2,-7.8 3.5,-10.2 2.1,-2.2 4.5,-3.6 7.2,-4.3 l 0.6,-0.1 c 0.2,0 0.4,-0.1 0.6,-0.1 3.8,-0.7 6.5,-0.2 8.3,1.6 l -2.2,5.9 c -1.5,-1.1 -3.3,-1.4 -5.6,-1 -2.8,0.6 -4.5,1.7 -5.1,3.2 -0.4,1 -0.6,1.9 -0.6,2.7 0,0.8 0.2,1.5 0.5,2.3 0.6,1.6 2.7,2.9 6.4,3.6 3.6,0.8 5.9,2.3 6.7,4.6 0.5,1.4 0.7,2.8 0.7,4.2 0,1 -0.1,2 -0.4,3.1 -0.6,2.5 -1.9,4.7 -3.9,6.5 -2,1.8 -4.6,3.1 -7.8,3.8 -0.1,0 -0.2,0 -0.2,0 -4,0.9 -7.1,0.6 -9.3,-0.8 l 2.8,-6.6 c 2.6,1.2 5,1.4 7.5,0.9 z" />
			<path
   id="XMLID_41_"
   class="st7"
   d="m 427.3,296.1 c 0,0 0.1,0 0.2,0 2.4,-0.6 3.8,-2.1 4.2,-4.6 V 291 c 0,-2.4 -2.2,-4.2 -6.7,-5.3 -4.9,-1.1 -7.3,-4 -7.4,-8.5 0,-0.1 0,-0.2 0,-0.4 0,-4.3 1.2,-7.8 3.5,-10.2 2.1,-2.2 4.5,-3.6 7.2,-4.3 l 0.6,-0.1 c 0.2,0 0.4,-0.1 0.6,-0.1 3.8,-0.7 6.5,-0.2 8.3,1.6 l -2.2,5.9 c -1.5,-1.1 -3.3,-1.4 -5.6,-1 -2.8,0.6 -4.5,1.7 -5.1,3.2 -0.4,1 -0.6,1.9 -0.6,2.7 0,0.8 0.2,1.5 0.5,2.3 0.6,1.6 2.7,2.9 6.4,3.6 3.6,0.8 5.9,2.3 6.7,4.6 0.5,1.4 0.7,2.8 0.7,4.2 0,1 -0.1,2 -0.4,3.1 -0.6,2.5 -1.9,4.7 -3.9,6.5 -2,1.8 -4.6,3.1 -7.8,3.8 -0.1,0 -0.2,0 -0.2,0 -4,0.9 -7.1,0.6 -9.3,-0.8 l 2.8,-6.6 c 2.6,1.2 5,1.4 7.5,0.9 z" />
		</g>
	</g>
	<path
   id="XMLID_8_"
   class="st8"
   d="m 442,369.6 c -64.3,38 -292.3,37.9 -356.1,-0.7 -5.5,12.1 -9.9,24.8 -15.4,37.4 0.6,68.6 388.9,68 388.3,0 -6.1,-12.1 -11.3,-24.6 -16.8,-36.7 z" />
</g>
</svg>
