<?xml version="1.0" encoding="UTF-8" standalone="no"?>
<!-- Generator: Adobe Illustrator 24.1.2, SVG Export Plug-In . SVG Version: 6.00 Build 0)  -->

<svg
   version="1.1"
   id="Layer_2"
   x="0px"
   y="0px"
   viewBox="0 0 118.84391 94.815911"
   xml:space="preserve"
   sodipodi:docname="blackhole.svg"
   width="118.84391"
   height="94.81591"
   inkscape:version="1.2.2 (732a01da63, 2022-12-09)"
   inkscape:export-filename="factsmachine.png"
   inkscape:export-xdpi="96"
   inkscape:export-ydpi="96"
   xmlns:inkscape="http://www.inkscape.org/namespaces/inkscape"
   xmlns:sodipodi="http://sodipodi.sourceforge.net/DTD/sodipodi-0.dtd"
   xmlns="http://www.w3.org/2000/svg"
   xmlns:svg="http://www.w3.org/2000/svg"><defs
   id="defs5505"><inkscape:path-effect
     effect="powerclip"
     id="path-effect6571"
     is_visible="true"
     lpeversion="1"
     inverse="true"
     flatten="false"
     hide_clip="false"
     message="Use fill-rule evenodd on &lt;b&gt;fill and stroke&lt;/b&gt; dialog if no flatten result after convert clip to paths." /><inkscape:path-effect
     effect="powerclip"
     id="path-effect6501"
     is_visible="true"
     lpeversion="1"
     inverse="true"
     flatten="false"
     hide_clip="false"
     message="Use fill-rule evenodd on &lt;b&gt;fill and stroke&lt;/b&gt; dialog if no flatten result after convert clip to paths." /><filter
     id="mask-powermask-path-effect6462_inverse"
     inkscape:label="filtermask-powermask-path-effect6462"
     style="color-interpolation-filters:sRGB"
     height="100"
     width="100"
     x="-50"
     y="-50"><feColorMatrix
       id="mask-powermask-path-effect6462_primitive1"
       values="1"
       type="saturate"
       result="fbSourceGraphic" /><feColorMatrix
       id="mask-powermask-path-effect6462_primitive2"
       values="-1 0 0 0 1 0 -1 0 0 1 0 0 -1 0 1 0 0 0 1 0 "
       in="fbSourceGraphic" /></filter><clipPath
     clipPathUnits="userSpaceOnUse"
     id="clipPath6497"><path
       style="display:block;fill:#ffffff;fill-opacity:1"
       d="M 66.25,25.28 C 52.32,25.9 41.87,32.8 36.68,40.34 c -3.1,4.5 -4.65,7.74 -4.65,7.74 0,0 4.81,0.14 9.15,2.46 5,2.67 10.8,5.56 14.61,18.13 2.87,9.5 3.98,18.53 11.44,20.52 8.45,2.25 28.16,1.13 37.59,-8.02 9.43,-9.15 11.26,-16.05 8.87,-25.06 C 111.3,47.1 100.52,31.06 85.53,26.83 79.06,25 72.58,25 66.25,25.28 Z"
       id="path6499"
       inkscape:label="Shell Mask" /></clipPath><clipPath
     clipPathUnits="userSpaceOnUse"
     id="clipath_lpe_path-effect6571"><path
       style="display:none;fill:#ffffff;fill-opacity:1"
       d="M 66.25,25.28 C 52.32,25.9 41.87,32.8 36.68,40.34 c -3.1,4.5 -4.65,7.74 -4.65,7.74 0,0 4.81,0.14 9.15,2.46 5,2.67 10.8,5.56 14.61,18.13 2.87,9.5 3.98,18.53 11.44,20.52 8.45,2.25 28.16,1.13 37.59,-8.02 9.43,-9.15 11.26,-16.05 8.87,-25.06 C 111.3,47.1 100.52,31.06 85.53,26.83 79.06,25 72.58,25 66.25,25.28 Z"
       id="path6573"
       inkscape:label="Shell Mask" /><path
       id="lpe_path-effect6571"
       style="display:inline;fill:#ffffff;fill-opacity:1"
       class="powerclip"
       d="M -0.09788303,43.039649 H 128.74603 V 124.96059 H -0.09788303 Z M 66.25,25.28 C 52.32,25.9 41.87,32.8 36.68,40.34 c -3.1,4.5 -4.65,7.74 -4.65,7.74 0,0 4.81,0.14 9.15,2.46 5,2.67 10.8,5.56 14.61,18.13 2.87,9.5 3.98,18.53 11.44,20.52 8.45,2.25 28.16,1.13 37.59,-8.02 9.43,-9.15 11.26,-16.05 8.87,-25.06 C 111.3,47.1 100.52,31.06 85.53,26.83 79.06,25 72.58,25 66.25,25.28 Z" /></clipPath><clipPath
     clipPathUnits="userSpaceOnUse"
     id="clipPath10916"><path
       style="display:inline;fill:#66757f;fill-opacity:1"
       d="M 66.25,25.28 C 52.32,25.9 41.87,32.8 36.68,40.34 c -3.1,4.5 -4.65,7.74 -4.65,7.74 0,0 4.81,0.14 9.15,2.46 5,2.67 10.8,5.56 14.61,18.13 2.87,9.5 3.98,18.53 11.44,20.52 8.45,2.25 28.16,1.13 37.59,-8.02 9.43,-9.15 11.26,-16.05 8.87,-25.06 C 111.3,47.1 100.52,31.06 85.53,26.83 79.06,25 72.58,25 66.25,25.28 Z"
       id="path10918"
       inkscape:label="Shell" /></clipPath></defs><sodipodi:namedview
   id="namedview5503"
   pagecolor="#ffffff"
   bordercolor="#000000"
   borderopacity="0.25"
   inkscape:showpageshadow="2"
   inkscape:pageopacity="0.0"
   inkscape:pagecheckerboard="0"
   inkscape:deskcolor="#d1d1d1"
   showgrid="false"
   inkscape:zoom="3.4257812"
   inkscape:cx="68.743444"
   inkscape:cy="20.433295"
   inkscape:window-width="1920"
   inkscape:window-height="1057"
   inkscape:window-x="1912"
   inkscape:window-y="-8"
   inkscape:window-maximized="1"
   inkscape:current-layer="Layer_2" />





<g
   id="g6301"
   transform="translate(-4.902117,-25.144679)"
   inkscape:label="Base Turt"><path
     style="display:inline;fill:#0b0d0f;fill-opacity:1"
     d="M 66.25,25.28 C 52.32,25.9 41.87,32.8 36.68,40.34 c -3.1,4.5 -4.65,7.74 -4.65,7.74 0,0 4.81,0.14 9.15,2.46 5,2.67 10.8,5.56 14.61,18.13 2.87,9.5 3.98,18.53 11.44,20.52 8.45,2.25 28.16,1.13 37.59,-8.02 9.43,-9.15 11.26,-16.05 8.87,-25.06 C 111.3,47.1 100.52,31.06 85.53,26.83 79.06,25 72.58,25 66.25,25.28 Z"
     id="path6523"
     inkscape:label="Shell" /><path
     style="display:none;fill:#c6e5b3;fill-opacity:1"
     d="m 111.93,51.32 c -0.42,-0.99 -1.3,-2.5 -1.3,-2.5 0,0 -0.07,2.05 -0.25,3.13 -0.28,1.76 -1.25,5.42 -1.81,4.88 -1,-0.97 -5.73,-6.92 -7.98,-10.23 -1.71,-2.52 -7.6,-9.11 -7.74,-11.26 -0.07,-1.06 1.27,-4.65 1.27,-4.65 0,0 -1.22,-0.7 -2.35,-1.34 -0.88,-0.49 -2.16,-1.03 -2.16,-1.03 0,0 -0.77,4.9 -1.62,5.82 -0.75,0.81 -5.32,2.6 -8.87,3.94 -4.29,1.62 -8.45,3.73 -10,4.01 -1.36,0.25 -9.09,-1.41 -12,-1.97 -3.66,-0.7 -9.18,-2.26 -10.45,-3.17 -1.48,-1.06 -3.07,-3.78 -3.07,-3.78 0,0 -0.89,0.61 -1.78,1.31 -0.88,0.69 -2.02,2.06 -2.02,2.06 0,0 2.31,2.32 2.44,3.18 0.18,1.2 -1.27,2.83 -2.46,4.38 -0.72,0.93 -2.75,4.85 -2.75,4.85 0,0 0.97,0.09 2.15,0.63 1.23,0.57 2.38,1.16 2.38,1.16 0,0 2.97,-6.9 4.9,-7.53 1.65,-0.54 6.3,0.99 9.68,1.69 4.79,0.99 9.64,1.87 10.66,3.17 1.06,1.34 2.06,6.68 3.03,11.19 C 70.89,64.2 73.64,77.02 73,78 72.37,78.99 67.3,78.63 64.41,78.28 61.96,77.98 58,76.52 58,76.52 c 0,0 0.58,2.11 0.77,2.67 0.28,0.81 1.16,3.06 1.16,3.06 0,0 5.67,2.5 22.42,0.95 16.75,-1.55 25.03,-12.96 27.38,-18.02 3.14,-6.78 3.54,-10.39 3.54,-10.39 0,0 -0.92,-2.48 -1.34,-3.47 z M 96.65,73.21 C 92.41,75.88 81.45,78.7 79.47,77.64 77.89,76.79 75.53,63.7 74.4,57.86 73.68,54.12 71.95,48.44 72.99,46.67 c 0.7,-1.2 4.79,-2.99 7.81,-4.4 2.87,-1.33 6.97,-3.13 8.17,-2.99 1.7,0.2 5.35,6.12 9.01,11.19 3.66,5.07 7.67,10.35 7.74,12.18 0.09,1.84 -4.7,7.82 -9.07,10.56 z"
     id="path5494"
     inkscape:label="Shell Lines" /><path
     class="cls-3"
     d="m 23.480943,20.757531 5.517576,24.875425 a 57,57 0 0 0 43.69069,19.737299 12.72,12.72 0 0 0 7.007399,-1.380168 48.72,48.72 0 0 1 -25.581941,14.800838 47.57,47.57 0 0 1 -17.666986,0.425807 l 1.299272,5.857636 A 67.05,67.05 0 0 0 56.798735,82.671785 48.33,48.33 0 0 0 66.736816,78.66466 C 60.476654,85.768834 50.978561,90.743641 39.543179,93.218646 l 1.067569,4.813024 c 1.140037,-0.170926 2.229095,-0.340786 3.361571,-0.591979 a 56.07,56.07 0 0 0 42.30702,-41.639388 l 0.04889,-0.195218 a 2.56,2.56 0 0 1 0.05542,-0.258125 c 0.01516,0.06834 0.03032,0.136678 0.04547,0.205017 a 48.11,48.11 0 0 1 -7.404076,30.855441 52.2,52.2 0 0 1 -3.121196,4.400288 l 17.094532,-3.79171 A 52.51,52.51 0 0 0 85.957794,46.038305 61.62,61.62 0 0 1 106.66619,83.98436 l 12.00816,-2.663508 A 55.94,55.94 0 0 0 76.878357,40.062628 l -0.142074,-0.04019 -0.612777,-0.1304 -0.323198,-0.07172 v 0 a 13.1,13.1 0 0 0 -2.351461,-0.16471 48.94,48.94 0 0 1 36.129273,1.256178 L 106.15237,25.467161 A 53.93,53.93 0 0 0 94.725098,26.639502 56.83,56.83 0 0 0 65.767311,42.475935 13,13 0 0 0 62.527015,46.339274 49.12,49.12 0 0 1 102.05214,6.8431474 L 101.30939,3.4945325 81.901092,7.7994549 A 59.75,59.75 0 0 0 66.447002,24.205234 67.27,67.27 0 0 1 73.290368,9.7093852 L 66.407647,11.23603 a 57,57 0 0 0 -5.313449,43.328682 q 0.08445,0.380746 0.168906,0.761493 A 12.72,12.72 0 0 0 64.623085,61.515472 49.22,49.22 45 0 1 42.557798,40.033905 48.39,48.39 0 0 1 37.147694,17.674916 Z M 71.70122,43.044464 a 9.74,9.74 0 1 1 -1.406537,18.595811 7.6,7.6 0 0 0 3.569564,0.06866 7.79,7.79 0 0 0 -2.068875,-15.376848 6.4,6.4 0 0 1 3.921406,4.518039 6.34,6.34 0 0 1 -10.834632,5.599041 9.72,9.72 0 0 1 6.814743,-13.424224 z"
     id="path10792"
     style="fill:#e5e5e5;fill-opacity:1"
     inkscape:label="HOLE"
     clip-path="url(#clipPath10916)" /><path
     style="display:inline;fill:#0b0d0f;fill-opacity:1"
     d="m 112.7,59.21 c 0,0 3.94,-2.21 4.93,-2.77 0.99,-0.56 4.6,-2.82 5.91,-0.84 0.77,1.16 -0.7,4.44 -3.05,7.86 -2.14,3.13 -7.12,9.56 -7.4,10.83 -0.28,1.27 1.11,6.36 1.53,8.33 0.42,1.97 1.74,6.71 1.17,8.54 -0.57,1.83 -3.43,6.85 -10.75,6.76 -5.82,-0.07 -7.51,-1.78 -7.7,-2.82 -0.14,-0.75 -0.56,-3.24 -0.56,-3.24 0,0 -4.79,2.96 -7.04,4.08 -2.25,1.12 -8.31,4.22 -8.31,4.22 0,0 1.17,5.35 1.36,7.51 0.19,2.16 0.86,5.25 -0.28,7.32 -1.03,1.88 -4.25,5.02 -11.83,4.97 -5.92,-0.04 -7.41,-1.88 -8.35,-3 -0.94,-1.13 -1.13,-6.48 -1.13,-7.6 0,-1.12 -0.19,-5.07 -0.19,-5.07 0,0 -8.02,-0.4 -12.86,-0.75 -4.38,-0.32 -10.16,-0.99 -10.16,-0.99 0,0 0.21,2.33 0.42,4.01 0.19,1.5 0.23,4.64 -1.34,6.17 -2.11,2.06 -7.56,2.21 -10.56,1.92 -3,-0.28 -7.18,-1.83 -8.4,-4.55 -1.22,-2.72 0.38,-6.29 1.03,-8.35 0.58,-1.81 1.6,-4.41 1.22,-5.16 -0.38,-0.75 -4.04,-1.69 -9.29,-6.95 -5.26,-5.26 -12.13,-23.52 3.28,-36.23 15.49,-12.76 43.81,1.1 45.31,2.04 1.54,0.96 53.04,3.76 53.04,3.76 z"
     id="path6561"
     inkscape:label="Skin"
     clip-path="url(#clipath_lpe_path-effect6571)"
     inkscape:path-effect="#path-effect6571"
     inkscape:original-d="m 112.7,59.21 c 0,0 3.94,-2.21 4.93,-2.77 0.99,-0.56 4.6,-2.82 5.91,-0.84 0.77,1.16 -0.7,4.44 -3.05,7.86 -2.14,3.13 -7.12,9.56 -7.4,10.83 -0.28,1.27 1.11,6.36 1.53,8.33 0.42,1.97 1.74,6.71 1.17,8.54 -0.57,1.83 -3.43,6.85 -10.75,6.76 -5.82,-0.07 -7.51,-1.78 -7.7,-2.82 -0.14,-0.75 -0.56,-3.24 -0.56,-3.24 0,0 -4.79,2.96 -7.04,4.08 -2.25,1.12 -8.31,4.22 -8.31,4.22 0,0 1.17,5.35 1.36,7.51 0.19,2.16 0.86,5.25 -0.28,7.32 -1.03,1.88 -4.25,5.02 -11.83,4.97 -5.92,-0.04 -7.41,-1.88 -8.35,-3 -0.94,-1.13 -1.13,-6.48 -1.13,-7.6 0,-1.12 -0.19,-5.07 -0.19,-5.07 0,0 -8.02,-0.4 -12.86,-0.75 -4.38,-0.32 -10.16,-0.99 -10.16,-0.99 0,0 0.21,2.33 0.42,4.01 0.19,1.5 0.23,4.64 -1.34,6.17 -2.11,2.06 -7.56,2.21 -10.56,1.92 -3,-0.28 -7.18,-1.83 -8.4,-4.55 -1.22,-2.72 0.38,-6.29 1.03,-8.35 0.58,-1.81 1.6,-4.41 1.22,-5.16 -0.38,-0.75 -4.04,-1.69 -9.29,-6.95 -5.26,-5.26 -12.13,-23.52 3.28,-36.23 15.49,-12.76 43.81,1.1 45.31,2.04 1.54,0.96 53.04,3.76 53.04,3.76 z" /><path
     style="display:inline;fill:#e5e5e5;fill-opacity:1"
     d="m 41.18,65.86 c 0.5,2.83 -0.95,5.75 -4.07,6.02 -2.56,0.22 -4.59,-1.57 -5.09,-4.4 -0.5,-2.83 1.14,-5.49 3.68,-5.94 2.52,-0.45 4.98,1.48 5.48,4.32 z"
     id="path6563"
     inkscape:label="Right Eye" /><path
     style="display:inline;fill:#e5e5e5;fill-opacity:1"
     d="m 22.82,66.11 c 0.07,2.84 -2.42,5.69 -5.5,5.11 -2.53,-0.48 -3.99,-2.73 -3.71,-5.55 0.29,-2.82 2.59,-4.9 5.15,-4.65 2.56,0.25 3.99,2.13 4.06,5.09 z"
     id="path6565"
     inkscape:label="Left Eye" /><path
     style="display:inline;fill:#e5e5e5;fill-opacity:0.98823529"
     d="m 30.77,76.59 c 1.16,-0.79 3.1,-2.67 4.36,-1.06 1.27,1.62 -0.92,3.1 -2.18,4.01 -1.27,0.92 -4.08,3.17 -6.12,3.17 -1.9,0 -4.79,-2.32 -6.62,-3.87 -1.49,-1.26 -2.18,-2.89 -1.34,-3.87 0.84,-0.98 2.14,-0.62 3.24,0.35 1.27,1.13 3.72,3.38 4.72,3.38 0.98,0.01 2.39,-1.05 3.94,-2.11 z"
     id="path6567"
     inkscape:label="Smile" /></g>
</svg>
