<?xml version="1.0" encoding="UTF-8" standalone="no"?>
<svg
   width="36.994862mm"
   height="43.007187mm"
   viewBox="0 0 104.87543 121.91453"
   version="1.1"
   id="svg4565"
   xmlns="http://www.w3.org/2000/svg"
   xmlns:svg="http://www.w3.org/2000/svg">
  <defs
     id="defs4529">
    <style
       id="style4527">
      .cls-1 {
        fill: #a11922;
      }

      .cls-2 {
        fill: #bf1a32;
      }

      .cls-3 {
        fill: #eb5e1e;
      }

      .cls-4 {
        fill: #ed9c44;
      }

      .cls-5 {
        fill: #593037;
      }

      .cls-6 {
        fill: #2b2c29;
      }
    </style>
  </defs>
  <g
     id="Layer_2"
     data-name="Layer 2"
     transform="translate(-0.01138548,1.7429479)">
    <g
       id="grid">
      <g
         id="ml_copy"
         data-name="ml copy">
        <g
           id="crabs">
          <g
             id="g4559">
            <g
               id="g4537">
              <path
                 class="cls-1"
                 d="m 19.76,46.63 a 4.88,4.88 0 1 1 8.6,-4.6 c 1.27,2.37 8.75,15.53 6.38,16.8 C 32.37,60.1 21,49 19.76,46.63 Z"
                 id="path4531" />
              <path
                 class="cls-1"
                 d="M 21.8,41.18 C 25.91,49.39 45,29.88 45.73,21.36 46.46,12.84 44,9.38 42.82,8.61 41.64,7.84 43.53,12.69 40.1,18.32 37.39,22.79 19,35.5 21.8,41.18 Z"
                 id="path4533" />
              <path
                 class="cls-2"
                 d="M 22.79,41.65 C 13.86,43.86 20.08,18.39 26.1,12.32 32.12,6.25 39.05,5.86 40.39,6.25 c 1.34,0.39 -2.82,7.68 -4.15,12.33 -0.67,2.36 -7.3,21.55 -13.45,23.07 z"
                 id="path4535" />
            </g>
            <path
               class="cls-3"
               d="m 95.19,64.84 4.27,-2.63 c 0.86,-0.53 4,-2.67 5.21,-1 0.73,1 -0.46,4 -2.42,7.09 -1.79,2.85 -6,8.73 -6.18,9.87 -0.18,1.14 1.21,5.6 1.65,7.33 0.44,1.73 1.78,5.89 1.34,7.54 -0.44,1.65 -2.8,6.2 -9.3,6.38 -5.16,0.14 -6.72,-1.31 -6.93,-2.23 -0.15,-0.66 -0.61,-2.85 -0.61,-2.85 0,0 -4.14,2.79 -6.1,3.87 -1.96,1.08 -7.22,4 -7.22,4 0,0 1.22,4.71 1.47,6.62 0.25,1.91 0.95,4.63 0,6.5 -0.85,1.71 -3.59,4.61 -10.32,4.83 -5.25,0.18 -6.64,-1.4 -7.51,-2.36 -0.87,-0.96 -1.24,-5.71 -1.28,-6.7 -0.04,-0.99 -0.35,-4.5 -0.35,-4.5 0,0 -7.13,-0.07 -11.43,-0.2 -3.9,-0.13 -9,-0.52 -9,-0.52 0,0 0.27,2.06 0.51,3.54 0.23,1.32 0.37,4.11 -1,5.52 -1.79,1.91 -6.63,2.23 -9.3,2.08 -2.67,-0.15 -6.43,-1.37 -7.61,-3.74 -1.18,-2.37 0.11,-5.59 0.62,-7.44 0.45,-1.63 1.26,-4 0.89,-4.62 C 14.22,100.6 10.95,99.86 6.11,95.38 1.27,90.9 -5.5,75 7.72,63.19 c 13.22,-11.81 38.91,-0.58 40.27,0.2 1.36,0.78 47.2,1.45 47.2,1.45 z"
               id="path4539" />
            <path
               class="cls-4"
               d="m 53.5,36.36 c -12.12,1 -21,7.67 -25.23,14.7 a 59.15,59.15 0 0 0 -3.78,7.18 19.64,19.64 0 0 1 8.07,1.92 C 37,62.4 42.18,64.82 46,76.1 c 2.85,8.52 4.14,16.67 10.72,18.22 7.45,1.74 24.6,0 32.49,-8.59 7.89,-8.59 9.23,-15 6.82,-23.05 C 93.62,54.63 83.6,40.41 70.37,37.09 64.66,35.66 59,35.88 53.5,36.36 Z"
               id="path4541" />
            <path
               class="cls-5"
               d="M 94.22,57.87 C 93.81,57 93,55.7 93,55.7 c 0,0 0,1.82 -0.11,2.78 -0.19,1.57 -0.92,4.86 -1.43,4.4 A 107.43,107.43 0 0 1 84,54.08 c -1.6,-2.17 -7.06,-7.81 -7.26,-9.71 a 19.37,19.37 0 0 1 1,-4.17 L 75.6,39.09 c -0.79,-0.4 -2,-0.84 -2,-0.84 0,0 -0.51,4.38 -1.23,5.23 -0.72,0.85 -4.63,2.52 -7.73,3.81 -3.75,1.59 -7.36,3.61 -8.73,3.91 -1.2,0.27 -8.11,-0.93 -10.72,-1.32 -3.27,-0.49 -8.22,-1.68 -9.38,-2.44 A 13.7,13.7 0 0 1 33,44.19 c 0,0 -0.77,0.57 -1.53,1.23 a 15,15 0 0 0 -1.72,1.9 c 0,0 2.13,2 2.28,2.73 0.2,1.06 -1,2.56 -2,4 -0.61,0.86 -2.27,4.41 -2.27,4.41 a 6.34,6.34 0 0 1 1.93,0.48 c 1.11,0.46 2.16,0.94 2.16,0.94 0,0 2.39,-6.22 4.08,-6.85 1.44,-0.54 5.62,0.65 8.64,1.15 4.29,0.71 8.62,1.32 9.58,2.44 0.96,1.12 2.06,5.85 3.08,9.82 1.12,4.34 4,15.62 3.48,16.51 -0.52,0.89 -5,0.76 -7.61,0.56 a 33.43,33.43 0 0 1 -5.75,-1.34 c 0,0 0.59,1.85 0.78,2.34 0.27,0.71 1.13,2.68 1.13,2.68 0,0 5.12,2 19.93,0 14.81,-2 21.75,-12.38 23.65,-17 2.55,-6.12 2.77,-9.34 2.77,-9.34 0,0 -0.98,-2.12 -1.39,-2.98 z m -12.78,20 c -3.66,2.52 -13.29,5.41 -15.08,4.54 -1.44,-0.69 -4,-12.22 -5.2,-17.37 -0.78,-3.29 -2.51,-8.27 -1.65,-9.87 0.58,-1.09 4.14,-2.83 6.77,-4.19 2.63,-1.36 6.07,-3 7.14,-2.94 1.52,0.12 5,5.24 8.39,9.61 3.39,4.37 7.18,8.91 7.3,10.53 0.12,1.62 -3.89,7.07 -7.67,9.65 z"
               id="path4543" />
            <path
               class="cls-6"
               d="m 32,73.28 c 0.54,2.49 -0.64,5.14 -3.4,5.49 -2.27,0.28 -4.13,-1.23 -4.67,-3.73 a 4.39,4.39 0 0 1 3.07,-5.4 4.4,4.4 0 0 1 5,3.64 z"
               id="path4545" />
            <path
               class="cls-6"
               d="m 15.68,74.16 c 0.17,2.51 -1.94,5.13 -4.69,4.72 C 8.72,78.55 7.35,76.6 7.5,74.09 a 4.37,4.37 0 0 1 4.4,-4.31 c 2.28,0.13 3.62,1.75 3.78,4.38 z"
               id="path4547" />
            <path
               class="cls-6"
               d="m 23.11,83.17 c 1,-0.74 2.66,-2.48 3.83,-1.09 1.17,1.39 -0.7,2.78 -1.79,3.63 -1.09,0.85 -3.51,3 -5.32,3 -1.81,0 -4.33,-1.89 -6,-3.2 -1.37,-1.06 -2,-2.48 -1.33,-3.38 0.67,-0.9 1.88,-0.63 2.89,0.19 1.17,1 3.42,2.87 4.31,2.83 0.89,-0.04 2.07,-0.98 3.41,-1.98 z"
               id="path4549" />
            <g
               id="g4557">
              <path
                 class="cls-1"
                 d="M 100.14,49.54 A 6.46,6.46 0 1 0 88,45.13 c -1.21,3.35 -8.53,22 -5.17,23.25 3.36,1.25 16.1,-15.49 17.31,-18.84 z"
                 id="path4551" />
              <path
                 class="cls-1"
                 d="M 96.43,42.77 C 92.6,54.33 63.84,32.36 61.28,21.33 c -2.56,-11.03 0,-16 1.4,-17.28 1.4,-1.28 -0.15,5.49 5.42,12.23 4.4,5.34 30.97,18.51 28.33,26.49 z"
                 id="path4553" />
              <path
                 fill="#aa8dd8"
                 d="m 80.154801,11.299986 c 0.279799,0.532134 0.356428,1.170877 0.165161,1.793224 -0.608953,1.960939 -1.637091,3.513634 -2.970196,4.478894 -1.411363,1.021933 -3.098226,1.330244 -4.634233,0.854765 -2.693804,-0.836217 -4.681805,-4.091854 -3.25215,-8.7040421 0.554714,-1.7940035 0.124972,-2.7249112 -0.1492,-2.8073166 C 69.040911,6.828496 68.158435,7.3540618 67.601409,9.1476211 66.992457,11.10856 65.964328,12.66125 64.631214,13.626515 63.219851,14.648448 61.53208,14.961382 59.99698,14.48128 57.300869,13.644603 55.315175,10.389418 56.741616,5.7813982 57.146038,4.4738086 57.008875,3.7152624 56.889235,3.3823848 56.790173,3.1159209 56.667757,2.9936191 56.591034,2.9689905 56.319166,2.8870326 55.438503,3.4033769 54.880567,5.201555 54.493866,6.4430428 53.174843,7.1399569 51.933359,6.7532599 50.691425,6.3688697 49.996363,5.0526064 50.381657,3.8060472 c 1.426443,-4.60801764 4.906462,-6.1730874 7.604882,-5.3359576 2.696111,0.83667079 4.681805,4.0918538 3.252149,8.7040418 -0.406738,1.3071408 -0.266352,2.0615124 -0.146715,2.3943895 0.09632,0.2683103 0.218707,0.3906319 0.295918,0.4129183 0.273274,0.087025 1.154842,-0.4339401 1.712781,-2.2321165 1.428748,-4.6075651 4.906453,-6.1730825 7.604876,-5.3359653 2.696112,0.8366724 4.684112,4.0923088 3.250741,8.6989706 -0.40443,1.307595 -0.264952,2.066591 -0.145306,2.399462 0.09669,0.266033 0.219156,0.388322 0.295917,0.412917 0.274176,0.08241 1.155749,-0.43855 1.712776,-2.232109 0.384397,-1.241939 1.705734,-1.9384066 2.947219,-1.551707 0.623307,0.19865 1.105829,0.626478 1.387946,1.159056 z"
                 id="path12881"
                 style="stroke-width:2.35449" />
              <path
                 class="cls-2"
                 d="m 95.23,43.58 c 12.12,1.2 -0.87,-31 -9.91,-37.84 -9.04,-6.84 -18.21,-6.01 -19.9,-5.25 -1.69,0.76 5.16,9.51 7.78,15.39 1.34,2.97 13.66,26.87 22.03,27.7 z"
                 id="path4555" />
            </g>
          </g>
        </g>
      </g>
    </g>
  </g>
  <g
     id="g8739"
     transform="matrix(1.2332587,-0.32565198,0.32565198,1.2332587,-35.7396,28.902242)">
    <path
       fill="#dd2e44"
       d="m 50.008438,43.57252 c 0.01096,-0.09019 -0.0233,-0.184885 -0.08113,-0.280885 0,0 -11.659764,-19.349415 -12.931632,-19.49999 -1.271976,-0.148614 -17.095745,15.975997 -17.095745,15.975997 -0.07949,0.08048 -0.134418,0.163293 -0.144433,0.25454 -0.149097,1.263066 6.503563,3.079506 14.856939,4.060565 8.355344,0.981168 15.246902,0.752838 15.396001,-0.510227 z"
       id="path5268"
       style="stroke-width:1.39378" />
    <path
       fill="#ea596e"
       d="m 36.910444,23.815538 c -0.0451,0.01226 -0.09976,0.0369 -0.16307,0.07485 -1.27625,1.439349 -11.565988,13.519252 -14.338925,17.790308 2.168665,0.745234 4.657846,1.24669 7.662388,1.763932 1.414869,-3.989147 7.721325,-18.904972 6.83961,-19.629086 z"
       id="path5270"
       style="stroke-width:1.39378" />
  </g>
  <g
     id="g9662"
     transform="matrix(0.41684442,0.90892255,-0.90892255,0.41684442,64.215918,-17.979141)">
    <path
       fill="#77b255"
       d="m 79.141515,54.231549 c 2.94555,-3.824385 6.752184,-4.075514 8.987064,-2.348256 2.23349,1.725365 2.95958,5.472262 0.0131,9.291443 -1.1515,1.489922 -1.07099,2.509816 -0.84804,2.687344 0.23146,0.177053 1.2414,-0.0075 2.38912,-1.494654 2.94509,-3.821073 6.75311,-4.070328 8.988,-2.34307 2.238651,1.72445 2.958161,5.470374 0.01,9.290961 -1.14821,1.490409 -1.06818,2.513594 -0.83957,2.686909 0.22535,0.172797 1.23621,-0.0066 2.385831,-1.49514 0.79214,-1.026145 2.27167,-1.22248 3.29922,-0.428448 1.02847,0.799214 1.21869,2.274478 0.42418,3.305322 -2.94461,3.817772 -6.750301,4.074107 -8.991771,2.34588 -2.23347,-1.725373 -2.95487,-5.46989 -0.009,-9.294255 1.15151,-1.489922 1.07099,-2.509816 0.84237,-2.683129 -0.22484,-0.176113 -1.23572,0.0033 -2.38345,1.49044 -2.94887,3.823878 -6.75219,4.075512 -8.991774,2.34588 -2.23396,-1.722074 -2.95536,-5.466595 -0.008,-9.292367 1.14913,-1.485224 1.0644,-2.510783 0.84237,-2.683126 -0.23005,-0.175161 -1.23762,0.0047 -2.38864,1.491359 -0.7931,1.032731 -2.26977,1.22107 -3.29921,0.428447 -1.02755,-0.794031 -1.2187,-2.274481 -0.42137,-3.30154 z"
       id="path9165"
       style="stroke-width:2.35461" />
    <circle
       fill="#5c913b"
       cx="58.747116"
       cy="-0.94710302"
       r="3.5319221"
       id="circle9167"
       style="stroke-width:2.35461" />
    <circle
       fill="#9266cc"
       cx="40.227501"
       cy="33.308411"
       r="4.7092295"
       id="circle9169"
       style="stroke-width:2.35461" />
    <circle
       fill="#9266cc"
       cx="30.766478"
       cy="76.988037"
       r="4.7092295"
       id="circle9171"
       style="stroke-width:2.35461" />
    <circle
       fill="#5c913b"
       cx="11.448915"
       cy="43.715626"
       r="3.5319221"
       id="circle9173"
       style="stroke-width:2.35461" />
    <circle
       fill="#5c913b"
       cx="81.528595"
       cy="29.737671"
       r="3.5319221"
       id="circle9175"
       style="stroke-width:2.35461" />
    <circle
       fill="#ffcc4d"
       cx="87.322151"
       cy="95.179077"
       r="4.7092295"
       id="circle9177"
       style="stroke-width:2.35461" />
    <circle
       fill="#ffcc4d"
       cx="119.86297"
       cy="47.900299"
       r="3.5319221"
       id="circle9179"
       style="stroke-width:2.35461" />
    <circle
       fill="#ffcc4d"
       cx="31.997395"
       cy="-2.7088883"
       r="3.5319221"
       id="circle9181"
       style="stroke-width:2.35461" />
    <path
       fill="#77b255"
       d="m 58.354299,70.712506 c -4.767344,0.75804 -7.707337,-1.672963 -8.146257,-4.463209 -0.439198,-2.787907 1.605507,-6.010581 6.369959,-6.764224 1.860166,-0.292614 2.501881,-1.089398 2.461677,-1.371543 -0.04667,-0.287652 -0.907721,-0.846855 -2.763208,-0.553689 -4.76473,0.75598 -7.704447,-1.677363 -8.143367,-4.467608 -0.443598,-2.790798 1.605231,-6.008244 6.372023,-6.761611 1.858102,-0.295227 2.502434,-1.094076 2.455214,-1.377051 -0.04516,-0.280358 -0.90332,-0.843963 -2.761145,-0.551074 -1.280467,0.202177 -2.490938,-0.670929 -2.692833,-1.953725 -0.199002,-1.287204 0.675604,-2.490387 1.961019,-2.694344 4.762113,-0.753915 7.704996,1.672691 8.148044,4.468164 0.439199,2.787903 -1.607294,6.005629 -6.374637,6.76367 -1.860165,0.292613 -2.501881,1.089398 -2.454662,1.372372 0.04254,0.282422 0.900707,0.846026 2.756194,0.552859 4.769406,-0.755429 7.707338,1.672964 8.148047,4.468162 0.441815,2.785848 -1.604684,6.003566 -6.374365,6.761333 -1.855211,0.290828 -2.497756,1.094627 -2.45466,1.372373 0.04695,0.285312 0.903044,0.846303 2.760594,0.555749 1.285691,-0.206292 2.488596,0.67065 2.692832,1.95373 0.201891,1.282799 -0.675609,2.490386 -1.960469,2.689666 z"
       id="path9584"
       style="stroke-width:2.35461" />
    <path
       fill="#aa8dd8"
       d="m 106.66487,9.7114844 c 0.46153,-0.385327 1.06997,-0.594387 1.71864,-0.538068 2.04519,0.183599 3.77925,0.8627886 5.003,1.9635306 1.29558,1.165354 1.95128,2.749946 1.80895,4.351631 -0.25191,2.809478 -3.01763,5.436945 -7.82744,5.007671 -1.87058,-0.165629 -2.69053,0.450044 -2.71352,0.735425 -0.0277,0.285467 0.6715,1.037938 2.54214,1.205919 2.04518,0.183599 3.77925,0.862789 5.00299,1.963531 1.29558,1.165355 1.95599,2.74986 1.80895,4.351632 -0.25187,2.81183 -3.01763,5.436943 -7.82269,5.009937 -1.36343,-0.120831 -2.07629,0.172583 -2.37663,0.359465 -0.23974,0.152816 -0.33362,0.298187 -0.34156,0.378401 -0.023,0.283028 0.66676,1.035667 2.5421,1.203565 1.29507,0.117383 2.25349,1.260708 2.1361,2.555777 -0.11503,1.295025 -1.25604,2.251043 -2.55578,2.136103 -4.80505,-0.427007 -7.066123,-3.500935 -6.814293,-6.315122 0.25186,-2.811829 3.017623,-5.436943 7.827433,-5.007669 1.36348,0.123185 2.07158,-0.172496 2.37193,-0.359378 0.24212,-0.150518 0.33601,-0.295874 0.3416,-0.376047 0.0277,-0.285468 -0.66681,-1.038022 -2.54214,-1.205919 -4.8051,-0.429361 -7.066123,-3.500934 -6.814303,-6.315119 0.251873,-2.811832 3.017593,-5.439299 7.822773,-5.00523 1.36343,0.120831 2.07625,-0.174936 2.37659,-0.36182 0.23981,-0.150409 0.33366,-0.295832 0.3416,-0.376045 0.023,-0.285383 -0.6715,-1.037939 -2.54214,-1.205921 -1.29502,-0.115028 -2.25348,-1.260705 -2.1361,-2.555777 0.0633,-0.651155 0.38031,-1.212792 0.8418,-1.6004726 z"
       id="path9586"
       style="stroke-width:2.35461" />
  </g>
</svg>
