<?xml version="1.0" encoding="UTF-8" standalone="no"?>
<svg
   width="48.651081mm"
   height="37.520954mm"
   viewBox="0 0 137.90306 106.37412"
   version="1.1"
   id="svg46"
   xmlns="http://www.w3.org/2000/svg"
   xmlns:svg="http://www.w3.org/2000/svg">
  <defs
     id="defs4">
    <style
       id="style2">
      .cls-1 {
        fill: #794897;
      }

      .cls-2 {
        fill: #5d913b;
      }

      .cls-3 {
        fill: #de2f45;
      }

      .cls-4 {
        fill: #fecc50;
      }

      .cls-5 {
        fill: #a11922;
      }

      .cls-6 {
        fill: #c16a4f;
      }

      .cls-7 {
        fill: #5fa9de;
      }

      .cls-8 {
        fill: #2a3034;
      }

      .cls-9 {
        fill: #2b2c29;
      }

      .cls-10 {
        fill: #74c8da;
        fill-rule: evenodd;
      }
    </style>
  </defs>
  <g
     id="Layer_2"
     data-name="Layer 2"
     transform="translate(-0.01292616,29.719904)">
    <g
       id="grid">
      <g
         id="wl_copy"
         data-name="wl copy">
        <g
           id="dale">
          <g
             id="g40">
            <path
               class="cls-1"
               d="m 116.15,21.25 4.28,-2.63 c 0.86,-0.53 4,-2.67 5.21,-1 0.73,1 -0.46,4 -2.42,7.08 -1.79,2.86 -6,8.74 -6.19,9.88 -0.19,1.14 1.22,5.6 1.66,7.33 0.44,1.73 1.78,5.89 1.34,7.54 -0.44,1.65 -2.8,6.2 -9.3,6.38 -5.16,0.14 -6.72,-1.31 -6.93,-2.23 -0.15,-0.66 -0.61,-2.86 -0.61,-2.86 0,0 -4.15,2.8 -6.1,3.87 -1.95,1.07 -7.23,4 -7.23,4 0,0 1.23,4.71 1.48,6.62 0.25,1.91 1,4.63 0,6.5 -0.85,1.71 -3.59,4.61 -10.32,4.83 -5.26,0.18 -6.64,-1.4 -7.52,-2.36 -0.88,-0.96 -1.23,-5.71 -1.27,-6.7 -0.04,-0.99 -0.35,-4.5 -0.35,-4.5 0,0 -7.13,-0.07 -11.43,-0.2 -3.9,-0.13 -9.05,-0.52 -9.05,-0.52 0,0 0.27,2.06 0.51,3.54 0.22,1.32 0.37,4.11 -1,5.52 -1.8,1.91 -6.63,2.23 -9.3,2.08 -2.67,-0.15 -6.39,-1.29 -7.61,-3.66 -1.22,-2.37 0.11,-5.59 0.61,-7.44 0.45,-1.63 1.27,-4 0.9,-4.62 C 35.14,57.08 31.87,56.34 27.02,51.86 22.17,47.38 15.47,31.42 28.69,19.6 41.91,7.78 67.6,19 69,19.8 c 1.4,0.8 47.15,1.45 47.15,1.45 z"
               id="path6" />
            <g
               id="g26">
              <path
                 class="cls-2"
                 d="m 133,43 -7.58,1.67 -2.87,-31.15 7.58,-1.67 z"
                 id="path8" />
              <path
                 class="cls-3"
                 d="M 0.93,20.4 C 35.3,13.06 43.46,15 67,13.83 a 269.49,269.49 0 0 0 42.53,-5.37 c 7.58,-1.66 16,0.46 18.49,11.83 1.66,7.58 4.67,11.64 -17.42,19 -14.72,4.89 -56.72,5.24 -73.55,1 C 11.84,33.9 -2.86,21.21 0.93,20.4 Z"
                 id="path10" />
              <path
                 class="cls-4"
                 d="M 15.26,13.28 C 30.42,10 57,4.12 84.32,2.09 c 27.32,-2.03 38.73,-4.54 40.4,3 l 2.49,11.37 c 1.18,5.36 -25.66,7.42 -37.9,8.33 -27.36,2 -55.56,0.28 -71.55,-0.18 -16.18,-0.42 -29.03,-5.5 -2.5,-11.33 z"
                 id="path12" />
              <path
                 class="cls-5"
                 d="m 121.69,34.89 c 7.59,-3.81 8,-7 7.2,-11 -4.28,3.4 -13.76,4.29 -22.27,5.08 a 529.51,529.51 0 0 1 -98.37,-0.68 94.26,94.26 0 0 0 20.21,9.4 524.78,524.78 0 0 0 78.86,-1 135.71,135.71 0 0 0 14.37,-1.8 z"
                 id="path14" />
              <path
                 class="cls-2"
                 d="m 127.68,0.51 -3.79,0.83 A 7.76,7.76 0 0 0 118,10.59 l 3.79,-0.83 a 3.86,3.86 0 0 1 4.62,3 l 0.83,3.79 3.8,-0.83 c 4.18,-0.92 7.66,-1.27 6.74,-5.45 -0.92,-4.18 -5.92,-10.68 -10.1,-9.76 z"
                 id="path16" />
              <path
                 class="cls-6"
                 d="m 112.51,3.84 c 3.88,0.11 1.67,7.58 -1.29,12.2 -2.96,4.62 -38.73,4.54 -38.73,4.54 l 5.08,-13 c 0,0 18.95,-4.2 34.94,-3.74 z"
                 id="path18" />
              <path
                 class="cls-5"
                 d="m 111.22,16 a 25.18,25.18 0 0 0 2.45,-5 C 107.45,9.28 98.76,8.72 89.25,9.7 a 87.15,87.15 0 0 0 -13.48,2.45 l -3.28,8.43 c 0,0 35.77,0.09 38.73,-4.58 z"
                 id="path20" />
              <path
                 class="cls-7"
                 d="m 77.57,7.54 -0.83,-3.79 -14.33,7.12 -5.92,9.25 16,0.46 z"
                 id="path22" />
              <path
                 class="cls-8"
                 d="M 84.32,2.09 C 82.22,2.55 81.65,8 83,14.29 a 29.49,29.49 0 0 0 2,6.14 44.66,44.66 0 0 0 6.26,-0.27 28.35,28.35 0 0 0 -0.69,-7.54 C 89.23,6.35 86.41,1.63 84.32,2.09 Z"
                 id="path24" />
            </g>
            <path
               class="cls-1"
               d="m 84.47,50 a 32.45,32.45 0 0 1 -7.6,-0.57 C 70.19,48 68.88,40 66,31.67 62.17,20.67 56.92,18.29 52.39,16.1 a 20.59,20.59 0 0 0 -8.21,-1.86 v 0 c -5.63,0.13 -11.21,1.54 -15.5,5.38 -13.22,11.82 -6.48,27.78 -1.63,32.26 4.85,4.48 8.14,5.12 8.5,5.82 0.36,0.7 -0.45,3 -0.9,4.62 -0.5,1.85 -1.79,5.07 -0.61,7.44 1.18,2.37 4.94,3.6 7.61,3.74 2.67,0.14 7.5,-0.17 9.3,-2.08 1.34,-1.41 1.19,-4.2 1,-5.52 -0.24,-1.48 -0.51,-3.54 -0.51,-3.54 0,0 5.15,0.39 9.05,0.52 4.3,0.13 11.43,0.2 11.43,0.2 0,0 0.31,3.5 0.35,4.5 0.04,1 0.4,5.73 1.27,6.7 0.87,0.97 2.26,2.54 7.52,2.36 a 19.91,19.91 0 0 0 3.44,-0.39 z"
               id="path28" />
            <path
               class="cls-9"
               d="m 52.93,29.69 c 0.55,2.49 -0.64,5.14 -3.39,5.49 -2.27,0.28 -4.13,-1.23 -4.68,-3.73 a 4.4,4.4 0 0 1 3.06,-5.4 4.39,4.39 0 0 1 5.01,3.64 z"
               id="path30" />
            <path
               class="cls-9"
               d="m 36.65,30.57 c 0.17,2.51 -1.94,5.13 -4.7,4.72 C 29.69,35 28.32,33 28.47,30.5 a 4.37,4.37 0 0 1 4.4,-4.31 c 2.28,0.13 3.62,1.75 3.78,4.38 z"
               id="path32" />
            <path
               class="cls-9"
               d="m 44.08,39.58 c 1,-0.74 2.65,-2.48 3.83,-1.09 1.18,1.39 -0.71,2.78 -1.79,3.63 -1.08,0.85 -3.51,3 -5.32,3 -1.81,0 -4.33,-1.89 -6,-3.2 -1.37,-1.06 -2,-2.48 -1.33,-3.38 0.67,-0.9 1.88,-0.63 2.89,0.19 1.17,1 3.42,2.87 4.31,2.83 0.89,-0.04 2.07,-0.98 3.41,-1.98 z"
               id="path34" />
            <path
               class="cls-10"
               d="m 60.556012,26.025893 c -0.58,-0.57 -7.31,-1 -14.54,-0.13 a 25.11,25.11 0 0 1 -5.4,0.62 25.2,25.2 0 0 1 -5.42,-0.49 c -7.25,-0.71 -14,-0.13 -14.53,0.44 a 1.82,1.82 0 0 0 0,1.71 c 0.29,0.28 1.73,1.12 2,2 0.27,0.88 0.92,5.68 2.64,7.08 1.72,1.4 8.43,0.83 9.69,0.19 2.89,-1.42 3.17,-5.42 3.66,-7.42 0.27,-1.14 2,-1.16 2,-1.16 0,0 1.71,0 2,1.12 0.52,2 0.92,6 3.78,7.35 1.28,0.62 7.94,1.1 9.69,-0.39 1.75,-1.49 2.21,-6.28 2.48,-7.13 0.27,-0.85 1.7,-1.73 2,-2 a 1.8,1.8 0 0 0 -0.05,-1.79 z m -25.84,9.19 h -8.48 a 5.28,5.28 0 0 1 -0.34,-0.77 h 9.4 a 3.53,3.53 0 0 1 -0.58,0.77 z m 1.13,-2 h -10.36 c -0.07,-0.24 -0.13,-0.49 -0.2,-0.77 h 10.79 c -0.07,0.26 -0.19,0.52 -0.19,0.77 z m 0.62,-2.54 c 0,0.18 -0.07,0.36 -0.11,0.54 h -11.36 l -0.09,-0.4 c 0,-0.14 -0.06,-0.25 -0.08,-0.37 h 11.69 c -0.02,0.08 -0.03,0.15 -0.05,0.23 z m 0.35,-1.46 h -12.36 a 4.28,4.28 0 0 0 -0.47,-0.77 h 13.21 a 3.25,3.25 0 0 0 -0.38,0.77 z m 18.16,6 h -8.09 a 3,3 0 0 1 -0.69,-0.77 h 9.19 a 3.14,3.14 0 0 1 -0.41,0.77 z m 0.81,-2 h -10.23 c -0.09,-0.25 -0.18,-0.51 -0.25,-0.77 h 10.68 c -0.1,0.28 -0.1,0.58 -0.2,0.77 z m 0.62,-2.74 c -0.05,0.26 -0.1,0.5 -0.15,0.74 h -11.27 c -0.05,-0.21 -0.1,-0.43 -0.14,-0.63 v -0.14 h 11.6 z m 0.29,-1.31 v 0.05 h -12.2 a 3.68,3.68 0 0 0 -0.38,-0.77 h 12.92 a 3.38,3.38 0 0 0 -0.34,0.72 z"
               id="path36" />
            <path
               class="cls-3"
               d="m 70.05,43.22 c 1.52,3.17 3.51,5.5 6.82,6.25 7.58,1.69 25,0 33.07,-8.46 0.71,-0.74 1.34,-1.45 1.94,-2.16 l -1.25,0.43 C 102.49,42 86,43.3 70.05,43.22 Z"
               id="path38" />
          </g>
        </g>
      </g>
    </g>
  </g>
  <g
     id="g8739"
     transform="matrix(1.2418596,-0.29152067,0.29152067,1.2418596,-13.785456,10.537256)">
    <path
       fill="#dd2e44"
       d="m 50.368477,44.72262 c 0.01504,-0.0896 -0.0149,-0.185751 -0.06831,-0.284274 0,0 -10.770635,-19.858081 -12.034369,-20.066158 -1.263932,-0.206122 -17.802391,15.184594 -17.802391,15.184594 -0.08306,0.07679 -0.141682,0.157031 -0.155823,0.247731 -0.206201,1.255008 6.357278,3.371158 14.657593,4.729881 8.302277,1.358922 15.197101,1.443233 15.403304,0.188226 z"
       id="path5268"
       style="stroke-width:1.39378" />
    <path
       fill="#ea596e"
       d="m 38.179566,24.392193 c -0.04561,0.0102 -0.10133,0.03234 -0.166295,0.06738 -1.340186,1.380015 -12.16695,12.981047 -15.130651,17.122011 2.132653,0.842777 4.596543,1.456556 7.574549,2.109468 1.59425,-3.920908 8.570383,-18.535517 7.7224,-19.298856 z"
       id="path5270"
       style="stroke-width:1.39378" />
  </g>
  <g
     id="g9662"
     transform="matrix(0.96285988,-0.27006951,0.27006951,0.96285988,-1.148573,38.068375)">
    <path
       fill="#77b255"
       d="m 75.628273,-14.482408 c 0.09167,4.8263642 -2.722455,7.4020308 -5.546587,7.4509785 -2.821857,0.049546 -5.730901,-2.4210625 -5.818605,-7.2439595 -0.03263,-1.882756 -0.733045,-2.628467 -1.01804,-2.627657 -0.29134,0.0065 -0.964218,0.781924 -0.930392,2.660125 0.08999,4.8234896 -2.726414,7.3985602 -5.550548,7.4475076 -2.825325,0.053499 -5.728618,-2.4204683 -5.815728,-7.2456426 -0.03551,-1.881074 -0.737601,-2.629659 -1.024387,-2.622017 -0.283908,0.006 -0.960744,0.777966 -0.927515,2.658444 0.0232,1.296117 -1.008861,2.374263 -2.307258,2.396865 -1.302354,0.01913 -2.373068,-1.01342 -2.397354,-2.314688 -0.0883,-4.820615 2.72186,-7.399754 5.551742,-7.452064 2.821856,-0.04954 5.725745,2.42215 5.817409,7.248518 0.03263,1.882755 0.733045,2.628466 1.01983,2.620822 0.285592,-0.0031 0.962427,-0.775091 0.928602,-2.653291 -0.08879,-4.828045 2.722456,-7.402031 5.55174,-7.452063 2.820176,-0.05242 5.724066,2.419273 5.815134,7.24792 0.03155,1.877603 0.738794,2.625104 1.01983,2.620822 0.289062,-0.0071 0.963024,-0.777369 0.932072,-2.657251 -0.02656,-1.301864 1.008267,-2.371982 2.307259,-2.396864 1.298393,-0.0226 2.373069,1.01342 2.392796,2.313495 z"
       id="path9165"
       style="stroke-width:2.35461" />
    <circle
       fill="#5c913b"
       cx="91.613846"
       cy="47.430138"
       r="3.5319221"
       id="circle9167"
       style="stroke-width:2.35461" />
    <circle
       fill="#9266cc"
       cx="66.705063"
       cy="13.170618"
       r="4.7092295"
       id="circle9169"
       style="stroke-width:2.35461" />
    <circle
       fill="#9266cc"
       cx="108.50014"
       cy="79.974976"
       r="4.7092295"
       id="circle9171"
       style="stroke-width:2.35461" />
    <circle
       fill="#5c913b"
       cx="59.736481"
       cy="47.046932"
       r="3.5319221"
       id="circle9173"
       style="stroke-width:2.35461" />
    <circle
       fill="#5c913b"
       cx="19.854008"
       cy="-18.012087"
       r="3.5319221"
       id="circle9175"
       style="stroke-width:2.35461" />
    <circle
       fill="#ffcc4d"
       cx="96.364853"
       cy="7.9310298"
       r="4.7092295"
       id="circle9177"
       style="stroke-width:2.35461" />
    <circle
       fill="#ffcc4d"
       cx="34.47023"
       cy="68.953568"
       r="3.5319221"
       id="circle9179"
       style="stroke-width:2.35461" />
    <circle
       fill="#ffcc4d"
       cx="28.946676"
       cy="5.1571012"
       r="3.5319221"
       id="circle9181"
       style="stroke-width:2.35461" />
    <path
       fill="#77b255"
       d="m 84.322997,87.607202 c -4.767344,0.75804 -7.707337,-1.672963 -8.146257,-4.463209 -0.439198,-2.787907 1.605507,-6.010581 6.369959,-6.764224 1.860166,-0.292614 2.501881,-1.089398 2.461677,-1.371543 -0.04667,-0.287652 -0.907721,-0.846855 -2.763208,-0.553689 -4.76473,0.75598 -7.704447,-1.677363 -8.143367,-4.467608 -0.443598,-2.790798 1.605231,-6.008244 6.372023,-6.761611 1.858102,-0.295227 2.502434,-1.094076 2.455214,-1.377051 -0.04516,-0.280358 -0.90332,-0.843963 -2.761145,-0.551074 -1.280467,0.202177 -2.490938,-0.670929 -2.692833,-1.953725 -0.199002,-1.287204 0.675604,-2.490387 1.961019,-2.694344 4.762113,-0.753915 7.704996,1.672691 8.148044,4.468164 0.439199,2.787903 -1.607294,6.005629 -6.374637,6.76367 -1.860165,0.292613 -2.501881,1.089398 -2.454662,1.372372 0.04254,0.282422 0.900707,0.846026 2.756194,0.552859 4.769406,-0.755429 7.707338,1.672964 8.148047,4.468162 0.441815,2.785848 -1.604684,6.003566 -6.374365,6.761333 -1.855211,0.290828 -2.497756,1.094627 -2.45466,1.372373 0.04695,0.285312 0.903044,0.846303 2.760594,0.555749 1.285691,-0.206292 2.488596,0.67065 2.692832,1.95373 0.201891,1.282799 -0.675609,2.490386 -1.960469,2.689666 z"
       id="path9584"
       style="stroke-width:2.35461" />
    <path
       fill="#aa8dd8"
       d="m 120.43643,3.1337064 c 0.53522,-0.2739188 1.1748,-0.3434848 1.79503,-0.1453385 1.95418,0.630617 3.49549,1.6759019 4.44601,3.0196668 1.00632,1.4226413 1.29598,3.1128985 0.80354,4.6436333 -0.86599,2.684527 -4.14357,4.636523 -8.7399,3.155905 -1.78785,-0.574539 -2.7235,-0.155093 -2.80893,0.11817 -0.0901,0.272306 0.42576,1.160582 2.21315,1.737428 1.95418,0.630615 3.4955,1.675902 4.44601,3.019664 1.00632,1.422643 1.30059,3.113855 0.80353,4.643635 -0.86646,2.686831 -4.14356,4.636522 -8.73576,3.159165 -1.30311,-0.418876 -2.06316,-0.290092 -2.39735,-0.174132 -0.26756,0.09611 -0.39122,0.21717 -0.41668,0.293651 -0.0849,0.270966 0.42165,1.15732 2.21364,1.735123 1.2372,0.40042 1.91953,1.727136 1.51911,2.964327 -0.39812,1.23767 -1.72204,1.918177 -2.96433,1.519109 -4.5922,-1.477356 -6.11879,-4.974638 -5.25184,-7.663777 0.86645,-2.686833 4.14355,-4.636525 8.73989,-3.155907 1.30263,0.421182 2.05854,0.289137 2.39274,0.173179 0.26938,-0.09335 0.39304,-0.214386 0.41619,-0.291346 0.09,-0.272308 -0.42117,-1.159628 -2.21315,-1.737428 -4.59173,-1.479663 -6.11879,-4.974638 -5.25185,-7.663777 0.86646,-2.6868335 4.14404,-4.6388281 8.7348,-3.1545556 1.30311,0.4188751 2.06364,0.2877874 2.39783,0.1718261 0.2671,-0.093751 0.39074,-0.2148642 0.41619,-0.2913447 0.0855,-0.2732623 -0.42576,-1.1605827 -2.21315,-1.73743 -1.23767,-0.3981113 -1.91952,-1.72713 -1.51911,-2.9643268 0.20551,-0.6211103 0.63869,-1.0988961 1.17439,-1.3751196 z"
       id="path9586"
       style="stroke-width:2.35461" />
    <path
       fill="#aa8dd8"
       d="m -0.6682033,30.646902 c 0.3198089,-0.50913 0.8338171,-0.896044 1.4681202,-1.043014 2.001772,-0.457643 3.8608611,-0.347788 5.3649419,0.320726 1.5923836,0.707751 2.705821,2.012021 3.065601,3.579254 0.628956,2.749737 -1.1890348,6.103494 -5.8959482,7.182151 -1.8301566,0.420758 -2.4196133,1.259753 -2.3532603,1.538262 0.061914,0.280042 0.9594812,0.779507 2.7904135,0.360971 2.0017721,-0.457643 3.8608513,-0.347792 5.364941,0.320727 1.5923842,0.707751 2.7102772,2.010485 3.0656022,3.579253 0.629722,2.75196 -1.189036,6.103495 -5.8907301,7.182839 -1.333996,0.306582 -1.921238,0.805994 -2.1491002,1.076572 -0.1807451,0.219443 -0.2250807,0.386717 -0.2078711,0.465441 0.065583,0.276289 0.9542634,0.778815 2.7896479,0.358747 1.2679258,-0.288726 2.5328343,0.50231 2.8215643,1.770231 0.29095,1.267152 -0.498629,2.529073 -1.7702353,2.821564 -4.7016943,1.07934 -7.8022782,-1.14503 -8.4327617,-3.899217 -0.629721,-2.75196 1.1890344,-6.103493 5.895948,-7.18215 C 6.5934399,48.774905 7.1754549,48.274802 7.403318,48.004227 7.5870328,47.786224 7.6314032,47.61897 7.6119247,47.541002 7.5500181,47.26095 6.6568864,46.759962 4.8215024,47.180026 0.119042,48.257146 -2.9807677,46.035003 -3.6112629,43.280818 -4.2409838,40.528856 -2.4229928,37.1751 2.2810056,36.102431 3.6150101,35.795854 4.2014794,35.294215 4.4293325,35.023634 4.6108987,34.806461 4.6551958,34.639148 4.6379362,34.560408 4.5715852,34.281893 3.6784547,33.780898 1.8475215,34.199433 0.5803619,34.49038 -0.6853224,33.697117 -0.97404965,32.429193 -1.115117,31.790355 -0.98728746,31.158242 -0.6682572,30.646885 Z"
       id="path12881"
       style="stroke-width:2.35461" />
  </g>
</svg>
