<?xml version="1.0" encoding="UTF-8" standalone="no"?>
<!-- Generator: Adobe Illustrator 24.1.2, SVG Export Plug-In . SVG Version: 6.00 Build 0)  -->

<svg
   version="1.1"
   id="Layer_2"
   x="0px"
   y="0px"
   viewBox="0 0 118.84391 132.30864"
   xml:space="preserve"
   width="118.84391"
   height="132.30864"
   xmlns="http://www.w3.org/2000/svg"
   xmlns:svg="http://www.w3.org/2000/svg"><defs
   id="defs5505"><filter
     id="mask-powermask-path-effect6462_inverse"
     style="color-interpolation-filters:sRGB"
     height="100"
     width="100"
     x="-50"
     y="-50"><feColorMatrix
       id="mask-powermask-path-effect6462_primitive1"
       values="1"
       type="saturate"
       result="fbSourceGraphic" /><feColorMatrix
       id="mask-powermask-path-effect6462_primitive2"
       values="-1 0 0 0 1 0 -1 0 0 1 0 0 -1 0 1 0 0 0 1 0 "
       in="fbSourceGraphic" /></filter><clipPath
     clipPathUnits="userSpaceOnUse"
     id="clipPath6497"><path
       style="display:none;fill:#ffffff;fill-opacity:1"
       d="M 66.25,25.28 C 52.32,25.9 41.87,32.8 36.68,40.34 c -3.1,4.5 -4.65,7.74 -4.65,7.74 0,0 4.81,0.14 9.15,2.46 5,2.67 10.8,5.56 14.61,18.13 2.87,9.5 3.98,18.53 11.44,20.52 8.45,2.25 28.16,1.13 37.59,-8.02 9.43,-9.15 11.26,-16.05 8.87,-25.06 C 111.3,47.1 100.52,31.06 85.53,26.83 79.06,25 72.58,25 66.25,25.28 Z"
       id="path6499" /><path
       id="lpe_path-effect6501"
       style="display:inline;fill:#ffffff;fill-opacity:1"
       class="powerclip"
       d="M -0.09788303,43.039649 H 128.74603 V 124.96059 H -0.09788303 Z M 66.25,25.28 C 52.32,25.9 41.87,32.8 36.68,40.34 c -3.1,4.5 -4.65,7.74 -4.65,7.74 0,0 4.81,0.14 9.15,2.46 5,2.67 10.8,5.56 14.61,18.13 2.87,9.5 3.98,18.53 11.44,20.52 8.45,2.25 28.16,1.13 37.59,-8.02 9.43,-9.15 11.26,-16.05 8.87,-25.06 C 111.3,47.1 100.52,31.06 85.53,26.83 79.06,25 72.58,25 66.25,25.28 Z" /></clipPath><clipPath
     clipPathUnits="userSpaceOnUse"
     id="clipath_lpe_path-effect6571"><path
       style="display:none;fill:#ffffff;fill-opacity:1"
       d="M 66.25,25.28 C 52.32,25.9 41.87,32.8 36.68,40.34 c -3.1,4.5 -4.65,7.74 -4.65,7.74 0,0 4.81,0.14 9.15,2.46 5,2.67 10.8,5.56 14.61,18.13 2.87,9.5 3.98,18.53 11.44,20.52 8.45,2.25 28.16,1.13 37.59,-8.02 9.43,-9.15 11.26,-16.05 8.87,-25.06 C 111.3,47.1 100.52,31.06 85.53,26.83 79.06,25 72.58,25 66.25,25.28 Z"
       id="path6573" /><path
       id="lpe_path-effect6571"
       style="display:inline;fill:#ffffff;fill-opacity:1"
       class="powerclip"
       d="M -0.09788303,43.039649 H 128.74603 V 124.96059 H -0.09788303 Z M 66.25,25.28 C 52.32,25.9 41.87,32.8 36.68,40.34 c -3.1,4.5 -4.65,7.74 -4.65,7.74 0,0 4.81,0.14 9.15,2.46 5,2.67 10.8,5.56 14.61,18.13 2.87,9.5 3.98,18.53 11.44,20.52 8.45,2.25 28.16,1.13 37.59,-8.02 9.43,-9.15 11.26,-16.05 8.87,-25.06 C 111.3,47.1 100.52,31.06 85.53,26.83 79.06,25 72.58,25 66.25,25.28 Z" /></clipPath></defs>





<g
   id="g6301"
   transform="translate(-4.902117,12.348055)"><path
     style="display:inline;fill:#66757f;fill-opacity:1"
     d="M 66.25,25.28 C 52.32,25.9 41.87,32.8 36.68,40.34 c -3.1,4.5 -4.65,7.74 -4.65,7.74 0,0 4.81,0.14 9.15,2.46 5,2.67 10.8,5.56 14.61,18.13 2.87,9.5 3.98,18.53 11.44,20.52 8.45,2.25 28.16,1.13 37.59,-8.02 9.43,-9.15 11.26,-16.05 8.87,-25.06 C 111.3,47.1 100.52,31.06 85.53,26.83 79.06,25 72.58,25 66.25,25.28 Z"
     id="path5492" /><g
     id="g6293"
     style="display:inline"><path
       fill="#66757f"
       d="M 112.67742,24.053953 62.41009,10.425396 C 56.858065,8.9201218 51.13618,12.201124 49.630913,17.753152 51.13618,12.201124 47.855177,6.4792471 42.303153,4.9739717 36.751126,3.4686993 31.029251,6.7497022 29.523975,12.301728 l -10.22142,37.700499 c -1.505268,5.552029 1.775724,11.273904 7.327759,12.77918 5.552026,1.505274 11.273902,-1.775729 12.77918,-7.327755 -1.505278,5.552026 1.775723,11.273902 7.327749,12.779177 l 50.267348,13.628559 c 5.551999,1.505274 11.273889,-1.775727 12.779159,-7.327757 l 10.22143,-37.700499 c 1.50527,-5.552027 -1.77575,-11.273905 -7.32776,-12.779179 z"
       id="path5556"
       style="stroke-width:2.6041" /><path
       fill="#c6e5b3"
       d="m 80.941821,31.638448 c -0.752299,2.774754 -3.614829,4.416173 -6.389589,3.663877 L 56.958663,30.532331 c -2.77476,-0.752298 -4.416168,-3.614833 -3.66388,-6.389591 l 1.36286,-5.026732 c 0.752298,-2.774758 3.614828,-4.416176 6.389588,-3.663879 L 78.6408,20.222125 c 2.77476,0.752296 4.416168,3.614831 3.66388,6.389587 z"
       id="path5558"
       style="stroke-width:2.6041" /><g
       fill="#ccd6dd"
       id="g5578"
       transform="matrix(2.5133667,0.68142788,-0.68142788,2.5133667,39.063969,-22.885406)"><circle
         cx="11.5"
         cy="21.5"
         r="1.5"
         id="circle5560" /><circle
         cx="15.5"
         cy="21.5"
         r="1.5"
         id="circle5562" /><circle
         cx="19.5"
         cy="21.5"
         r="1.5"
         id="circle5564" /><circle
         cx="11.5"
         cy="25.5"
         r="1.5"
         id="circle5566" /><circle
         cx="15.5"
         cy="25.5"
         r="1.5"
         id="circle5568" /><circle
         cx="19.5"
         cy="25.5"
         r="1.5"
         id="circle5570" /><circle
         cx="11.5"
         cy="29.5"
         r="1.5"
         id="circle5572" /><circle
         cx="15.5"
         cy="29.5"
         r="1.5"
         id="circle5574" /><circle
         cx="19.5"
         cy="29.5"
         r="1.5"
         id="circle5576" /></g><path
       d="m 110.20845,53.063844 c -0.37682,1.389892 -1.80491,2.208767 -3.19479,1.831938 L 84.393352,48.762933 c -1.38989,-0.376832 -2.208771,-1.804905 -1.831936,-3.194795 0.376827,-1.389894 1.804906,-2.208771 3.194795,-1.831941 l 22.620289,6.132851 c 1.3899,0.37683 2.20877,1.804903 1.83195,3.194796 z m -2.04429,7.540098 c -0.37683,1.389892 -1.80491,2.208769 -3.19479,1.83194 L 82.349068,56.30303 c -1.38989,-0.37683 -2.208771,-1.804902 -1.831934,-3.194794 0.376825,-1.389891 1.804903,-2.208768 3.194793,-1.831939 l 22.620303,6.132851 c 1.38988,0.376828 2.20875,1.804902 1.83193,3.194794 z m -2.04428,7.540101 c -0.37683,1.389892 -1.80491,2.208767 -3.19478,1.83194 L 80.304785,63.843129 c -1.389891,-0.376829 -2.208772,-1.804901 -1.831936,-3.194792 0.376825,-1.389892 1.804904,-2.208769 3.194794,-1.83194 l 22.620297,6.13285 c 1.38989,0.376829 2.20877,1.804904 1.83194,3.194796 z m -2.04429,7.540102 c -0.37683,1.38989 -1.8049,2.208767 -3.19478,1.831937 L 78.260501,71.383231 c -1.389891,-0.376829 -2.208772,-1.804904 -1.831936,-3.194795 0.376825,-1.389892 1.804904,-2.208769 3.194795,-1.831938 l 22.6203,6.13285 c 1.38989,0.376829 2.20876,1.804902 1.83193,3.194797 z"
       fill="#99aab5"
       id="path5580"
       style="stroke-width:2.6041" /><circle
       fill="#ccd6dd"
       cx="96.816872"
       cy="6.7515087"
       r="5.2082076"
       id="circle5582"
       style="stroke-width:2.6041"
       transform="rotate(15.169452)" /><circle
       fill="#ccd6dd"
       cx="115.04559"
       cy="6.7515087"
       r="5.2082076"
       id="circle5584"
       style="stroke-width:2.6041"
       transform="rotate(15.169452)" /><path
       fill="#ccd6dd"
       d="M 112.67742,24.053953 62.41009,10.425396 66.498658,-4.6548034 c 1.505268,-5.5520286 7.227152,-8.8330286 12.779178,-7.3277556 l 30.160404,8.1771345 c 5.55201,1.5052735 8.83301,7.2271492 7.32774,12.7791784 z"
       id="path5586"
       style="stroke-width:2.6041" /><path
       fill="#99aab5"
       d="m 111.73925,7.6108969 c -0.37683,1.389892 -1.80491,2.2087685 -3.19479,1.8319399 L 73.357322,-0.09715422 c -1.389889,-0.3768294 -2.208759,-1.80490308 -1.831934,-3.19479318 0.376836,-1.3898923 1.804903,-2.2087696 3.194794,-1.8319401 L 109.90731,4.416103 c 1.38988,0.3768286 2.20877,1.8049036 1.83194,3.1947939 z M 89.588042,9.6995755 C 89.211206,11.089467 87.783138,11.908344 86.393237,11.531513 L 71.313039,7.4429461 C 69.923149,7.0661167 69.104278,5.638043 69.481105,4.248151 69.85793,2.858259 71.286007,2.0393835 72.675898,2.4162129 l 15.080199,4.0885667 c 1.389891,0.3768295 2.20877,1.8049038 1.831945,3.1947959 z"
       id="path5588"
       style="stroke-width:2.6041" /></g><path
     style="display:inline;fill:#99aab5;fill-opacity:1"
     d="m 112.7,59.21 c 0,0 3.94,-2.21 4.93,-2.77 0.99,-0.56 4.6,-2.82 5.91,-0.84 0.77,1.16 -0.7,4.44 -3.05,7.86 -2.14,3.13 -7.12,9.56 -7.4,10.83 -0.28,1.27 1.11,6.36 1.53,8.33 0.42,1.97 1.74,6.71 1.17,8.54 -0.57,1.83 -3.43,6.85 -10.75,6.76 -5.82,-0.07 -7.51,-1.78 -7.7,-2.82 -0.14,-0.75 -0.56,-3.24 -0.56,-3.24 0,0 -4.79,2.96 -7.04,4.08 -2.25,1.12 -8.31,4.22 -8.31,4.22 0,0 1.17,5.35 1.36,7.51 0.19,2.16 0.86,5.25 -0.28,7.32 -1.03,1.88 -4.25,5.02 -11.83,4.97 -5.92,-0.04 -7.41,-1.88 -8.35,-3 -0.94,-1.13 -1.13,-6.48 -1.13,-7.6 0,-1.12 -0.19,-5.07 -0.19,-5.07 0,0 -8.02,-0.4 -12.86,-0.75 -4.38,-0.32 -10.16,-0.99 -10.16,-0.99 0,0 0.21,2.33 0.42,4.01 0.19,1.5 0.23,4.64 -1.34,6.17 -2.11,2.06 -7.56,2.21 -10.56,1.92 -3,-0.28 -7.18,-1.83 -8.4,-4.55 -1.22,-2.72 0.38,-6.29 1.03,-8.35 0.58,-1.81 1.6,-4.41 1.22,-5.16 -0.38,-0.75 -4.04,-1.69 -9.29,-6.95 -5.26,-5.26 -12.13,-23.52 3.28,-36.23 15.49,-12.76 43.81,1.1 45.31,2.04 1.54,0.96 53.04,3.76 53.04,3.76 z"
     id="path5490"
     clip-path="url(#clipPath6497)" /><path
     style="display:none;fill:#66757f;fill-opacity:1"
     d="m 111.93,51.32 c -0.42,-0.99 -1.3,-2.5 -1.3,-2.5 0,0 -0.07,2.05 -0.25,3.13 -0.28,1.76 -1.25,5.42 -1.81,4.88 -1,-0.97 -5.73,-6.92 -7.98,-10.23 -1.71,-2.52 -7.6,-9.11 -7.74,-11.26 -0.07,-1.06 1.27,-4.65 1.27,-4.65 0,0 -1.22,-0.7 -2.35,-1.34 -0.88,-0.49 -2.16,-1.03 -2.16,-1.03 0,0 -0.77,4.9 -1.62,5.82 -0.75,0.81 -5.32,2.6 -8.87,3.94 -4.29,1.62 -8.45,3.73 -10,4.01 -1.36,0.25 -9.09,-1.41 -12,-1.97 -3.66,-0.7 -9.18,-2.26 -10.45,-3.17 -1.48,-1.06 -3.07,-3.78 -3.07,-3.78 0,0 -0.89,0.61 -1.78,1.31 -0.88,0.69 -2.02,2.06 -2.02,2.06 0,0 2.31,2.32 2.44,3.18 0.18,1.2 -1.27,2.83 -2.46,4.38 -0.72,0.93 -2.75,4.85 -2.75,4.85 0,0 0.97,0.09 2.15,0.63 1.23,0.57 2.38,1.16 2.38,1.16 0,0 2.97,-6.9 4.9,-7.53 1.65,-0.54 6.3,0.99 9.68,1.69 4.79,0.99 9.64,1.87 10.66,3.17 1.06,1.34 2.06,6.68 3.03,11.19 C 70.89,64.2 73.64,77.02 73,78 72.37,78.99 67.3,78.63 64.41,78.28 61.96,77.98 58,76.52 58,76.52 c 0,0 0.58,2.11 0.77,2.67 0.28,0.81 1.16,3.06 1.16,3.06 0,0 5.67,2.5 22.42,0.95 16.75,-1.55 25.03,-12.96 27.38,-18.02 3.14,-6.78 3.54,-10.39 3.54,-10.39 0,0 -0.92,-2.48 -1.34,-3.47 z M 96.65,73.21 C 92.41,75.88 81.45,78.7 79.47,77.64 77.89,76.79 75.53,63.7 74.4,57.86 73.68,54.12 71.95,48.44 72.99,46.67 c 0.7,-1.2 4.79,-2.99 7.81,-4.4 2.87,-1.33 6.97,-3.13 8.17,-2.99 1.7,0.2 5.35,6.12 9.01,11.19 3.66,5.07 7.67,10.35 7.74,12.18 0.09,1.84 -4.7,7.82 -9.07,10.56 z"
     id="path5494" /><path
     style="display:inline;fill:#c6e5b3;fill-opacity:1"
     d="m 41.18,65.86 c 0.5,2.83 -0.95,5.75 -4.07,6.02 -2.56,0.22 -4.59,-1.57 -5.09,-4.4 -0.5,-2.83 1.14,-5.49 3.68,-5.94 2.52,-0.45 4.98,1.48 5.48,4.32 z"
     id="path5496" /><path
     style="display:inline;fill:#c6e5b3;fill-opacity:1"
     d="m 22.82,66.11 c 0.07,2.84 -2.42,5.69 -5.5,5.11 -2.53,-0.48 -3.99,-2.73 -3.71,-5.55 0.29,-2.82 2.59,-4.9 5.15,-4.65 2.56,0.25 3.99,2.13 4.06,5.09 z"
     id="path5498" /><path
     style="display:inline;fill:#c6e5b3;fill-opacity:1"
     d="m 30.77,76.59 c 1.16,-0.79 3.1,-2.67 4.36,-1.06 1.27,1.62 -0.92,3.1 -2.18,4.01 -1.27,0.92 -4.08,3.17 -6.12,3.17 -1.9,0 -4.79,-2.32 -6.62,-3.87 -1.49,-1.26 -2.18,-2.89 -1.34,-3.87 0.84,-0.98 2.14,-0.62 3.24,0.35 1.27,1.13 3.72,3.38 4.72,3.38 0.98,0.01 2.39,-1.05 3.94,-2.11 z"
     id="path5500" /><path
     style="display:inline;fill:#66757f;fill-opacity:1"
     d="M 66.25,25.28 C 52.32,25.9 41.87,32.8 36.68,40.34 c -3.1,4.5 -4.65,7.74 -4.65,7.74 0,0 4.81,0.14 9.15,2.46 5,2.67 10.8,5.56 14.61,18.13 2.87,9.5 3.98,18.53 11.44,20.52 8.45,2.25 28.16,1.13 37.59,-8.02 9.43,-9.15 11.26,-16.05 8.87,-25.06 C 111.3,47.1 100.52,31.06 85.53,26.83 79.06,25 72.58,25 66.25,25.28 Z"
     id="path6523" /><g
     id="g6559"
     style="display:inline"><path
       fill="#66757f"
       d="M 112.67742,24.053953 62.41009,10.425396 C 56.858065,8.9201218 51.13618,12.201124 49.630913,17.753152 51.13618,12.201124 47.855177,6.4792471 42.303153,4.9739717 36.751126,3.4686993 31.029251,6.7497022 29.523975,12.301728 l -10.22142,37.700499 c -1.505268,5.552029 1.775724,11.273904 7.327759,12.77918 5.552026,1.505274 11.273902,-1.775729 12.77918,-7.327755 -1.505278,5.552026 1.775723,11.273902 7.327749,12.779177 l 50.267348,13.628559 c 5.551999,1.505274 11.273889,-1.775727 12.779159,-7.327757 l 10.22143,-37.700499 c 1.50527,-5.552027 -1.77575,-11.273905 -7.32776,-12.779179 z"
       id="path6525"
       style="stroke-width:2.6041" /><path
       fill="#c6e5b3"
       d="m 80.941821,31.638448 c -0.752299,2.774754 -3.614829,4.416173 -6.389589,3.663877 L 56.958663,30.532331 c -2.77476,-0.752298 -4.416168,-3.614833 -3.66388,-6.389591 l 1.36286,-5.026732 c 0.752298,-2.774758 3.614828,-4.416176 6.389588,-3.663879 L 78.6408,20.222125 c 2.77476,0.752296 4.416168,3.614831 3.66388,6.389587 z"
       id="path6527"
       style="stroke-width:2.6041" /><g
       fill="#ccd6dd"
       id="g6547"
       transform="matrix(2.5133667,0.68142788,-0.68142788,2.5133667,39.063969,-22.885406)"><circle
         cx="11.5"
         cy="21.5"
         r="1.5"
         id="circle6529" /><circle
         cx="15.5"
         cy="21.5"
         r="1.5"
         id="circle6531" /><circle
         cx="19.5"
         cy="21.5"
         r="1.5"
         id="circle6533" /><circle
         cx="11.5"
         cy="25.5"
         r="1.5"
         id="circle6535" /><circle
         cx="15.5"
         cy="25.5"
         r="1.5"
         id="circle6537" /><circle
         cx="19.5"
         cy="25.5"
         r="1.5"
         id="circle6539" /><circle
         cx="11.5"
         cy="29.5"
         r="1.5"
         id="circle6541" /><circle
         cx="15.5"
         cy="29.5"
         r="1.5"
         id="circle6543" /><circle
         cx="19.5"
         cy="29.5"
         r="1.5"
         id="circle6545" /></g><path
       d="m 110.20845,53.063844 c -0.37682,1.389892 -1.80491,2.208767 -3.19479,1.831938 L 84.393352,48.762933 c -1.38989,-0.376832 -2.208771,-1.804905 -1.831936,-3.194795 0.376827,-1.389894 1.804906,-2.208771 3.194795,-1.831941 l 22.620289,6.132851 c 1.3899,0.37683 2.20877,1.804903 1.83195,3.194796 z m -2.04429,7.540098 c -0.37683,1.389892 -1.80491,2.208769 -3.19479,1.83194 L 82.349068,56.30303 c -1.38989,-0.37683 -2.208771,-1.804902 -1.831934,-3.194794 0.376825,-1.389891 1.804903,-2.208768 3.194793,-1.831939 l 22.620303,6.132851 c 1.38988,0.376828 2.20875,1.804902 1.83193,3.194794 z m -2.04428,7.540101 c -0.37683,1.389892 -1.80491,2.208767 -3.19478,1.83194 L 80.304785,63.843129 c -1.389891,-0.376829 -2.208772,-1.804901 -1.831936,-3.194792 0.376825,-1.389892 1.804904,-2.208769 3.194794,-1.83194 l 22.620297,6.13285 c 1.38989,0.376829 2.20877,1.804904 1.83194,3.194796 z m -2.04429,7.540102 c -0.37683,1.38989 -1.8049,2.208767 -3.19478,1.831937 L 78.260501,71.383231 c -1.389891,-0.376829 -2.208772,-1.804904 -1.831936,-3.194795 0.376825,-1.389892 1.804904,-2.208769 3.194795,-1.831938 l 22.6203,6.13285 c 1.38989,0.376829 2.20876,1.804902 1.83193,3.194797 z"
       fill="#99aab5"
       id="path6549"
       style="stroke-width:2.6041" /><circle
       fill="#ccd6dd"
       cx="96.816872"
       cy="6.7515087"
       r="5.2082076"
       id="circle6551"
       style="stroke-width:2.6041"
       transform="rotate(15.169452)" /><circle
       fill="#ccd6dd"
       cx="115.04559"
       cy="6.7515087"
       r="5.2082076"
       id="circle6553"
       style="stroke-width:2.6041"
       transform="rotate(15.169452)" /><path
       fill="#ccd6dd"
       d="M 112.67742,24.053953 62.41009,10.425396 66.498658,-4.6548034 c 1.505268,-5.5520286 7.227152,-8.8330286 12.779178,-7.3277556 l 30.160404,8.1771345 c 5.55201,1.5052735 8.83301,7.2271492 7.32774,12.7791784 z"
       id="path6555"
       style="stroke-width:2.6041" /><path
       fill="#99aab5"
       d="m 111.73925,7.6108969 c -0.37683,1.389892 -1.80491,2.2087685 -3.19479,1.8319399 L 73.357322,-0.09715422 c -1.389889,-0.3768294 -2.208759,-1.80490308 -1.831934,-3.19479318 0.376836,-1.3898923 1.804903,-2.2087696 3.194794,-1.8319401 L 109.90731,4.416103 c 1.38988,0.3768286 2.20877,1.8049036 1.83194,3.1947939 z M 89.588042,9.6995755 C 89.211206,11.089467 87.783138,11.908344 86.393237,11.531513 L 71.313039,7.4429461 C 69.923149,7.0661167 69.104278,5.638043 69.481105,4.248151 69.85793,2.858259 71.286007,2.0393835 72.675898,2.4162129 l 15.080199,4.0885667 c 1.389891,0.3768295 2.20877,1.8049038 1.831945,3.1947959 z"
       id="path6557"
       style="stroke-width:2.6041" /></g><path
     style="display:inline;fill:#99aab5;fill-opacity:1"
     d="m 112.7,59.21 c 0,0 3.94,-2.21 4.93,-2.77 0.99,-0.56 4.6,-2.82 5.91,-0.84 0.77,1.16 -0.7,4.44 -3.05,7.86 -2.14,3.13 -7.12,9.56 -7.4,10.83 -0.28,1.27 1.11,6.36 1.53,8.33 0.42,1.97 1.74,6.71 1.17,8.54 -0.57,1.83 -3.43,6.85 -10.75,6.76 -5.82,-0.07 -7.51,-1.78 -7.7,-2.82 -0.14,-0.75 -0.56,-3.24 -0.56,-3.24 0,0 -4.79,2.96 -7.04,4.08 -2.25,1.12 -8.31,4.22 -8.31,4.22 0,0 1.17,5.35 1.36,7.51 0.19,2.16 0.86,5.25 -0.28,7.32 -1.03,1.88 -4.25,5.02 -11.83,4.97 -5.92,-0.04 -7.41,-1.88 -8.35,-3 -0.94,-1.13 -1.13,-6.48 -1.13,-7.6 0,-1.12 -0.19,-5.07 -0.19,-5.07 0,0 -8.02,-0.4 -12.86,-0.75 -4.38,-0.32 -10.16,-0.99 -10.16,-0.99 0,0 0.21,2.33 0.42,4.01 0.19,1.5 0.23,4.64 -1.34,6.17 -2.11,2.06 -7.56,2.21 -10.56,1.92 -3,-0.28 -7.18,-1.83 -8.4,-4.55 -1.22,-2.72 0.38,-6.29 1.03,-8.35 0.58,-1.81 1.6,-4.41 1.22,-5.16 -0.38,-0.75 -4.04,-1.69 -9.29,-6.95 -5.26,-5.26 -12.13,-23.52 3.28,-36.23 15.49,-12.76 43.81,1.1 45.31,2.04 1.54,0.96 53.04,3.76 53.04,3.76 z"
     id="path6561"
     clip-path="url(#clipath_lpe_path-effect6571)" /><path
     style="display:inline;fill:#c6e5b3;fill-opacity:1"
     d="m 41.18,65.86 c 0.5,2.83 -0.95,5.75 -4.07,6.02 -2.56,0.22 -4.59,-1.57 -5.09,-4.4 -0.5,-2.83 1.14,-5.49 3.68,-5.94 2.52,-0.45 4.98,1.48 5.48,4.32 z"
     id="path6563" /><path
     style="display:inline;fill:#c6e5b3;fill-opacity:1"
     d="m 22.82,66.11 c 0.07,2.84 -2.42,5.69 -5.5,5.11 -2.53,-0.48 -3.99,-2.73 -3.71,-5.55 0.29,-2.82 2.59,-4.9 5.15,-4.65 2.56,0.25 3.99,2.13 4.06,5.09 z"
     id="path6565" /><path
     style="display:inline;fill:#c6e5b3;fill-opacity:1"
     d="m 30.77,76.59 c 1.16,-0.79 3.1,-2.67 4.36,-1.06 1.27,1.62 -0.92,3.1 -2.18,4.01 -1.27,0.92 -4.08,3.17 -6.12,3.17 -1.9,0 -4.79,-2.32 -6.62,-3.87 -1.49,-1.26 -2.18,-2.89 -1.34,-3.87 0.84,-0.98 2.14,-0.62 3.24,0.35 1.27,1.13 3.72,3.38 4.72,3.38 0.98,0.01 2.39,-1.05 3.94,-2.11 z"
     id="path6567" /></g>
</svg>
