<?xml version="1.0" encoding="UTF-8" standalone="no"?>
<svg
   width="37mm"
   height="37.96mm"
   viewBox="0 0 104.89 107.6"
   version="1.1"
   id="svg71030"
   sodipodi:docname="flower.svg"
   inkscape:version="1.2.2 (732a01da63, 2022-12-09)"
   xmlns:inkscape="http://www.inkscape.org/namespaces/inkscape"
   xmlns:sodipodi="http://sodipodi.sourceforge.net/DTD/sodipodi-0.dtd"
   xmlns="http://www.w3.org/2000/svg"
   xmlns:svg="http://www.w3.org/2000/svg">
  <sodipodi:namedview
     id="namedview71032"
     pagecolor="#ffffff"
     bordercolor="#000000"
     borderopacity="0.25"
     inkscape:showpageshadow="2"
     inkscape:pageopacity="0.0"
     inkscape:pagecheckerboard="0"
     inkscape:deskcolor="#d1d1d1"
     inkscape:document-units="mm"
     showgrid="false"
     inkscape:zoom="4"
     inkscape:cx="23.75"
     inkscape:cy="80.75"
     inkscape:window-width="1920"
     inkscape:window-height="1057"
     inkscape:window-x="1912"
     inkscape:window-y="-8"
     inkscape:window-maximized="1"
     inkscape:current-layer="g9662" />
  <defs
     id="defs70996">
    <inkscape:path-effect
       effect="powerclip"
       id="path-effect73084"
       is_visible="true"
       lpeversion="1"
       inverse="true"
       flatten="false"
       hide_clip="false"
       message="Use fill-rule evenodd on &lt;b&gt;fill and stroke&lt;/b&gt; dialog if no flatten result after convert clip to paths." />
    <style
       id="style70994">
      .cls-1 {
        fill: #ebd1e6;
      }

      .cls-2 {
        fill: #a11922;
      }

      .cls-3 {
        fill: #4a4f23;
      }

      .cls-4 {
        fill: #bf1a32;
      }

      .cls-5 {
        fill: #578533;
      }

      .cls-6 {
        fill: #78b355;
      }

      .cls-7 {
        fill: #2b2c29;
      }
    </style>
    <clipPath
       clipPathUnits="userSpaceOnUse"
       id="clipPath73080">
      <path
         style="display:none;fill:none;stroke-width:3.75029"
         d="m 18.406249,44.44472 c 0,0 -0.200558,1.984108 1.520457,1.924244 1.655639,-0.05759 1.529441,-2.050031 1.529441,-2.050031 l 3.912921,5.431835 -9.78565,0.429465 z"
         id="path73082"
         sodipodi:nodetypes="cscccc" />
      <path
         id="lpe_path-effect73084"
         style="fill:none;stroke-width:3.75029"
         class="powerclip"
         d="M 6.19,13.3 H 33.34 V 54.04 H 6.19 Z m 12.21625,31.14472 -2.822832,5.735513 9.78565,-0.429465 -3.912921,-5.431835 c 0,0 0.12601,1.990936 -1.529441,2.050031 -1.718588,0.06135 -1.520456,-1.924244 -1.520456,-1.924244 z"
         sodipodi:nodetypes="cccccccccsc" />
    </clipPath>
  </defs>
  <g
     id="Layer_2"
     data-name="Layer 2">
    <g
       id="grid">
      <g
         id="wl_copy"
         data-name="wl copy">
        <g
           id="flowers">
          <g
             id="g71024">
            <path
               class="cls-1"
               d="M95.19,52.19l4.27-2.63c.86-.53,4-2.67,5.21-1,.73,1-.46,4-2.42,7.08-1.79,2.86-6,8.74-6.18,9.88s1.21,5.6,1.65,7.33,1.78,5.89,1.34,7.54-2.8,6.2-9.3,6.38C84.6,87,83,85.5,82.83,84.58c-.15-.66-.61-2.86-.61-2.86s-4.14,2.8-6.1,3.87-7.22,4-7.22,4,1.22,4.71,1.47,6.62.95,4.63,0,6.5c-.85,1.71-3.59,4.61-10.32,4.83-5.25.18-6.64-1.4-7.51-2.36s-1.24-5.71-1.28-6.7-.35-4.5-.35-4.5-7.13-.07-11.43-.2c-3.9-.13-9-.52-9-.52s.27,2.06.51,3.54c.23,1.32.37,4.11-1,5.52-1.79,1.91-6.63,2.23-9.3,2.08s-6.43-1.37-7.61-3.74.11-5.59.62-7.44c.45-1.63,1.26-4,.89-4.62S10.94,87.28,6.1,82.8-5.5,62.36,7.72,50.54,46.63,50,48,50.74,95.19,52.19,95.19,52.19Z"
               id="path70998" />
            <path
               class="cls-2"
               d="M52.77,23.74c-12.34,1-21.37,7.53-25.7,14.41a56.4,56.4,0,0,0-3.85,7A20.56,20.56,0,0,1,31.42,47C36,49.23,41.2,51.59,45,62.61c2.88,8.32,4.19,16.29,10.88,17.8,7.57,1.69,25,0,33.06-8.46s9.42-14.64,7-22.55-12.57-21.75-26-25C64.12,23,58.37,23.26,52.77,23.74Z"
               id="path71000" />
            <path
               class="cls-3"
               d="M94.22,45.22c-.41-.87-1.24-2.17-1.24-2.17s0,1.82-.11,2.78c-.19,1.57-.92,4.85-1.43,4.4A107.43,107.43,0,0,1,84,41.43c-1.6-2.17-7.06-7.81-7.26-9.71a19.37,19.37,0,0,1,1-4.17l-2.14-1.11c-.79-.4-2-.84-2-.84s-.51,4.38-1.23,5.23-4.63,2.49-7.73,3.81c-3.75,1.59-7.36,3.61-8.73,3.91-1.2.27-8.11-.93-10.72-1.32-3.27-.49-8.22-1.68-9.38-2.44A13.7,13.7,0,0,1,33,31.54s-.77.57-1.53,1.23a15,15,0,0,0-1.72,1.9s2.13,2,2.28,2.73c.2,1.06-1,2.56-2,4-.61.86-2.27,4.41-2.27,4.41a6.34,6.34,0,0,1,1.93.48c1.11.46,2.16.94,2.16.94s2.39-6.22,4.08-6.85c1.44-.54,5.62.65,8.64,1.15,4.29.71,8.62,1.32,9.58,2.44s2.06,5.85,3.08,9.82c1.12,4.34,4,15.62,3.48,16.51s-5,.76-7.61.56a33.43,33.43,0,0,1-5.75-1.34s.59,1.85.78,2.34c.27.71,1.13,2.68,1.13,2.68s5.12,2,19.93,0,21.75-12.38,23.65-17c2.55-6.12,2.77-9.34,2.77-9.34S94.63,46.08,94.22,45.22Zm-12.78,20c-3.66,2.52-13.29,5.41-15.08,4.54-1.44-.7-4-12.23-5.2-17.37-.78-3.29-2.51-8.27-1.65-9.87.58-1.09,4.14-2.83,6.77-4.19s6.07-3,7.14-2.94c1.52.12,5,5.24,8.39,9.61s7.18,8.91,7.3,10.53S85.22,62.6,81.44,65.18Z"
               id="path71002" />
            <g
               id="g71008">
              <path
                 class="cls-2"
                 d="M88.43,26.84C74.24,10.73,93.93,5.37,79,5.37c-2.6,0-7,1.6-12,4.34C64.43,4,61,0,57.31,0c-7.48,0-13.6,15.85-14.13,30.18-4,5.63-6.77,11.8-6.77,18.12,0,22.23,9.45,32.2,23.64,32.2C88.43,80.5,109.85,51.13,88.43,26.84Z"
                 id="path71004" />
              <path
                 class="cls-4"
                 d="M78.22,48.3c0,22.23-9.46,32.2-23.65,32.2-28.38,0-49.79-29.37-28.38-53.67C40.38,10.73,20.7,5.36,35.65,5.36,45.11,5.37,78.22,26.07,78.22,48.3Z"
                 id="path71006" />
            </g>
            <g
               id="g71014">
              <path
                 class="cls-5"
                 d="M28.34,34.23c0-5.41-2.45-15.38-16-15.93,3.22,4.75-1.15,10.51-1.15,15.93S14.35,44,19.76,44,28.33,39.65,28.34,34.23Z"
                 id="path71010" />
              <path
                 class="cls-6"
                 d="M19.14,23.67a10.88,10.88,0,0,0-6.61-5.37s3,1.1,4.8,6.4a14.32,14.32,0,0,1-3.65-.51A7,7,0,0,0,18,26.92a27.8,27.8,0,0,1,.54,3.43l-.92,0A6,6,0,0,1,12.42,28,5.54,5.54,0,0,0,18,32.82l.68,0c0,.45,0,.9,0,1.38v2H17.52a10.19,10.19,0,0,1-6.31-2.59c0,.68,2.27,5.15,6.66,5.15h.8v9a1.28,1.28,0,0,0,2.56,0v-9h.06c4.39,0,7-4.46,7-5.14a11.85,11.85,0,0,1-6.67,2.58h-.42v-4c3.9-1.28,4.93-6.25,4.77-6.88a10,10,0,0,1-4.93,4.41,17.06,17.06,0,0,0-.92-3.9,6.4,6.4,0,0,0,1.41-5,9.17,9.17,0,0,1-2.14,2.72Z"
                 id="path71012" />
            </g>
            <path
               class="cls-1"
               d="M55.91,80.41c-6.69-1.51-8-9.48-10.88-17.8C41.2,51.59,36,49.23,31.42,47a20.56,20.56,0,0,0-8.2-1.86v0C17.59,45.29,12,46.7,7.72,50.54-5.5,62.36,1.24,78.32,6.1,82.8s8.12,5.18,8.48,5.84-.44,3-.89,4.62c-.51,1.85-1.8,5.07-.62,7.44s4.94,3.6,7.61,3.74,7.51-.17,9.3-2.08c1.34-1.41,1.2-4.2,1-5.52-.24-1.48-.51-3.54-.51-3.54s5.15.39,9.05.52c4.3.13,11.43.2,11.43.2s.31,3.5.35,4.5.4,5.73,1.28,6.7,2.26,2.54,7.51,2.36c6.73-.22,9.47-3.12,10.32-4.83.94-1.87.23-4.59,0-6.5s-1.47-6.62-1.47-6.62"
               id="path71016" />
            <path
               class="cls-7"
               d="M23.11,70.52c1-.74,2.66-2.48,3.83-1.09s-.7,2.78-1.79,3.63-3.51,3-5.32,3-4.33-1.89-6-3.2c-1.37-1.06-2-2.48-1.33-3.38s1.88-.63,2.89.19c1.17,1,3.42,2.87,4.31,2.83S21.77,71.52,23.11,70.52Z"
               id="path71018" />
            <path
               class="cls-7"
               d="M32,60.63c.54,2.49-.64,5.14-3.4,5.49-2.27.28-4.13-1.23-4.67-3.73A4.39,4.39,0,0,1,27,57,4.4,4.4,0,0,1,32,60.63Z"
               id="path71020" />
            <path
               class="cls-7"
               d="M15.68,61.51c.17,2.51-1.94,5.13-4.69,4.72C8.72,65.9,7.35,64,7.5,61.44a4.37,4.37,0,0,1,4.4-4.31C14.18,57.26,15.52,58.88,15.68,61.51Z"
               id="path71022" />
            <g
               id="g8739"
               transform="matrix(1.2730091,0.08015026,-0.08015026,1.2730091,-15.725456,-1.606925)"
               inkscape:label="Hat">
              <path
                 fill="#dd2e44"
                 d="m 50.008438,43.57252 c 0.01096,-0.09019 -0.0233,-0.184885 -0.08113,-0.280885 0,0 -11.659764,-19.349415 -12.931632,-19.49999 -1.271976,-0.148614 -17.095745,15.975997 -17.095745,15.975997 -0.07949,0.08048 -0.134418,0.163293 -0.144433,0.25454 -0.149097,1.263066 6.503563,3.079506 14.856939,4.060565 8.355344,0.981168 15.246902,0.752838 15.396001,-0.510227 z"
                 id="path5268"
                 style="stroke-width:1.39378" />
              <path
                 fill="#ea596e"
                 d="m 36.910444,23.815538 c -0.0451,0.01226 -0.09976,0.0369 -0.16307,0.07485 -1.27625,1.439349 -11.565988,13.519252 -14.338925,17.790308 2.168665,0.745234 4.657846,1.24669 7.662388,1.763932 1.414869,-3.989147 7.721325,-18.904972 6.83961,-19.629086 z"
                 id="path5270"
                 style="stroke-width:1.39378" />
            </g>
            <path
               fill="#aa8dd8"
               d="m 76.91823,-7.4478274 c 0.441117,0.408537 0.726173,0.985293 0.753163,1.635844 0.07911,2.0518891 -0.373043,3.8584937 -1.308475,5.21280703 -0.990341,1.4338068 -2.47821,2.28651907 -4.084956,2.34991917 -2.818643,0.1089751 -5.777826,-2.29851867 -5.966369,-7.1237656 -0.07464,-1.8764146 -0.789989,-2.6110166 -1.075969,-2.5973696 -0.286667,0.009 -0.943675,0.798565 -0.871365,2.6753394 0.07911,2.05188 -0.373043,3.8584945 -1.308476,5.21279733 -0.990342,1.43380707 -2.477524,2.29117917 -4.084959,2.34991917 -2.82097,0.1093158 -5.777823,-2.29851837 -5.96801,-7.118764 -0.05429,-1.3676969 -0.436349,-2.0372439 -0.66006,-2.3112559 -0.182184,-0.218259 -0.338354,-0.292803 -0.418924,-0.290439 -0.283647,0.01334 -0.942027,0.793574 -0.869035,2.6749993 0.04898,1.2994559 -0.962571,2.3960505 -2.262026,2.4450265 -1.299111,0.051311 -2.393028,-0.9582539 -2.44503,-2.2620295 -0.190184,-4.8202353 2.56979,-7.4553859 5.393093,-7.5650419 2.820969,-0.109326 5.777823,2.2985076 5.966366,7.1237545 0.05197,1.3680468 0.435663,2.0325841 0.659374,2.3066059 0.180209,0.2209134 0.336366,0.2954698 0.416596,0.2907743 0.286668,-0.00899 0.944357,-0.7939236 0.871365,-2.675339 -0.187855,-4.8205861 2.569789,-7.4553847 5.393089,-7.5650507 2.820973,-0.109316 5.780155,2.298178 5.963351,7.1194444 0.05429,1.3676964 0.438679,2.0369035 0.662392,2.3109153 0.179805,0.2186367 0.336023,0.2931438 0.416593,0.2907761 0.285983,-0.013637 0.943675,-0.7985645 0.871366,-2.6753391 -0.05131,-1.2991061 0.96257,-2.3960401 2.262027,-2.4450271 0.653907,-0.02038 1.251433,0.2223 1.69488,0.630497 z"
               id="path9586"
               style="stroke-width:2.35461"
               transform="matrix(0.77218909,-0.63531367,0.63531367,0.77218909,-19.544926,62.608644)" />
            <g
               id="g73067"
               clip-path="url(#clipPath73080)"
               inkscape:path-effect="#path-effect73084">
              <path
                 class="cls-5"
                 d="m 28.34,34.23 c 0,-5.41 -2.45,-15.38 -16,-15.93 3.22,4.75 -1.15,10.51 -1.15,15.93 0,5.42 3.16,9.77 8.57,9.77 5.41,0 8.57,-4.35 8.58,-9.77 z"
                 id="path73063"
                 inkscape:original-d="M28.34,34.23c0-5.41-2.45-15.38-16-15.93,3.22,4.75-1.15,10.51-1.15,15.93S14.35,44,19.76,44,28.33,39.65,28.34,34.23Z" />
              <path
                 class="cls-6"
                 d="M 19.14,23.67 A 10.88,10.88 0 0 0 12.53,18.3 c 0,0 3,1.1 4.8,6.4 a 14.32,14.32 0 0 1 -3.65,-0.51 7,7 0 0 0 4.32,2.73 27.8,27.8 0 0 1 0.54,3.43 H 17.62 A 6,6 0 0 1 12.42,28 5.54,5.54 0 0 0 18,32.82 h 0.68 c 0,0.45 0,0.9 0,1.38 v 2 h -1.16 a 10.19,10.19 0 0 1 -6.31,-2.59 c 0,0.68 2.27,5.15 6.66,5.15 h 0.8 v 9 a 1.28,1.28 0 0 0 2.56,0 v -9 h 0.06 c 4.39,0 7,-4.46 7,-5.14 A 11.85,11.85 0 0 1 21.62,36.2 H 21.2 v -4 c 3.9,-1.28 4.93,-6.25 4.77,-6.88 a 10,10 0 0 1 -4.93,4.41 17.06,17.06 0 0 0 -0.92,-3.9 6.4,6.4 0 0 0 1.41,-5 9.17,9.17 0 0 1 -2.14,2.72 z"
                 id="path73065"
                 inkscape:original-d="M19.14,23.67a10.88,10.88,0,0,0-6.61-5.37s3,1.1,4.8,6.4a14.32,14.32,0,0,1-3.65-.51A7,7,0,0,0,18,26.92a27.8,27.8,0,0,1,.54,3.43l-.92,0A6,6,0,0,1,12.42,28,5.54,5.54,0,0,0,18,32.82l.68,0c0,.45,0,.9,0,1.38v2H17.52a10.19,10.19,0,0,1-6.31-2.59c0,.68,2.27,5.15,6.66,5.15h.8v9a1.28,1.28,0,0,0,2.56,0v-9h.06c4.39,0,7-4.46,7-5.14a11.85,11.85,0,0,1-6.67,2.58h-.42v-4c3.9-1.28,4.93-6.25,4.77-6.88a10,10,0,0,1-4.93,4.41,17.06,17.06,0,0,0-.92-3.9,6.4,6.4,0,0,0,1.41-5,9.17,9.17,0,0,1-2.14,2.72Z" />
            </g>
          </g>
        </g>
      </g>
    </g>
  </g>
  <g
     id="g9662"
     transform="matrix(0.77218912,-0.63531367,0.63531367,0.77218912,-19.544926,62.608644)"
     inkscape:label="Confetti">
    <path
       fill="#77b255"
       d="m 121.92426,39.634429 c 0.0917,4.826364 -2.72246,7.40203 -5.54659,7.450978 -2.82185,0.04955 -5.7309,-2.421062 -5.8186,-7.243959 -0.0326,-1.882756 -0.73305,-2.628467 -1.01804,-2.627657 -0.29134,0.0065 -0.96422,0.781924 -0.93039,2.660125 0.09,4.823489 -2.72642,7.39856 -5.55055,7.447507 -2.82532,0.0535 -5.728618,-2.420468 -5.815728,-7.245642 -0.03551,-1.881074 -0.737601,-2.629659 -1.024387,-2.622017 -0.283908,0.006 -0.960744,0.777966 -0.927515,2.658444 0.0232,1.296117 -1.008861,2.374263 -2.307258,2.396865 -1.302354,0.01913 -2.373068,-1.01342 -2.397354,-2.314688 -0.0883,-4.820615 2.72186,-7.399754 5.551742,-7.452064 2.821856,-0.04954 5.72574,2.42215 5.81741,7.248518 0.0326,1.882755 0.73304,2.628466 1.01983,2.620822 0.28559,-0.0031 0.96242,-0.775091 0.9286,-2.653291 -0.0888,-4.828045 2.72245,-7.402031 5.55174,-7.452063 2.82017,-0.05242 5.72406,2.419273 5.81513,7.24792 0.0315,1.877603 0.7388,2.625104 1.01983,2.620822 0.28906,-0.0071 0.96303,-0.777369 0.93207,-2.657251 -0.0266,-1.301864 1.00827,-2.371982 2.30726,-2.396864 1.2984,-0.0226 2.37307,1.01342 2.3928,2.313495 z"
       id="path9165"
       style="stroke-width:2.35461" />
    <circle
       fill="#5c913b"
       cx="34.679253"
       cy="77.080574"
       r="3.5319221"
       id="circle9167"
       style="stroke-width:2.35461" />
    <circle
       fill="#9266cc"
       cx="66.867844"
       cy="10.202686"
       r="4.7092295"
       id="circle9169"
       style="stroke-width:2.35461" />
    <circle
       fill="#9266cc"
       cx="80.476624"
       cy="70.827919"
       r="4.7092295"
       id="circle9171"
       style="stroke-width:2.35461" />
    <circle
       fill="#5c913b"
       cx="11.448915"
       cy="43.715626"
       r="3.5319221"
       id="circle9173"
       style="stroke-width:2.35461" />
    <circle
       fill="#5c913b"
       cx="65.490135"
       cy="-29.242222"
       r="3.5319221"
       id="circle9175"
       style="stroke-width:2.35461" />
    <circle
       fill="#ffcc4d"
       cx="103.19608"
       cy="12.440665"
       r="4.7092295"
       id="circle9177"
       style="stroke-width:2.35461" />
    <circle
       fill="#ffcc4d"
       cx="72.908195"
       cy="53.225346"
       r="3.5319221"
       id="circle9179"
       style="stroke-width:2.35461" />
    <circle
       fill="#ffcc4d"
       cx="29.99329"
       cy="3.5898466"
       r="3.5319221"
       id="circle9181"
       style="stroke-width:2.35461" />
    <path
       fill="#77b255"
       d="m 66.678626,100.30843 c -4.767344,0.75804 -7.707337,-1.672963 -8.146257,-4.463209 -0.439198,-2.787907 1.605507,-6.010581 6.369959,-6.764224 1.860166,-0.292614 2.501881,-1.089398 2.461677,-1.371543 -0.04667,-0.287652 -0.907721,-0.846855 -2.763208,-0.553689 -4.76473,0.75598 -7.704447,-1.677363 -8.143367,-4.467608 -0.443598,-2.790798 1.605231,-6.008244 6.372023,-6.761611 1.858102,-0.295227 2.502434,-1.094076 2.455214,-1.377051 -0.04516,-0.280358 -0.90332,-0.843963 -2.761145,-0.551074 -1.280467,0.202177 -2.490938,-0.670929 -2.692833,-1.953725 -0.199002,-1.287204 0.675604,-2.490387 1.961019,-2.694344 4.762113,-0.753915 7.704996,1.672691 8.148044,4.468164 0.439199,2.787903 -1.607294,6.005629 -6.374637,6.76367 -1.860165,0.292613 -2.501881,1.089398 -2.454662,1.372372 0.04254,0.282422 0.900707,0.846026 2.756194,0.552859 4.769406,-0.755429 7.707338,1.672964 8.148047,4.468162 0.441815,2.785848 -1.604684,6.003566 -6.374365,6.761333 -1.855211,0.290828 -2.497756,1.094627 -2.45466,1.372373 0.04695,0.285312 0.903044,0.846303 2.760594,0.555749 1.285691,-0.206292 2.488596,0.67065 2.692832,1.95373 0.201891,1.282799 -0.675609,2.490386 -1.960469,2.689666 z"
       id="path9584"
       style="stroke-width:2.35461" />
    <path
       fill="#aa8dd8"
       d="m 51.456196,40.38902 c 0.59654,0.07504 1.164249,0.377717 1.565206,0.890722 1.259767,1.621578 1.944838,3.353328 1.973612,4.999032 0.03047,1.742317 -0.681985,3.30221 -1.950931,4.289853 -2.22735,1.730765 -6.035062,1.498154 -8.999572,-2.313698 -1.153895,-1.481566 -2.163289,-1.661833 -2.387769,-1.48413 -0.227744,0.174326 -0.301707,1.198836 0.850501,2.682043 1.259767,1.621578 1.944838,3.353317 1.973611,4.999031 0.03047,1.742317 -0.678712,3.305601 -1.95093,4.289854 -2.229042,1.732397 -6.035063,1.498153 -8.997993,-2.308678 -0.840973,-1.079954 -1.541578,-1.401541 -1.883048,-1.49391 -0.275226,-0.07124 -0.445583,-0.04083 -0.509687,0.008 -0.222794,0.176069 -0.303282,1.193814 0.852193,2.680411 0.796901,1.027594 0.613653,2.508186 -0.413935,3.305087 -1.025953,0.798589 -2.503222,0.615401 -3.305088,-0.41394 -2.962927,-3.806832 -2.255051,-7.556545 -0.02431,-9.290574 2.229042,-1.732397 6.035062,-1.498154 8.999571,2.313699 0.83928,1.081596 1.538305,1.398152 1.879773,1.490523 0.275174,0.07454 0.445528,0.04417 0.50799,-0.0064 0.227755,-0.174323 0.304971,-1.195455 -0.850501,-2.682053 -2.961237,-3.808463 -2.255052,-7.556535 -0.02432,-9.290573 2.229045,-1.732398 6.036756,-1.499786 8.994607,2.311951 0.840973,1.079964 1.543271,1.39991 1.884739,1.49227 0.273515,0.07294 0.443891,0.04248 0.507989,-0.0064 0.224487,-0.177702 0.301709,-1.198836 -0.850498,-2.682044 -0.79859,-1.025962 -0.613651,-2.508197 0.41394,-3.305097 0.519608,-0.39752 1.146612,-0.548429 1.744842,-0.475035 z"
       id="path12881"
       style="stroke-width:2.35461" />
  </g>
</svg>
