<?xml version="1.0" encoding="UTF-8" standalone="no"?>
<svg
   width="37mm"
   height="55.14mm"
   viewBox="0 0 104.89 156.3"
   version="1.1"
   id="svg9506"
   xmlns="http://www.w3.org/2000/svg"
   xmlns:svg="http://www.w3.org/2000/svg">
  <defs
     id="defs9476">
    <style
       id="style9474">
      .cls-1 {
        fill: #69b549;
      }

      .cls-2 {
        fill: #f39110;
      }

      .cls-3 {
        fill: #f8b939;
      }

      .cls-4 {
        fill: #2b2c29;
      }

      .cls-5 {
        fill: #c16a4f;
      }

      .cls-6 {
        fill: #d99e83;
      }

      .cls-7 {
        fill: #40732e;
      }

      .cls-8 {
        fill: #5d913b;
      }
    </style>
  </defs>
  <g
     id="Layer_2"
     data-name="Layer 2">
    <g
       id="grid">
      <g
         id="ml_copy"
         data-name="ml copy">
        <g
           id="fridays">
          <g
             id="g9500">
            <path
               class="cls-1"
               d="M95.19,100.89l4.27-2.63c.86-.53,4-2.67,5.21-1,.73,1-.46,4-2.42,7.09-1.79,2.85-6,8.73-6.18,9.87s1.21,5.6,1.65,7.34,1.78,5.89,1.34,7.53-2.8,6.2-9.3,6.38c-5.16.14-6.72-1.31-6.93-2.23-.15-.66-.61-2.85-.61-2.85s-4.14,2.79-6.1,3.87-7.22,4-7.22,4,1.22,4.7,1.47,6.61.95,4.63,0,6.51c-.85,1.7-3.59,4.6-10.32,4.83-5.25.17-6.64-1.41-7.51-2.37s-1.24-5.71-1.28-6.7-.35-4.49-.35-4.49-7.13-.07-11.43-.21c-3.9-.13-9-.52-9-.52s.27,2.06.51,3.54.37,4.11-1,5.52c-1.79,1.91-6.63,2.23-9.3,2.08s-6.43-1.37-7.61-3.74.11-5.59.62-7.44c.45-1.63,1.26-4,.89-4.62S10.94,136,6.1,131.5-5.5,111.06,7.72,99.24s38.91-.58,40.27.2S95.19,100.89,95.19,100.89Z"
               id="path9478" />
            <path
               class="cls-2"
               d="M52.77,72.44c-12.34,1-21.37,7.54-25.7,14.41a56.4,56.4,0,0,0-3.85,7,20.76,20.76,0,0,1,8.2,1.86C36,97.93,41.2,100.29,45,111.31c2.88,8.32,4.19,16.3,10.88,17.8,7.57,1.69,25,0,33.06-8.45S98.39,106,96,98.11s-12.57-21.76-26-25C64.12,71.74,58.37,72,52.77,72.44Z"
               id="path9480" />
            <path
               class="cls-3"
               d="M94.22,93.92c-.41-.86-1.24-2.17-1.24-2.17s0,1.82-.11,2.78c-.19,1.58-.92,4.86-1.43,4.4A107.43,107.43,0,0,1,84,90.13c-1.6-2.17-7.06-7.81-7.26-9.71a19.37,19.37,0,0,1,1-4.17l-2.14-1.11c-.79-.4-2-.83-2-.83s-.51,4.37-1.23,5.22S67.74,82,64.64,83.34c-3.75,1.59-7.36,3.61-8.73,3.91-1.2.27-8.11-.93-10.72-1.32-3.27-.49-8.22-1.68-9.38-2.44A13.7,13.7,0,0,1,33,80.24s-.77.58-1.53,1.23a15,15,0,0,0-1.72,1.9s2.13,2,2.28,2.73c.2,1.06-1,2.56-2,4-.61.85-2.27,4.4-2.27,4.4a6.34,6.34,0,0,1,1.93.48c1.11.46,2.16.94,2.16.94s2.39-6.22,4.08-6.85c1.44-.54,5.62.65,8.64,1.16,4.29.7,8.62,1.31,9.58,2.43s2.06,5.85,3.08,9.82c1.12,4.35,4,15.62,3.48,16.51s-5,.77-7.61.56a33.43,33.43,0,0,1-5.75-1.34s.59,1.86.78,2.35c.27.7,1.13,2.67,1.13,2.67s5.12,2,19.93.05,21.75-12.39,23.65-17c2.55-6.13,2.77-9.35,2.77-9.35S94.63,94.78,94.22,93.92Zm-12.78,20c-3.66,2.52-13.29,5.42-15.08,4.55-1.44-.7-4-12.23-5.2-17.37-.78-3.3-2.51-8.28-1.65-9.88.58-1.09,4.14-2.83,6.77-4.18s6.07-3,7.14-3c1.52.12,5,5.24,8.39,9.61s7.18,8.91,7.3,10.53S85.22,111.3,81.44,113.88Z"
               id="path9482" />
            <path
               class="cls-4"
               d="M32,109.33c.54,2.5-.64,5.14-3.4,5.49-2.27.29-4.13-1.23-4.67-3.72A4.38,4.38,0,0,1,27,105.7,4.39,4.39,0,0,1,32,109.33Z"
               id="path9484" />
            <path
               class="cls-4"
               d="M15.68,110.21c.17,2.51-1.94,5.13-4.69,4.73-2.27-.34-3.64-2.28-3.49-4.8a4.36,4.36,0,0,1,4.4-4.3C14.18,106,15.52,107.58,15.68,110.21Z"
               id="path9486" />
            <path
               class="cls-4"
               d="M23.11,119.22c1-.74,2.66-2.48,3.83-1.09s-.7,2.78-1.79,3.63-3.51,3-5.32,3-4.33-1.88-6-3.2c-1.37-1.06-2-2.48-1.33-3.38s1.88-.63,2.89.19c1.17,1,3.42,2.87,4.31,2.84S21.77,120.22,23.11,119.22Z"
               id="path9488" />
            <g
               id="g9498">
              <path
                 class="cls-5"
                 d="M58.38,45.24c-.5-1.7-1.05-3.33-1.64-4.87-.71-1.84-1.47-3.56-2.25-5.16s-1.43-2.82-2.14-4.06c-1.06-1.86-2.09-3.45-3-4.74a42.45,42.45,0,0,0-3-3.93l-7.53,2.73a35.93,35.93,0,0,1,3.1,5.11c.72,1.39,1.52,3.09,2.35,5.09.42,1,.84,2.1,1.27,3.26q.88,2.44,1.74,5.36c.32,1.09.63,2.24.93,3.44.11.43.23.85.34,1.3a34,34,0,0,1,.7,4.33c.13,1.32.18,2.65.19,4,0,1.91-.09,3.81-.26,5.64-.13,1.48-.32,2.91-.52,4.26-.31,2.08-.67,4-1,5.54a39,39,0,0,0-.9,4.74c.24,1,1.43,2.85,7,3,8.67.22,8.71-3.34,8.71-3.34a45.85,45.85,0,0,0,.07-5c0-1.61-.15-3.58-.37-6q-.2-2.13-.54-4.65c-.24-1.74-.53-3.63-.9-5.67-.27-1.53-.6-3.17-1-4.87-.11-.53-.22-1-.34-1.58C59.13,47.85,58.76,46.53,58.38,45.24Z"
                 id="path9490" />
              <path
                 class="cls-6"
                 d="M55.13,67.69A17.32,17.32,0,0,1,48.68,67c-.31,2.08-.67,4-1,5.54a24.56,24.56,0,0,0,7.71.79,27.43,27.43,0,0,0,4.66-.62A20.67,20.67,0,0,0,62.54,72c0-1.61-.15-3.58-.37-6A15.26,15.26,0,0,1,55.13,67.69Zm0-10.53a19,19,0,0,1-5.7-.08c0,1.9-.09,3.8-.25,5.63a26.27,26.27,0,0,0,6.64,0c.94-.12,1.86-.28,2.75-.48a23.39,23.39,0,0,0,3-.9q-.35-2.62-.89-5.67A18.77,18.77,0,0,1,55.16,57.16Zm-.36-4.73a26.32,26.32,0,0,0,5-1.62c-.11-.53-.22-1-.34-1.58-.3-1.38-.66-2.7-1-4A21.78,21.78,0,0,1,53.47,47a19,19,0,0,1-5.24.48c.11.43.23.85.33,1.3a30.88,30.88,0,0,1,.7,4.32,26.53,26.53,0,0,0,5.41-.63Zm-2.73-9.7a25.83,25.83,0,0,0,4.67-2.36c-.71-1.84-1.47-3.56-2.25-5.16a19.68,19.68,0,0,1-4.4,2.28,20.37,20.37,0,0,1-4.53,1.18q.88,2.44,1.74,5.36c.33-.07.63-.08,1-.15A28.47,28.47,0,0,0,52.07,42.73Zm.28-11.58c-1.06-1.86-2.09-3.45-3-4.74A20.32,20.32,0,0,1,46,28.65a20.25,20.25,0,0,1-4,1.67c.72,1.4,1.52,3.09,2.35,5.09A26.38,26.38,0,0,0,48.6,33.6,27.24,27.24,0,0,0,52.35,31.15Z"
                 id="path9492" />
              <path
                 class="cls-7"
                 d="M73.46,5.56C73.34,5.46,61-5.14,49.89,3.2c-5,3.74-7.64,8.63-7.75,14.21-3.17-2.83-7.31-4.16-12.36-3.94-13.8.6-18.52,17.13-18.57,17.3a.54.54,0,0,0,.27.61.53.53,0,0,0,.65-.11c0-.06,5.16-5.65,15.64-6.11,10.71-.46,18.34-.28,18.41-.27l.14,0a.55.55,0,0,0,.35-.25c0-.09,5.25-9,10.91-13.23C66,5.1,72.93,6.48,73,6.5a.56.56,0,0,0,.6-.29A.54.54,0,0,0,73.46,5.56Z"
                 id="path9494" />
              <path
                 class="cls-8"
                 d="M64.85,15.23c-10.52-2.86-17.27,1.24-21.14,5.27-5.68.17-15.85,2.42-22,15.39-7.55,15.92,5.51,30.76,5.64,30.91a.56.56,0,0,0,.52.16l.06,0a.53.53,0,0,0,.36-.48A67.14,67.14,0,0,1,35,42.07a129.5,129.5,0,0,1,10.6-16.78A47.74,47.74,0,0,1,61.6,27.07,42.28,42.28,0,0,1,80.92,39.81a.53.53,0,0,0,.6.18.55.55,0,0,0,.36-.51C81.88,39.28,81.89,19.88,64.85,15.23Z"
                 id="path9496" />
            </g>
          </g>
        </g>
      </g>
    </g>
  </g>
  <g
     id="g8739"
     transform="matrix(1.2529428,-0.23898154,0.23898154,1.2529428,-31.747016,59.714255)">
    <path
       fill="#dd2e44"
       d="m 50.008438,43.57252 c 0.01096,-0.09019 -0.0233,-0.184885 -0.08113,-0.280885 0,0 -11.659764,-19.349415 -12.931632,-19.49999 -1.271976,-0.148614 -17.095745,15.975997 -17.095745,15.975997 -0.07949,0.08048 -0.134418,0.163293 -0.144433,0.25454 -0.149097,1.263066 6.503563,3.079506 14.856939,4.060565 8.355344,0.981168 15.246902,0.752838 15.396001,-0.510227 z"
       id="path5268"
       style="stroke-width:1.39378" />
    <path
       fill="#ea596e"
       d="m 36.910444,23.815538 c -0.0451,0.01226 -0.09976,0.0369 -0.16307,0.07485 -1.27625,1.439349 -11.565988,13.519252 -14.338925,17.790308 2.168665,0.745234 4.657846,1.24669 7.662388,1.763932 1.414869,-3.989147 7.721325,-18.904972 6.83961,-19.629086 z"
       id="path5270"
       style="stroke-width:1.39378" />
  </g>
  <g
     id="g9662"
     transform="matrix(-0.99995021,0,0,-0.99995021,100.89064,122.15682)">
    <path
       fill="#77b255"
       d="m 73.716129,44.263009 c 1.923741,4.427349 0.303314,7.880979 -2.289123,9.002313 -2.590105,1.12102 -6.221074,-0.05478 -8.13983,-4.480433 -0.747557,-1.728292 -1.67927,-2.150871 -1.942457,-2.04153 -0.266903,0.116978 -0.593544,1.090334 0.153381,2.813959 1.921091,4.425332 0.298331,7.879279 -2.294107,9.000613 -2.591806,1.125997 -6.218738,-0.0551 -8.137812,-4.483085 -0.749576,-1.725641 -1.683937,-2.150237 -1.946176,-2.033897 -0.260221,0.113686 -0.59184,1.08535 0.1554,2.811309 0.515305,1.189503 -0.02809,2.579561 -1.219928,3.095186 -1.196817,0.513927 -2.580193,-0.03276 -3.098469,-1.22661 -1.91844,-4.423316 -0.302997,-7.878647 2.293475,-9.005281 2.590105,-1.121018 6.216722,0.05775 8.140461,4.485103 0.747557,1.728291 1.67927,2.15087 1.941509,2.034529 0.262851,-0.111722 0.594491,-1.083334 -0.152433,-2.806959 -1.921722,-4.429998 -0.303313,-7.880979 2.293474,-9.005279 2.587455,-1.123039 6.214073,0.05573 8.13813,4.485418 0.744588,1.723942 1.683304,2.14557 1.941508,2.034528 0.264569,-0.116662 0.594175,-1.085667 -0.150733,-2.811942 -0.520608,-1.193534 0.02841,-2.577226 1.219929,-3.095186 1.191835,-0.515621 2.580194,0.03276 3.093801,1.227244 z"
       id="path9165"
       style="stroke-width:2.35461" />
    <circle
       fill="#5c913b"
       cx="92.141136"
       cy="35.691261"
       r="3.5319221"
       id="circle9167"
       style="stroke-width:2.35461" />
    <circle
       fill="#9266cc"
       cx="34.421982"
       cy="19.692884"
       r="4.7092295"
       id="circle9169"
       style="stroke-width:2.35461" />
    <circle
       fill="#9266cc"
       cx="89.678436"
       cy="-18.682594"
       r="4.7092295"
       id="circle9171"
       style="stroke-width:2.35461" />
    <circle
       fill="#5c913b"
       cx="34.584522"
       cy="43.456501"
       r="3.5319221"
       id="circle9173"
       style="stroke-width:2.35461" />
    <circle
       fill="#5c913b"
       cx="62.135223"
       cy="59.525867"
       r="3.5319221"
       id="circle9175"
       style="stroke-width:2.35461" />
    <circle
       fill="#ffcc4d"
       cx="58.099224"
       cy="-6.3309808"
       r="4.7092295"
       id="circle9177"
       style="stroke-width:2.35461" />
    <circle
       fill="#ffcc4d"
       cx="90.499657"
       cy="61.75742"
       r="3.5319221"
       id="circle9179"
       style="stroke-width:2.35461" />
    <circle
       fill="#ffcc4d"
       cx="38.947514"
       cy="87.236191"
       r="3.5319221"
       id="circle9181"
       style="stroke-width:2.35461" />
    <path
       fill="#77b255"
       d="m 33.470476,81.438782 c -3.285719,3.536417 -7.099267,3.43544 -9.165333,1.509435 -2.064843,-1.923992 -2.442291,-5.721883 0.843865,-9.253053 1.284004,-1.377379 1.297888,-2.40035 1.092261,-2.597682 -0.214114,-0.197678 -1.236801,-0.106977 -2.516782,1.267952 -3.284933,3.533181 -7.099705,3.430193 -9.165771,1.504189 -2.070089,-1.923555 -2.441067,-5.719873 0.847101,-9.252269 1.280768,-1.378163 1.295439,-2.404374 1.083777,-2.598033 -0.208424,-0.192871 -1.231553,-0.107413 -2.513545,1.268739 -0.883395,0.948727 -2.374727,1.007766 -3.324669,0.122363 -0.9503817,-0.890657 -1.0037447,-2.377176 -0.117552,-3.330356 3.284147,-3.529942 7.097257,-3.43421 9.169796,-1.506635 2.064841,1.923988 2.437831,5.719087 -0.847889,9.255502 -1.284004,1.377378 -1.297888,2.40035 -1.086227,2.594008 0.207641,0.196106 1.230768,0.11065 2.510748,-1.264279 3.288954,-3.535631 7.099269,-3.43544 9.169797,-1.506639 2.065633,1.920757 2.438613,5.715853 -0.849116,9.253494 -1.281205,1.372918 -1.291417,2.401923 -1.086225,2.594008 0.212888,0.195667 1.232778,0.109426 2.515993,-1.264718 0.884971,-0.955188 2.372711,-1.006541 3.324671,-0.122358 0.94994,0.885407 1.00374,2.377176 0.1151,3.326332 z"
       id="path9584"
       style="stroke-width:2.35461" />
    <path
       fill="#aa8dd8"
       d="m 85.176211,87.149229 c 0.529775,-0.2843 1.167882,-0.36632 1.791856,-0.180302 1.966105,0.592403 3.527501,1.607443 4.504032,2.932422 1.033861,1.402756 1.356419,3.087045 0.8939,4.627087 -0.81349,2.700899 -4.05239,4.716416 -8.676714,3.32568 -1.798716,-0.539579 -2.726009,-0.101973 -2.806097,0.172903 -0.08471,0.274012 0.448315,1.152062 2.246604,1.693955 1.966105,0.592406 3.527502,1.607446 4.504031,2.932426 1.033862,1.40275 1.361048,3.08791 0.893901,4.62708 -0.813922,2.70322 -4.05239,4.71642 -8.672517,3.32886 -1.311025,-0.39339 -2.06842,-0.24982 -2.400293,-0.12736 -0.26563,0.10131 -0.386907,0.22475 -0.410866,0.30171 -0.07966,0.27257 0.444126,1.14889 2.247036,1.69165 1.244767,0.37622 1.952833,1.68938 1.576606,2.93415 -0.373913,1.24519 -1.684323,1.95138 -2.934151,1.5766 -4.620127,-1.38755 -6.214602,-4.85441 -5.400246,-7.55994 0.813921,-2.70321 4.05239,-4.71642 8.676712,-3.32568 1.310594,0.39571 2.063792,0.24895 2.395663,0.1265 0.267507,-0.0986 0.388791,-0.22201 0.410435,-0.2994 0.08472,-0.27401 -0.443692,-1.1512 -2.246604,-1.69396 -4.619694,-1.38987 -6.214601,-4.854412 -5.400246,-7.55994 0.813922,-2.703214 4.052822,-4.71873 8.671652,-3.32423 1.311025,0.393393 2.068853,0.247504 2.400723,0.125051 0.26522,-0.09894 0.386477,-0.22244 0.410435,-0.299403 0.08009,-0.274877 -0.448316,-1.152063 -2.246603,-1.693956 -1.245199,-0.373911 -1.952832,-1.689384 -1.576605,-2.934151 0.193393,-0.624991 0.617147,-1.111138 1.147356,-1.397752 z"
       id="path9586"
       style="stroke-width:2.35461" />
    <path
       fill="#aa8dd8"
       d="m 14.008898,-20.607619 c 0.446688,-0.40244 1.046823,-0.634272 1.697155,-0.60243 2.050655,0.106425 3.80907,0.719808 5.073411,1.773668 1.338566,1.115722 2.053494,2.674488 1.971597,4.280398 -0.145895,2.816972 -2.810671,5.5467621 -7.633235,5.2989842 -1.875497,-0.095044 -2.671672,0.5510805 -2.683896,0.837125 -0.01692,0.2863078 0.710129,1.0119045 2.585764,1.1092975 2.050654,0.1064242 3.80907,0.7198074 5.07341,1.7736687 1.338567,1.115721 2.058196,2.6742233 1.971598,4.2803976 -0.145763,2.81932224 -2.810671,5.5467622 -7.628401,5.3010712 -1.367015,-0.06938 -2.068316,0.250677 -2.361411,0.448741 -0.233804,0.161738 -0.322142,0.310542 -0.327055,0.390998 -0.01236,0.283696 0.705301,1.009815 2.585631,1.106948 1.298575,0.06851 2.299379,1.174921 2.230864,2.473492 -0.06616,1.29844 -1.170349,2.2967628 -2.473493,2.2308668 C 9.2731066,9.8499152 6.8978456,6.8633462 7.0434776,4.0416702 c 0.145762,-2.819322 2.810671,-5.5467615 7.6332334,-5.298983 1.367149,0.071733 2.063616,-0.2504129 2.356708,-0.4484768 0.236279,-0.1595319 0.324628,-0.308322 0.327189,-0.3886485 0.01693,-0.2863092 -0.705432,-1.012166 -2.585763,-1.1092976 -4.8178624,-0.2480421 -7.1929904,-3.2322593 -7.0473594,-6.0539339 0.145763,-2.8193244 2.8105394,-5.5491124 7.6286654,-5.2963694 1.367015,0.06938 2.068185,-0.253027 2.361276,-0.451092 0.233972,-0.159337 0.322277,-0.308191 0.327189,-0.388647 0.01223,-0.286046 -0.710129,-1.011905 -2.585762,-1.109299 -1.298443,-0.06616 -2.299378,-1.174918 -2.230864,-2.473494 0.03876,-0.653078 0.334351,-1.226257 0.780908,-1.631048 z"
       id="path12881"
       style="stroke-width:2.35461" />
  </g>
</svg>
