<svg xmlns="http://www.w3.org/2000/svg" width="37mm" height="55.14mm" viewBox="0 0 104.89 156.3">
  <defs>
    <style>
      .cls-1 {
        fill: #69b549;
      }

      .cls-2 {
        fill: #f39110;
      }

      .cls-3 {
        fill: #f8b939;
      }

      .cls-4 {
        fill: #2b2c29;
      }

      .cls-5 {
        fill: #c16a4f;
      }

      .cls-6 {
        fill: #d99e83;
      }

      .cls-7 {
        fill: #40732e;
      }

      .cls-8 {
        fill: #5d913b;
      }
    </style>
  </defs>
  <g id="Layer_2" data-name="Layer 2">
    <g id="grid">
      <g id="ml_copy" data-name="ml copy">
        <g id="fridays">
          <g>
            <path class="cls-1" d="M95.19,100.89l4.27-2.63c.86-.53,4-2.67,5.21-1,.73,1-.46,4-2.42,7.09-1.79,2.85-6,8.73-6.18,9.87s1.21,5.6,1.65,7.34,1.78,5.89,1.34,7.53-2.8,6.2-9.3,6.38c-5.16.14-6.72-1.31-6.93-2.23-.15-.66-.61-2.85-.61-2.85s-4.14,2.79-6.1,3.87-7.22,4-7.22,4,1.22,4.7,1.47,6.61.95,4.63,0,6.51c-.85,1.7-3.59,4.6-10.32,4.83-5.25.17-6.64-1.41-7.51-2.37s-1.24-5.71-1.28-6.7-.35-4.49-.35-4.49-7.13-.07-11.43-.21c-3.9-.13-9-.52-9-.52s.27,2.06.51,3.54.37,4.11-1,5.52c-1.79,1.91-6.63,2.23-9.3,2.08s-6.43-1.37-7.61-3.74.11-5.59.62-7.44c.45-1.63,1.26-4,.89-4.62S10.94,136,6.1,131.5-5.5,111.06,7.72,99.24s38.91-.58,40.27.2S95.19,100.89,95.19,100.89Z"/>
            <path class="cls-2" d="M52.77,72.44c-12.34,1-21.37,7.54-25.7,14.41a56.4,56.4,0,0,0-3.85,7,20.76,20.76,0,0,1,8.2,1.86C36,97.93,41.2,100.29,45,111.31c2.88,8.32,4.19,16.3,10.88,17.8,7.57,1.69,25,0,33.06-8.45S98.39,106,96,98.11s-12.57-21.76-26-25C64.12,71.74,58.37,72,52.77,72.44Z"/>
            <path class="cls-3" d="M94.22,93.92c-.41-.86-1.24-2.17-1.24-2.17s0,1.82-.11,2.78c-.19,1.58-.92,4.86-1.43,4.4A107.43,107.43,0,0,1,84,90.13c-1.6-2.17-7.06-7.81-7.26-9.71a19.37,19.37,0,0,1,1-4.17l-2.14-1.11c-.79-.4-2-.83-2-.83s-.51,4.37-1.23,5.22S67.74,82,64.64,83.34c-3.75,1.59-7.36,3.61-8.73,3.91-1.2.27-8.11-.93-10.72-1.32-3.27-.49-8.22-1.68-9.38-2.44A13.7,13.7,0,0,1,33,80.24s-.77.58-1.53,1.23a15,15,0,0,0-1.72,1.9s2.13,2,2.28,2.73c.2,1.06-1,2.56-2,4-.61.85-2.27,4.4-2.27,4.4a6.34,6.34,0,0,1,1.93.48c1.11.46,2.16.94,2.16.94s2.39-6.22,4.08-6.85c1.44-.54,5.62.65,8.64,1.16,4.29.7,8.62,1.31,9.58,2.43s2.06,5.85,3.08,9.82c1.12,4.35,4,15.62,3.48,16.51s-5,.77-7.61.56a33.43,33.43,0,0,1-5.75-1.34s.59,1.86.78,2.35c.27.7,1.13,2.67,1.13,2.67s5.12,2,19.93.05,21.75-12.39,23.65-17c2.55-6.13,2.77-9.35,2.77-9.35S94.63,94.78,94.22,93.92Zm-12.78,20c-3.66,2.52-13.29,5.42-15.08,4.55-1.44-.7-4-12.23-5.2-17.37-.78-3.3-2.51-8.28-1.65-9.88.58-1.09,4.14-2.83,6.77-4.18s6.07-3,7.14-3c1.52.12,5,5.24,8.39,9.61s7.18,8.91,7.3,10.53S85.22,111.3,81.44,113.88Z"/>
            <path class="cls-4" d="M32,109.33c.54,2.5-.64,5.14-3.4,5.49-2.27.29-4.13-1.23-4.67-3.72A4.38,4.38,0,0,1,27,105.7,4.39,4.39,0,0,1,32,109.33Z"/>
            <path class="cls-4" d="M15.68,110.21c.17,2.51-1.94,5.13-4.69,4.73-2.27-.34-3.64-2.28-3.49-4.8a4.36,4.36,0,0,1,4.4-4.3C14.18,106,15.52,107.58,15.68,110.21Z"/>
            <path class="cls-4" d="M23.11,119.22c1-.74,2.66-2.48,3.83-1.09s-.7,2.78-1.79,3.63-3.51,3-5.32,3-4.33-1.88-6-3.2c-1.37-1.06-2-2.48-1.33-3.38s1.88-.63,2.89.19c1.17,1,3.42,2.87,4.31,2.84S21.77,120.22,23.11,119.22Z"/>
            <g>
              <path class="cls-5" d="M58.38,45.24c-.5-1.7-1.05-3.33-1.64-4.87-.71-1.84-1.47-3.56-2.25-5.16s-1.43-2.82-2.14-4.06c-1.06-1.86-2.09-3.45-3-4.74a42.45,42.45,0,0,0-3-3.93l-7.53,2.73a35.93,35.93,0,0,1,3.1,5.11c.72,1.39,1.52,3.09,2.35,5.09.42,1,.84,2.1,1.27,3.26q.88,2.44,1.74,5.36c.32,1.09.63,2.24.93,3.44.11.43.23.85.34,1.3a34,34,0,0,1,.7,4.33c.13,1.32.18,2.65.19,4,0,1.91-.09,3.81-.26,5.64-.13,1.48-.32,2.91-.52,4.26-.31,2.08-.67,4-1,5.54a39,39,0,0,0-.9,4.74c.24,1,1.43,2.85,7,3,8.67.22,8.71-3.34,8.71-3.34a45.85,45.85,0,0,0,.07-5c0-1.61-.15-3.58-.37-6q-.2-2.13-.54-4.65c-.24-1.74-.53-3.63-.9-5.67-.27-1.53-.6-3.17-1-4.87-.11-.53-.22-1-.34-1.58C59.13,47.85,58.76,46.53,58.38,45.24Z"/>
              <path class="cls-6" d="M55.13,67.69A17.32,17.32,0,0,1,48.68,67c-.31,2.08-.67,4-1,5.54a24.56,24.56,0,0,0,7.71.79,27.43,27.43,0,0,0,4.66-.62A20.67,20.67,0,0,0,62.54,72c0-1.61-.15-3.58-.37-6A15.26,15.26,0,0,1,55.13,67.69Zm0-10.53a19,19,0,0,1-5.7-.08c0,1.9-.09,3.8-.25,5.63a26.27,26.27,0,0,0,6.64,0c.94-.12,1.86-.28,2.75-.48a23.39,23.39,0,0,0,3-.9q-.35-2.62-.89-5.67A18.77,18.77,0,0,1,55.16,57.16Zm-.36-4.73a26.32,26.32,0,0,0,5-1.62c-.11-.53-.22-1-.34-1.58-.3-1.38-.66-2.7-1-4A21.78,21.78,0,0,1,53.47,47a19,19,0,0,1-5.24.48c.11.43.23.85.33,1.3a30.88,30.88,0,0,1,.7,4.32,26.53,26.53,0,0,0,5.41-.63Zm-2.73-9.7a25.83,25.83,0,0,0,4.67-2.36c-.71-1.84-1.47-3.56-2.25-5.16a19.68,19.68,0,0,1-4.4,2.28,20.37,20.37,0,0,1-4.53,1.18q.88,2.44,1.74,5.36c.33-.07.63-.08,1-.15A28.47,28.47,0,0,0,52.07,42.73Zm.28-11.58c-1.06-1.86-2.09-3.45-3-4.74A20.32,20.32,0,0,1,46,28.65a20.25,20.25,0,0,1-4,1.67c.72,1.4,1.52,3.09,2.35,5.09A26.38,26.38,0,0,0,48.6,33.6,27.24,27.24,0,0,0,52.35,31.15Z"/>
              <path class="cls-7" d="M73.46,5.56C73.34,5.46,61-5.14,49.89,3.2c-5,3.74-7.64,8.63-7.75,14.21-3.17-2.83-7.31-4.16-12.36-3.94-13.8.6-18.52,17.13-18.57,17.3a.54.54,0,0,0,.27.61.53.53,0,0,0,.65-.11c0-.06,5.16-5.65,15.64-6.11,10.71-.46,18.34-.28,18.41-.27l.14,0a.55.55,0,0,0,.35-.25c0-.09,5.25-9,10.91-13.23C66,5.1,72.93,6.48,73,6.5a.56.56,0,0,0,.6-.29A.54.54,0,0,0,73.46,5.56Z"/>
              <path class="cls-8" d="M64.85,15.23c-10.52-2.86-17.27,1.24-21.14,5.27-5.68.17-15.85,2.42-22,15.39-7.55,15.92,5.51,30.76,5.64,30.91a.56.56,0,0,0,.52.16l.06,0a.53.53,0,0,0,.36-.48A67.14,67.14,0,0,1,35,42.07a129.5,129.5,0,0,1,10.6-16.78A47.74,47.74,0,0,1,61.6,27.07,42.28,42.28,0,0,1,80.92,39.81a.53.53,0,0,0,.6.18.55.55,0,0,0,.36-.51C81.88,39.28,81.89,19.88,64.85,15.23Z"/>
            </g>
          </g>
        </g>
      </g>
    </g>
  </g>
</svg>
