<svg xmlns="http://www.w3.org/2000/svg" width="53.32mm" height="54.92mm" viewBox="0 0 151.14 155.67">
  <defs>
    <style>
      .cls-1 {
        fill: #4665ad;
      }

      .cls-2 {
        fill: #2b2c29;
      }

      .cls-3 {
        fill: #bc1b35;
      }

      .cls-4 {
        fill: #2a2f33;
      }

      .cls-5 {
        fill: #f6f9fb;
      }

      .cls-6 {
        fill: #ccd6dd;
      }

      .cls-7 {
        fill: #66757f;
      }
    </style>
  </defs>
  <g id="Layer_2" data-name="Layer 2">
    <g id="grid">
      <g id="mh_copy" data-name="mh copy">
        <g id="garages">
          <g>
            <path class="cls-1" d="M95.19,100.26l4.27-2.63c.86-.53,4-2.67,5.21-1,.73,1-.46,4-2.42,7.09-1.79,2.85-6,8.73-6.18,9.87s1.21,5.6,1.65,7.33,1.78,5.9,1.34,7.54-2.8,6.2-9.3,6.38c-5.16.14-6.72-1.31-6.93-2.23-.15-.66-.61-2.85-.61-2.85s-4.14,2.79-6.1,3.87-7.22,4-7.22,4,1.22,4.7,1.47,6.61.95,4.63,0,6.51c-.85,1.7-3.59,4.6-10.32,4.83-5.25.17-6.64-1.41-7.51-2.37s-1.24-5.71-1.28-6.7-.35-4.49-.35-4.49-7.13-.07-11.43-.21c-3.9-.13-9-.52-9-.52s.27,2.06.51,3.54.37,4.11-1,5.52c-1.79,1.91-6.63,2.23-9.3,2.08s-6.43-1.37-7.61-3.74.11-5.59.62-7.44c.45-1.63,1.26-4,.89-4.62s-3.64-1.36-8.48-5.84S-5.5,110.43,7.72,98.61,46.63,98,48,98.81,95.19,100.26,95.19,100.26Z"/>
            <path class="cls-2" d="M32,108.7c.54,2.5-.64,5.14-3.4,5.49-2.27.29-4.13-1.23-4.67-3.72A4.4,4.4,0,0,1,27,105.06,4.41,4.41,0,0,1,32,108.7Z"/>
            <path class="cls-2" d="M15.68,109.58c.17,2.51-1.94,5.13-4.69,4.73C8.72,114,7.35,112,7.5,109.51a4.36,4.36,0,0,1,4.4-4.3C14.18,105.34,15.52,107,15.68,109.58Z"/>
            <path class="cls-2" d="M23.11,118.59c1-.74,2.66-2.48,3.83-1.09s-.7,2.78-1.79,3.63-3.51,3-5.32,3-4.33-1.89-6-3.2c-1.37-1.06-2-2.48-1.33-3.38s1.88-.63,2.89.19c1.17,1,3.42,2.87,4.31,2.84S21.77,119.59,23.11,118.59Z"/>
            <g>
              <path class="cls-3" d="M68.12,64.63a10.53,10.53,0,0,0,2.41-3.87,17.29,17.29,0,0,1,1.7-5.39l0-.1c.16-.32.33-.63.52-1a14.21,14.21,0,0,1,1.73-2.49A17.36,17.36,0,0,1,99,49.94s2.46,1.8-1.18,6c2.76,2.78-.33,6.39-.33,6.39s3.39,12.05,10.55,9h0c4.52-1.9,10.17,4.15,3.4,12.06-4.52,5.27-12,3.39-14.31,6-1.77,2.07-1.23,4.73-.73,8.14a24.83,24.83,0,0,1,.47,3.91,23.2,23.2,0,0,1-3.45,13.07A42.85,42.85,0,0,1,89,120a18.24,18.24,0,0,1-1.5,1.4l-.16.14c-.46.38-1,.74-1.45,1.08l-.46.33a32,32,0,0,1-7.53,3.57c-8,2.69-17,3-22,1.93-3.79-.85-5.85-3.78-7.45-7.67-1.23-3-2.18-6.52-3.43-10.13-3-8.76-7-12-10.75-14.12-1-.54-1.93-1-2.86-1.45a20.76,20.76,0,0,0-8.2-1.86,61.9,61.9,0,0,1,3.85-7C40,65.44,64.05,68.75,68.12,64.63Z"/>
              <rect class="cls-4" x="74.71" y="37.11" width="75.33" height="10.42" transform="translate(7.11 100.1) rotate(-49.4)"/>
              <path class="cls-5" d="M69.38,104.25c6.51,4,7.7,11.5,7.7,16a2.3,2.3,0,0,0,3.56,2c8.48-5.72,14.92-14.35,11.88-28.27-.58-2.51-.18-7.35,7.23-8.93s9.89-4.59,10.71-6c.47-.8.78-3-1.31-2.87s-7.13,2.1-12.18-3-6-7.3-6.21-8.13-5.86-12.42-9.24-5.79c-2.8,5.52-5.58,16.14-16.9,19.72-4.6,1.45-10.35,4.3-11.81,7.73-2.46,5.78,2.32,9.32,6.37,11.64s10.2,6,10.2,6Z"/>
              <path class="cls-4" d="M63.12,86.46l4.52-5.28,13.18,11.3L76.3,97.75Zm14.3-16.69,4.51-5.27L95.12,75.79,90.6,81.07Z"/>
              <path class="cls-6" d="M63.08,101l69.68-81.16,2,1.7L65.06,102.69Zm-3.24-2.78,69.68-81.15,2,1.69L61.82,99.91Z"/>
              <path class="cls-4" d="M68.52,101.5A3.47,3.47,0,0,1,64,106.77L56.08,100a3.48,3.48,0,0,1-.37-4.89h0a3.49,3.49,0,0,1,4.9-.38l7.91,6.78Z"/>
              <circle class="cls-4" cx="79.97" cy="104.91" r="3.47" transform="translate(-7.82 6.45) rotate(-4.4)"/>
              <path class="cls-4" d="M85.49,112.58a2.38,2.38,0,1,1-4.75.36h0a2.38,2.38,0,0,1,4.75-.36Z"/>
              <path class="cls-3" d="M149.68,12.41a3.73,3.73,0,0,1,.4,5.23l-14.3,11.62a3.72,3.72,0,0,1-5.23.4l-8.45-7.24a3.72,3.72,0,0,1-.39-5.23L131,1.29a3.72,3.72,0,0,1,5.23-.4l13.45,11.52Z"/>
              <circle class="cls-7" cx="140.71" cy="30.04" r="2.17"/>
              <circle class="cls-7" cx="144.84" cy="26.78" r="2.17"/>
              <circle class="cls-7" cx="148.97" cy="23.52" r="2.17"/>
              <circle class="cls-7" cx="120.48" cy="12.12" r="2.17"/>
              <circle class="cls-7" cx="123.07" cy="7.61" r="2.17"/>
              <circle class="cls-7" cx="125.66" cy="3.09" r="2.17"/>
            </g>
          </g>
        </g>
      </g>
    </g>
  </g>
</svg>
