<?xml version="1.0" encoding="UTF-8" standalone="no"?>
<svg
   width="53.32mm"
   height="54.92mm"
   viewBox="0 0 151.14 155.67"
   version="1.1"
   id="svg17834"
   xmlns="http://www.w3.org/2000/svg"
   xmlns:svg="http://www.w3.org/2000/svg">
  <defs
     id="defs17786">
    <style
       id="style17784">
      .cls-1 {
        fill: #4665ad;
      }

      .cls-2 {
        fill: #2b2c29;
      }

      .cls-3 {
        fill: #bc1b35;
      }

      .cls-4 {
        fill: #2a2f33;
      }

      .cls-5 {
        fill: #f6f9fb;
      }

      .cls-6 {
        fill: #ccd6dd;
      }

      .cls-7 {
        fill: #66757f;
      }
    </style>
  </defs>
  <g
     id="Layer_2"
     data-name="Layer 2">
    <g
       id="grid">
      <g
         id="mh_copy"
         data-name="mh copy">
        <g
           id="garages">
          <g
             id="g17828">
            <path
               class="cls-1"
               d="M95.19,100.26l4.27-2.63c.86-.53,4-2.67,5.21-1,.73,1-.46,4-2.42,7.09-1.79,2.85-6,8.73-6.18,9.87s1.21,5.6,1.65,7.33,1.78,5.9,1.34,7.54-2.8,6.2-9.3,6.38c-5.16.14-6.72-1.31-6.93-2.23-.15-.66-.61-2.85-.61-2.85s-4.14,2.79-6.1,3.87-7.22,4-7.22,4,1.22,4.7,1.47,6.61.95,4.63,0,6.51c-.85,1.7-3.59,4.6-10.32,4.83-5.25.17-6.64-1.41-7.51-2.37s-1.24-5.71-1.28-6.7-.35-4.49-.35-4.49-7.13-.07-11.43-.21c-3.9-.13-9-.52-9-.52s.27,2.06.51,3.54.37,4.11-1,5.52c-1.79,1.91-6.63,2.23-9.3,2.08s-6.43-1.37-7.61-3.74.11-5.59.62-7.44c.45-1.63,1.26-4,.89-4.62s-3.64-1.36-8.48-5.84S-5.5,110.43,7.72,98.61,46.63,98,48,98.81,95.19,100.26,95.19,100.26Z"
               id="path17788" />
            <path
               class="cls-2"
               d="M32,108.7c.54,2.5-.64,5.14-3.4,5.49-2.27.29-4.13-1.23-4.67-3.72A4.4,4.4,0,0,1,27,105.06,4.41,4.41,0,0,1,32,108.7Z"
               id="path17790" />
            <path
               class="cls-2"
               d="M15.68,109.58c.17,2.51-1.94,5.13-4.69,4.73C8.72,114,7.35,112,7.5,109.51a4.36,4.36,0,0,1,4.4-4.3C14.18,105.34,15.52,107,15.68,109.58Z"
               id="path17792" />
            <path
               class="cls-2"
               d="M23.11,118.59c1-.74,2.66-2.48,3.83-1.09s-.7,2.78-1.79,3.63-3.51,3-5.32,3-4.33-1.89-6-3.2c-1.37-1.06-2-2.48-1.33-3.38s1.88-.63,2.89.19c1.17,1,3.42,2.87,4.31,2.84S21.77,119.59,23.11,118.59Z"
               id="path17794" />
            <g
               id="g17826">
              <path
                 class="cls-3"
                 d="M68.12,64.63a10.53,10.53,0,0,0,2.41-3.87,17.29,17.29,0,0,1,1.7-5.39l0-.1c.16-.32.33-.63.52-1a14.21,14.21,0,0,1,1.73-2.49A17.36,17.36,0,0,1,99,49.94s2.46,1.8-1.18,6c2.76,2.78-.33,6.39-.33,6.39s3.39,12.05,10.55,9h0c4.52-1.9,10.17,4.15,3.4,12.06-4.52,5.27-12,3.39-14.31,6-1.77,2.07-1.23,4.73-.73,8.14a24.83,24.83,0,0,1,.47,3.91,23.2,23.2,0,0,1-3.45,13.07A42.85,42.85,0,0,1,89,120a18.24,18.24,0,0,1-1.5,1.4l-.16.14c-.46.38-1,.74-1.45,1.08l-.46.33a32,32,0,0,1-7.53,3.57c-8,2.69-17,3-22,1.93-3.79-.85-5.85-3.78-7.45-7.67-1.23-3-2.18-6.52-3.43-10.13-3-8.76-7-12-10.75-14.12-1-.54-1.93-1-2.86-1.45a20.76,20.76,0,0,0-8.2-1.86,61.9,61.9,0,0,1,3.85-7C40,65.44,64.05,68.75,68.12,64.63Z"
                 id="path17796" />
              <rect
                 class="cls-4"
                 x="74.71"
                 y="37.11"
                 width="75.33"
                 height="10.42"
                 transform="translate(7.11 100.1) rotate(-49.4)"
                 id="rect17798" />
              <path
                 class="cls-5"
                 d="M69.38,104.25c6.51,4,7.7,11.5,7.7,16a2.3,2.3,0,0,0,3.56,2c8.48-5.72,14.92-14.35,11.88-28.27-.58-2.51-.18-7.35,7.23-8.93s9.89-4.59,10.71-6c.47-.8.78-3-1.31-2.87s-7.13,2.1-12.18-3-6-7.3-6.21-8.13-5.86-12.42-9.24-5.79c-2.8,5.52-5.58,16.14-16.9,19.72-4.6,1.45-10.35,4.3-11.81,7.73-2.46,5.78,2.32,9.32,6.37,11.64s10.2,6,10.2,6Z"
                 id="path17800" />
              <path
                 class="cls-4"
                 d="M63.12,86.46l4.52-5.28,13.18,11.3L76.3,97.75Zm14.3-16.69,4.51-5.27L95.12,75.79,90.6,81.07Z"
                 id="path17802" />
              <path
                 class="cls-6"
                 d="M63.08,101l69.68-81.16,2,1.7L65.06,102.69Zm-3.24-2.78,69.68-81.15,2,1.69L61.82,99.91Z"
                 id="path17804" />
              <path
                 class="cls-4"
                 d="M68.52,101.5A3.47,3.47,0,0,1,64,106.77L56.08,100a3.48,3.48,0,0,1-.37-4.89h0a3.49,3.49,0,0,1,4.9-.38l7.91,6.78Z"
                 id="path17806" />
              <circle
                 class="cls-4"
                 cx="79.97"
                 cy="104.91"
                 r="3.47"
                 transform="translate(-7.82 6.45) rotate(-4.4)"
                 id="circle17808" />
              <path
                 class="cls-4"
                 d="M85.49,112.58a2.38,2.38,0,1,1-4.75.36h0a2.38,2.38,0,0,1,4.75-.36Z"
                 id="path17810" />
              <path
                 class="cls-3"
                 d="M149.68,12.41a3.73,3.73,0,0,1,.4,5.23l-14.3,11.62a3.72,3.72,0,0,1-5.23.4l-8.45-7.24a3.72,3.72,0,0,1-.39-5.23L131,1.29a3.72,3.72,0,0,1,5.23-.4l13.45,11.52Z"
                 id="path17812" />
              <circle
                 class="cls-7"
                 cx="140.71"
                 cy="30.04"
                 r="2.17"
                 id="circle17814" />
              <circle
                 class="cls-7"
                 cx="144.84"
                 cy="26.78"
                 r="2.17"
                 id="circle17816" />
              <circle
                 class="cls-7"
                 cx="148.97"
                 cy="23.52"
                 r="2.17"
                 id="circle17818" />
              <circle
                 class="cls-7"
                 cx="120.48"
                 cy="12.12"
                 r="2.17"
                 id="circle17820" />
              <circle
                 class="cls-7"
                 cx="123.07"
                 cy="7.61"
                 r="2.17"
                 id="circle17822" />
              <circle
                 class="cls-7"
                 cx="125.66"
                 cy="3.09"
                 r="2.17"
                 id="circle17824" />
            </g>
          </g>
        </g>
      </g>
    </g>
  </g>
  <g
     id="g8739"
     transform="matrix(1.2010136,-0.42921,0.42921,1.2010136,-39.982606,67.699878)">
    <path
       fill="#dd2e44"
       d="m 50.008438,43.57252 c 0.01096,-0.09019 -0.0233,-0.184885 -0.08113,-0.280885 0,0 -11.659764,-19.349415 -12.931632,-19.49999 -1.271976,-0.148614 -17.095745,15.975997 -17.095745,15.975997 -0.07949,0.08048 -0.134418,0.163293 -0.144433,0.25454 -0.149097,1.263066 6.503563,3.079506 14.856939,4.060565 8.355344,0.981168 15.246902,0.752838 15.396001,-0.510227 z"
       id="path5268"
       style="stroke-width:1.39378" />
    <path
       fill="#ea596e"
       d="m 36.910444,23.815538 c -0.0451,0.01226 -0.09976,0.0369 -0.16307,0.07485 -1.27625,1.439349 -11.565988,13.519252 -14.338925,17.790308 2.168665,0.745234 4.657846,1.24669 7.662388,1.763932 1.414869,-3.989147 7.721325,-18.904972 6.83961,-19.629086 z"
       id="path5270"
       style="stroke-width:1.39378" />
  </g>
  <g
     id="g9662"
     transform="matrix(0.99985095,0,0,0.99985095,28.711807,45.032323)">
    <path
       fill="#77b255"
       d="m 68.457635,16.622702 c 1.92374,4.427349 0.30331,7.880979 -2.28913,9.002313 -2.590103,1.12102 -6.221073,-0.05478 -8.139828,-4.480433 -0.747557,-1.728292 -1.67927,-2.150871 -1.942457,-2.04153 -0.266903,0.116978 -0.593544,1.090334 0.153381,2.813959 1.921091,4.425332 0.298331,7.879279 -2.294107,9.000613 -2.591806,1.125997 -6.218738,-0.0551 -8.137812,-4.483085 -0.749576,-1.725641 -1.683937,-2.150237 -1.946176,-2.033897 -0.260221,0.113686 -0.59184,1.08535 0.1554,2.811309 0.515305,1.189503 -0.02809,2.579561 -1.219928,3.095186 -1.196817,0.513927 -2.580193,-0.03276 -3.098469,-1.22661 -1.91844,-4.423316 -0.302997,-7.878647 2.293475,-9.005281 2.590105,-1.121018 6.216722,0.05775 8.140461,4.485103 0.747557,1.728291 1.67927,2.15087 1.941509,2.034529 0.262851,-0.111722 0.594491,-1.083334 -0.152433,-2.806959 -1.921722,-4.429998 -0.303313,-7.880979 2.293474,-9.005279 2.587455,-1.123039 6.214077,0.05573 8.138127,4.485418 0.74459,1.723942 1.68331,2.14557 1.94151,2.034528 0.26457,-0.116662 0.59418,-1.085667 -0.15073,-2.811942 -0.52061,-1.193534 0.0284,-2.577226 1.21993,-3.095186 1.191833,-0.515621 2.580193,0.03276 3.093803,1.227244 z"
       id="path9165"
       style="stroke-width:2.35461" />
    <circle
       fill="#5c913b"
       cx="23.079872"
       cy="6.7529926"
       r="3.5319221"
       id="circle9167"
       style="stroke-width:2.35461" />
    <circle
       fill="#9266cc"
       cx="50.42577"
       cy="-3.0928063"
       r="4.7092295"
       id="circle9169"
       style="stroke-width:2.35461" />
    <circle
       fill="#9266cc"
       cx="85.1092"
       cy="52.214024"
       r="4.7092295"
       id="circle9171"
       style="stroke-width:2.35461" />
    <circle
       fill="#5c913b"
       cx="34.584522"
       cy="43.456501"
       r="3.5319221"
       id="circle9173"
       style="stroke-width:2.35461" />
    <circle
       fill="#5c913b"
       cx="62.135223"
       cy="59.525867"
       r="3.5319221"
       id="circle9175"
       style="stroke-width:2.35461" />
    <circle
       fill="#ffcc4d"
       cx="14.428818"
       cy="34.130989"
       r="4.7092295"
       id="circle9177"
       style="stroke-width:2.35461" />
    <circle
       fill="#ffcc4d"
       cx="-18.822317"
       cy="90.223534"
       r="3.5319221"
       id="circle9179"
       style="stroke-width:2.35461" />
    <circle
       fill="#ffcc4d"
       cx="38.947514"
       cy="87.236191"
       r="3.5319221"
       id="circle9181"
       style="stroke-width:2.35461" />
    <path
       fill="#77b255"
       d="m 26.875353,88.925138 c -3.285719,3.536417 -7.099267,3.43544 -9.165333,1.509435 -2.064843,-1.923992 -2.442291,-5.721883 0.843865,-9.253053 1.284004,-1.377379 1.297888,-2.40035 1.092261,-2.597682 -0.214114,-0.197678 -1.236801,-0.106977 -2.516782,1.267952 -3.284933,3.533181 -7.099705,3.430193 -9.1657706,1.504189 -2.070089,-1.923555 -2.441067,-5.719873 0.847101,-9.252269 1.2807676,-1.378163 1.2954386,-2.404374 1.083777,-2.598033 -0.208424,-0.192871 -1.231553,-0.107413 -2.513545,1.268739 -0.883395,0.948727 -2.374727,1.007766 -3.324669,0.122363 -0.950382,-0.890657 -1.003745,-2.377176 -0.117552,-3.330356 3.284147,-3.529942 7.0972566,-3.43421 9.1697956,-1.506635 2.064841,1.923988 2.437831,5.719087 -0.847889,9.255502 -1.284004,1.377378 -1.297888,2.40035 -1.086227,2.594008 0.207641,0.196106 1.230768,0.11065 2.510748,-1.264279 3.288954,-3.535631 7.099269,-3.43544 9.169797,-1.506639 2.065633,1.920757 2.438613,5.715853 -0.849116,9.253494 -1.281205,1.372918 -1.291417,2.401923 -1.086225,2.594008 0.212888,0.195667 1.232778,0.109426 2.515993,-1.264718 0.884971,-0.955188 2.372711,-1.006541 3.324671,-0.122358 0.94994,0.885407 1.00374,2.377176 0.1151,3.326332 z"
       id="path9584"
       style="stroke-width:2.35461" />
    <path
       fill="#aa8dd8"
       d="m 79.850149,73.893554 c 0.529775,-0.2843 1.167882,-0.36632 1.791856,-0.180302 1.966105,0.592403 3.527501,1.607443 4.504032,2.932422 1.033861,1.402756 1.356419,3.087045 0.8939,4.627087 -0.81349,2.700899 -4.05239,4.716416 -8.676714,3.32568 -1.798716,-0.539579 -2.726009,-0.101973 -2.806097,0.172903 -0.08471,0.274012 0.448315,1.152062 2.246604,1.693955 1.966105,0.592403 3.527502,1.607443 4.504031,2.932422 1.033862,1.402756 1.361048,3.08791 0.893901,4.627088 -0.813922,2.703212 -4.05239,4.716415 -8.672517,3.328859 -1.311025,-0.393393 -2.06842,-0.249818 -2.400293,-0.127367 -0.26563,0.101313 -0.386907,0.224756 -0.410866,0.301719 -0.07966,0.272562 0.444126,1.148881 2.247036,1.691641 1.244767,0.376226 1.952833,1.689389 1.576606,2.934149 -0.373913,1.2452 -1.684323,1.95138 -2.934151,1.57661 -4.620127,-1.38756 -6.214602,-4.854417 -5.400246,-7.559946 0.813921,-2.703212 4.05239,-4.716415 8.676712,-3.325679 1.310594,0.395707 2.063792,0.248953 2.395663,0.126502 0.267507,-0.09858 0.388791,-0.222007 0.410435,-0.299405 0.08472,-0.274011 -0.443692,-1.151196 -2.246604,-1.693955 -4.619694,-1.389871 -6.214601,-4.854414 -5.400246,-7.559942 0.813922,-2.703214 4.052822,-4.71873 8.671652,-3.32423 1.311025,0.393393 2.068853,0.247504 2.400723,0.125051 0.26522,-0.09894 0.386477,-0.22244 0.410435,-0.299403 0.08009,-0.274877 -0.448316,-1.152063 -2.246603,-1.693956 -1.245199,-0.373911 -1.952832,-1.689384 -1.576605,-2.934151 0.193393,-0.624991 0.617147,-1.111138 1.147356,-1.397752 z"
       id="path9586"
       style="stroke-width:2.35461" />
    <path
       fill="#aa8dd8"
       d="m -6.3920256,-9.9192255 c 0.446688,-0.4024405 1.046823,-0.6342725 1.697155,-0.6024305 2.050655,0.106425 3.80906996,0.7198085 5.07341096,1.7736685 1.33856604,1.1157218 2.05349404,2.6744876 1.97159704,4.2803974 -0.145895,2.8169728 -2.81067104,5.5467625 -7.633235,5.29898449 -1.875497,-0.0950441 -2.671672,0.55108051 -2.683896,0.83712501 -0.01692,0.2863078 0.710129,1.0119046 2.585764,1.1092976 2.050654,0.1064242 3.80907,0.7198074 5.07340996,1.7736687 1.33856704,1.115721 2.05819604,2.6742233 1.97159804,4.2803976 -0.145763,2.8193217 -2.810671,5.5467617 -7.628401,5.3010707 -1.367015,-0.06938 -2.068316,0.250677 -2.361411,0.448741 -0.233804,0.161738 -0.322142,0.310542 -0.327055,0.390998 -0.01236,0.283696 0.705301,1.009815 2.585631,1.106948 1.298575,0.06851 2.299379,1.174921 2.230864,2.473492 -0.06616,1.29844 -1.170349,2.296763 -2.473493,2.230867 -4.8177304,-0.245692 -7.1929914,-3.232261 -7.0473594,-6.053937 0.145762,-2.819322 2.810671,-5.546761 7.6332334,-5.2989825 1.367149,0.071733 2.063616,-0.2504129 2.356708,-0.4484768 0.236279,-0.1595319 0.324628,-0.308322 0.327189,-0.3886485 0.016928,-0.2863092 -0.705432,-1.012166 -2.585763,-1.1092976 -4.8178624,-0.2480421 -7.1929904,-3.2322593 -7.0473594,-6.053934 0.145763,-2.819324 2.8105394,-5.5491127 7.6286654,-5.2963691 1.367015,0.069383 2.068185,-0.253027 2.361276,-0.4510927 0.233972,-0.1593361 0.322277,-0.3081906 0.327189,-0.3886465 0.01223,-0.286046 -0.710129,-1.0119053 -2.585762,-1.1092988 -1.298443,-0.066161 -2.299378,-1.1749186 -2.230864,-2.4734938 0.03876,-0.6530782 0.334351,-1.2262572 0.780908,-1.6310482 z"
       id="path12881"
       style="stroke-width:2.35461" />
  </g>
</svg>
