<?xml version="1.0" encoding="UTF-8" standalone="no"?>
<svg
   width="44.552475mm"
   height="42.200241mm"
   viewBox="0 0 126.27867 119.62663"
   version="1.1"
   id="svg21757"
   xmlns="http://www.w3.org/2000/svg"
   xmlns:svg="http://www.w3.org/2000/svg">
  <defs
     id="defs21729">
    <style
       id="style21727">
      .cls-1 {
        fill: #55bcb3;
      }

      .cls-2 {
        fill: #fab512;
      }

      .cls-3 {
        fill: #387b75;
      }

      .cls-4 {
        fill: #2b2c29;
      }

      .cls-5 {
        fill: #fecc50;
        stroke: #55bcb3;
        stroke-linejoin: round;
        stroke-width: 2px;
      }
    </style>
  </defs>
  <g
     id="Layer_2"
     data-name="Layer 2"
     transform="translate(-0.00796905,8.6839579)">
    <g
       id="grid">
      <g
         id="wh_copy"
         data-name="wh copy">
        <g
           id="georgias">
          <g
             id="g21751">
            <path
               class="cls-1"
               d="m 119.13,38.24 c -0.69,-4.43 -5.76,-7.33 -8.43,-8.36 1,1.48 1.69,4.06 1.91,8.31 0.15,2.89 3.22,4.83 4.86,5.45 v 0 c -1.34,7.86 -6.5,11.14 -9.7,12.16 a 5.89,5.89 0 0 0 -1,-6.26 6,6 0 0 0 -8.4,-0.36 l -9.23,8.31 c -7.14,6.42 2.86,14.76 12.92,11.4 16.51,-5.48 21.2,-20.64 20.28,-26.31 a 9.77,9.77 0 0 0 3.76,-5.12 c 1,-3.9 -2.18,-6.09 -2.17,-11.46 -4.21,4.38 -4.8,12.24 -4.8,12.24 z"
               id="path21731" />
            <path
               class="cls-1"
               d="M 107.77,55.58 112,52.94 c 0.86,-0.53 4,-2.66 5.22,-0.95 0.72,1 -0.47,4 -2.43,7.08 -1.79,2.85 -6,8.74 -6.18,9.87 -0.18,1.13 1.21,5.61 1.65,7.34 0.44,1.73 1.78,5.89 1.34,7.53 -0.44,1.64 -2.8,6.2 -9.29,6.38 -5.17,0.15 -6.73,-1.31 -6.94,-2.22 -0.15,-0.66 -0.61,-2.86 -0.61,-2.86 0,0 -4.14,2.8 -6.1,3.87 -1.96,1.07 -7.22,4 -7.22,4 0,0 1.23,4.71 1.47,6.62 0.24,1.91 1,4.62 0,6.5 -0.84,1.7 -3.59,4.6 -10.32,4.83 -5.25,0.17 -6.64,-1.41 -7.51,-2.37 -0.87,-0.96 -1.24,-5.7 -1.27,-6.7 -0.03,-1 -0.35,-4.49 -0.35,-4.49 0,0 -7.13,-0.07 -11.44,-0.21 -3.9,-0.13 -9,-0.52 -9,-0.52 0,0 0.27,2.06 0.52,3.55 0.22,1.32 0.36,4.11 -1,5.52 -1.8,1.9 -6.63,2.23 -9.31,2.08 -2.68,-0.15 -6.43,-1.37 -7.61,-3.74 -1.18,-2.37 0.11,-5.6 0.62,-7.45 0.45,-1.62 1.26,-4 0.9,-4.62 -0.36,-0.62 -3.65,-1.35 -8.49,-5.83 -4.84,-4.48 -11.57,-20.4 1.65,-32.23 13.22,-11.83 38.91,-0.58 40.27,0.21 1.36,0.79 47.2,1.45 47.2,1.45 z"
               id="path21733" />
            <path
               class="cls-2"
               d="M 65.35,27.12 C 53,28.17 44,34.66 39.65,41.54 a 56.4,56.4 0 0 0 -3.85,7 20.56,20.56 0 0 1 8.2,1.89 c 4.53,2.19 9.78,4.57 13.61,15.57 2.88,8.33 4.19,16.3 10.88,17.8 7.58,1.7 25,0 33.07,-8.45 8.07,-8.45 9.42,-14.64 7,-22.55 C 106.14,44.89 96,31 82.51,27.81 76.7,26.42 71,26.65 65.35,27.12 Z"
               id="path21735" />
            <path
               class="cls-3"
               d="m 106.8,48.6 a 24.14,24.14 0 0 0 -1.24,-2.17 c 0,0 0,1.82 -0.11,2.79 -0.19,1.57 -0.92,4.85 -1.43,4.39 A 107.22,107.22 0 0 1 96.57,44.82 C 95,42.64 89.51,37 89.31,35.1 a 19.52,19.52 0 0 1 1,-4.17 l -2.13,-1.1 c -0.8,-0.41 -2,-0.84 -2,-0.84 0,0 -0.51,4.38 -1.23,5.22 -0.72,0.84 -4.63,2.5 -7.73,3.81 -3.75,1.59 -7.36,3.61 -8.73,3.92 -1.2,0.27 -8.11,-0.93 -10.71,-1.33 -3.28,-0.49 -8.23,-1.68 -9.39,-2.44 a 13.73,13.73 0 0 1 -2.86,-3.24 c 0,0 -0.76,0.57 -1.53,1.22 a 15.79,15.79 0 0 0 -1.72,1.9 c 0,0 2.13,2 2.28,2.74 0.2,1.06 -1,2.55 -2,4 -0.6,0.85 -2.27,4.4 -2.27,4.4 a 6.72,6.72 0 0 1 1.93,0.48 c 1.12,0.47 2.16,1 2.16,1 0,0 2.39,-6.23 4.08,-6.86 1.44,-0.53 5.62,0.66 8.65,1.16 4.28,0.71 8.62,1.32 9.57,2.43 0.95,1.11 2.06,5.86 3.08,9.82 1.12,4.35 4,15.63 3.48,16.52 -0.52,0.89 -5,0.76 -7.61,0.55 a 33.78,33.78 0 0 1 -5.75,-1.33 c 0,0 0.59,1.85 0.78,2.34 0.27,0.71 1.14,2.67 1.14,2.67 0,0 5.11,2 19.92,0 14.81,-2 21.75,-12.39 23.65,-17 2.55,-6.13 2.78,-9.34 2.78,-9.34 0,0 -0.94,-2.16 -1.35,-3.03 z M 94,68.57 c -3.64,2.52 -13.27,5.43 -15.06,4.54 -1.43,-0.7 -4,-12.23 -5.2,-17.37 -0.77,-3.29 -2.51,-8.27 -1.65,-9.88 0.58,-1.09 4.14,-2.82 6.77,-4.18 2.63,-1.36 6.07,-3 7.14,-2.94 1.52,0.11 5,5.24 8.4,9.61 3.4,4.37 7.17,8.91 7.3,10.53 0.13,1.62 -3.9,7.12 -7.7,9.69 z"
               id="path21737" />
            <path
               class="cls-4"
               d="m 44.55,64 c 0.54,2.49 -0.64,5.13 -3.4,5.48 -2.26,0.29 -4.13,-1.23 -4.67,-3.72 a 4.39,4.39 0 0 1 3.05,-5.4 4.4,4.4 0 0 1 5.02,3.64 z"
               id="path21739" />
            <path
               class="cls-4"
               d="m 28.27,64.89 c 0.16,2.52 -1.95,5.14 -4.7,4.73 -2.26,-0.34 -3.64,-2.28 -3.49,-4.79 a 4.38,4.38 0 0 1 4.4,-4.31 c 2.28,0.13 3.62,1.75 3.79,4.37 z"
               id="path21741" />
            <path
               class="cls-4"
               d="m 35.69,73.91 c 1,-0.74 2.66,-2.48 3.83,-1.1 1.17,1.38 -0.7,2.79 -1.79,3.64 -1.09,0.85 -3.51,3 -5.32,3 -1.81,0 -4.33,-1.89 -6,-3.2 -1.36,-1.07 -2,-2.49 -1.32,-3.39 0.68,-0.9 1.87,-0.62 2.88,0.2 1.17,1 3.42,2.87 4.31,2.83 0.89,-0.04 2.07,-0.99 3.41,-1.98 z"
               id="path21743" />
            <g
               id="g21749">
              <path
                 class="cls-5"
                 d="m 13.1,39.84 z m 38.49,0 z"
                 id="path21745" />
              <path
                 class="cls-5"
                 d="M 63.52,35.21 A 38.31,38.31 0 0 1 51.6,39.84 c 0,0 0.15,0 0.08,0 -0.46,0.12 -0.71,0.24 -1.19,0.35 -1.83,0.35 -4.52,0.51 -3.63,-1.91 l 3.72,-5.07 0.9,0.9 7.85,-7.85 -7.85,-7.85 -7.85,7.85 4.45,4.45 L 44.2,36 v 0 c -2.92,3.49 -8.34,2.32 -8.34,-1.88 H 35.78 V 23.68 L 45.37,14.08 32.29,1 19.21,14.08 l 9.59,9.6 v 10.79 c -0.28,3.92 -5.47,4.94 -8.31,1.55 v 0 l -3.93,-5.35 4.44,-4.38 -7.9,-7.85 -7.85,7.85 7.85,7.85 1,-1 3.76,5.13 c 0.89,2.42 -1.8,2.26 -3.63,1.91 -0.48,-0.11 -0.73,-0.23 -1.19,-0.35 -0.07,0 0,0 0.07,0 A 38.34,38.34 0 0 1 1.17,35.21 C 1.17,35.47 1,35.74 1,36 1,42.08 11.89,55.06 26.51,58 l 5.78,5.81 5.84,-5.81 c 14.61,-2.9 25.56,-15.88 25.56,-22 0,-0.26 -0.15,-0.52 -0.17,-0.79 z"
                 id="path21747" />
            </g>
          </g>
        </g>
      </g>
    </g>
  </g>
  <g
     id="g8739"
     transform="matrix(1.2124914,-0.16738192,0.16738192,1.2124914,-17.204353,-20.43178)"
     style="opacity:1">
    <path
       fill="#dd2e44"
       d="m 52.506368,47.082867 c 0.01328,-0.109301 -0.02824,-0.224062 -0.09832,-0.340404 0,0 -14.130429,-23.449491 -15.671802,-23.631973 -1.541503,-0.180105 -20.718276,19.361258 -20.718276,19.361258 -0.09633,0.09753 -0.162901,0.197894 -0.175038,0.308476 -0.18069,1.530706 7.881646,3.732043 18.005075,4.920985 10.125813,1.189074 18.47767,0.912362 18.658362,-0.618342 z"
       id="path5268"
       style="stroke-width:1.68912" />
    <path
       fill="#ea596e"
       d="m 36.910444,23.815538 c -0.0451,0.01226 -0.09976,0.0369 -0.16307,0.07485 -1.27625,1.439349 -11.565988,13.519252 -14.338925,17.790308 2.168665,0.745234 4.657846,1.24669 7.662388,1.763932 1.414869,-3.989147 7.721325,-18.904972 6.83961,-19.629086 z"
       id="path5270"
       style="stroke-width:1.39378" />
  </g>
  <g
     id="g9662"
     transform="matrix(0.57355995,0.8190482,-0.8190482,0.57355995,60.020369,-8.2036181)">
    <path
       fill="#aa8dd8"
       d="m 50.736169,31.87019 c 0.509283,-0.31956 1.140363,-0.444649 1.77551,-0.301364 2.001743,0.457752 3.62836,1.364605 4.692468,2.620333 1.126581,1.329441 1.56258,2.987987 1.20553,4.555843 -0.628517,2.749833 -3.723326,4.980289 -8.431294,3.906251 -1.831158,-0.416397 -2.726651,0.08307 -2.78792,0.362739 -0.06594,0.279125 0.525391,1.119017 2.356275,1.537753 2.001742,0.457753 3.62836,1.364605 4.692467,2.620333 1.126581,1.329441 1.567257,2.988536 1.20553,4.555843 -0.62879,2.752172 -3.723326,4.980289 -8.42689,3.909139 -1.334679,-0.303609 -2.080598,-0.109019 -2.403405,0.03565 -0.258161,0.119064 -0.370782,0.250465 -0.389467,0.328878 -0.061,0.277335 0.520988,1.116131 2.356548,1.535415 1.267409,0.290974 2.062868,1.553109 1.771895,2.820517 -0.288636,1.267684 -1.548158,2.061078 -2.820518,1.771895 -4.703564,-1.071151 -6.529401,-4.421939 -5.900335,-7.17645 0.628789,-2.752173 3.723325,-4.98029 8.431292,-3.906252 1.334404,0.305947 2.075921,0.10847 2.398727,-0.0362 0.260225,-0.116451 0.372846,-0.247852 0.389193,-0.32654 0.06595,-0.279125 -0.520713,-1.118469 -2.356274,-1.537753 -4.70329,-1.07349 -6.5294,-4.421938 -5.900336,-7.17645 0.62879,-2.752173 3.723601,-4.982628 8.426342,-3.904462 1.334678,0.303609 2.080872,0.10668 2.403678,-0.03799 0.257887,-0.116725 0.370508,-0.248126 0.389193,-0.326539 0.06127,-0.279674 -0.52539,-1.119018 -2.356273,-1.537753 -1.267684,-0.288636 -2.062868,-1.553109 -1.771895,-2.820518 0.150578,-0.636664 0.540401,-1.150421 1.049959,-1.47232 z"
       id="path9163"
       style="stroke-width:2.35461" />
    <path
       fill="#77b255"
       d="m 37.462144,26.397162 c -4.645655,1.31152 -7.850286,-0.758186 -8.613181,-3.477766 -0.762896,-2.717225 0.890044,-6.157318 5.533344,-7.464129 1.813054,-0.508597 2.35697,-1.375095 2.283977,-1.650585 -0.08006,-0.280199 -1.000712,-0.73464 -2.809056,-0.226043 -4.6433,1.309166 -7.847931,-0.762895 -8.610826,-3.482475 -0.767604,-2.7195803 0.890044,-6.1549633 5.535699,-7.4617753 1.810699,-0.510951 2.35697,-1.379804 2.276913,-1.65529401 -0.0777,-0.273135 -0.996002,-0.732285 -2.806701,-0.223688 -1.247946,0.35083701 -2.552402,-0.374384 -2.90324,-1.624684 -0.348483,-1.25500999 0.379093,-2.55240299 1.631748,-2.90559499 4.640946,-1.306811 7.847931,0.758186 8.615536,3.48247499 0.762895,2.71722601 -0.892399,6.15260901 -5.538054,7.46412901 -1.813054,0.508597 -2.35697,1.375095 -2.276913,1.650585 0.07535,0.27549 0.993648,0.73464 2.801992,0.226043 4.648009,-1.309166 7.850285,0.758186 8.615535,3.4824753 0.76525,2.714871 -0.890044,6.150254 -5.538054,7.461775 -1.808344,0.506242 -2.35226,1.379804 -2.276912,1.650585 0.08006,0.277844 0.996002,0.73464 2.806701,0.228397 1.252655,-0.355546 2.550047,0.374384 2.90324,1.624685 0.350837,1.2503 -0.379093,2.552402 -1.631748,2.900885 z"
       id="path9165"
       style="stroke-width:2.35461" />
    <circle
       fill="#5c913b"
       cx="24.188353"
       cy="73.127853"
       r="3.5319221"
       id="circle9167"
       style="stroke-width:2.35461" />
    <circle
       fill="#9266cc"
       cx="76.629356"
       cy="37.815151"
       r="4.7092295"
       id="circle9169"
       style="stroke-width:2.35461" />
    <circle
       fill="#9266cc"
       cx="62.668839"
       cy="-16.304169"
       r="4.7092295"
       id="circle9171"
       style="stroke-width:2.35461" />
    <circle
       fill="#5c913b"
       cx="53.814655"
       cy="13.697739"
       r="3.5319221"
       id="circle9173"
       style="stroke-width:2.35461" />
    <circle
       fill="#5c913b"
       cx="34.720158"
       cy="-29.120367"
       r="3.5319221"
       id="circle9175"
       style="stroke-width:2.35461" />
    <circle
       fill="#ffcc4d"
       cx="6.7708945"
       cy="13.563037"
       r="4.7092295"
       id="circle9177"
       style="stroke-width:2.35461" />
    <circle
       fill="#ffcc4d"
       cx="85.002151"
       cy="66.758682"
       r="3.5319221"
       id="circle9179"
       style="stroke-width:2.35461" />
    <circle
       fill="#ffcc4d"
       cx="36.255524"
       cy="89.306038"
       r="3.5319221"
       id="circle9181"
       style="stroke-width:2.35461" />
    <path
       fill="#77b255"
       d="m 48.463708,101.67526 c -2.728381,-3.982231 -1.792258,-7.680476 0.540508,-9.273061 2.330534,-1.591833 6.118587,-1.125891 8.841753,2.85561 1.061725,1.555178 2.056666,1.79341 2.294343,1.636146 0.239879,-0.165467 0.376017,-1.183103 -0.684201,-2.733818 -2.725397,-3.980749 -1.787043,-7.679747 0.545723,-9.272332 2.33126,-1.597047 6.116356,-1.125138 8.840277,2.858594 1.0632,1.552194 2.061129,1.791905 2.296549,1.627947 0.23394,-0.160972 0.37529,-1.177887 -0.68568,-2.730833 -0.731529,-1.070203 -0.461569,-2.538085 0.61086,-3.270359 1.07765,-0.73155 2.53959,-0.457109 3.27485,0.616802 2.72241,3.979271 1.7915,7.678241 -0.54422,9.276795 -2.33053,1.591832 -6.114879,1.122154 -8.843258,-2.860073 -1.061724,-1.555178 -2.056666,-1.79341 -2.292084,-1.629453 -0.236924,0.159498 -0.378276,1.17641 0.681942,2.727125 2.726904,3.98521 1.792258,7.680474 -0.544216,9.2768 -2.327551,1.59331 -6.111896,1.12362 -8.84103,-2.860832 -1.057987,-1.551468 -2.059622,-1.787442 -2.292084,-1.629451 -0.237648,0.164713 -0.377523,1.17864 0.681218,2.732339 0.737488,1.073154 0.460817,2.535854 -0.610864,3.270364 -1.072432,0.73227 -2.53959,0.4571 -3.270386,-0.61831 z"
       id="path9584"
       style="stroke-width:2.35461" />
    <path
       fill="#aa8dd8"
       d="m 72.327461,10.357954 c -0.0915,-0.5942352 0.04382,-1.2232002 0.427146,-1.7495152 1.213751,-1.656297 2.691109,-2.790174 4.26578,-3.26933 1.667109,-0.50729 3.362613,-0.250115 4.660486,0.699189 2.27541,1.667072 3.096341,5.3925052 0.244033,9.2890242 -1.108164,1.51608 -1.004596,2.5362 -0.772122,2.703313 0.230119,0.171185 1.23561,-0.03876 2.345812,-1.553666 1.213751,-1.656297 2.691109,-2.790175 4.26578,-3.26933 1.667109,-0.50729 3.364971,-0.254191 4.660487,0.699189 2.277447,1.66825 3.09634,5.392505 0.248429,9.286126 -0.807809,1.104984 -0.924846,1.866931 -0.919992,2.22064 0.007,0.284209 0.08297,0.439691 0.147549,0.487929 0.230435,0.165938 1.231215,-0.03587 2.343775,-1.554845 0.769542,-1.048234 2.243602,-1.27821 3.291835,-0.508668 1.049413,0.767505 1.27853,2.238347 0.508668,3.291837 -2.847912,3.89362 -6.647959,4.241609 -8.927446,2.572178 -2.277448,-1.66825 -3.096341,-5.392505 -0.244033,-9.289022 0.809847,-1.103806 0.922488,-1.862856 0.917633,-2.216563 -0.0038,-0.285069 -0.07975,-0.440551 -0.145511,-0.486751 -0.230114,-0.171194 -1.233252,0.03469 -2.345812,1.553666 -2.84995,3.892441 -6.647958,4.241609 -8.927445,2.572179 -2.277449,-1.668251 -3.098379,-5.393684 -0.244353,-9.283768 0.807809,-1.104984 0.922808,-1.86811 0.917952,-2.221818 -0.0049,-0.283031 -0.08093,-0.4385132 -0.14551,-0.4867502 -0.232473,-0.167117 -1.23561,0.03876 -2.345812,1.5536652 -0.767504,1.049413 -2.243602,1.27821 -3.291836,0.508667 -0.524816,-0.390618 -0.841956,-0.95216 -0.935493,-1.547576 z"
       id="path9586"
       style="stroke-width:2.35461" />
  </g>
</svg>
