<?xml version="1.0" encoding="UTF-8" standalone="no"?>
<svg
   width="42.03mm"
   height="37.65mm"
   viewBox="0 0 119.14 106.74"
   version="1.1"
   id="svg29494"
   xmlns="http://www.w3.org/2000/svg"
   xmlns:svg="http://www.w3.org/2000/svg">
  <defs
     id="defs29462">
    <style
       id="style29460">
      .cls-1 {
        fill: #f3a540;
      }

      .cls-2 {
        fill: #f3ca3f;
      }

      .cls-3 {
        fill: #6389ad;
      }

      .cls-4 {
        fill: #d70267;
      }

      .cls-5 {
        fill: #491c4c;
      }

      .cls-6 {
        fill: #2b2c29;
      }
    </style>
  </defs>
  <g
     id="Layer_2"
     data-name="Layer 2">
    <g
       id="grid">
      <g
         id="wh_copy"
         data-name="wh copy">
        <g
           id="jands">
          <g
             id="g29488">
            <g
               id="g29468">
              <path
                 class="cls-1"
                 d="M45.14,27.46l.07.19L27.34,3.45C26,1.63,23,1.54,20.7,3.25l-.18.13c-2,1.5-2.89,3.89-2.16,5.68,0,0-5-2.92-7.2-1.27L11,7.92C8.75,9.57,8,12.41,9.41,14.26L12,17.83c-1.42-1.92-4.49-2.06-6.86-.3l-.19.14c-2.37,1.75-3.14,4.73-1.72,6.65L28.86,64.21l22.52-3.84L53.9,38.43Z"
                 id="path29464" />
              <path
                 class="cls-2"
                 d="M1.14,33.4s-2.85-3,.45-5.44,5.32,1.18,5.32,1.18L18.22,44.48c.35-.63,2-2.17,2.4-2.79L4.94,20.4S2.09,17.4,5.4,15s5.32,1.17,5.32,1.17l14.75,20c.51-.44,1.86-1.49,2.39-1.93L10.77,11s-2.85-3,.45-5.44,5.33,1.17,5.33,1.17L33.66,30c.58-.38,2.4-1.63,3-2l-16-21.69s-2.84-3,.46-5.44S26.44,2,26.44,2L43.34,25l1.35,1.84.61.82c-9.92,7.31-11,21.49-4.95,29.75,1.22,1.66,4.08.21,4.08.21-7.3-9.91-5.56-21.39,4.35-28.69L45.27,14S44,10.11,47.93,8.86s5.16,2.65,5.16,2.65l3.8,10.15a91.56,91.56,0,0,0,5.17,11.79A24.63,24.63,0,0,1,20.61,59.84L19.4,58.18Z"
                 id="path29466" />
            </g>
            <path
               class="cls-3"
               d="M99,51.33l4.28-2.63c.86-.54,4-2.67,5.21-1,.73,1-.46,4-2.42,7.08-1.79,2.86-6,8.74-6.18,9.87s1.21,5.61,1.65,7.34,1.78,5.89,1.34,7.54-2.8,6.2-9.3,6.38c-5.16.14-6.72-1.32-6.93-2.23-.15-.66-.61-2.86-.61-2.86s-4.15,2.8-6.1,3.87-7.23,4-7.23,4,1.23,4.71,1.48,6.62,1,4.62,0,6.5c-.85,1.71-3.59,4.61-10.32,4.83-5.25.18-6.64-1.4-7.52-2.36s-1.23-5.71-1.27-6.71-.35-4.49-.35-4.49-7.13-.07-11.43-.21c-3.9-.12-9.05-.51-9.05-.51s.27,2.06.51,3.54c.22,1.32.37,4.11-1,5.52-1.8,1.9-6.63,2.23-9.3,2.08s-6.43-1.37-7.61-3.74.11-5.59.61-7.44c.45-1.63,1.27-4,.9-4.63S14.8,86.42,10,81.94-1.64,61.5,11.58,49.68s38.91-.58,40.27.2S99,51.33,99,51.33Z"
               id="path29470" />
            <path
               class="cls-4"
               d="M56.63,22.87c-12.34,1.05-21.37,7.54-25.7,14.42a55.82,55.82,0,0,0-3.86,7,20.59,20.59,0,0,1,8.21,1.86c4.53,2.19,9.78,4.55,13.61,15.56,2.88,8.33,4.19,16.3,10.88,17.8,7.57,1.7,25,0,33.06-8.45s9.42-14.64,7-22.55-12.57-21.75-26-25C68,22.17,62.23,22.4,56.63,22.87Z"
               id="path29472" />
            <path
               class="cls-5"
               d="M98.08,44.36c-.41-.87-1.24-2.18-1.24-2.18s0,1.83-.11,2.79c-.19,1.57-.92,4.85-1.44,4.39a107.5,107.5,0,0,1-7.44-8.79c-1.61-2.17-7.07-7.81-7.27-9.71a19.38,19.38,0,0,1,1-4.18l-2.14-1.1c-.79-.4-2-.84-2-.84S77,29.12,76.23,30s-4.63,2.5-7.73,3.81c-3.75,1.59-7.37,3.61-8.73,3.92-1.2.27-8.12-.93-10.72-1.32-3.27-.5-8.22-1.68-9.38-2.45a13.53,13.53,0,0,1-2.86-3.24s-.77.57-1.53,1.23a15.22,15.22,0,0,0-1.72,1.89s2.13,2,2.28,2.74c.2,1.06-1,2.56-2,4-.61.85-2.27,4.4-2.27,4.4a6.56,6.56,0,0,1,1.93.49c1.11.46,2.15.94,2.15.94S38,40.11,39.7,39.49c1.45-.54,5.63.65,8.65,1.15,4.29.71,8.62,1.32,9.57,2.44S60,48.93,61,52.9c1.12,4.34,4,15.62,3.48,16.51s-5,.76-7.61.55a32.78,32.78,0,0,1-5.75-1.33s.59,1.85.77,2.34c.28.71,1.14,2.68,1.14,2.68s5.12,2,19.93,0,21.75-12.39,23.65-17c2.55-6.13,2.77-9.34,2.77-9.34S98.49,45.22,98.08,44.36Zm-12.78,20C81.63,66.84,72,69.73,70.22,68.86c-1.44-.7-4-12.23-5.21-17.37-.77-3.29-2.5-8.27-1.64-9.88.57-1.09,4.14-2.82,6.77-4.18s6.07-3,7.14-2.94c1.52.12,5,5.24,8.39,9.61S92.85,53,93,54.63,89.08,61.73,85.3,64.32Z"
               id="path29474" />
            <path
               class="cls-6"
               d="M35.82,59.77c.55,2.49-.63,5.14-3.39,5.49-2.27.28-4.13-1.23-4.68-3.73a4.4,4.4,0,0,1,3.06-5.4A4.39,4.39,0,0,1,35.82,59.77Z"
               id="path29476" />
            <path
               class="cls-6"
               d="M19.54,60.64c.17,2.52-1.94,5.14-4.69,4.73-2.27-.33-3.64-2.28-3.49-4.79a4.37,4.37,0,0,1,4.4-4.31C18,56.4,19.38,58,19.54,60.64Z"
               id="path29478" />
            <path
               class="cls-6"
               d="M27,69.66c1-.74,2.65-2.48,3.83-1.1S30.09,71.35,29,72.2s-3.51,3-5.32,3-4.33-1.89-6-3.2c-1.37-1.06-2-2.49-1.33-3.38s1.88-.63,2.89.19c1.17,1,3.42,2.87,4.31,2.83S25.63,70.66,27,69.66Z"
               id="path29480" />
            <g
               id="g29486">
              <path
                 class="cls-1"
                 d="M114.9,22.51l-.18-.14c-2.31-1.83-5.39-1.8-6.87.07L110.52,19c1.43-1.8.82-4.67-1.36-6.39l-.17-.14c-2.18-1.72-5.11-1.65-6.54.15l-.71.89c.8-1.77,0-4.19-2-5.75l-.18-.14c-2.26-1.79-5.23-1.8-6.64,0L74.34,31.08v-.4L64.21,43.89l6,23.5,23.72-9.78L116.4,29.22C117.89,27.35,117.21,24.34,114.9,22.51Z"
                 id="path29482" />
              <path
                 class="cls-2"
                 d="M117.91,38.3s2.94-2.9-.28-5.44-5.35,1-5.35,1l-11.81,15c-.34-.65-1.91-2.24-2.31-2.87l16.38-20.76s2.94-2.9-.28-5.44-5.36,1-5.36,1L93.49,40.25c-.49-.46-1.8-1.56-2.32-2L109,15.61s2.94-2.91-.28-5.45-5.36,1-5.36,1L85.53,33.78c-.57-.4-2.35-1.71-2.92-2.09l16.7-21.15s2.94-2.9-.27-5.44-5.36,1-5.36,1L76,28.45l-1.42,1.8-.63.8c9.67,7.63,10.3,21.85,4,29.9-1.28,1.61-4.08.07-4.08.07,7.63-9.66,6.27-21.19-3.39-28.82l4-14.75s1.38-3.86-2.48-5.24-5.25,2.48-5.25,2.48l-4.14,10A90.4,90.4,0,0,1,57,36.32,24.63,24.63,0,0,0,97.57,64.08l1.27-1.62Z"
                 id="path29484" />
            </g>
          </g>
        </g>
      </g>
    </g>
  </g>
  <g
     id="g8739"
     transform="matrix(1.2150634,-0.3883583,0.3883583,1.2150634,-34.353878,16.510619)">
    <path
       fill="#dd2e44"
       d="m 50.008438,43.57252 c 0.01096,-0.09019 -0.0233,-0.184885 -0.08113,-0.280885 0,0 -11.659764,-19.349415 -12.931632,-19.49999 -1.271976,-0.148614 -17.095745,15.975997 -17.095745,15.975997 -0.07949,0.08048 -0.134418,0.163293 -0.144433,0.25454 -0.149097,1.263066 6.503563,3.079506 14.856939,4.060565 8.355344,0.981168 15.246902,0.752838 15.396001,-0.510227 z"
       id="path5268"
       style="stroke-width:1.39378" />
    <path
       fill="#ea596e"
       d="m 36.910444,23.815538 c -0.0451,0.01226 -0.09976,0.0369 -0.16307,0.07485 -1.27625,1.439349 -11.565988,13.519252 -14.338925,17.790308 2.168665,0.745234 4.657846,1.24669 7.662388,1.763932 1.414869,-3.989147 7.721325,-18.904972 6.83961,-19.629086 z"
       id="path5270"
       style="stroke-width:1.39378" />
  </g>
  <g
     id="g9662"
     transform="matrix(0.82937853,0.55872074,-0.55872074,0.82937853,43.14166,-10.155341)">
    <path
       fill="#77b255"
       d="m 59.187206,7.9786742 c -1.545588,4.5731118 -5.064841,6.0455948 -7.739197,5.1367838 -2.672417,-0.907478 -4.57479,-4.2161673 -3.026644,-8.7846764 0.605873,-1.7829054 0.198846,-2.7215168 -0.06964,-2.8171145 -0.276365,-0.092431 -1.17181,0.4098583 -1.77502,2.18888 -1.546199,4.5698384 -5.067394,6.0409901 -7.74175,5.1321783 -2.677019,-0.9049309 -4.572843,-4.2148366 -3.023369,-8.78528763 0.602598,-1.78229547 0.194962,-2.72417927 -0.07752,-2.81395257 -0.269203,-0.090386 -1.167202,0.4073075 -1.771745,2.18827088 -0.416404,1.22762536 -1.752213,1.89332292 -2.981784,1.47558827 -1.232122,-0.422335 -1.890657,-1.75609953 -1.473538,-2.98894115 1.546811,-4.5665647 5.063511,-6.0436534 7.744416,-5.1360629 2.672416,0.9074799 4.56957,4.2154478 3.023977,8.7885616 -0.605873,1.7829047 -0.198846,2.7215161 0.07363,2.8112886 0.269834,0.093607 1.167814,-0.4040338 1.771024,-2.1830548 1.548863,-4.5737207 5.064842,-6.0455941 7.744414,-5.1360621 2.671807,0.9042032 4.568962,4.2121724 3.022038,8.7872306 -0.605155,1.7776881 -0.192299,2.7202949 0.07363,2.8112872 0.274423,0.091098 1.169146,-0.4059753 1.775629,-2.1856076 0.415179,-1.2341728 1.750884,-1.8913772 2.981786,-1.4755878 1.229566,0.4177354 1.890657,1.7561002 1.469651,2.9862782 z"
       id="path9165"
       style="stroke-width:2.35461" />
    <circle
       fill="#5c913b"
       cx="59.206562"
       cy="36.709538"
       r="3.5319221"
       id="circle9167"
       style="stroke-width:2.35461" />
    <circle
       fill="#9266cc"
       cx="41.046909"
       cy="57.352295"
       r="4.7092295"
       id="circle9169"
       style="stroke-width:2.35461" />
    <circle
       fill="#9266cc"
       cx="76.030975"
       cy="12.593663"
       r="4.7092295"
       id="circle9171"
       style="stroke-width:2.35461" />
    <circle
       fill="#5c913b"
       cx="-7.9985509"
       cy="53.257481"
       r="3.5319221"
       id="circle9173"
       style="stroke-width:2.35461" />
    <circle
       fill="#5c913b"
       cx="59.825596"
       cy="65.64753"
       r="3.5319221"
       id="circle9175"
       style="stroke-width:2.35461" />
    <circle
       fill="#ffcc4d"
       cx="26.700756"
       cy="34.787827"
       r="4.7092295"
       id="circle9177"
       style="stroke-width:2.35461" />
    <circle
       fill="#ffcc4d"
       cx="7.7018833"
       cy="71.961815"
       r="3.5319221"
       id="circle9179"
       style="stroke-width:2.35461" />
    <circle
       fill="#ffcc4d"
       cx="79.269493"
       cy="54.054317"
       r="3.5319221"
       id="circle9181"
       style="stroke-width:2.35461" />
    <path
       fill="#77b255"
       d="m 104.00568,55.582559 c -4.597478,1.471532 -7.871829,-0.486015 -8.728391,-3.177557 -0.856495,-2.689195 0.676392,-6.184434 5.271671,-7.651181 1.79437,-0.571043 2.30796,-1.455851 2.22548,-1.72865 -0.0897,-0.277259 -1.02554,-0.699563 -2.815197,-0.12868 -4.595202,1.469098 -7.869633,-0.490801 -8.726201,-3.182346 -0.861276,-2.691382 0.676472,-6.182082 5.274112,-7.648908 1.791929,-0.573316 2.3078,-1.460559 2.218256,-1.733115 -0.08711,-0.270281 -1.020752,-0.69737 -2.812761,-0.126407 -1.235058,0.39383 -2.563832,-0.285816 -2.957736,-1.523219 -0.391712,-1.242199 0.290521,-2.563995 1.5302,-2.960334 4.592932,-1.466659 7.869467,0.486101 8.730907,3.182188 0.85649,2.689187 -0.6789,6.179811 -5.27638,7.65134 -1.794365,0.571045 -2.307963,1.455851 -2.218419,1.728405 0.08484,0.272717 1.01848,0.699807 2.808137,0.128924 4.599902,-1.469263 7.871832,0.486015 8.730912,3.182186 0.85876,2.686757 -0.67664,6.177374 -5.27647,7.648986 -1.78973,0.568533 -2.303095,1.460393 -2.218412,1.728409 0.08962,0.274903 1.020822,0.699722 2.812922,0.131111 1.2396,-0.398689 2.56147,0.285894 2.95773,1.523224 0.3939,1.237406 -0.29052,2.563992 -1.53036,2.955624 z"
       id="path9584"
       style="stroke-width:2.35461" />
    <path
       fill="#aa8dd8"
       d="m 45.54088,86.512628 c 0.55686,0.226707 1.027017,0.665865 1.281717,1.265093 0.797715,1.892131 1.011791,3.742113 0.614123,5.33931 -0.421006,1.69096 -1.512519,3.01364 -2.993656,3.63965 -2.59908,1.09608 -6.217208,-0.11302 -8.095461,-4.561694 -0.731639,-1.729517 -1.660113,-2.164613 -1.922903,-2.050981 -0.265072,0.109522 -0.601383,1.080079 0.128202,2.810745 0.797714,1.89213 1.011791,3.74211 0.614122,5.33931 -0.421006,1.69096 -1.510233,3.017749 -2.993657,3.639649 -2.601136,1.09722 -6.217206,-0.11302 -8.095232,-4.556439 -0.533182,-1.26065 -1.126831,-1.75243 -1.432812,-1.92994 -0.247451,-0.13997 -0.419877,-0.15464 -0.494435,-0.12401 -0.260735,0.11249 -0.601605,1.07482 0.130259,2.8096 0.504144,1.19868 -0.05565,2.581569 -1.254324,3.085709 -1.197534,0.5062 -2.57722,-0.0527 -3.08571,-1.254329 -1.878025,-4.44341 -0.224806,-7.88264 2.378393,-8.981013 2.601136,-1.097229 6.217207,0.11302 8.095459,4.561693 0.531125,1.2618 1.124545,1.74831 1.430525,1.92582 0.246543,0.14316 0.418961,0.15785 0.492378,0.12516 0.265078,-0.10951 0.603665,-1.07597 -0.128201,-2.81074 -1.875967,-4.444559 -0.224806,-7.882648 2.378391,-8.98102 2.601138,-1.09723 6.219265,0.111876 8.091115,4.558717 0.533182,1.260659 1.12889,1.751291 1.43487,1.928797 0.245362,0.141168 0.417819,0.155792 0.492377,0.125158 0.262792,-0.113632 0.601383,-1.080081 -0.1282,-2.810744 -0.506203,-1.197534 0.05565,-2.581564 1.254325,-3.085707 0.604715,-0.249669 1.249417,-0.233359 1.808335,-0.0078 z"
       id="path9586"
       style="stroke-width:2.35461" />
    <path
       fill="#aa8dd8"
       d="m 8.3550693,22.327961 c 0.446688,-0.40244 1.046823,-0.634272 1.6971547,-0.60243 2.050655,0.106425 3.80907,0.719808 5.073411,1.773668 1.338566,1.115722 2.053494,2.674488 1.971597,4.280397 -0.145895,2.816973 -2.810671,5.546763 -7.6332347,5.298985 -1.875497,-0.09504 -2.671672,0.551081 -2.683896,0.837125 -0.01692,0.286308 0.710129,1.011905 2.585764,1.109298 2.0506537,0.106424 3.8090697,0.719807 5.0734097,1.773668 1.338567,1.115721 2.058196,2.674224 1.971598,4.280398 -0.145763,2.819322 -2.810671,5.546762 -7.6284007,5.301071 -1.367015,-0.06938 -2.068316,0.250677 -2.361411,0.448741 -0.233804,0.161738 -0.322142,0.310542 -0.327055,0.390998 -0.01236,0.283696 0.705301,1.009815 2.585631,1.106948 1.298575,0.06851 2.2993787,1.174921 2.2308637,2.473492 -0.06616,1.29844 -1.1703487,2.296763 -2.4734927,2.230867 -4.81773,-0.245692 -7.192991,-3.232261 -7.047359,-6.053937 0.145762,-2.819322 2.810671,-5.546761 7.633233,-5.298983 1.3671487,0.07173 2.0636157,-0.250413 2.3567077,-0.448477 0.236279,-0.159532 0.324628,-0.308322 0.327189,-0.388648 0.01693,-0.286309 -0.705432,-1.012166 -2.5857627,-1.109298 -4.817862,-0.248042 -7.19299,-3.232259 -7.047359,-6.053934 0.145763,-2.819324 2.810539,-5.549113 7.628665,-5.296369 1.3670147,0.06938 2.0681847,-0.253027 2.3612757,-0.451093 0.233972,-0.159336 0.322277,-0.30819 0.327189,-0.388646 0.01223,-0.286046 -0.710129,-1.011905 -2.5857617,-1.109299 -1.298443,-0.06616 -2.299378,-1.174919 -2.230864,-2.473494 0.03876,-0.653078 0.334351,-1.226257 0.780908,-1.631048 z"
       id="path12881"
       style="stroke-width:2.35461" />
  </g>
  <g
     id="g39221"
     transform="matrix(0.19502884,-0.14829887,0.14829887,0.19502884,34.88646,7.6189092)">
    <path
       fill="#dd2e44"
       d="m 50.008438,43.57252 c 0.01096,-0.09019 -0.0233,-0.184885 -0.08113,-0.280885 0,0 -11.659764,-19.349415 -12.931632,-19.49999 -1.271976,-0.148614 -17.095745,15.975997 -17.095745,15.975997 -0.07949,0.08048 -0.134418,0.163293 -0.144433,0.25454 -0.149097,1.263066 6.503563,3.079506 14.856939,4.060565 8.355344,0.981168 15.246902,0.752838 15.396001,-0.510227 z"
       id="path39217"
       style="stroke-width:1.39378" />
    <path
       fill="#ea596e"
       d="m 36.910444,23.815538 c -0.0451,0.01226 -0.09976,0.0369 -0.16307,0.07485 -1.27625,1.439349 -11.565988,13.519252 -14.338925,17.790308 2.168665,0.745234 4.657846,1.24669 7.662388,1.763932 1.414869,-3.989147 7.721325,-18.904972 6.83961,-19.629086 z"
       id="path39219"
       style="stroke-width:1.39378" />
  </g>
</svg>
