<?xml version="1.0" encoding="UTF-8" standalone="no"?>
<svg
   width="45.806679mm"
   height="37.613739mm"
   viewBox="0 0 129.84554 106.63719"
   version="1.1"
   id="svg37273"
   xmlns="http://www.w3.org/2000/svg"
   xmlns:svg="http://www.w3.org/2000/svg">
  <defs
     id="defs37241">
    <style
       id="style37239">
      .cls-1 {
        fill: #f3a540;
      }

      .cls-2 {
        fill: #f3ca3f;
      }

      .cls-3 {
        fill: #6389ad;
      }

      .cls-4 {
        fill: #d70267;
      }

      .cls-5 {
        fill: #491c4c;
      }

      .cls-6 {
        fill: #2b2c29;
      }
    </style>
    <clipPath
       clipPathUnits="userSpaceOnUse"
       id="clipPath38571">
      <path
         style="fill:none;stroke:none;stroke-width:0.750109;stroke-linecap:round"
         d="M 65.958245,81.789367 54.152339,73.026222 59.385884,67.184125 49.283923,58.177557 59.385885,50.874935 49.040502,42.476919 59.994436,35.661139 50.501027,29.088779 66.079955,17.648004 98.820047,21.907867 110.38253,47.223624 V 72.05254 L 87.987821,90.430808 Z"
         id="path38573" />
    </clipPath>
    <clipPath
       clipPathUnits="userSpaceOnUse"
       id="clipPath38575">
      <path
         style="fill:none;stroke:none;stroke-width:0.750109;stroke-linecap:round"
         d="m 65.958245,81.789367 -11.805906,-8.763145 5.233545,-5.842097 -10.101961,-9.006568 10.101962,-7.302622 -10.345383,-8.398016 10.953934,-6.81578 -9.493409,-6.57236 15.578928,-11.440775 -35.052583,3.16447 -7.911178,23.611811 3.529601,26.532862 15.578927,12.536168 z"
         id="path38577" />
    </clipPath>
  </defs>
  <g
     id="Layer_2"
     data-name="Layer 2"
     transform="translate(-0.00561014,-0.0169502)">
    <g
       id="grid">
      <g
         id="wh_copy"
         data-name="wh copy">
        <g
           id="jands">
          <g
             id="g37267">
            <g
               id="g37247">
              <path
                 class="cls-1"
                 d="M 45.14,27.46 45.21,27.65 27.34,3.45 C 26,1.63 23,1.54 20.7,3.25 l -0.18,0.13 c -2,1.5 -2.89,3.89 -2.16,5.68 0,0 -5,-2.92 -7.2,-1.27 L 11,7.92 C 8.75,9.57 8,12.41 9.41,14.26 L 12,17.83 C 10.58,15.91 7.51,15.77 5.14,17.53 L 4.95,17.67 C 2.58,19.42 1.81,22.4 3.23,24.32 L 28.86,64.21 51.38,60.37 53.9,38.43 Z"
                 id="path37243" />
              <path
                 class="cls-2"
                 d="m 1.14,33.4 c 0,0 -2.85,-3 0.45,-5.44 3.3,-2.44 5.32,1.18 5.32,1.18 l 11.31,15.34 c 0.35,-0.63 2,-2.17 2.4,-2.79 L 4.94,20.4 c 0,0 -2.85,-3 0.46,-5.4 3.31,-2.4 5.32,1.17 5.32,1.17 l 14.75,20 c 0.51,-0.44 1.86,-1.49 2.39,-1.93 L 10.77,11 c 0,0 -2.85,-3 0.45,-5.44 3.3,-2.44 5.33,1.17 5.33,1.17 L 33.66,30 c 0.58,-0.38 2.4,-1.63 3,-2 l -16,-21.69 c 0,0 -2.84,-3 0.46,-5.44 3.3,-2.44 5.32,1.13 5.32,1.13 l 16.9,23 1.35,1.84 0.61,0.82 c -9.92,7.31 -11,21.49 -4.95,29.75 1.22,1.66 4.08,0.21 4.08,0.21 -7.3,-9.91 -5.56,-21.39 4.35,-28.69 L 45.27,14 c 0,0 -1.27,-3.89 2.66,-5.14 3.93,-1.25 5.16,2.65 5.16,2.65 l 3.8,10.15 A 91.56,91.56 0 0 0 62.06,33.45 24.63,24.63 0 0 1 20.61,59.84 L 19.4,58.18 Z"
                 id="path37245" />
            </g>
            <path
               class="cls-3"
               d="m 99,51.33 4.28,-2.63 c 0.86,-0.54 4,-2.67 5.21,-1 0.73,1 -0.46,4 -2.42,7.08 -1.79,2.86 -6,8.74 -6.18,9.87 -0.18,1.13 1.21,5.61 1.65,7.34 0.44,1.73 1.78,5.89 1.34,7.54 -0.44,1.65 -2.8,6.2 -9.3,6.38 -5.16,0.14 -6.72,-1.32 -6.93,-2.23 -0.15,-0.66 -0.61,-2.86 -0.61,-2.86 0,0 -4.15,2.8 -6.1,3.87 -1.95,1.07 -7.23,4 -7.23,4 0,0 1.23,4.71 1.48,6.62 0.25,1.91 1,4.62 0,6.5 -0.85,1.71 -3.59,4.61 -10.32,4.83 -5.25,0.18 -6.64,-1.4 -7.52,-2.36 -0.88,-0.96 -1.23,-5.71 -1.27,-6.71 -0.04,-1 -0.35,-4.49 -0.35,-4.49 0,0 -7.13,-0.07 -11.43,-0.21 -3.9,-0.12 -9.05,-0.51 -9.05,-0.51 0,0 0.27,2.06 0.51,3.54 0.22,1.32 0.37,4.11 -1,5.52 -1.8,1.9 -6.63,2.23 -9.3,2.08 -2.67,-0.15 -6.43,-1.37 -7.61,-3.74 -1.18,-2.37 0.11,-5.59 0.61,-7.44 0.45,-1.63 1.27,-4 0.9,-4.63 C 17.99,87.06 14.8,86.42 10,81.94 5.2,77.46 -1.64,61.5 11.58,49.68 24.8,37.86 50.49,49.1 51.85,49.88 53.21,50.66 99,51.33 99,51.33 Z"
               id="path37249" />
            <path
               class="cls-4"
               d="m 56.63,22.87 c -12.34,1.05 -21.37,7.54 -25.7,14.42 a 55.82,55.82 0 0 0 -3.86,7 20.59,20.59 0 0 1 8.21,1.86 c 4.53,2.19 9.78,4.55 13.61,15.56 2.88,8.33 4.19,16.3 10.88,17.8 7.57,1.7 25,0 33.06,-8.45 8.06,-8.45 9.42,-14.64 7,-22.55 -2.42,-7.91 -12.57,-21.75 -26,-25 C 68,22.17 62.23,22.4 56.63,22.87 Z"
               id="path38579"
               style="fill:#000000;fill-opacity:1" />
            <g
               id="g38485"
               clip-path="url(#clipPath38575)">
              <path
                 class="cls-4"
                 d="m 56.63,22.87 c -12.34,1.05 -21.37,7.54 -25.7,14.42 a 55.82,55.82 0 0 0 -3.86,7 20.59,20.59 0 0 1 8.21,1.86 c 4.53,2.19 9.78,4.55 13.61,15.56 2.88,8.33 4.19,16.3 10.88,17.8 7.57,1.7 25,0 33.06,-8.45 8.06,-8.45 9.42,-14.64 7,-22.55 -2.42,-7.91 -12.57,-21.75 -26,-25 C 68,22.17 62.23,22.4 56.63,22.87 Z"
                 id="path37251" />
              <path
                 class="cls-5"
                 d="m 98.08,44.36 c -0.41,-0.87 -1.24,-2.18 -1.24,-2.18 0,0 0,1.83 -0.11,2.79 -0.19,1.57 -0.92,4.85 -1.44,4.39 A 107.5,107.5 0 0 1 87.85,40.57 C 86.24,38.4 80.78,32.76 80.58,30.86 a 19.38,19.38 0 0 1 1,-4.18 l -2.14,-1.1 c -0.79,-0.4 -2,-0.84 -2,-0.84 0,0 -0.44,4.38 -1.21,5.26 -0.77,0.88 -4.63,2.5 -7.73,3.81 -3.75,1.59 -7.37,3.61 -8.73,3.92 -1.2,0.27 -8.12,-0.93 -10.72,-1.32 -3.27,-0.5 -8.22,-1.68 -9.38,-2.45 a 13.53,13.53 0 0 1 -2.86,-3.24 c 0,0 -0.77,0.57 -1.53,1.23 a 15.22,15.22 0 0 0 -1.72,1.89 c 0,0 2.13,2 2.28,2.74 0.2,1.06 -1,2.56 -2,4 -0.61,0.85 -2.27,4.4 -2.27,4.4 a 6.56,6.56 0 0 1 1.93,0.49 c 1.11,0.46 2.15,0.94 2.15,0.94 0,0 2.35,-6.3 4.05,-6.92 1.45,-0.54 5.63,0.65 8.65,1.15 4.29,0.71 8.62,1.32 9.57,2.44 0.95,1.12 2.08,5.85 3.08,9.82 1.12,4.34 4,15.62 3.48,16.51 -0.52,0.89 -5,0.76 -7.61,0.55 a 32.78,32.78 0 0 1 -5.75,-1.33 c 0,0 0.59,1.85 0.77,2.34 0.28,0.71 1.14,2.68 1.14,2.68 0,0 5.12,2 19.93,0 14.81,-2 21.75,-12.39 23.65,-17 2.55,-6.13 2.77,-9.34 2.77,-9.34 0,0 -0.89,-2.09 -1.3,-2.95 z m -12.78,20 c -3.67,2.48 -13.3,5.37 -15.08,4.5 -1.44,-0.7 -4,-12.23 -5.21,-17.37 -0.77,-3.29 -2.5,-8.27 -1.64,-9.88 0.57,-1.09 4.14,-2.82 6.77,-4.18 2.63,-1.36 6.07,-3 7.14,-2.94 1.52,0.12 5,5.24 8.39,9.61 3.39,4.37 7.18,8.9 7.33,10.53 0.15,1.63 -3.92,7.1 -7.7,9.69 z"
                 id="path37253" />
            </g>
            <g
               id="g38491"
               clip-path="url(#clipPath38571)"
               transform="rotate(17.678615,62.849295,76.323299)">
              <path
                 class="cls-4"
                 d="m 56.63,22.87 c -12.34,1.05 -21.37,7.54 -25.7,14.42 a 55.82,55.82 0 0 0 -3.86,7 20.59,20.59 0 0 1 8.21,1.86 c 4.53,2.19 9.78,4.55 13.61,15.56 2.88,8.33 4.19,16.3 10.88,17.8 7.57,1.7 25,0 33.06,-8.45 8.06,-8.45 9.42,-14.64 7,-22.55 -2.42,-7.91 -12.57,-21.75 -26,-25 C 68,22.17 62.23,22.4 56.63,22.87 Z"
                 id="path38487" />
              <path
                 class="cls-5"
                 d="m 98.08,44.36 c -0.41,-0.87 -1.24,-2.18 -1.24,-2.18 0,0 0,1.83 -0.11,2.79 -0.19,1.57 -0.92,4.85 -1.44,4.39 A 107.5,107.5 0 0 1 87.85,40.57 C 86.24,38.4 80.78,32.76 80.58,30.86 a 19.38,19.38 0 0 1 1,-4.18 l -2.14,-1.1 c -0.79,-0.4 -2,-0.84 -2,-0.84 0,0 -0.44,4.38 -1.21,5.26 -0.77,0.88 -4.63,2.5 -7.73,3.81 -3.75,1.59 -7.37,3.61 -8.73,3.92 -1.2,0.27 -8.12,-0.93 -10.72,-1.32 -3.27,-0.5 -8.22,-1.68 -9.38,-2.45 a 13.53,13.53 0 0 1 -2.86,-3.24 c 0,0 -0.77,0.57 -1.53,1.23 a 15.22,15.22 0 0 0 -1.72,1.89 c 0,0 2.13,2 2.28,2.74 0.2,1.06 -1,2.56 -2,4 -0.61,0.85 -2.27,4.4 -2.27,4.4 a 6.56,6.56 0 0 1 1.93,0.49 c 1.11,0.46 2.15,0.94 2.15,0.94 0,0 2.35,-6.3 4.05,-6.92 1.45,-0.54 5.63,0.65 8.65,1.15 4.29,0.71 8.62,1.32 9.57,2.44 0.95,1.12 2.08,5.85 3.08,9.82 1.12,4.34 4,15.62 3.48,16.51 -0.52,0.89 -5,0.76 -7.61,0.55 a 32.78,32.78 0 0 1 -5.75,-1.33 c 0,0 0.59,1.85 0.77,2.34 0.28,0.71 1.14,2.68 1.14,2.68 0,0 5.12,2 19.93,0 14.81,-2 21.75,-12.39 23.65,-17 2.55,-6.13 2.77,-9.34 2.77,-9.34 0,0 -0.89,-2.09 -1.3,-2.95 z m -12.78,20 c -3.67,2.48 -13.3,5.37 -15.08,4.5 -1.44,-0.7 -4,-12.23 -5.21,-17.37 -0.77,-3.29 -2.5,-8.27 -1.64,-9.88 0.57,-1.09 4.14,-2.82 6.77,-4.18 2.63,-1.36 6.07,-3 7.14,-2.94 1.52,0.12 5,5.24 8.39,9.61 3.39,4.37 7.18,8.9 7.33,10.53 0.15,1.63 -3.92,7.1 -7.7,9.69 z"
                 id="path38489" />
            </g>
            <g
               id="g39485"
               transform="matrix(0.43358815,0.46084175,-0.46084175,0.43358815,62.130761,13.962723)"
               style="display:inline">
              <path
                 fill="#d99e82"
                 d="M 2.92,21.393 21.393,2.92 c 3.227,-3.227 8.46,-3.227 11.687,0 3.227,3.227 3.227,8.46 0,11.687 L 14.607,33.08 c -3.227,3.227 -8.46,3.227 -11.687,0 -3.227,-3.228 -3.227,-8.46 0,-11.687 z"
                 id="path38951" />
              <g
                 fill="#c1694f"
                 id="g38977">
                <circle
                   cx="4.3889999"
                   cy="25.778"
                   r="0.972"
                   id="circle38953" />
                <circle
                   cx="7.3060002"
                   cy="28.694"
                   r="0.972"
                   id="circle38955" />
                <circle
                   cx="10.222"
                   cy="31.611"
                   r="0.972"
                   id="circle38957" />
                <circle
                   cx="7.3060002"
                   cy="22.861"
                   r="0.972"
                   id="circle38959" />
                <circle
                   cx="10.222"
                   cy="25.778"
                   r="0.972"
                   id="circle38961" />
                <circle
                   cx="13.139"
                   cy="28.694"
                   r="0.972"
                   id="circle38963" />
                <path
                   d="M 21.896,7.189 C 21.96,6.656 22.444,6.276 22.977,6.34 23.51,6.404 23.89,6.888 23.826,7.421 23.762,7.954 23.278,8.334 22.745,8.27 22.212,8.207 21.832,7.723 21.896,7.189 Z"
                   id="path38965" />
                <circle
                   cx="25.778"
                   cy="10.222"
                   r="0.972"
                   id="circle38967" />
                <circle
                   cx="28.694"
                   cy="13.139"
                   r="0.972"
                   id="circle38969" />
                <circle
                   cx="25.778"
                   cy="4.3889999"
                   r="0.972"
                   id="circle38971" />
                <circle
                   cx="28.694"
                   cy="7.3060002"
                   r="0.972"
                   id="circle38973" />
                <circle
                   cx="31.611"
                   cy="10.222"
                   r="0.972"
                   id="circle38975" />
              </g>
              <path
                 fill="#eabaa7"
                 d="M 6.82,17.514 17.512,6.819 29.18,18.486 18.486,29.18 Z"
                 id="path38979" />
              <path
                 fill="#f7ded5"
                 d="m 9.799,18.423 c -0.249,0 -0.498,-0.095 -0.687,-0.285 -0.38,-0.38 -0.38,-0.995 0,-1.375 l 7.715,-7.715 c 0.38,-0.38 0.995,-0.38 1.375,0 0.38,0.38 0.38,0.995 0,1.375 l -7.715,7.715 c -0.191,0.191 -0.439,0.285 -0.688,0.285 z"
                 id="path38981" />
            </g>
            <g
               id="g40460"
               transform="matrix(0.23003593,0.58945506,-0.58945506,0.23003593,61.29396,35.150414)"
               style="display:inline">
              <path
                 fill="#d99e82"
                 d="M 2.92,21.393 21.393,2.92 c 3.227,-3.227 8.46,-3.227 11.687,0 3.227,3.227 3.227,8.46 0,11.687 L 14.607,33.08 c -3.227,3.227 -8.46,3.227 -11.687,0 -3.227,-3.228 -3.227,-8.46 0,-11.687 z"
                 id="path40428" />
              <g
                 fill="#c1694f"
                 id="g40454">
                <circle
                   cx="4.3889999"
                   cy="25.778"
                   r="0.972"
                   id="circle40430" />
                <circle
                   cx="7.3060002"
                   cy="28.694"
                   r="0.972"
                   id="circle40432" />
                <circle
                   cx="10.222"
                   cy="31.611"
                   r="0.972"
                   id="circle40434" />
                <circle
                   cx="7.3060002"
                   cy="22.861"
                   r="0.972"
                   id="circle40436" />
                <circle
                   cx="10.222"
                   cy="25.778"
                   r="0.972"
                   id="circle40438" />
                <circle
                   cx="13.139"
                   cy="28.694"
                   r="0.972"
                   id="circle40440" />
                <path
                   d="M 21.896,7.189 C 21.96,6.656 22.444,6.276 22.977,6.34 23.51,6.404 23.89,6.888 23.826,7.421 23.762,7.954 23.278,8.334 22.745,8.27 22.212,8.207 21.832,7.723 21.896,7.189 Z"
                   id="path40442" />
                <circle
                   cx="25.778"
                   cy="10.222"
                   r="0.972"
                   id="circle40444" />
                <circle
                   cx="28.694"
                   cy="13.139"
                   r="0.972"
                   id="circle40446" />
                <circle
                   cx="25.778"
                   cy="4.3889999"
                   r="0.972"
                   id="circle40448" />
                <circle
                   cx="28.694"
                   cy="7.3060002"
                   r="0.972"
                   id="circle40450" />
                <circle
                   cx="31.611"
                   cy="10.222"
                   r="0.972"
                   id="circle40452" />
              </g>
              <path
                 fill="#eabaa7"
                 d="M 6.82,17.514 17.512,6.819 29.18,18.486 18.486,29.18 Z"
                 id="path40456" />
              <path
                 fill="#f7ded5"
                 d="m 9.799,18.423 c -0.249,0 -0.498,-0.095 -0.687,-0.285 -0.38,-0.38 -0.38,-0.995 0,-1.375 l 7.715,-7.715 c 0.38,-0.38 0.995,-0.38 1.375,0 0.38,0.38 0.38,0.995 0,1.375 l -7.715,7.715 c -0.191,0.191 -0.439,0.285 -0.688,0.285 z"
                 id="path40458" />
            </g>
            <g
               id="g37265"
               style="display:inline"
               transform="rotate(17.678615,62.849295,76.323299)">
              <path
                 class="cls-1"
                 d="m 114.9,22.51 -0.18,-0.14 c -2.31,-1.83 -5.39,-1.8 -6.87,0.07 L 110.52,19 c 1.43,-1.8 0.82,-4.67 -1.36,-6.39 l -0.17,-0.14 c -2.18,-1.72 -5.11,-1.65 -6.54,0.15 l -0.71,0.89 c 0.8,-1.77 0,-4.19 -2,-5.75 L 99.56,7.62 c -2.26,-1.79 -5.23,-1.8 -6.64,0 L 74.34,31.08 v -0.4 l -10.13,13.21 6,23.5 23.72,-9.78 22.47,-28.39 c 1.49,-1.87 0.81,-4.88 -1.5,-6.71 z"
                 id="path37261" />
              <path
                 class="cls-2"
                 d="m 117.91,38.3 c 0,0 2.94,-2.9 -0.28,-5.44 -3.22,-2.54 -5.35,1 -5.35,1 l -11.81,15 c -0.34,-0.65 -1.91,-2.24 -2.31,-2.87 l 16.38,-20.76 c 0,0 2.94,-2.9 -0.28,-5.44 -3.22,-2.54 -5.36,1 -5.36,1 L 93.49,40.25 c -0.49,-0.46 -1.8,-1.56 -2.32,-2 L 109,15.61 c 0,0 2.94,-2.91 -0.28,-5.45 -3.22,-2.54 -5.36,1 -5.36,1 L 85.53,33.78 c -0.57,-0.4 -2.35,-1.71 -2.92,-2.09 l 16.7,-21.15 c 0,0 2.94,-2.9 -0.27,-5.44 -3.21,-2.54 -5.36,1 -5.36,1 L 76,28.45 l -1.42,1.8 -0.63,0.8 c 9.67,7.63 10.3,21.85 4,29.9 -1.28,1.61 -4.08,0.07 -4.08,0.07 7.63,-9.66 6.27,-21.19 -3.39,-28.82 l 4,-14.75 c 0,0 1.38,-3.86 -2.48,-5.24 -3.86,-1.38 -5.25,2.48 -5.25,2.48 l -4.14,10 A 90.4,90.4 0 0 1 57,36.32 24.63,24.63 0 0 0 97.57,64.08 l 1.27,-1.62 z"
                 id="path37263" />
            </g>
            <path
               class="cls-6"
               d="m 35.82,59.77 c 0.55,2.49 -0.63,5.14 -3.39,5.49 -2.27,0.28 -4.13,-1.23 -4.68,-3.73 a 4.4,4.4 0 0 1 3.06,-5.4 4.39,4.39 0 0 1 5.01,3.64 z"
               id="path37255" />
            <path
               class="cls-6"
               d="m 19.54,60.64 c 0.17,2.52 -1.94,5.14 -4.69,4.73 -2.27,-0.33 -3.64,-2.28 -3.49,-4.79 a 4.37,4.37 0 0 1 4.4,-4.31 C 18,56.4 19.38,58 19.54,60.64 Z"
               id="path37257" />
            <path
               class="cls-6"
               d="m 27,69.66 c 1,-0.74 2.65,-2.48 3.83,-1.1 1.18,1.38 -0.74,2.79 -1.83,3.64 -1.09,0.85 -3.51,3 -5.32,3 -1.81,0 -4.33,-1.89 -6,-3.2 -1.37,-1.06 -2,-2.49 -1.33,-3.38 0.67,-0.89 1.88,-0.63 2.89,0.19 1.17,1 3.42,2.87 4.31,2.83 0.89,-0.04 2.08,-0.98 3.45,-1.98 z"
               id="path37259" />
            <g
               id="g41341"
               transform="matrix(1.2608833,-0.03562861,0.03562861,1.2608833,3.1279876,44.522129)">
              <path
                 fill="#e6e7e8"
                 d="M 34.979,12.068 C 34.843,11.679 34.708,11.289 34.547,10.913 34.19,10.082 33.76,9.292 33.288,8.531 33.026,8.109 32.748,7.701 32.453,7.303 32.051,6.761 31.622,6.243 31.163,5.75 30.87,5.435 30.567,5.132 30.252,4.839 L 30.129,4.727 C 29.482,4.135 28.805,3.576 28.076,3.082 27.637,2.785 27.181,2.512 26.715,2.254 25.59,1.63 24.316813,1.3713017 23.060813,0.99830166 L 15.715,2.104 11.305,1.301 C 10.225,1.735 9.198,2.269 8.233,2.894 7.86,3.136 7.502,3.395 7.15,3.663 L 7.03,3.752 C 6.32,4.3 5.649,4.894 5.029,5.54 4.782,5.797 4.541,6.06 4.309,6.332 4.27,6.377 4.227,6.418 4.189,6.464 3.888,6.824 3.609,7.202 3.337,7.585 3.155,7.84 2.982,8.101 2.813,8.366 2.478,8.893 2.173,9.438 1.893,10 1.701,10.386 1.512,10.774 1.348,11.176 L 9.8,9.638 35.761643,14.333329 C 35.600643,13.554329 35.237,12.806 34.979,12.068 Z"
                 id="path40846"
                 style="display:inline" />
              <path
                 fill="#bcbec0"
                 d="M 34.546,10.912 18.671,8.023 24.585,6.947 27.541,6.409 31.162,5.75 C 30.869,5.435 30.566,5.132 30.251,4.839 L 24.583,5.871 21.627,6.409 15.713,7.485 12.756,8.023 6.843,9.099 1.893,10 C 1.701,10.386 1.512,10.774 1.348,11.176 L 9.8,9.638 15.714,8.562 34.979,12.068 c -0.136,-0.39 -0.271,-0.779 -0.433,-1.156 z"
                 id="path40848"
                 style="display:inline" />
              <path
                 fill="#d1d3d4"
                 d="m 27.541,6.409 4.912,0.894 c 0.295,0.397 0.573,0.806 0.835,1.228 L 24.586,6.947 Z M 8.232,2.895 C 7.86,3.136 7.502,3.395 7.15,3.663 L 9.8,3.18 Z M 26.715,2.254 21.628,3.18 15.714,4.256 12.758,4.794 6.844,5.871 4.309,6.332 C 4.27,6.377 4.227,6.418 4.189,6.464 3.888,6.824 3.609,7.202 3.337,7.585 L 6.842,6.947 9.8,6.409 15.714,5.333 18.67,4.795 24.584,3.719 28.076,3.084 C 27.636,2.786 27.18,2.513 26.715,2.254 Z"
                 id="path40850"
                 style="display:inline" />
            </g>
          </g>
        </g>
      </g>
    </g>
  </g>
</svg>
