<?xml version="1.0" encoding="UTF-8" standalone="no"?>
<svg
   width="42.85mm"
   height="35.13mm"
   viewBox="0 0 121.48 99.59"
   version="1.1"
   id="svg4413"
   sodipodi:docname="lift_party.svg"
   xml:space="preserve"
   inkscape:version="1.2.2 (732a01da63, 2022-12-09)"
   xmlns:inkscape="http://www.inkscape.org/namespaces/inkscape"
   xmlns:sodipodi="http://sodipodi.sourceforge.net/DTD/sodipodi-0.dtd"
   xmlns="http://www.w3.org/2000/svg"
   xmlns:svg="http://www.w3.org/2000/svg"><sodipodi:namedview
     id="namedview4415"
     pagecolor="#ffffff"
     bordercolor="#000000"
     borderopacity="0.25"
     inkscape:showpageshadow="2"
     inkscape:pageopacity="0.0"
     inkscape:pagecheckerboard="0"
     inkscape:deskcolor="#d1d1d1"
     inkscape:document-units="mm"
     showgrid="false"
     inkscape:zoom="6.6051687"
     inkscape:cx="60.104445"
     inkscape:cy="40.271492"
     inkscape:window-width="1920"
     inkscape:window-height="1057"
     inkscape:window-x="3832"
     inkscape:window-y="-8"
     inkscape:window-maximized="1"
     inkscape:current-layer="svg4413" /><defs
     id="defs4369"><style
       id="style4367">
      .cls-1 {
        fill: #2b2c29;
      }

      .cls-2 {
        fill: #ca4693;
      }

      .cls-3 {
        fill: #90d0d3;
      }

      .cls-4 {
        fill: #99aab5;
      }

      .cls-5 {
        fill: #2a3034;
      }
    </style></defs><g
     id="Layer_2"
     data-name="Layer 2"><g
       id="grid"><g
         id="wh_copy"
         data-name="wh copy"><g
           id="lift"><g
             id="g4407"><g
               id="g4375"><path
                 class="cls-1"
                 d="M27.93,87.83l2.48-3a.82.82,0,0,1,.57.4l1.18,6.09-4.22-3.52Z"
                 id="path4371" /><path
                 class="cls-2"
                 d="M15.72,81.88a9.87,9.87,0,0,1,.63.79c1.34,1.94,1.74,3,3.71,4.31,1.44.81,3.92,2.9,6.28-.73.63-1,1.13-2.83,1.79-3.6.38-.44,1.55,0,1.88.21s.55,1.6.4,2-.82,2-1.1,2.64c-.45,1,.69,1.89,1,2.27a.62.62,0,0,0,.66.16c.23-.09.25-.29.28-.54l.07-1.12c0-.67-1.55-.12-1.41-.5a23.79,23.79,0,0,1,1-2.49c.21-.37,2.4-.44,3.19.11.63.43,1,5.33.39,8.12a4,4,0,0,1-.73,2c-.47.52-.82.51-2,.7-5.09.87-13.12-.85-14.71-1.45-6.54-2.46-9.44-4.4-11-5.6-.49-.34-1-.71-1.43-1.09C4.76,88,.14,85.56,0,84.12s2.7-4.83,2.7-4.83C6.1,68.83,19.05,54.94,27,61.59,36.6,69.54,23,83.25,15.72,81.88Z"
                 id="path4373" /></g><path
               class="cls-2"
               d="M101,37.54l4.27-2.64c.86-.53,4-2.66,5.22-.95.72,1-.47,4-2.43,7.08-1.79,2.85-6,8.74-6.18,9.87s1.21,5.61,1.65,7.34,1.78,5.89,1.34,7.53-2.8,6.2-9.29,6.38c-5.17.15-6.73-1.31-6.94-2.22-.15-.67-.61-2.86-.61-2.86s-4.14,2.8-6.1,3.87-7.22,4-7.22,4l-18,4.39s-7.13-.07-11.44-.21c-3.9-.13-9-.52-9-.52s-15.49-4-15.85-4.66-3.65-1.35-8.49-5.83S.33,47.71,13.55,35.88s38.91-.58,40.27.2S101,37.54,101,37.54Z"
               id="path4377" /><path
               class="cls-3"
               d="M58.6,9.08c-12.34,1.05-21.36,7.54-25.7,14.41a56.86,56.86,0,0,0-3.85,7,20.65,20.65,0,0,1,8.2,1.85C41.78,34.58,47,36.93,50.86,48c2.88,8.33,4.19,16.3,10.88,17.8,7.58,1.7,25,0,33.07-8.45s9.42-14.64,7-22.55-12.58-21.76-26-25C70,8.38,64.21,8.61,58.6,9.08Z"
               id="path4379" /><path
               class="cls-1"
               d="M100.05,30.56a24.14,24.14,0,0,0-1.24-2.17s0,1.82-.11,2.79c-.18,1.57-.92,4.85-1.43,4.39a105.52,105.52,0,0,1-7.44-8.79c-1.61-2.18-7.07-7.81-7.27-9.72a19.52,19.52,0,0,1,1-4.17l-2.13-1.1c-.8-.41-2-.84-2-.84s-.51,4.37-1.23,5.22-4.62,2.5-7.73,3.81c-3.75,1.59-7.36,3.61-8.73,3.91-1.19.28-8.11-.92-10.71-1.32-3.28-.49-8.23-1.68-9.39-2.44a13.73,13.73,0,0,1-2.86-3.24s-.76.57-1.53,1.22A15.79,15.79,0,0,0,35.53,20s2.13,2,2.28,2.74c.2,1.06-1,2.55-2,4-.6.85-2.26,4.4-2.26,4.4a6.8,6.8,0,0,1,1.93.48c1.11.47,2.15.95,2.15.95s2.39-6.23,4.08-6.86c1.44-.53,5.62.66,8.65,1.16,4.28.71,8.62,1.32,9.57,2.43S62,35.14,63,39.1c1.12,4.35,4,15.63,3.48,16.52s-5,.76-7.61.55a34,34,0,0,1-5.75-1.33s.59,1.85.78,2.34c.28.71,1.14,2.67,1.14,2.67s5.12,2,19.92,0,21.75-12.39,23.65-17c2.55-6.13,2.78-9.35,2.78-9.35S100.46,31.43,100.05,30.56Zm-12.78,20C83.61,53.05,74,55.94,72.19,55.07c-1.43-.7-4-12.23-5.2-17.37-.77-3.29-2.51-8.27-1.65-9.88.58-1.09,4.14-2.82,6.77-4.18s6.08-3,7.15-2.94c1.51.11,5,5.24,8.39,9.6s7.17,8.92,7.3,10.54S91.05,47.94,87.27,50.53Z"
               id="path4381" /><path
               class="cls-1"
               d="M37.8,46c.54,2.49-.64,5.13-3.4,5.48-2.26.29-4.13-1.23-4.67-3.72a4.39,4.39,0,0,1,3.05-5.4A4.4,4.4,0,0,1,37.8,46Z"
               id="path4383" /><path
               class="cls-1"
               d="M21.52,46.85c.16,2.52-1.95,5.14-4.7,4.73-2.26-.34-3.64-2.28-3.49-4.79a4.38,4.38,0,0,1,4.4-4.31C20,42.61,21.35,44.23,21.52,46.85Z"
               id="path4385" /><path
               class="cls-1"
               d="M28.94,55.87c1-.75,2.66-2.48,3.83-1.1s-.7,2.78-1.79,3.64-3.51,3-5.32,3-4.33-1.89-6-3.2c-1.36-1.07-2-2.49-1.32-3.39s1.87-.62,2.88.2c1.17,1,3.42,2.86,4.31,2.83S27.61,56.86,28.94,55.87Z"
               id="path4387" /><path
               class="cls-4"
               d="M121.48,15.5a1.66,1.66,0,0,1-1.72,1.6L4,13.06a1.66,1.66,0,1,1,.11-3.31l115.75,4A1.66,1.66,0,0,1,121.48,15.5Z"
               id="path4389" /><path
               class="cls-5"
               d="M115.27,3.7a3.31,3.31,0,0,0-3.43,3.19,3.31,3.31,0,0,0-6.61-.23l-.58,16.53a3.31,3.31,0,1,0,6.62.23,3.31,3.31,0,1,0,6.61.24l.58-16.54A3.31,3.31,0,0,0,115.27,3.7ZM16.05.23a3.31,3.31,0,0,0-3.42,3.19A3.31,3.31,0,0,0,6,3.19L5.44,19.73a3.31,3.31,0,0,0,6.61.23,3.31,3.31,0,0,0,6.62.23l.57-16.53A3.31,3.31,0,0,0,16.05.23Z"
               id="path4391" /><g
               id="g4397"><path
                 class="cls-1"
                 d="M47.41,88.75,45.7,85.27a.81.81,0,0,0-.64.25l-2.58,5.65,4.93-2.42Z"
                 id="path4393" /><path
                 class="cls-2"
                 d="M60.68,85.84a8,8,0,0,0-.8.63c-1.76,1.57-2.39,2.47-4.63,3.31-1.58.45-4.48,1.9-5.93-2.19-.38-1.07-.43-3-.89-3.92-.26-.52-1.5-.38-1.87-.24s-.91,1.43-.86,1.84.33,2.13.45,2.83c.19,1.09-1.12,1.67-1.55,2a.61.61,0,0,1-.67,0c-.21-.13-.18-.34-.15-.58l.2-1.11c.17-.64,1.53.25,1.49-.15a23.94,23.94,0,0,0-.4-2.66c-.12-.41-2.23-1-3.13-.65-.71.28-2.21,5-2.29,7.8a4.06,4.06,0,0,0,.24,2.1c.34.61.68.69,1.73,1.14,4.75,2,13,2.27,14.64,2.06,6.94-.85,10.22-2.06,12-2.85.56-.22,1.11-.46,1.64-.72,0-.06,5-1.33,5.5-2.7s-1.48-5.33-1.48-5.33c-.84-11-10.15-27.52-19.48-22.94C43.3,68.94,53.24,85.46,60.68,85.84Z"
                 id="path4395" /></g><path
               class="cls-3"
               d="m 16.25,33.88 c 7.79,0.08 17.81,0 24.55,0.34 a 7.66,7.66 0 0 1 4.76,2.53 7.52,7.52 0 0 1 1.67,3.62 c -0.83,1.62 -25.72,1 -37.32,-0.47 a 10.51,10.51 0 0 1 6.34,-6 z"
               id="path4399"
               style="display:none" /><path
               class="cls-3"
               d="M108.89,40.65a2.6,2.6,0,0,1-1.08.78c-1.76-2.27-3.89-3.58-4.93-5,0-.29.51-.78.76-.91a.8.8,0,0,1,.74,0A46.91,46.91,0,0,1,109,39.53,1.28,1.28,0,0,1,108.89,40.65Z"
               id="path4401" /><path
               class="cls-3"
               d="M25.6,87.2a4,4,0,0,0-2.19-1.11,4.08,4.08,0,0,0-3.18,1,37,37,0,0,1-2.75,7.76A4.28,4.28,0,0,0,23,96,44.85,44.85,0,0,0,25.6,87.2Z"
               id="path4403" /><path
               class="cls-3"
               d="M52.58,99.18a3.8,3.8,0,0,0,2.68.25,3.21,3.21,0,0,0,1.68-1.52,46.11,46.11,0,0,0-.84-8.49,2.26,2.26,0,0,0-.65-.58,2.47,2.47,0,0,0-1.4-.38,3.12,3.12,0,0,0-1.21.31A7,7,0,0,0,51,90a33.84,33.84,0,0,0-.42,3.61c-.09,1.37-.11,2.85-.11,4.28A6.36,6.36,0,0,0,52.58,99.18Z"
               id="path4405" /></g></g></g></g></g><g
     id="g8739"
     inkscape:label="Hat"
     transform="translate(-4.3362201,-5.8619272)"><path
       fill="#dd2e44"
       d="m 52.506368,47.082867 c 0.01328,-0.109301 -0.02824,-0.224062 -0.09832,-0.340404 0,0 -14.130429,-23.449491 -15.671802,-23.631973 -1.541503,-0.180105 -20.718276,19.361258 -20.718276,19.361258 -0.09633,0.09753 -0.162901,0.197894 -0.175038,0.308476 -0.18069,1.530706 7.881646,3.732043 18.005075,4.920985 10.125813,1.189074 18.47767,0.912362 18.658362,-0.618342 z"
       id="path5268"
       style="stroke-width:1.68912" /><path
       fill="#ea596e"
       d="m 36.910444,23.815538 c -0.0451,0.01226 -0.09976,0.0369 -0.16307,0.07485 -1.27625,1.439349 -11.565988,13.519252 -14.338925,17.790308 2.168665,0.745234 4.657846,1.24669 7.662388,1.763932 1.414869,-3.989147 7.721325,-18.904972 6.83961,-19.629086 z"
       id="path5270"
       style="stroke-width:1.39378" /></g><g
     id="g9662"
     inkscape:label="Confetti"><path
       fill="#aa8dd8"
       d="m 13.299186,19.244008 c 0.509283,-0.31956 1.140363,-0.444649 1.77551,-0.301364 2.001743,0.457752 3.62836,1.364605 4.692468,2.620333 1.126581,1.329441 1.56258,2.987987 1.20553,4.555843 -0.628517,2.749833 -3.723326,4.980289 -8.431294,3.906251 -1.831158,-0.416397 -2.7266511,0.08307 -2.7879199,0.362739 -0.065941,0.279125 0.5253909,1.119017 2.3562749,1.537753 2.001742,0.457753 3.62836,1.364605 4.692467,2.620333 1.126581,1.329441 1.567257,2.988536 1.20553,4.555843 -0.62879,2.752172 -3.723326,4.980289 -8.4268902,3.909139 -1.3346791,-0.303609 -2.0805985,-0.109019 -2.4034052,0.03565 -0.258161,0.119064 -0.370782,0.250465 -0.3894673,0.328878 -0.060998,0.277335 0.5209881,1.116131 2.3565488,1.535415 1.2674089,0.290974 2.0628679,1.553109 1.7718949,2.820517 -0.288636,1.267684 -1.548158,2.061078 -2.8205187,1.771895 C 3.39235,48.432082 1.5665138,45.081294 2.195579,42.326783 c 0.6287897,-2.752173 3.7233258,-4.98029 8.431293,-3.906252 1.334404,0.305947 2.075921,0.10847 2.398727,-0.0362 0.260225,-0.116451 0.372846,-0.247852 0.389193,-0.32654 0.06595,-0.279125 -0.520713,-1.118469 -2.356274,-1.537753 -4.7032906,-1.07349 -6.5294002,-4.421938 -5.900336,-7.17645 0.6287897,-2.752173 3.7236003,-4.982628 8.426342,-3.904462 1.334678,0.303609 2.080872,0.10668 2.403678,-0.03799 0.257887,-0.116725 0.370508,-0.248126 0.389193,-0.326539 0.06127,-0.279674 -0.52539,-1.119018 -2.356273,-1.537753 -1.267684,-0.288636 -2.062868,-1.553109 -1.771895,-2.820518 0.150578,-0.636664 0.540401,-1.150421 1.049959,-1.47232 z"
       id="path9163"
       style="stroke-width:2.35461" /><path
       fill="#77b255"
       d="m 63.765984,67.871886 c -4.645655,1.31152 -7.850286,-0.758186 -8.613181,-3.477766 -0.762896,-2.717225 0.890044,-6.157318 5.533344,-7.464129 1.813054,-0.508597 2.35697,-1.375095 2.283977,-1.650585 -0.08006,-0.280199 -1.000712,-0.73464 -2.809056,-0.226043 -4.6433,1.309166 -7.847931,-0.762895 -8.610826,-3.482475 -0.767604,-2.71958 0.890044,-6.154963 5.535699,-7.461775 1.810699,-0.510951 2.35697,-1.379804 2.276913,-1.655294 -0.0777,-0.273135 -0.996002,-0.732285 -2.806701,-0.223688 -1.247946,0.350837 -2.552402,-0.374384 -2.90324,-1.624684 -0.348483,-1.25501 0.379093,-2.552403 1.631748,-2.905595 4.640946,-1.306811 7.847931,0.758186 8.615536,3.482475 0.762895,2.717226 -0.892399,6.152609 -5.538054,7.464129 -1.813054,0.508597 -2.35697,1.375095 -2.276913,1.650585 0.07535,0.27549 0.993648,0.73464 2.801992,0.226043 4.648009,-1.309166 7.850285,0.758186 8.615535,3.482475 0.76525,2.714871 -0.890044,6.150254 -5.538054,7.461775 -1.808344,0.506242 -2.35226,1.379804 -2.276912,1.650585 0.08006,0.277844 0.996002,0.73464 2.806701,0.228397 1.252655,-0.355546 2.550047,0.374384 2.90324,1.624685 0.350837,1.2503 -0.379093,2.552402 -1.631748,2.900885 z"
       id="path9165"
       style="stroke-width:2.35461" /><circle
       fill="#5c913b"
       cx="98.437241"
       cy="70.520782"
       r="3.5319221"
       id="circle9167"
       style="stroke-width:2.35461" /><circle
       fill="#9266cc"
       cx="82.232407"
       cy="62.636147"
       r="4.7092295"
       id="circle9169"
       style="stroke-width:2.35461" /><circle
       fill="#9266cc"
       cx="27.142021"
       cy="8.7014322"
       r="4.7092295"
       id="circle9171"
       style="stroke-width:2.35461" /><circle
       fill="#5c913b"
       cx="13.820771"
       cy="71.989914"
       r="3.5319221"
       id="circle9173"
       style="stroke-width:2.35461" /><circle
       fill="#5c913b"
       cx="76.067032"
       cy="29.652859"
       r="3.5319221"
       id="circle9175"
       style="stroke-width:2.35461" /><circle
       fill="#ffcc4d"
       cx="104.71765"
       cy="42.436489"
       r="4.7092295"
       id="circle9177"
       style="stroke-width:2.35461" /><circle
       fill="#ffcc4d"
       cx="95.524956"
       cy="8.0530949"
       r="3.5319221"
       id="circle9179"
       style="stroke-width:2.35461" /><circle
       fill="#ffcc4d"
       cx="54.754757"
       cy="15.835671"
       r="3.5319221"
       id="circle9181"
       style="stroke-width:2.35461" /><path
       fill="#77b255"
       d="m 78.159468,93.652874 c -2.728381,-3.982227 -1.792258,-7.680472 0.540508,-9.273057 2.330534,-1.591833 6.118587,-1.125891 8.841753,2.85561 1.061725,1.555178 2.056666,1.79341 2.294343,1.636146 0.239879,-0.165467 0.376017,-1.183103 -0.684201,-2.733818 -2.725397,-3.980749 -1.787043,-7.679747 0.545723,-9.272332 2.33126,-1.597047 6.116356,-1.125138 8.840277,2.858594 1.0632,1.552194 2.061129,1.791905 2.296549,1.627947 0.23394,-0.160972 0.37529,-1.177887 -0.68568,-2.730833 -0.731529,-1.070203 -0.461569,-2.538085 0.61086,-3.270359 1.07765,-0.73155 2.53959,-0.457109 3.27485,0.616802 2.72241,3.979271 1.7915,7.678241 -0.54422,9.276795 -2.33053,1.591832 -6.114879,1.122154 -8.843258,-2.860073 -1.061724,-1.555178 -2.056666,-1.79341 -2.292084,-1.629453 -0.236924,0.159498 -0.378276,1.17641 0.681942,2.727125 2.726904,3.98521 1.792258,7.680474 -0.544216,9.276797 -2.327551,1.593311 -6.111896,1.123626 -8.84103,-2.860829 -1.057987,-1.551468 -2.059622,-1.787442 -2.292084,-1.629451 -0.237648,0.164713 -0.377523,1.17864 0.681218,2.732339 0.737488,1.073158 0.460817,2.535853 -0.610864,3.270359 -1.072432,0.732275 -2.53959,0.457108 -3.270386,-0.618309 z"
       id="path9584"
       style="stroke-width:2.35461" /><path
       fill="#aa8dd8"
       d="m 72.327461,10.357954 c -0.0915,-0.5942352 0.04382,-1.2232002 0.427146,-1.7495152 1.213751,-1.656297 2.691109,-2.790174 4.26578,-3.26933 1.667109,-0.50729 3.362613,-0.250115 4.660486,0.699189 2.27541,1.667072 3.096341,5.3925052 0.244033,9.2890242 -1.108164,1.51608 -1.004596,2.5362 -0.772122,2.703313 0.230119,0.171185 1.23561,-0.03876 2.345812,-1.553666 1.213751,-1.656297 2.691109,-2.790175 4.26578,-3.26933 1.667109,-0.50729 3.364971,-0.254191 4.660487,0.699189 2.277447,1.66825 3.09634,5.392505 0.248429,9.286126 -0.807809,1.104984 -0.924846,1.866931 -0.919992,2.22064 0.007,0.284209 0.08297,0.439691 0.147549,0.487929 0.230435,0.165938 1.231215,-0.03587 2.343775,-1.554845 0.769542,-1.048234 2.243602,-1.27821 3.291835,-0.508668 1.049413,0.767505 1.27853,2.238347 0.508668,3.291837 -2.847912,3.89362 -6.647959,4.241609 -8.927446,2.572178 -2.277448,-1.66825 -3.096341,-5.392505 -0.244033,-9.289022 0.809847,-1.103806 0.922488,-1.862856 0.917633,-2.216563 -0.0038,-0.285069 -0.07975,-0.440551 -0.145511,-0.486751 -0.230114,-0.171194 -1.233252,0.03469 -2.345812,1.553666 -2.84995,3.892441 -6.647958,4.241609 -8.927445,2.572179 -2.277449,-1.668251 -3.098379,-5.393684 -0.244353,-9.283768 0.807809,-1.104984 0.922808,-1.86811 0.917952,-2.221818 -0.0049,-0.283031 -0.08093,-0.4385132 -0.14551,-0.4867502 -0.232473,-0.167117 -1.23561,0.03876 -2.345812,1.5536652 -0.767504,1.049413 -2.243602,1.27821 -3.291836,0.508667 -0.524816,-0.390618 -0.841956,-0.95216 -0.935493,-1.547576 z"
       id="path9586"
       style="stroke-width:2.35461" /></g></svg>
