<?xml version="1.0" encoding="UTF-8" standalone="no"?>
<svg
   width="36.994862mm"
   height="29.683994mm"
   viewBox="0 0 104.87543 84.142491"
   version="1.1"
   id="svg8262"
   sodipodi:docname="lover.svg"
   inkscape:version="1.2.2 (732a01da63, 2022-12-09)"
   xmlns:inkscape="http://www.inkscape.org/namespaces/inkscape"
   xmlns:sodipodi="http://sodipodi.sourceforge.net/DTD/sodipodi-0.dtd"
   xmlns="http://www.w3.org/2000/svg"
   xmlns:svg="http://www.w3.org/2000/svg">
  <sodipodi:namedview
     id="namedview8264"
     pagecolor="#ffffff"
     bordercolor="#000000"
     borderopacity="0.25"
     inkscape:showpageshadow="2"
     inkscape:pageopacity="0.0"
     inkscape:pagecheckerboard="0"
     inkscape:deskcolor="#d1d1d1"
     inkscape:document-units="mm"
     showgrid="false"
     inkscape:zoom="7.3945057"
     inkscape:cx="69.916776"
     inkscape:cy="59.368404"
     inkscape:window-width="1920"
     inkscape:window-height="1057"
     inkscape:window-x="1912"
     inkscape:window-y="-8"
     inkscape:window-maximized="1"
     inkscape:current-layer="svg8262" />
  <defs
     id="defs8234">
    <style
       id="style8229">
      .cls-1 {
        fill: none;
      }

      .cls-2 {
        fill: #d3254b;
      }

      .cls-3 {
        fill: #6b174d;
      }

      .cls-4, .cls-8 {
        fill: #f193b3;
      }

      .cls-4 {
        opacity: 0.48;
      }

      .cls-5 {
        fill: #1d1d1b;
      }

      .cls-6 {
        clip-path: url(#clip-path);
      }

      .cls-7 {
        fill: #de2f45;
      }
    </style>
    <clipPath
       id="clip-path">
      <path
         class="cls-1"
         d="M 52.77,0.37 C 40.43,1.37 31.4,7.9 27.07,14.78 a 56.4,56.4 0 0 0 -3.85,7 20.56,20.56 0 0 1 8.2,1.86 c 4.58,2.22 9.78,4.58 13.58,15.6 2.91,8.32 4.22,16.29 10.91,17.76 7.57,1.7 25,0 33.06,-8.45 C 97.03,40.1 98.39,33.94 96,26 93.61,18.06 83.43,4.25 70,1 64.12,-0.34 58.37,-0.11 52.77,0.37 Z"
         id="path8231" />
    </clipPath>
  </defs>
  <g
     id="Layer_2"
     data-name="Layer 2"
     transform="translate(-0.01138548,0.00194518)">
    <g
       id="grid">
      <g
         id="mh_copy"
         data-name="mh copy">
        <g
           id="lovers">
          <g
             id="g8256">
            <path
               class="cls-2"
               d="m 95.19,28.82 4.27,-2.63 c 0.86,-0.53 4,-2.67 5.21,-1 0.73,1 -0.46,4 -2.42,7.08 -1.79,2.86 -6,8.74 -6.18,9.88 -0.18,1.14 1.21,5.6 1.65,7.33 0.44,1.73 1.78,5.89 1.34,7.54 -0.44,1.65 -2.8,6.2 -9.3,6.38 -5.16,0.14 -6.72,-1.32 -6.93,-2.23 -0.15,-0.66 -0.61,-2.86 -0.61,-2.86 0,0 -4.14,2.8 -6.1,3.87 -1.96,1.07 -7.22,4 -7.22,4 0,0 1.22,4.71 1.47,6.62 0.25,1.91 0.95,4.63 0,6.5 -0.85,1.71 -3.59,4.61 -10.32,4.83 -5.25,0.18 -6.64,-1.4 -7.51,-2.36 -0.87,-0.96 -1.24,-5.71 -1.28,-6.71 -0.04,-1 -0.35,-4.49 -0.35,-4.49 0,0 -7.13,-0.07 -11.43,-0.21 -3.9,-0.12 -9,-0.51 -9,-0.51 0,0 0.27,2.06 0.51,3.54 0.23,1.32 0.37,4.11 -1,5.52 -1.79,1.9 -6.63,2.23 -9.3,2.08 -2.67,-0.15 -6.43,-1.37 -7.61,-3.74 -1.18,-2.37 0.11,-5.59 0.62,-7.44 0.45,-1.63 1.26,-4 0.89,-4.62 C 14.22,64.57 10.95,63.83 6.11,59.35 1.27,54.87 -5.5,39 7.72,27.17 c 13.22,-11.83 38.91,-0.58 40.27,0.2 1.36,0.78 47.2,1.45 47.2,1.45 z"
               id="path8236" />
            <path
               class="cls-3"
               d="M 52.77,0.37 C 40.43,1.37 31.4,7.9 27.07,14.78 a 56.4,56.4 0 0 0 -3.85,7 20.56,20.56 0 0 1 8.2,1.86 c 4.58,2.22 9.78,4.58 13.58,15.6 2.91,8.32 4.22,16.29 10.91,17.76 7.57,1.7 25,0 33.06,-8.45 C 97.03,40.1 98.39,33.94 96,26 93.61,18.06 83.43,4.25 70,1 64.12,-0.34 58.37,-0.11 52.77,0.37 Z"
               id="path8238" />
            <path
               class="cls-4"
               d="M 94.22,21.85 C 93.81,21 93,19.68 93,19.68 c 0,0 0,1.82 -0.11,2.78 -0.19,1.57 -0.92,4.85 -1.43,4.4 A 107.43,107.43 0 0 1 84,18.06 C 82.4,15.89 76.94,10.25 76.74,8.35 a 19.37,19.37 0 0 1 1,-4.17 L 75.55,3.07 c -0.79,-0.4 -2,-0.84 -2,-0.84 0,0 -0.51,4.38 -1.23,5.22 -0.72,0.84 -4.63,2.5 -7.73,3.82 -3.75,1.59 -7.36,3.61 -8.73,3.91 -1.2,0.27 -8.11,-0.93 -10.72,-1.32 -3.27,-0.49 -8.22,-1.68 -9.38,-2.44 A 13.7,13.7 0 0 1 33,8.17 c 0,0 -0.77,0.57 -1.53,1.23 a 15,15 0 0 0 -1.72,1.9 c 0,0 2.13,2 2.28,2.73 0.2,1.06 -1,2.56 -2,4 -0.61,0.85 -2.27,4.4 -2.27,4.4 a 6.56,6.56 0 0 1 1.93,0.49 c 1.11,0.46 2.16,0.94 2.16,0.94 0,0 2.31,-6.26 4,-6.86 1.44,-0.54 5.62,0.65 8.64,1.15 4.29,0.71 8.62,1.32 9.58,2.44 0.96,1.12 2.06,5.85 3.08,9.82 1.12,4.34 4,15.62 3.48,16.51 -0.52,0.89 -5,0.76 -7.61,0.56 a 33.43,33.43 0 0 1 -5.75,-1.34 c 0,0 0.59,1.85 0.78,2.34 0.27,0.71 1.13,2.68 1.13,2.68 0,0 5.12,2 19.93,0 14.81,-2 21.75,-12.38 23.65,-17 2.55,-6.12 2.77,-9.34 2.77,-9.34 0,0 -0.9,-2.11 -1.31,-2.97 z m -12.78,20 c -3.66,2.52 -13.29,5.41 -15.08,4.54 -1.44,-0.7 -4,-12.23 -5.2,-17.37 -0.78,-3.29 -2.51,-8.27 -1.65,-9.88 0.58,-1.08 4.14,-2.82 6.77,-4.18 2.63,-1.36 6.07,-3 7.14,-2.94 1.52,0.12 5,5.24 8.39,9.61 3.39,4.37 7.19,8.87 7.3,10.49 0.11,1.62 -3.89,7.11 -7.67,9.69 z"
               id="path8240" />
            <path
               class="cls-5"
               d="m 32,37.26 c 0.54,2.49 -0.64,5.14 -3.4,5.49 C 26.3,43 24.44,41.52 23.9,39 a 4.39,4.39 0 0 1 3.1,-5.38 4.4,4.4 0 0 1 5,3.64 z"
               id="path8242" />
            <path
               class="cls-5"
               d="m 15.68,38.13 c 0.17,2.52 -1.94,5.14 -4.69,4.73 C 8.72,42.53 7.35,40.58 7.5,38.07 a 4.37,4.37 0 0 1 4.4,-4.31 c 2.28,0.13 3.62,1.75 3.78,4.37 z"
               id="path8244" />
            <path
               class="cls-5"
               d="m 23.11,47.15 c 1,-0.74 2.66,-2.48 3.83,-1.09 1.17,1.39 -0.7,2.78 -1.79,3.63 -1.09,0.85 -3.51,3 -5.32,3 -1.81,0 -4.33,-1.89 -6,-3.2 -1.37,-1.06 -2,-2.48 -1.33,-3.38 0.67,-0.9 1.88,-0.63 2.89,0.19 1.17,1 3.42,2.87 4.31,2.83 0.89,-0.04 2.07,-0.98 3.41,-1.98 z"
               id="path8246" />
            <g
               class="cls-6"
               clip-path="url(#clip-path)"
               id="g8254">
              <g
                 id="g8252">
                <path
                   class="cls-7"
                   d="m 64.25,43.3 c -5.5,0 -9.85,-1.77 -11.56,-3.41 a 3.79,3.79 0 0 1 -1,-3.29 l -0.26,0.28 a 4.69,4.69 0 0 1 -3.07,1.3 v 0 A 4,4 0 0 1 45.56,37 c -2.52,-2.42 -1.5,-6.13 -1.46,-6.29 a 21,21 0 0 0 0.44,-4 c 0.22,-4 0.53,-9.57 3.57,-12.74 A 16.2,16.2 0 0 1 53.18,10.1 5.8,5.8 0 0 0 56.31,6.8 16.37,16.37 0 0 1 60,1.58 c 3,-3.17 8.55,-3.71 12.58,-4.1 a 21.84,21.84 0 0 0 4,-0.59 7.55,7.55 0 0 1 2.29,-0.34 5.78,5.78 0 0 1 4.08,1.52 4.09,4.09 0 0 1 0.15,5.81 l -0.28,0.29 a 4.08,4.08 0 0 1 0.77,-0.07 3.65,3.65 0 0 1 2.54,1 C 87.94,6.86 89.88,11.53 90,17 A 25.12,25.12 0 0 1 82.68,35.22 25,25 0 0 1 64.25,43.3 Z M 59.34,24.76 a 24,24 0 0 1 -2.88,5.83 17.21,17.21 0 0 1 5.54,-2.17 15.39,15.39 0 0 0 8.56,-4.84 15.33,15.33 0 0 0 4.44,-8.76 17.71,17.71 0 0 1 2,-5.6 23.67,23.67 0 0 1 -5.71,3.13 18.46,18.46 0 0 1 -4,8 18.52,18.52 0 0 1 -7.95,4.41 z"
                   id="path8248" />
                <path
                   class="cls-8"
                   d="M 78.83,-2.18 A 4.53,4.53 0 0 1 82,-1 2.88,2.88 0 0 1 82.09,3 c -6.92,7.21 -12,8.32 -12,8.32 0,0 -0.91,5.07 -3.87,8.16 -2.96,3.09 -8,4.21 -8,4.21 0,0 -0.82,5.1 -7.75,12.31 a 3.44,3.44 0 0 1 -2.15,0.91 2.63,2.63 0 0 1 -1.88,-0.82 c -2,-1.92 -1.12,-5 -1.12,-5 1,-3 -0.25,-12.12 3.71,-16.24 3.96,-4.12 5,-3.13 7,-5.19 2,-2.06 0.95,-3.05 4.9,-7.17 C 64.88,-1.63 74,-0.84 77,-1.92 a 6.73,6.73 0 0 1 1.86,-0.26 m 4.72,7.55 A 2.34,2.34 0 0 1 85.21,6 c 3.09,3 7.42,17 -3.46,28.35 A 23.91,23.91 0 0 1 64.25,42 c -5.08,0 -9.19,-1.62 -10.68,-3.06 -1,-1 -1.07,-3 0.9,-5.07 5.94,-6.18 10.06,-2.23 17,-9.44 6.94,-7.21 2.8,-11.17 8.73,-17.35 A 4.86,4.86 0 0 1 83.57,5.34 M 78.83,-4.72 a 9.33,9.33 0 0 0 -2.66,0.39 v 0 a 21.51,21.51 0 0 1 -3.68,0.53 c -4.23,0.41 -10,1 -13.38,4.48 a 17.47,17.47 0 0 0 -3.9,5.57 4.62,4.62 0 0 1 -1,1.6 4.7,4.7 0 0 1 -1.55,1.06 17.67,17.67 0 0 0 -5.41,4.13 c -3.37,3.51 -3.69,9.31 -3.93,13.55 a 22.24,22.24 0 0 1 -0.37,3.7 v 0.05 c -0.48,1.7 -0.65,5.21 1.8,7.56 a 5.23,5.23 0 0 0 3.64,1.53 5.34,5.34 0 0 0 2.3,-0.53 4.72,4.72 0 0 0 1.19,1.88 c 1.95,1.87 6.55,3.76 12.44,3.76 A 26.28,26.28 0 0 0 83.65,36.09 26.38,26.38 0 0 0 91.26,17 C 91.13,10.88 89,6.06 87,4.17 a 4.77,4.77 0 0 0 -1.92,-1.12 5.09,5.09 0 0 0 -1.26,-5.89 7,7 0 0 0 -5,-1.88 z m -6.52,18 a 20.86,20.86 0 0 0 2,-0.92 c -0.2,0.75 -0.36,1.47 -0.51,2.17 a 14.17,14.17 0 0 1 -4.15,8.14 14.2,14.2 0 0 1 -8,4.49 c -0.69,0.18 -1.41,0.36 -2.14,0.6 a 20.88,20.88 0 0 0 0.83,-2 19.37,19.37 0 0 0 7.79,-4.51 19.39,19.39 0 0 0 4.18,-8 z"
                   id="path8250" />
              </g>
            </g>
          </g>
        </g>
      </g>
    </g>
  </g>
</svg>
