<?xml version="1.0" encoding="UTF-8" standalone="no"?>
<svg
   width="36.994862mm"
   height="37.682613mm"
   viewBox="0 0 104.87543 106.81544"
   version="1.1"
   id="svg74620"
   sodipodi:docname="lover.svg"
   inkscape:version="1.2.2 (732a01da63, 2022-12-09)"
   xmlns:inkscape="http://www.inkscape.org/namespaces/inkscape"
   xmlns:sodipodi="http://sodipodi.sourceforge.net/DTD/sodipodi-0.dtd"
   xmlns="http://www.w3.org/2000/svg"
   xmlns:svg="http://www.w3.org/2000/svg">
  <sodipodi:namedview
     id="namedview74622"
     pagecolor="#ffffff"
     bordercolor="#000000"
     borderopacity="0.25"
     inkscape:showpageshadow="2"
     inkscape:pageopacity="0.0"
     inkscape:pagecheckerboard="0"
     inkscape:deskcolor="#d1d1d1"
     inkscape:document-units="mm"
     showgrid="false"
     inkscape:zoom="3.6972529"
     inkscape:cx="20.826273"
     inkscape:cy="116.30257"
     inkscape:window-width="1920"
     inkscape:window-height="1057"
     inkscape:window-x="1912"
     inkscape:window-y="-8"
     inkscape:window-maximized="1"
     inkscape:current-layer="g9662" />
  <defs
     id="defs74592">
    <style
       id="style74587">
      .cls-1 {
        fill: none;
      }

      .cls-2 {
        fill: #d3254b;
      }

      .cls-3 {
        fill: #6b174d;
      }

      .cls-4, .cls-8 {
        fill: #f193b3;
      }

      .cls-4 {
        opacity: 0.48;
      }

      .cls-5 {
        fill: #1d1d1b;
      }

      .cls-6 {
        clip-path: url(#clip-path);
      }

      .cls-7 {
        fill: #de2f45;
      }
    </style>
    <clipPath
       clipPathUnits="userSpaceOnUse"
       id="clipPath75108">
      <path
         class="cls-3"
         d="m 52.77,5.09 c -12.34,1 -21.37,7.53 -25.7,14.41 a 56.4,56.4 0 0 0 -3.85,7 20.56,20.56 0 0 1 8.2,1.86 c 4.58,2.22 9.78,4.58 13.58,15.6 2.91,8.32 4.22,16.29 10.91,17.76 7.57,1.7 24.999997,0 33.06,-8.45 8.059996,-8.45 9.420002,-14.61 7.030002,-22.55 C 93.610002,22.78 83.429997,8.9699997 70,5.72 64.12,4.38 58.37,4.61 52.77,5.09 Z"
         id="path75110"
         style="fill:none;stroke-width:1" />
    </clipPath>
  </defs>
  <g
     id="Layer_2"
     data-name="Layer 2"
     transform="translate(-0.01138548,17.956951)">
    <g
       id="grid">
      <g
         id="mh_copy"
         data-name="mh copy">
        <g
           id="lovers">
          <g
             id="g74614">
            <path
               class="cls-2"
               d="m 95.19,28.82 4.27,-2.63 c 0.86,-0.53 4,-2.67 5.21,-1 0.73,1 -0.46,4 -2.42,7.08 -1.79,2.86 -6,8.74 -6.18,9.88 -0.18,1.14 1.21,5.6 1.65,7.33 0.44,1.73 1.78,5.89 1.34,7.54 -0.44,1.65 -2.8,6.2 -9.3,6.38 -5.16,0.14 -6.72,-1.32 -6.93,-2.23 -0.15,-0.66 -0.61,-2.86 -0.61,-2.86 0,0 -4.14,2.8 -6.1,3.87 -1.96,1.07 -7.22,4 -7.22,4 0,0 1.22,4.71 1.47,6.62 0.25,1.91 0.95,4.63 0,6.5 -0.85,1.71 -3.59,4.61 -10.32,4.83 -5.25,0.18 -6.64,-1.4 -7.51,-2.36 -0.87,-0.96 -1.24,-5.71 -1.28,-6.71 -0.04,-1 -0.35,-4.49 -0.35,-4.49 0,0 -7.13,-0.07 -11.43,-0.21 -3.9,-0.12 -9,-0.51 -9,-0.51 0,0 0.27,2.06 0.51,3.54 0.23,1.32 0.37,4.11 -1,5.52 -1.79,1.9 -6.63,2.23 -9.3,2.08 -2.67,-0.15 -6.43,-1.37 -7.61,-3.74 -1.18,-2.37 0.11,-5.59 0.62,-7.44 0.45,-1.63 1.26,-4 0.89,-4.62 C 14.22,64.57 10.95,63.83 6.11,59.35 1.27,54.87 -5.5,39 7.72,27.17 c 13.22,-11.83 38.91,-0.58 40.27,0.2 1.36,0.78 47.2,1.45 47.2,1.45 z"
               transform="translate(0,4.72)"
               id="path74594" />
            <path
               class="cls-3"
               d="M 52.77,0.37 C 40.43,1.37 31.4,7.9 27.07,14.78 a 56.4,56.4 0 0 0 -3.85,7 20.56,20.56 0 0 1 8.2,1.86 c 4.58,2.22 9.78,4.58 13.58,15.6 2.91,8.32 4.22,16.29 10.91,17.76 7.57,1.7 25,0 33.06,-8.45 C 97.03,40.1 98.39,33.94 96,26 93.61,18.06 83.43,4.25 70,1 64.12,-0.34 58.37,-0.11 52.77,0.37 Z"
               transform="translate(0,4.72)"
               id="path74596" />
            <path
               class="cls-4"
               d="M 94.22,21.85 C 93.81,21 93,19.68 93,19.68 c 0,0 0,1.82 -0.11,2.78 -0.19,1.57 -0.92,4.85 -1.43,4.4 A 107.43,107.43 0 0 1 84,18.06 C 82.4,15.89 76.94,10.25 76.74,8.35 a 19.37,19.37 0 0 1 1,-4.17 L 75.55,3.07 c -0.79,-0.4 -2,-0.84 -2,-0.84 0,0 -0.51,4.38 -1.23,5.22 -0.72,0.84 -4.63,2.5 -7.73,3.82 -3.75,1.59 -7.36,3.61 -8.73,3.91 -1.2,0.27 -8.11,-0.93 -10.72,-1.32 -3.27,-0.49 -8.22,-1.68 -9.38,-2.44 A 13.7,13.7 0 0 1 33,8.17 c 0,0 -0.77,0.57 -1.53,1.23 a 15,15 0 0 0 -1.72,1.9 c 0,0 2.13,2 2.28,2.73 0.2,1.06 -1,2.56 -2,4 -0.61,0.85 -2.27,4.4 -2.27,4.4 a 6.56,6.56 0 0 1 1.93,0.49 c 1.11,0.46 2.16,0.94 2.16,0.94 0,0 2.31,-6.26 4,-6.86 1.44,-0.54 5.62,0.65 8.64,1.15 4.29,0.71 8.62,1.32 9.58,2.44 0.96,1.12 2.06,5.85 3.08,9.82 1.12,4.34 4,15.62 3.48,16.51 -0.52,0.89 -5,0.76 -7.61,0.56 a 33.43,33.43 0 0 1 -5.75,-1.34 c 0,0 0.59,1.85 0.78,2.34 0.27,0.71 1.13,2.68 1.13,2.68 0,0 5.12,2 19.93,0 14.81,-2 21.75,-12.38 23.65,-17 2.55,-6.12 2.77,-9.34 2.77,-9.34 0,0 -0.9,-2.11 -1.31,-2.97 z m -12.78,20 c -3.66,2.52 -13.29,5.41 -15.08,4.54 -1.44,-0.7 -4,-12.23 -5.2,-17.37 -0.78,-3.29 -2.51,-8.27 -1.65,-9.88 0.58,-1.08 4.14,-2.82 6.77,-4.18 2.63,-1.36 6.07,-3 7.14,-2.94 1.52,0.12 5,5.24 8.39,9.61 3.39,4.37 7.19,8.87 7.3,10.49 0.11,1.62 -3.89,7.11 -7.67,9.69 z"
               transform="translate(0,4.72)"
               id="path74598" />
            <path
               class="cls-5"
               d="m 32,37.26 c 0.54,2.49 -0.64,5.14 -3.4,5.49 C 26.3,43 24.44,41.52 23.9,39 a 4.39,4.39 0 0 1 3.1,-5.38 4.4,4.4 0 0 1 5,3.64 z"
               transform="translate(0,4.72)"
               id="path74600" />
            <path
               class="cls-5"
               d="m 15.68,38.13 c 0.17,2.52 -1.94,5.14 -4.69,4.73 C 8.72,42.53 7.35,40.58 7.5,38.07 a 4.37,4.37 0 0 1 4.4,-4.31 c 2.28,0.13 3.62,1.75 3.78,4.37 z"
               transform="translate(0,4.72)"
               id="path74602" />
            <path
               class="cls-5"
               d="m 23.11,47.15 c 1,-0.74 2.66,-2.48 3.83,-1.09 1.17,1.39 -0.7,2.78 -1.79,3.63 -1.09,0.85 -3.51,3 -5.32,3 -1.81,0 -4.33,-1.89 -6,-3.2 -1.37,-1.06 -2,-2.48 -1.33,-3.38 0.67,-0.9 1.88,-0.63 2.89,0.19 1.17,1 3.42,2.87 4.31,2.83 0.89,-0.04 2.07,-0.98 3.41,-1.98 z"
               transform="translate(0,4.72)"
               id="path74604" />
            <g
               class="cls-6"
               clip-path="url(#clip-path)"
               id="g74612">
              <g
                 id="g74610"
                 clip-path="url(#clipPath75108)">
                <path
                   class="cls-7"
                   d="m 64.25,43.3 c -5.5,0 -9.85,-1.77 -11.56,-3.41 a 3.79,3.79 0 0 1 -1,-3.29 l -0.26,0.28 a 4.69,4.69 0 0 1 -3.07,1.3 v 0 A 4,4 0 0 1 45.56,37 c -2.52,-2.42 -1.5,-6.13 -1.46,-6.29 a 21,21 0 0 0 0.44,-4 c 0.22,-4 0.53,-9.57 3.57,-12.74 A 16.2,16.2 0 0 1 53.18,10.1 5.8,5.8 0 0 0 56.31,6.8 16.37,16.37 0 0 1 60,1.58 c 3,-3.17 8.55,-3.71 12.58,-4.1 a 21.84,21.84 0 0 0 4,-0.59 7.55,7.55 0 0 1 2.29,-0.34 5.78,5.78 0 0 1 4.08,1.52 4.09,4.09 0 0 1 0.15,5.81 l -0.28,0.29 a 4.08,4.08 0 0 1 0.77,-0.07 3.65,3.65 0 0 1 2.54,1 C 87.94,6.86 89.88,11.53 90,17 A 25.12,25.12 0 0 1 82.68,35.22 25,25 0 0 1 64.25,43.3 Z M 59.34,24.76 a 24,24 0 0 1 -2.88,5.83 17.21,17.21 0 0 1 5.54,-2.17 15.39,15.39 0 0 0 8.56,-4.84 15.33,15.33 0 0 0 4.44,-8.76 17.71,17.71 0 0 1 2,-5.6 23.67,23.67 0 0 1 -5.71,3.13 18.46,18.46 0 0 1 -4,8 18.52,18.52 0 0 1 -7.95,4.41 z"
                   id="path74606"
                   transform="translate(0,4.72)" />
                <path
                   class="cls-8"
                   d="M 78.83,-2.18 A 4.53,4.53 0 0 1 82,-1 2.88,2.88 0 0 1 82.09,3 c -6.92,7.21 -12,8.32 -12,8.32 0,0 -0.91,5.07 -3.87,8.16 -2.96,3.09 -8,4.21 -8,4.21 0,0 -0.82,5.1 -7.75,12.31 a 3.44,3.44 0 0 1 -2.15,0.91 2.63,2.63 0 0 1 -1.88,-0.82 c -2,-1.92 -1.12,-5 -1.12,-5 1,-3 -0.25,-12.12 3.71,-16.24 3.96,-4.12 5,-3.13 7,-5.19 2,-2.06 0.95,-3.05 4.9,-7.17 C 64.88,-1.63 74,-0.84 77,-1.92 a 6.73,6.73 0 0 1 1.86,-0.26 m 4.72,7.55 A 2.34,2.34 0 0 1 85.21,6 c 3.09,3 7.42,17 -3.46,28.35 A 23.91,23.91 0 0 1 64.25,42 c -5.08,0 -9.19,-1.62 -10.68,-3.06 -1,-1 -1.07,-3 0.9,-5.07 5.94,-6.18 10.06,-2.23 17,-9.44 6.94,-7.21 2.8,-11.17 8.73,-17.35 A 4.86,4.86 0 0 1 83.57,5.34 M 78.83,-4.72 a 9.33,9.33 0 0 0 -2.66,0.39 v 0 a 21.51,21.51 0 0 1 -3.68,0.53 c -4.23,0.41 -10,1 -13.38,4.48 a 17.47,17.47 0 0 0 -3.9,5.57 4.62,4.62 0 0 1 -1,1.6 4.7,4.7 0 0 1 -1.55,1.06 17.67,17.67 0 0 0 -5.41,4.13 c -3.37,3.51 -3.69,9.31 -3.93,13.55 a 22.24,22.24 0 0 1 -0.37,3.7 v 0.05 c -0.48,1.7 -0.65,5.21 1.8,7.56 a 5.23,5.23 0 0 0 3.64,1.53 5.34,5.34 0 0 0 2.3,-0.53 4.72,4.72 0 0 0 1.19,1.88 c 1.95,1.87 6.55,3.76 12.44,3.76 A 26.28,26.28 0 0 0 83.65,36.09 26.38,26.38 0 0 0 91.26,17 C 91.13,10.88 89,6.06 87,4.17 a 4.77,4.77 0 0 0 -1.92,-1.12 5.09,5.09 0 0 0 -1.26,-5.89 7,7 0 0 0 -5,-1.88 z m -6.52,18 a 20.86,20.86 0 0 0 2,-0.92 c -0.2,0.75 -0.36,1.47 -0.51,2.17 a 14.17,14.17 0 0 1 -4.15,8.14 14.2,14.2 0 0 1 -8,4.49 c -0.69,0.18 -1.41,0.36 -2.14,0.6 a 20.88,20.88 0 0 0 0.83,-2 19.37,19.37 0 0 0 7.79,-4.51 19.39,19.39 0 0 0 4.18,-8 z"
                   id="path74608"
                   transform="translate(0,4.72)" />
              </g>
              <g
                 id="g8739"
                 transform="matrix(1.2417744,-0.29150067,0.29150067,1.2417744,-34.396902,-5.232554)"
                 inkscape:label="Hat">
                <path
                   fill="#dd2e44"
                   d="m 50.008438,43.57252 c 0.01096,-0.09019 -0.0233,-0.184885 -0.08113,-0.280885 0,0 -11.659764,-19.349415 -12.931632,-19.49999 -1.271976,-0.148614 -17.095745,15.975997 -17.095745,15.975997 -0.07949,0.08048 -0.134418,0.163293 -0.144433,0.25454 -0.149097,1.263066 6.503563,3.079506 14.856939,4.060565 8.355344,0.981168 15.246902,0.752838 15.396001,-0.510227 z"
                   id="path5268"
                   style="stroke-width:1.39378" />
                <path
                   fill="#ea596e"
                   d="m 36.910444,23.815538 c -0.0451,0.01226 -0.09976,0.0369 -0.16307,0.07485 -1.27625,1.439349 -11.565988,13.519252 -14.338925,17.790308 2.168665,0.745234 4.657846,1.24669 7.662388,1.763932 1.414869,-3.989147 7.721325,-18.904972 6.83961,-19.629086 z"
                   id="path5270"
                   style="stroke-width:1.39378" />
              </g>
              <g
                 id="g9662"
                 transform="matrix(0.96279383,-0.27005098,0.27005098,0.96279383,-18.678672,20.104783)"
                 inkscape:label="Confetti">
                <path
                   fill="#77b255"
                   d="m 75.628273,-14.482408 c 0.09167,4.8263642 -2.722455,7.4020308 -5.546587,7.4509785 -2.821857,0.049546 -5.730901,-2.4210625 -5.818605,-7.2439595 -0.03263,-1.882756 -0.733045,-2.628467 -1.01804,-2.627657 -0.29134,0.0065 -0.964218,0.781924 -0.930392,2.660125 0.08999,4.8234896 -2.726414,7.3985602 -5.550548,7.4475076 -2.825325,0.053499 -5.728618,-2.4204683 -5.815728,-7.2456426 -0.03551,-1.881074 -0.737601,-2.629659 -1.024387,-2.622017 -0.283908,0.006 -0.960744,0.777966 -0.927515,2.658444 0.0232,1.296117 -1.008861,2.374263 -2.307258,2.396865 -1.302354,0.01913 -2.373068,-1.01342 -2.397354,-2.314688 -0.0883,-4.820615 2.72186,-7.399754 5.551742,-7.452064 2.821856,-0.04954 5.725745,2.42215 5.817409,7.248518 0.03263,1.882755 0.733045,2.628466 1.01983,2.620822 0.285592,-0.0031 0.962427,-0.775091 0.928602,-2.653291 -0.08879,-4.828045 2.722456,-7.402031 5.55174,-7.452063 2.820176,-0.05242 5.724066,2.419273 5.815134,7.24792 0.03155,1.877603 0.738794,2.625104 1.01983,2.620822 0.289062,-0.0071 0.963024,-0.777369 0.932072,-2.657251 -0.02656,-1.301864 1.008267,-2.371982 2.307259,-2.396864 1.298393,-0.0226 2.373069,1.01342 2.392796,2.313495 z"
                   id="path9165"
                   style="stroke-width:2.35461" />
                <circle
                   fill="#5c913b"
                   cx="91.613846"
                   cy="47.430138"
                   r="3.5319221"
                   id="circle9167"
                   style="stroke-width:2.35461" />
                <circle
                   fill="#9266cc"
                   cx="66.867844"
                   cy="10.202686"
                   r="4.7092295"
                   id="circle9169"
                   style="stroke-width:2.35461" />
                <circle
                   fill="#9266cc"
                   cx="89.272926"
                   cy="60.183735"
                   r="4.7092295"
                   id="circle9171"
                   style="stroke-width:2.35461" />
                <circle
                   fill="#5c913b"
                   cx="11.448915"
                   cy="43.715626"
                   r="3.5319221"
                   id="circle9173"
                   style="stroke-width:2.35461" />
                <circle
                   fill="#5c913b"
                   cx="87.141647"
                   cy="-0.64558578"
                   r="3.5319221"
                   id="circle9175"
                   style="stroke-width:2.35461" />
                <circle
                   fill="#ffcc4d"
                   cx="93.915558"
                   cy="14.275743"
                   r="4.7092295"
                   id="circle9177"
                   style="stroke-width:2.35461" />
                <circle
                   fill="#ffcc4d"
                   cx="34.47023"
                   cy="68.953568"
                   r="3.5319221"
                   id="circle9179"
                   style="stroke-width:2.35461" />
                <circle
                   fill="#ffcc4d"
                   cx="28.946676"
                   cy="5.1571012"
                   r="3.5319221"
                   id="circle9181"
                   style="stroke-width:2.35461" />
                <path
                   fill="#77b255"
                   d="m 69.911116,88.252664 c -4.767344,0.75804 -7.707337,-1.672963 -8.146257,-4.463209 -0.439198,-2.787907 1.605507,-6.010581 6.369959,-6.764224 1.860166,-0.292614 2.501881,-1.089398 2.461677,-1.371543 -0.04667,-0.287652 -0.907721,-0.846855 -2.763208,-0.553689 -4.76473,0.75598 -7.704447,-1.677363 -8.143367,-4.467608 -0.443598,-2.790798 1.605231,-6.008244 6.372023,-6.761611 1.858102,-0.295227 2.502434,-1.094076 2.455214,-1.377051 -0.04516,-0.280358 -0.90332,-0.843963 -2.761145,-0.551074 -1.280467,0.202177 -2.490938,-0.670929 -2.692833,-1.953725 -0.199002,-1.287204 0.675604,-2.490387 1.961019,-2.694344 4.762113,-0.753915 7.704996,1.672691 8.148044,4.468164 0.439199,2.787903 -1.607294,6.005629 -6.374637,6.76367 -1.860165,0.292613 -2.501881,1.089398 -2.454662,1.372372 0.04254,0.282422 0.900707,0.846026 2.756194,0.552859 4.769406,-0.755429 7.707338,1.672964 8.148047,4.468162 0.441815,2.785848 -1.604684,6.003566 -6.374365,6.761333 -1.855211,0.290828 -2.497756,1.094627 -2.45466,1.372373 0.04695,0.285312 0.903044,0.846303 2.760594,0.555749 1.285691,-0.206292 2.488596,0.67065 2.692832,1.95373 0.201891,1.282799 -0.675609,2.490386 -1.960469,2.689666 z"
                   id="path9584"
                   style="stroke-width:2.35461" />
                <path
                   fill="#aa8dd8"
                   d="m 109.92875,3.3320184 c 0.46153,-0.385327 1.06997,-0.594387 1.71864,-0.538068 2.04519,0.183599 3.77925,0.862789 5.003,1.963531 1.29558,1.165354 1.95128,2.749946 1.80895,4.351631 -0.25191,2.8094766 -3.01763,5.4369436 -7.82744,5.0076696 -1.87058,-0.165629 -2.69053,0.450044 -2.71352,0.735425 -0.0277,0.285467 0.6715,1.037938 2.54214,1.205919 2.04518,0.183599 3.77925,0.862789 5.00299,1.963531 1.29558,1.165355 1.95599,2.74986 1.80895,4.351632 -0.25187,2.81183 -3.01763,5.436943 -7.82269,5.009937 -1.36343,-0.120831 -2.07629,0.172583 -2.37663,0.359465 -0.23974,0.152816 -0.33362,0.298187 -0.34156,0.378401 -0.023,0.283028 0.66676,1.035667 2.5421,1.203565 1.29507,0.117383 2.25349,1.260708 2.1361,2.555777 -0.11503,1.295025 -1.25604,2.251043 -2.55578,2.136103 -4.80505,-0.427007 -7.06612,-3.500935 -6.81429,-6.315122 0.25186,-2.811829 3.01762,-5.436943 7.82743,-5.007669 1.36348,0.123185 2.07158,-0.172496 2.37193,-0.359378 0.24212,-0.150518 0.33601,-0.295874 0.3416,-0.376047 0.0277,-0.285468 -0.66681,-1.038022 -2.54214,-1.205919 -4.8051,-0.429361 -7.06612,-3.500934 -6.8143,-6.315119 0.25187,-2.811832 3.01759,-5.4392976 7.82277,-5.0052286 1.36343,0.120831 2.07625,-0.174936 2.37659,-0.36182 0.23981,-0.150409 0.33366,-0.295832 0.3416,-0.376045 0.023,-0.285383 -0.6715,-1.037939 -2.54214,-1.205921 -1.29502,-0.115028 -2.25348,-1.260705 -2.1361,-2.555777 0.0633,-0.651155 0.38031,-1.212792 0.8418,-1.600473 z"
                   id="path9586"
                   style="stroke-width:2.35461" />
                <path
                   fill="#aa8dd8"
                   d="m 59.688164,35.991412 c 0.59654,0.07504 1.164249,0.377717 1.565206,0.890722 1.259767,1.621578 1.944838,3.353328 1.973612,4.999032 0.03047,1.742317 -0.681985,3.30221 -1.950931,4.289853 -2.22735,1.730765 -6.035062,1.498154 -8.999572,-2.313698 -1.153895,-1.481566 -2.163289,-1.661833 -2.387769,-1.48413 -0.227744,0.174326 -0.301707,1.198836 0.850501,2.682043 1.259767,1.621578 1.944838,3.353317 1.973611,4.999031 0.03047,1.742317 -0.678712,3.305601 -1.95093,4.289854 -2.229042,1.732397 -6.035063,1.498153 -8.997993,-2.308678 -0.840973,-1.079954 -1.541578,-1.401541 -1.883048,-1.49391 -0.275226,-0.07124 -0.445583,-0.04083 -0.509687,0.008 -0.222794,0.176069 -0.303282,1.193814 0.852193,2.680411 0.796901,1.027594 0.613653,2.508186 -0.413935,3.305087 -1.025953,0.798589 -2.503222,0.615401 -3.305088,-0.41394 -2.962927,-3.806832 -2.255051,-7.556545 -0.02431,-9.290574 2.229042,-1.732397 6.035062,-1.498154 8.999571,2.313699 0.83928,1.081596 1.538305,1.398152 1.879773,1.490523 0.275174,0.07454 0.445528,0.04417 0.50799,-0.0064 0.227755,-0.174323 0.304971,-1.195455 -0.850501,-2.682053 -2.961237,-3.808463 -2.255052,-7.556535 -0.02432,-9.290573 2.229045,-1.732398 6.036756,-1.499786 8.994607,2.311951 0.840973,1.079964 1.543271,1.39991 1.884739,1.49227 0.273515,0.07294 0.443891,0.04248 0.507989,-0.0064 0.224487,-0.177702 0.301709,-1.198836 -0.850498,-2.682044 -0.79859,-1.025962 -0.613651,-2.508197 0.41394,-3.305097 0.519608,-0.39752 1.146612,-0.548429 1.744842,-0.475035 z"
                   id="path12881"
                   style="stroke-width:2.35461" />
              </g>
            </g>
          </g>
        </g>
      </g>
    </g>
  </g>
</svg>
