<?xml version="1.0" encoding="UTF-8" standalone="no"?>
<svg
   width="39.832912mm"
   height="37.716381mm"
   viewBox="0 0 112.92137 106.91887"
   version="1.1"
   id="svg34"
   xmlns="http://www.w3.org/2000/svg"
   xmlns:svg="http://www.w3.org/2000/svg">
  <defs
     id="defs4">
    <style
       id="style2">
      .cls-1 {
        fill: #c01e2f;
      }

      .cls-2 {
        fill: #f9af41;
      }

      .cls-3 {
        fill: #c63b17;
      }

      .cls-4 {
        fill: #c01446;
      }

      .cls-5 {
        fill: #2b2c29;
      }

      .cls-6 {
        fill: #ee7444;
      }

      .cls-7 {
        fill: #f8aa37;
      }

      .cls-7, .cls-8 {
        stroke: #c01546;
        stroke-miterlimit: 10;
        stroke-width: 2.54px;
      }

      .cls-8 {
        fill: #fecc50;
      }
    </style>
  </defs>
  <g
     id="Layer_2"
     data-name="Layer 2"
     transform="translate(-0.39446384,7.9059302)">
    <g
       id="grid">
      <g
         id="ml_copy"
         data-name="ml copy">
        <g
           id="magic">
          <g
             id="g28">
            <path
               class="cls-1"
               d="M 103.61,43.61 107.88,41 c 0.86,-0.53 4,-2.67 5.22,-1 0.72,1 -0.46,4 -2.43,7.09 -1.79,2.85 -6,8.73 -6.18,9.87 -0.18,1.14 1.21,5.6 1.65,7.33 0.44,1.73 1.79,5.89 1.35,7.54 -0.44,1.65 -2.8,6.2 -9.3,6.38 -5.17,0.14 -6.73,-1.31 -6.93,-2.23 -0.15,-0.66 -0.62,-2.85 -0.62,-2.85 0,0 -4.14,2.81 -6.1,3.87 -1.96,1.06 -7.22,4 -7.22,4 0,0 1.23,4.71 1.47,6.62 0.24,1.91 0.95,4.63 0,6.5 -0.79,1.76 -3.58,4.66 -10.3,4.88 -5.26,0.18 -6.65,-1.4 -7.52,-2.36 -0.87,-0.96 -1.23,-5.71 -1.27,-6.7 -0.04,-0.99 -0.35,-4.5 -0.35,-4.5 0,0 -7.13,-0.07 -11.44,-0.2 -3.9,-0.13 -9,-0.52 -9,-0.52 0,0 0.27,2.06 0.52,3.54 0.22,1.33 0.37,4.11 -1,5.52 -1.8,1.91 -6.63,2.23 -9.3,2.08 -2.67,-0.15 -6.44,-1.37 -7.62,-3.74 -1.18,-2.37 0.12,-5.59 0.62,-7.44 0.45,-1.63 1.26,-4 0.9,-4.62 C 22.67,79.44 19.38,78.7 14.54,74.22 9.7,69.74 2.92,53.78 16.14,42 c 13.22,-11.78 38.91,-0.58 40.28,0.2 1.37,0.78 47.19,1.41 47.19,1.41 z"
               id="path6" />
            <path
               class="cls-2"
               d="m 61.19,15.16 c -12.34,1 -21.36,7.53 -25.7,14.41 a 56.4,56.4 0 0 0 -3.85,7 20.62,20.62 0 0 1 8.21,1.86 c 4.53,2.22 9.78,4.57 13.6,15.57 2.89,8.32 4.19,16.3 10.88,17.8 7.58,1.69 25,0 33.07,-8.46 8.07,-8.46 9.42,-14.64 7,-22.54 -2.42,-7.9 -12.58,-21.76 -26,-25 -5.85,-1.35 -11.6,-1.12 -17.21,-0.64 z"
               id="path8" />
            <ellipse
               class="cls-3"
               cx="29.42"
               cy="46.580002"
               rx="29.42"
               ry="6.9200001"
               id="ellipse10"
               style="display:none" />
            <path
               class="cls-1"
               d="m 110.67,47.11 c 2,-3.12 3.15,-6.08 2.43,-7.09 -1.23,-1.71 -4.36,0.43 -5.22,1 l -3,1.83 c 1.61,7 -0.16,12.83 -7.51,20.56 -8,8.46 -25.49,10.15 -33.07,8.46 -6.69,-1.5 -8,-9.48 -10.88,-17.8 -3.82,-11 -9.07,-13.38 -13.6,-15.57 a 20.62,20.62 0 0 0 -8.21,-1.86 v 0 C 26,36.71 20.44,38.12 16.14,42 2.92,53.78 9.67,69.74 14.52,74.22 c 4.85,4.48 8.13,5.18 8.48,5.84 0.35,0.66 -0.45,3 -0.9,4.62 -0.5,1.85 -1.8,5.07 -0.62,7.44 1.18,2.37 5,3.6 7.62,3.74 2.62,0.14 7.5,-0.17 9.3,-2.08 1.34,-1.41 1.19,-4.19 1,-5.52 -0.25,-1.48 -0.52,-3.54 -0.52,-3.54 0,0 5.15,0.39 9,0.52 4.31,0.13 11.44,0.2 11.44,0.2 0,0 0.31,3.5 0.35,4.5 0.04,1 0.4,5.73 1.27,6.7 0.87,0.97 2.26,2.54 7.52,2.36 6.72,-0.22 9.47,-3.12 10.31,-4.83 0.94,-1.87 0.24,-4.59 0,-6.5 -0.24,-1.91 -1.47,-6.62 -1.47,-6.62 0,0 5.27,-3 7.22,-4 1.95,-1 6.1,-3.87 6.1,-3.87 0,0 0.47,2.19 0.62,2.85 0.2,0.92 1.76,2.37 6.93,2.23 6.5,-0.18 8.85,-4.74 9.3,-6.38 0.45,-1.64 -0.9,-5.8 -1.35,-7.54 -0.45,-1.74 -1.85,-6.2 -1.65,-7.33 0.2,-1.13 4.41,-7.01 6.2,-9.9 z"
               id="path12" />
            <path
               class="cls-4"
               d="m 102.65,36.64 a 24.3,24.3 0 0 0 -1.25,-2.17 c 0,0 0,1.82 -0.11,2.78 -0.18,1.57 -0.91,4.86 -1.43,4.4 a 107.71,107.71 0 0 1 -7.44,-8.8 c -1.61,-2.17 -7.07,-7.81 -7.27,-9.71 a 19.37,19.37 0 0 1 1,-4.17 L 84,17.86 c -0.8,-0.4 -2,-0.84 -2,-0.84 0,0 -0.51,4.38 -1.24,5.23 -0.73,0.85 -4.62,2.49 -7.73,3.81 -3.74,1.59 -7.36,3.61 -8.73,3.91 -1.19,0.27 -8.11,-0.93 -10.71,-1.32 -3.27,-0.49 -8.23,-1.68 -9.39,-2.44 A 13.57,13.57 0 0 1 41.38,23 c 0,0 -0.77,0.57 -1.54,1.23 a 15.92,15.92 0 0 0 -1.72,1.9 c 0,0 2.14,2 2.28,2.73 0.2,1.06 -1,2.56 -2,4 -0.6,0.85 -2.26,4.4 -2.26,4.4 a 6.4,6.4 0 0 1 1.93,0.48 c 1.11,0.46 2.15,0.94 2.15,0.94 0,0 2.39,-6.22 4.08,-6.85 1.44,-0.54 5.62,0.65 8.65,1.15 4.28,0.71 8.62,1.32 9.57,2.44 0.95,1.12 2.06,5.85 3.08,9.82 1.12,4.34 4,15.62 3.48,16.51 -0.52,0.89 -5,0.76 -7.61,0.56 a 33.69,33.69 0 0 1 -5.75,-1.34 c 0,0 0.59,1.85 0.78,2.34 0.28,0.71 1.14,2.68 1.14,2.68 0,0 5.12,2 19.92,0 14.8,-2 21.75,-12.38 23.66,-17 2.54,-6.12 2.77,-9.34 2.77,-9.34 0,0 -0.94,-2.15 -1.34,-3.01 z m -12.78,20 c -3.67,2.48 -13.29,5.36 -15.09,4.5 -1.43,-0.69 -4,-12.22 -5.2,-17.37 -0.77,-3.29 -2.51,-8.27 -1.65,-9.87 0.58,-1.09 4.14,-2.83 6.77,-4.19 2.63,-1.36 6.08,-3 7.15,-2.94 1.51,0.12 5,5.24 8.39,9.61 3.39,4.37 7.17,8.91 7.3,10.53 0.13,1.62 -3.89,7.09 -7.67,9.69 z"
               id="path14" />
            <path
               class="cls-5"
               d="m 40.39,52.05 c 0.54,2.49 -0.64,5.14 -3.4,5.49 -2.26,0.28 -4.13,-1.23 -4.67,-3.73 a 4.41,4.41 0 0 1 3,-5.4 4.39,4.39 0 0 1 5.07,3.64 z"
               id="path16" />
            <path
               class="cls-5"
               d="m 24.11,52.93 c 0.16,2.51 -1.95,5.13 -4.7,4.72 -2.26,-0.33 -3.64,-2.28 -3.49,-4.79 a 4.39,4.39 0 0 1 4.41,-4.31 c 2.28,0.13 3.61,1.75 3.78,4.38 z"
               id="path18" />
            <path
               class="cls-5"
               d="m 31.53,61.94 c 1,-0.74 2.66,-2.48 3.84,-1.09 1.18,1.39 -0.71,2.78 -1.8,3.63 -1.09,0.85 -3.5,3 -5.31,3 -1.81,0 -4.34,-1.89 -6,-3.2 -1.37,-1.06 -2,-2.48 -1.33,-3.38 0.67,-0.9 1.88,-0.63 2.89,0.19 1.16,1 3.42,2.87 4.3,2.83 0.88,-0.04 2.08,-0.98 3.41,-1.98 z"
               id="path20" />
            <path
               class="cls-6"
               d="M 44.66,39 C 42.25,33.72 31,9.26 29.42,9.26 27.84,9.26 16.6,33.72 14.19,39 4.74,40.65 0,43.77 0,46.53 a 90.92,90.92 0 0 1 29.42,-4.79 90.94,90.94 0 0 1 29.43,4.79 c 0,-2.76 -4.74,-5.88 -14.19,-7.53 z"
               id="path22"
               style="display:none" />
            <path
               fill="#aa8dd8"
               d="m 68.697769,-1.5533193 c -0.190796,-0.5701338 -0.16394,-1.2128998 0.12471,-1.796499 0.915704,-1.8378276 2.179657,-3.2054411 3.650378,-3.9442961 1.557056,-0.7822345 3.271546,-0.8158898 4.711365,-0.1001107 2.524729,1.2576256 3.964604,4.7900748 1.813421,9.1131288 -0.835389,1.6817631 -0.560582,2.6695673 -0.303179,2.7948947 0.255772,0.1297357 1.211145,-0.2474262 2.048743,-1.9283797 0.915702,-1.83782626 2.179653,-3.20543849 3.650378,-3.9442945 1.557051,-0.7822314 3.273171,-0.820299 4.711362,-0.1001076 2.526933,1.25844271 3.964602,4.7900733 1.817259,9.1095295 -0.608989,1.2257574 -0.595317,1.9964867 -0.530636,2.3442512 0.05503,0.2789057 0.156227,0.4192677 0.228036,0.4558737 0.255198,0.124512 1.2073,-0.243832 2.046534,-1.9291946 0.580893,-1.1633536 1.99466,-1.6396026 3.158009,-1.0587084 1.164171,0.5786876 1.63901,1.9894414 1.058707,3.158017 -2.147335,4.319449 -5.833401,5.305862 -8.362552,4.046606 C 85.993363,13.408954 84.5557,9.8773169 86.706883,5.5542643 87.318086,4.3293184 87.300561,3.5621952 87.235884,3.2144322 87.183871,2.934137 87.08269,2.7937687 87.010062,2.7593704 86.754295,2.629622 85.800547,3.0023885 84.961323,4.6877453 82.81177,9.0063847 79.12791,9.9936167 76.59876,8.734361 74.071818,7.4759233 72.631949,3.9434712 74.785913,-0.37353199 75.39491,-1.599295 75.379019,-2.3708401 75.314342,-2.7185997 c -0.05275,-0.2781014 -0.154012,-0.4184565 -0.225823,-0.4550597 -0.257405,-0.125329 -1.211147,0.2474273 -2.048744,1.9283774 -0.578685,1.16417231 -1.994658,1.63960201 -3.158011,1.05870891 -0.583358,-0.2960913 -0.990991,-0.7957951 -1.183999,-1.36674221 z"
               id="path9586"
               style="stroke-width:2.3545" />
            <path
               class="cls-7"
               d="M 105.76,27.67 90,21.83 84.09,2.52 a 1.77,1.77 0 0 0 -3.39,0 L 74.81,21.83 59,27.67 A 1.77,1.77 0 0 0 59,31 l 15.8,5.84 5.89,19.89 a 1.78,1.78 0 0 0 3.41,0 L 90,36.84 105.76,31 a 1.77,1.77 0 0 0 0,-3.33 z"
               id="path24" />
            <path
               class="cls-8"
               d="m 70.3,47.18 -4.1,-1.52 -1.6,-5.85 a 1.77,1.77 0 0 0 -3.42,0 l -1.59,5.85 -4.1,1.51 a 1.77,1.77 0 0 0 0,3.33 l 4.07,1.5 1.61,6.42 a 1.77,1.77 0 0 0 3.44,0 L 66.22,52 70.3,50.5 a 1.77,1.77 0 0 0 0,-3.32 z M 62.61,8.77 58.42,7.22 56.86,3 A 1.77,1.77 0 0 0 53.54,3 L 52,7.22 47.8,8.77 a 1.78,1.78 0 0 0 0,3.33 l 4.2,1.55 1.55,4.19 a 1.77,1.77 0 0 0 3.32,0 l 1.56,-4.19 4.19,-1.55 a 1.77,1.77 0 0 0 0,-3.33 z"
               id="path26" />
          </g>
        </g>
      </g>
    </g>
  </g>
  <g
     id="g8739"
     transform="matrix(1.2252769,-0.37912853,0.41861358,1.8359957,-31.413226,-9.7740428)">
    <path
       fill="#dd2e44"
       d="m 50.008438,43.57252 c 0.01096,-0.09019 -0.0233,-0.184885 -0.08113,-0.280885 0,0 -11.659764,-19.349415 -12.931632,-19.49999 -1.271976,-0.148614 -17.095745,15.975997 -17.095745,15.975997 -0.07949,0.08048 -0.134418,0.163293 -0.144433,0.25454 -0.149097,1.263066 6.503563,3.079506 14.856939,4.060565 8.355344,0.981168 15.246902,0.752838 15.396001,-0.510227 z"
       id="path5268"
       style="stroke-width:1.39378" />
    <path
       fill="#ea596e"
       d="m 36.910444,23.815538 c -0.0451,0.01226 -0.09976,0.0369 -0.16307,0.07485 -1.27625,1.439349 -11.565988,13.519252 -14.338925,17.790308 2.168665,0.745234 4.657846,1.24669 7.662388,1.763932 1.414869,-3.989147 7.721325,-18.904972 6.83961,-19.629086 z"
       id="path5270"
       style="stroke-width:1.39378" />
  </g>
  <g
     id="g9662"
     transform="matrix(-0.82932488,-0.5586846,0.5586846,-0.82932488,69.64318,117.06302)">
    <path
       fill="#77b255"
       d="m 59.187206,7.9786742 c -1.545588,4.5731118 -5.064841,6.0455948 -7.739197,5.1367838 -2.672417,-0.907478 -4.57479,-4.2161673 -3.026644,-8.7846764 0.605873,-1.7829054 0.198846,-2.7215168 -0.06964,-2.8171145 -0.276365,-0.092431 -1.17181,0.4098583 -1.77502,2.18888 -1.546199,4.5698384 -5.067394,6.0409901 -7.74175,5.1321783 -2.677019,-0.9049309 -4.572843,-4.2148366 -3.023369,-8.78528763 0.602598,-1.78229547 0.194962,-2.72417927 -0.07752,-2.81395257 -0.269203,-0.090386 -1.167202,0.4073075 -1.771745,2.18827088 -0.416404,1.22762536 -1.752213,1.89332292 -2.981784,1.47558827 -1.232122,-0.422335 -1.890657,-1.75609953 -1.473538,-2.98894115 1.546811,-4.5665647 5.063511,-6.0436534 7.744416,-5.1360629 2.672416,0.9074799 4.56957,4.2154478 3.023977,8.7885616 -0.605873,1.7829047 -0.198846,2.7215161 0.07363,2.8112886 0.269834,0.093607 1.167814,-0.4040338 1.771024,-2.1830548 1.548863,-4.5737207 5.064842,-6.0455941 7.744414,-5.1360621 2.671807,0.9042032 4.568962,4.2121724 3.022038,8.7872306 -0.605155,1.7776881 -0.192299,2.7202949 0.07363,2.8112872 0.274423,0.091098 1.169146,-0.4059753 1.775629,-2.1856076 0.415179,-1.2341728 1.750884,-1.8913772 2.981786,-1.4755878 1.229566,0.4177354 1.890657,1.7561002 1.469651,2.9862782 z"
       id="path9165"
       style="stroke-width:2.35461" />
    <circle
       fill="#5c913b"
       cx="23.261246"
       cy="77.097977"
       r="3.5319221"
       id="circle9167"
       style="stroke-width:2.35461" />
    <circle
       fill="#9266cc"
       cx="55.673737"
       cy="41.337444"
       r="4.7092295"
       id="circle9169"
       style="stroke-width:2.35461" />
    <circle
       fill="#9266cc"
       cx="91.99218"
       cy="71.155998"
       r="4.7092295"
       id="circle9171"
       style="stroke-width:2.35461" />
    <circle
       fill="#5c913b"
       cx="-7.9985509"
       cy="53.257481"
       r="3.5319221"
       id="circle9173"
       style="stroke-width:2.35461" />
    <circle
       fill="#5c913b"
       cx="68.485626"
       cy="61.353928"
       r="3.5319221"
       id="circle9175"
       style="stroke-width:2.35461" />
    <circle
       fill="#ffcc4d"
       cx="70.073715"
       cy="-8.2938442"
       r="4.7092295"
       id="circle9177"
       style="stroke-width:2.35461" />
    <circle
       fill="#ffcc4d"
       cx="79.134468"
       cy="43.094509"
       r="3.5319221"
       id="circle9179"
       style="stroke-width:2.35461" />
    <circle
       fill="#ffcc4d"
       cx="-8.0045004"
       cy="30.824987"
       r="3.5319221"
       id="circle9181"
       style="stroke-width:2.35461" />
    <path
       fill="#77b255"
       d="m 104.00568,55.582559 c -4.597478,1.471532 -7.871829,-0.486015 -8.728391,-3.177557 -0.856495,-2.689195 0.676392,-6.184434 5.271671,-7.651181 1.79437,-0.571043 2.30796,-1.455851 2.22548,-1.72865 -0.0897,-0.277259 -1.02554,-0.699563 -2.815197,-0.12868 -4.595202,1.469098 -7.869633,-0.490801 -8.726201,-3.182346 -0.861276,-2.691382 0.676472,-6.182082 5.274112,-7.648908 1.791929,-0.573316 2.3078,-1.460559 2.218256,-1.733115 -0.08711,-0.270281 -1.020752,-0.69737 -2.812761,-0.126407 -1.235058,0.39383 -2.563832,-0.285816 -2.957736,-1.523219 -0.391712,-1.242199 0.290521,-2.563995 1.5302,-2.960334 4.592932,-1.466659 7.869467,0.486101 8.730907,3.182188 0.85649,2.689187 -0.6789,6.179811 -5.27638,7.65134 -1.794365,0.571045 -2.307963,1.455851 -2.218419,1.728405 0.08484,0.272717 1.01848,0.699807 2.808137,0.128924 4.599902,-1.469263 7.871832,0.486015 8.730912,3.182186 0.85876,2.686757 -0.67664,6.177374 -5.27647,7.648986 -1.78973,0.568533 -2.303095,1.460393 -2.218412,1.728409 0.08962,0.274903 1.020822,0.699722 2.812922,0.131111 1.2396,-0.398689 2.56147,0.285894 2.95773,1.523224 0.3939,1.237406 -0.29052,2.563992 -1.53036,2.955624 z"
       id="path9584"
       style="stroke-width:2.35461" />
    <path
       fill="#aa8dd8"
       d="m 8.3550693,22.327961 c 0.446688,-0.40244 1.046823,-0.634272 1.6971547,-0.60243 2.050655,0.106425 3.80907,0.719808 5.073411,1.773668 1.338566,1.115722 2.053494,2.674488 1.971597,4.280397 -0.145895,2.816973 -2.810671,5.546763 -7.6332347,5.298985 -1.875497,-0.09504 -2.671672,0.551081 -2.683896,0.837125 -0.01692,0.286308 0.710129,1.011905 2.585764,1.109298 2.0506537,0.106424 3.8090697,0.719807 5.0734097,1.773668 1.338567,1.115721 2.058196,2.674224 1.971598,4.280398 -0.145763,2.819322 -2.810671,5.546762 -7.6284007,5.301071 -1.367015,-0.06938 -2.068316,0.250677 -2.361411,0.448741 -0.233804,0.161738 -0.322142,0.310542 -0.327055,0.390998 -0.01236,0.283696 0.705301,1.009815 2.585631,1.106948 1.298575,0.06851 2.2993787,1.174921 2.2308637,2.473492 -0.06616,1.29844 -1.1703487,2.296763 -2.4734927,2.230867 -4.81773,-0.245692 -7.192991,-3.232261 -7.047359,-6.053937 0.145762,-2.819322 2.810671,-5.546761 7.633233,-5.298983 1.3671487,0.07173 2.0636157,-0.250413 2.3567077,-0.448477 0.236279,-0.159532 0.324628,-0.308322 0.327189,-0.388648 0.01693,-0.286309 -0.705432,-1.012166 -2.5857627,-1.109298 -4.817862,-0.248042 -7.19299,-3.232259 -7.047359,-6.053934 0.145763,-2.819324 2.810539,-5.549113 7.628665,-5.296369 1.3670147,0.06938 2.0681847,-0.253027 2.3612757,-0.451093 0.233972,-0.159336 0.322277,-0.30819 0.327189,-0.388646 0.01223,-0.286046 -0.710129,-1.011905 -2.5857617,-1.109299 -1.298443,-0.06616 -2.299378,-1.174919 -2.230864,-2.473494 0.03876,-0.653078 0.334351,-1.226257 0.780908,-1.631048 z"
       id="path12881"
       style="stroke-width:2.35461" />
  </g>
</svg>
