<svg xmlns="http://www.w3.org/2000/svg" xmlns:xlink="http://www.w3.org/1999/xlink" width="37mm" height="45.65mm" viewBox="0 0 104.89 129.41">
  <defs>
    <style>
      .cls-1 {
        fill: none;
      }

      .cls-2 {
        fill: #bdcf49;
      }

      .cls-3 {
        fill: #323232;
      }

      .cls-4 {
        fill: #fbee6e;
      }

      .cls-5 {
        fill: #d23216;
      }

      .cls-6 {
        fill: #2b2c29;
      }

      .cls-7 {
        clip-path: url(#clip-path);
      }

      .cls-8 {
        fill: #f39110;
      }

      .cls-9 {
        fill: #66757f;
      }

      .cls-10 {
        fill: #8899a6;
      }
    </style>
    <clipPath id="clip-path" transform="translate(-3.09 -29.46)">
      <path class="cls-1" d="M63,0,0,48,39.55,83.34l2.94-.42c.53,2.58,7.37,3.73,15.42,2.58S72.2,81.31,72,78.69l2.89-.42,29.89-10.45,10.34-37.4Z"/>
    </clipPath>
  </defs>
  <g id="Layer_2" data-name="Layer 2">
    <g id="grid">
      <g id="mh_copy" data-name="mh copy">
        <g id="mechs">
          <g>
            <path class="cls-2" d="M98.28,103.46l4.28-2.64c.85-.53,4-2.66,5.21-.95.72,1-.46,4-2.43,7.08-1.79,2.85-6,8.74-6.18,9.87s1.21,5.61,1.65,7.34,1.79,5.89,1.35,7.53-2.8,6.2-9.3,6.38c-5.17.15-6.73-1.31-6.93-2.22-.15-.66-.62-2.86-.62-2.86s-4.14,2.8-6.1,3.87-7.22,4-7.22,4,1.23,4.71,1.47,6.62,1,4.62,0,6.5c-.85,1.7-3.6,4.6-10.32,4.83-5.26.17-6.65-1.41-7.52-2.37s-1.23-5.7-1.27-6.7-.35-4.49-.35-4.49-7.13-.07-11.44-.21c-3.89-.13-9-.52-9-.52s.27,2.06.52,3.55c.22,1.32.37,4.11-1,5.52-1.8,1.9-6.63,2.23-9.3,2.08s-6.44-1.37-7.62-3.74.12-5.6.62-7.45c.45-1.62,1.26-4,.9-4.62s-3.65-1.35-8.49-5.83-11.6-20.44,1.62-32.27,38.91-.58,40.28.2S98.28,103.46,98.28,103.46Z" transform="translate(-3.09 -29.46)"/>
            <path class="cls-3" d="M55.86,75c-12.34,1-21.36,7.54-25.7,14.41a56.86,56.86,0,0,0-3.85,7,20.71,20.71,0,0,1,8.21,1.85c4.53,2.2,9.78,4.55,13.6,15.57,2.89,8.33,4.19,16.3,10.88,17.8,7.58,1.7,25,0,33.07-8.45s9.42-14.64,7-22.55-12.58-21.76-26-25C67.22,74.3,61.47,74.53,55.86,75Z" transform="translate(-3.09 -29.46)"/>
            <path class="cls-4" d="M97.32,96.48c-.41-.86-1.25-2.17-1.25-2.17s0,1.82-.11,2.79c-.18,1.57-.91,4.85-1.43,4.39a105.52,105.52,0,0,1-7.44-8.79C85.48,90.52,80,84.89,79.82,83a19.52,19.52,0,0,1,1-4.17l-2.13-1.1c-.8-.41-2-.84-2-.84s-.51,4.37-1.23,5.22-4.63,2.5-7.73,3.81C64,87.49,60.37,89.51,59,89.82c-1.2.27-8.12-.93-10.72-1.33C45,88,40.06,86.81,38.9,86.05a13.6,13.6,0,0,1-2.85-3.24s-.77.57-1.54,1.22a16.79,16.79,0,0,0-1.72,1.9s2.14,2,2.28,2.74c.2,1.06-1,2.55-2,4-.61.85-2.27,4.4-2.27,4.4a6.8,6.8,0,0,1,1.93.48c1.11.47,2.15,1,2.15,1s2.39-6.23,4.08-6.86c1.45-.53,5.63.66,8.65,1.16,4.28.71,8.62,1.32,9.57,2.43s2.06,5.86,3.09,9.82c1.11,4.35,4,15.63,3.47,16.52s-5,.76-7.61.55a34,34,0,0,1-5.75-1.33s.59,1.85.78,2.34c.28.71,1.14,2.67,1.14,2.67s5.12,2,19.92,0a29.77,29.77,0,0,0,23.66-17c2.54-6.13,2.77-9.35,2.77-9.35S97.72,97.35,97.32,96.48Zm-12.78,20C80.87,119,71.25,121.86,69.45,121c-1.43-.7-4-12.23-5.2-17.37-.77-3.29-2.51-8.27-1.65-9.88.58-1.09,4.15-2.82,6.77-4.18s6.08-3,7.15-2.94c1.51.11,5,5.24,8.39,9.61s7.17,8.91,7.3,10.53S88.32,113.86,84.54,116.45Z" transform="translate(-3.09 -29.46)"/>
            <path class="cls-5" d="M102.56,100.82l-3,1.84c1.61,7-.16,12.83-7.51,20.56-8,8.45-25.49,10.15-33.07,8.45-6.69-1.5-8-9.47-10.88-17.8-3.82-11-9.07-13.37-13.6-15.57a20.71,20.71,0,0,0-8.21-1.85v0c-5.63.14-11.21,1.55-15.51,5.38-13.22,11.83-6.47,27.79-1.62,32.27s8.13,5.18,8.49,5.83-.45,3-.9,4.62c-.5,1.85-1.8,5.08-.62,7.45s4.95,3.6,7.62,3.74,7.5-.18,9.3-2.08c1.34-1.41,1.19-4.2,1-5.52-.25-1.49-.52-3.55-.52-3.55s5.16.39,9,.52c4.31.14,11.44.21,11.44.21s.31,3.5.35,4.49.4,5.74,1.27,6.7,2.26,2.54,7.52,2.37c6.72-.23,9.47-3.13,10.32-4.83.93-1.88.23-4.6,0-6.5S72,140.9,72,140.9s5.27-3,7.22-4,6.1-3.87,6.1-3.87.47,2.2.62,2.86c.2.91,1.76,2.37,6.93,2.22,6.5-.18,8.86-4.73,9.3-6.38s-.9-5.8-1.35-7.53S99,118,99.16,116.82s4.39-7,6.18-9.87c2-3.12,3.15-6.08,2.43-7.08C106.54,98.16,103.41,100.29,102.56,100.82Z" transform="translate(-3.09 -29.46)"/>
            <path class="cls-6" d="M35.06,111.9c.54,2.49-.64,5.13-3.4,5.48-2.26.29-4.13-1.23-4.67-3.72a4.41,4.41,0,0,1,3.05-5.4A4.39,4.39,0,0,1,35.06,111.9Z" transform="translate(-3.09 -29.46)"/>
            <path class="cls-6" d="M18.78,112.77c.16,2.52-2,5.14-4.7,4.73-2.26-.34-3.64-2.28-3.49-4.79A4.39,4.39,0,0,1,15,108.4C17.28,108.53,18.61,110.15,18.78,112.77Z" transform="translate(-3.09 -29.46)"/>
            <path class="cls-6" d="M26.21,121.79c1-.74,2.65-2.48,3.83-1.1s-.71,2.79-1.8,3.64-3.5,3-5.31,3-4.34-1.89-6-3.2c-1.37-1.07-2-2.49-1.33-3.39s1.88-.62,2.89.2,3.42,2.86,4.3,2.83S24.87,122.78,26.21,121.79Z" transform="translate(-3.09 -29.46)"/>
            <g class="cls-7">
              <g>
                <path class="cls-8" d="M30.31,104.86a6.31,6.31,0,0,0,1.83,8.69,6.3,6.3,0,0,0,8.57-2.33l37-60.46A6.1,6.1,0,1,0,67.29,44.4Z" transform="translate(-3.09 -29.46)"/>
                <path class="cls-9" d="M93.39,68.86s3.26-14.07-9.74-22L65.46,35.71a3,3,0,0,0-1-4.18l-2.59-1.59a3,3,0,0,0-4.19,1L51.31,41.34a3,3,0,0,0,1,4.19l2.6,1.59a3,3,0,0,0,4.19-1l.12-.2c1.94,1.23,4.11,3.27,3.48,6l10.4,6.35s5.78-3.61,11-.43,5.7,5.28,6.71,9.46S93.39,68.86,93.39,68.86Z" transform="translate(-3.09 -29.46)"/>
              </g>
              <path class="cls-10" d="M36.89,46.54l5.46,6s1.74,3.91-2.25,7.55-7.73,1.57-7.73,1.57l-5.46-6c-1.83-2-3.68.22-3.76,1.94a15.33,15.33,0,0,0,14.62,16,14.76,14.76,0,0,0,3.47-.25L53.6,86.88l24.45,26.47a8,8,0,0,0,11.82-10.8L65.57,76,53.22,62.42A16.16,16.16,0,0,0,53.78,59,15.32,15.32,0,0,0,39.16,43C37.43,42.89,35.06,44.54,36.89,46.54Zm50.58,61.89a3.1,3.1,0,1,1-3-3.23A3.11,3.11,0,0,1,87.47,108.43Z" transform="translate(-3.09 -29.46)"/>
            </g>
          </g>
        </g>
      </g>
    </g>
  </g>
</svg>
