<?xml version="1.0" encoding="UTF-8" standalone="no"?>
<svg
   width="37mm"
   height="45.65mm"
   viewBox="0 0 104.89 129.41"
   version="1.1"
   id="svg90529"
   xmlns="http://www.w3.org/2000/svg"
   xmlns:svg="http://www.w3.org/2000/svg">
  <defs
     id="defs90497">
    <style
       id="style90492">
      .cls-1 {
        fill: none;
      }

      .cls-2 {
        fill: #bdcf49;
      }

      .cls-3 {
        fill: #323232;
      }

      .cls-4 {
        fill: #fbee6e;
      }

      .cls-5 {
        fill: #d23216;
      }

      .cls-6 {
        fill: #2b2c29;
      }

      .cls-7 {
        clip-path: url(#clip-path);
      }

      .cls-8 {
        fill: #f39110;
      }

      .cls-9 {
        fill: #66757f;
      }

      .cls-10 {
        fill: #8899a6;
      }
    </style>
    <clipPath
       id="clip-path"
       transform="translate(-3.09 -29.46)">
      <path
         class="cls-1"
         d="m 60.365509,-30.002321 -63,48 39.55,35.34 2.94,-0.42 c 0.53,2.58 7.37,3.73 15.42,2.58 8.05,-1.15 14.29,-4.19 14.09,-6.81 l 2.89,-0.42 29.890001,-10.45 10.34,-37.40000003 z"
         id="path90494" />
    </clipPath>
  </defs>
  <g
     id="Layer_2"
     data-name="Layer 2">
    <g
       id="grid">
      <g
         id="mh_copy"
         data-name="mh copy">
        <g
           id="mechs">
          <g
             id="g90523">
            <path
               class="cls-2"
               d="M98.28,103.46l4.28-2.64c.85-.53,4-2.66,5.21-.95.72,1-.46,4-2.43,7.08-1.79,2.85-6,8.74-6.18,9.87s1.21,5.61,1.65,7.34,1.79,5.89,1.35,7.53-2.8,6.2-9.3,6.38c-5.17.15-6.73-1.31-6.93-2.22-.15-.66-.62-2.86-.62-2.86s-4.14,2.8-6.1,3.87-7.22,4-7.22,4,1.23,4.71,1.47,6.62,1,4.62,0,6.5c-.85,1.7-3.6,4.6-10.32,4.83-5.26.17-6.65-1.41-7.52-2.37s-1.23-5.7-1.27-6.7-.35-4.49-.35-4.49-7.13-.07-11.44-.21c-3.89-.13-9-.52-9-.52s.27,2.06.52,3.55c.22,1.32.37,4.11-1,5.52-1.8,1.9-6.63,2.23-9.3,2.08s-6.44-1.37-7.62-3.74.12-5.6.62-7.45c.45-1.62,1.26-4,.9-4.62s-3.65-1.35-8.49-5.83-11.6-20.44,1.62-32.27,38.91-.58,40.28.2S98.28,103.46,98.28,103.46Z"
               transform="translate(-3.09 -29.46)"
               id="path90499" />
            <path
               class="cls-3"
               d="M55.86,75c-12.34,1-21.36,7.54-25.7,14.41a56.86,56.86,0,0,0-3.85,7,20.71,20.71,0,0,1,8.21,1.85c4.53,2.2,9.78,4.55,13.6,15.57,2.89,8.33,4.19,16.3,10.88,17.8,7.58,1.7,25,0,33.07-8.45s9.42-14.64,7-22.55-12.58-21.76-26-25C67.22,74.3,61.47,74.53,55.86,75Z"
               transform="translate(-3.09 -29.46)"
               id="path90501" />
            <path
               class="cls-4"
               d="M97.32,96.48c-.41-.86-1.25-2.17-1.25-2.17s0,1.82-.11,2.79c-.18,1.57-.91,4.85-1.43,4.39a105.52,105.52,0,0,1-7.44-8.79C85.48,90.52,80,84.89,79.82,83a19.52,19.52,0,0,1,1-4.17l-2.13-1.1c-.8-.41-2-.84-2-.84s-.51,4.37-1.23,5.22-4.63,2.5-7.73,3.81C64,87.49,60.37,89.51,59,89.82c-1.2.27-8.12-.93-10.72-1.33C45,88,40.06,86.81,38.9,86.05a13.6,13.6,0,0,1-2.85-3.24s-.77.57-1.54,1.22a16.79,16.79,0,0,0-1.72,1.9s2.14,2,2.28,2.74c.2,1.06-1,2.55-2,4-.61.85-2.27,4.4-2.27,4.4a6.8,6.8,0,0,1,1.93.48c1.11.47,2.15,1,2.15,1s2.39-6.23,4.08-6.86c1.45-.53,5.63.66,8.65,1.16,4.28.71,8.62,1.32,9.57,2.43s2.06,5.86,3.09,9.82c1.11,4.35,4,15.63,3.47,16.52s-5,.76-7.61.55a34,34,0,0,1-5.75-1.33s.59,1.85.78,2.34c.28.71,1.14,2.67,1.14,2.67s5.12,2,19.92,0a29.77,29.77,0,0,0,23.66-17c2.54-6.13,2.77-9.35,2.77-9.35S97.72,97.35,97.32,96.48Zm-12.78,20C80.87,119,71.25,121.86,69.45,121c-1.43-.7-4-12.23-5.2-17.37-.77-3.29-2.51-8.27-1.65-9.88.58-1.09,4.15-2.82,6.77-4.18s6.08-3,7.15-2.94c1.51.11,5,5.24,8.39,9.61s7.17,8.91,7.3,10.53S88.32,113.86,84.54,116.45Z"
               transform="translate(-3.09 -29.46)"
               id="path90503" />
            <path
               class="cls-5"
               d="M102.56,100.82l-3,1.84c1.61,7-.16,12.83-7.51,20.56-8,8.45-25.49,10.15-33.07,8.45-6.69-1.5-8-9.47-10.88-17.8-3.82-11-9.07-13.37-13.6-15.57a20.71,20.71,0,0,0-8.21-1.85v0c-5.63.14-11.21,1.55-15.51,5.38-13.22,11.83-6.47,27.79-1.62,32.27s8.13,5.18,8.49,5.83-.45,3-.9,4.62c-.5,1.85-1.8,5.08-.62,7.45s4.95,3.6,7.62,3.74,7.5-.18,9.3-2.08c1.34-1.41,1.19-4.2,1-5.52-.25-1.49-.52-3.55-.52-3.55s5.16.39,9,.52c4.31.14,11.44.21,11.44.21s.31,3.5.35,4.49.4,5.74,1.27,6.7,2.26,2.54,7.52,2.37c6.72-.23,9.47-3.13,10.32-4.83.93-1.88.23-4.6,0-6.5S72,140.9,72,140.9s5.27-3,7.22-4,6.1-3.87,6.1-3.87.47,2.2.62,2.86c.2.91,1.76,2.37,6.93,2.22,6.5-.18,8.86-4.73,9.3-6.38s-.9-5.8-1.35-7.53S99,118,99.16,116.82s4.39-7,6.18-9.87c2-3.12,3.15-6.08,2.43-7.08C106.54,98.16,103.41,100.29,102.56,100.82Z"
               transform="translate(-3.09 -29.46)"
               id="path90505" />
            <path
               class="cls-6"
               d="M35.06,111.9c.54,2.49-.64,5.13-3.4,5.48-2.26.29-4.13-1.23-4.67-3.72a4.41,4.41,0,0,1,3.05-5.4A4.39,4.39,0,0,1,35.06,111.9Z"
               transform="translate(-3.09 -29.46)"
               id="path90507" />
            <path
               class="cls-6"
               d="M18.78,112.77c.16,2.52-2,5.14-4.7,4.73-2.26-.34-3.64-2.28-3.49-4.79A4.39,4.39,0,0,1,15,108.4C17.28,108.53,18.61,110.15,18.78,112.77Z"
               transform="translate(-3.09 -29.46)"
               id="path90509" />
            <path
               class="cls-6"
               d="M26.21,121.79c1-.74,2.65-2.48,3.83-1.1s-.71,2.79-1.8,3.64-3.5,3-5.31,3-4.34-1.89-6-3.2c-1.37-1.07-2-2.49-1.33-3.39s1.88-.62,2.89.2,3.42,2.86,4.3,2.83S24.87,122.78,26.21,121.79Z"
               transform="translate(-3.09 -29.46)"
               id="path90511" />
            <g
               class="cls-7"
               clip-path="url(#clip-path)"
               id="g90521">
              <g
                 id="g90517">
                <path
                   class="cls-8"
                   d="M30.31,104.86a6.31,6.31,0,0,0,1.83,8.69,6.3,6.3,0,0,0,8.57-2.33l37-60.46A6.1,6.1,0,1,0,67.29,44.4Z"
                   transform="translate(-3.09 -29.46)"
                   id="path90513" />
                <path
                   class="cls-9"
                   d="M93.39,68.86s3.26-14.07-9.74-22L65.46,35.71a3,3,0,0,0-1-4.18l-2.59-1.59a3,3,0,0,0-4.19,1L51.31,41.34a3,3,0,0,0,1,4.19l2.6,1.59a3,3,0,0,0,4.19-1l.12-.2c1.94,1.23,4.11,3.27,3.48,6l10.4,6.35s5.78-3.61,11-.43,5.7,5.28,6.71,9.46S93.39,68.86,93.39,68.86Z"
                   transform="translate(-3.09 -29.46)"
                   id="path90515" />
                <path
                   fill="#77b255"
                   d="m 89.139751,-14.568384 c 0.928801,4.737038 -1.395086,7.7624473 -4.167764,8.3012927 -2.770336,0.5390446 -6.064368,-1.3886011 -6.988632,-6.1229187 -0.359229,-1.848456 -1.178547,-2.461142 -1.459067,-2.410831 -0.285781,0.05702 -0.81371,0.937549 -0.454094,2.781311 0.926618,4.7345036 -1.399583,7.759716 -4.172266,8.2985624 -2.773066,0.5435371 -6.062016,-1.3884127 -6.986091,-6.1250754 -0.361774,-1.846299 -1.183241,-2.461524 -1.464339,-2.404175 -0.278548,0.05523 -0.810975,0.933048 -0.451552,2.779157 0.248025,1.2723758 -0.581032,2.5134285 -1.855758,2.7612605 -1.279225,0.2451003 -2.513044,-0.5857295 -2.763033,-1.8629897 -0.924455,-4.7319668 1.39489,-7.7601008 4.17265,-8.3032578 2.770337,-0.539034 6.059479,1.390569 6.988246,6.127616 0.35923,1.8484553 1.178547,2.4611411 1.459643,2.4037895 0.280711,-0.05267 0.813133,-0.9305087 0.453518,-2.7742705 -0.926228,-4.739198 1.395082,-7.762446 4.172649,-8.303256 2.768182,-0.541579 6.057326,1.388027 6.985902,6.127423 0.35727,1.843569 1.183624,2.456831 1.459643,2.403789 0.283428,-0.05721 0.813329,-0.932857 0.456243,-2.778772 -0.252372,-1.277446 0.580847,-2.511081 1.85576,-2.761261 1.274729,-0.247831 2.513046,0.58573 2.758342,1.862606 z"
                   id="path9165"
                   style="stroke-width:2.35461"
                   transform="matrix(0.96848302,-0.24887783,0.24887783,0.96848302,-20.709266,44.642202)" />
              </g>
              <path
                 class="cls-10"
                 d="M36.89,46.54l5.46,6s1.74,3.91-2.25,7.55-7.73,1.57-7.73,1.57l-5.46-6c-1.83-2-3.68.22-3.76,1.94a15.33,15.33,0,0,0,14.62,16,14.76,14.76,0,0,0,3.47-.25L53.6,86.88l24.45,26.47a8,8,0,0,0,11.82-10.8L65.57,76,53.22,62.42A16.16,16.16,0,0,0,53.78,59,15.32,15.32,0,0,0,39.16,43C37.43,42.89,35.06,44.54,36.89,46.54Zm50.58,61.89a3.1,3.1,0,1,1-3-3.23A3.11,3.11,0,0,1,87.47,108.43Z"
                 transform="translate(-3.09 -29.46)"
                 id="path90519" />
            </g>
          </g>
        </g>
      </g>
    </g>
  </g>
  <g
     id="g8739"
     transform="matrix(1.2527313,-0.2400843,0.2400843,1.2527313,-32.079019,32.701722)">
    <path
       fill="#dd2e44"
       d="m 50.008438,43.57252 c 0.01096,-0.09019 -0.0233,-0.184885 -0.08113,-0.280885 0,0 -11.659764,-19.349415 -12.931632,-19.49999 -1.271976,-0.148614 -17.095745,15.975997 -17.095745,15.975997 -0.07949,0.08048 -0.134418,0.163293 -0.144433,0.25454 -0.149097,1.263066 6.503563,3.079506 14.856939,4.060565 8.355344,0.981168 15.246902,0.752838 15.396001,-0.510227 z"
       id="path5268"
       style="stroke-width:1.39378" />
    <path
       fill="#ea596e"
       d="m 36.910444,23.815538 c -0.0451,0.01226 -0.09976,0.0369 -0.16307,0.07485 -1.27625,1.439349 -11.565988,13.519252 -14.338925,17.790308 2.168665,0.745234 4.657846,1.24669 7.662388,1.763932 1.414869,-3.989147 7.721325,-18.904972 6.83961,-19.629086 z"
       id="path5270"
       style="stroke-width:1.39378" />
  </g>
  <g
     id="g9662"
     transform="matrix(0.968483,-0.24887783,0.24887783,0.968483,-20.709266,44.642202)">
    <circle
       fill="#5c913b"
       cx="84.427849"
       cy="78.951157"
       r="3.5319221"
       id="circle9167"
       style="stroke-width:2.35461" />
    <circle
       fill="#9266cc"
       cx="42.269398"
       cy="-15.621104"
       r="4.7092295"
       id="circle9169"
       style="stroke-width:2.35461" />
    <circle
       fill="#9266cc"
       cx="14.522722"
       cy="80.238213"
       r="4.7092295"
       id="circle9171"
       style="stroke-width:2.35461" />
    <circle
       fill="#5c913b"
       cx="19.262613"
       cy="31.096649"
       r="3.5319221"
       id="circle9173"
       style="stroke-width:2.35461" />
    <circle
       fill="#5c913b"
       cx="61.300297"
       cy="31.334843"
       r="3.5319221"
       id="circle9175"
       style="stroke-width:2.35461" />
    <circle
       fill="#ffcc4d"
       cx="79.425087"
       cy="24.417124"
       r="4.7092295"
       id="circle9177"
       style="stroke-width:2.35461" />
    <circle
       fill="#ffcc4d"
       cx="34.47023"
       cy="68.953568"
       r="3.5319221"
       id="circle9179"
       style="stroke-width:2.35461" />
    <circle
       fill="#ffcc4d"
       cx="28.946676"
       cy="5.1571012"
       r="3.5319221"
       id="circle9181"
       style="stroke-width:2.35461" />
    <path
       fill="#77b255"
       d="m 98.009366,65.545502 c -4.767344,0.75804 -7.707337,-1.672963 -8.146257,-4.463209 -0.439198,-2.787907 1.605507,-6.010581 6.369959,-6.764224 1.860166,-0.292614 2.501881,-1.089398 2.461677,-1.371543 -0.04667,-0.287652 -0.907721,-0.846855 -2.763208,-0.553689 -4.76473,0.75598 -7.704447,-1.677363 -8.143367,-4.467608 -0.443598,-2.790798 1.605231,-6.008244 6.372023,-6.761611 1.858102,-0.295227 2.502434,-1.094076 2.455214,-1.377051 -0.04516,-0.280358 -0.90332,-0.843963 -2.761145,-0.551074 -1.280467,0.202177 -2.490938,-0.670929 -2.692833,-1.953725 -0.199002,-1.287204 0.675604,-2.490387 1.961019,-2.694344 4.762113,-0.753915 7.704992,1.672691 8.148042,4.468164 0.4392,2.787903 -1.607292,6.005629 -6.374635,6.76367 -1.860165,0.292613 -2.501881,1.089398 -2.454662,1.372372 0.04254,0.282422 0.900707,0.846026 2.756194,0.552859 4.769406,-0.755429 7.707333,1.672964 8.148043,4.468162 0.44182,2.785848 -1.60468,6.003566 -6.374361,6.761333 -1.855211,0.290828 -2.497756,1.094627 -2.45466,1.372373 0.04695,0.285312 0.903044,0.846303 2.760594,0.555749 1.285691,-0.206292 2.488596,0.67065 2.692832,1.95373 0.201895,1.282799 -0.675609,2.490386 -1.960469,2.689666 z"
       id="path9584"
       style="stroke-width:2.35461" />
    <path
       fill="#aa8dd8"
       d="m 113.52588,-2.8485165 c 0.46153,-0.385327 1.06997,-0.594387 1.71864,-0.538068 2.04519,0.183599 3.77925,0.862789 5.003,1.963531 1.29558,1.16535398 1.95128,2.749946 1.80895,4.351631 -0.25191,2.809477 -3.01763,5.436944 -7.82744,5.00767 -1.87058,-0.165629 -2.69053,0.450044 -2.71352,0.735425 -0.0277,0.285467 0.6715,1.037938 2.54214,1.205919 2.04518,0.1835985 3.77925,0.8627885 5.00299,1.9635305 1.29558,1.165355 1.95599,2.74986 1.80895,4.351632 -0.25187,2.81183 -3.01763,5.436943 -7.82269,5.009937 -1.36343,-0.120831 -2.07629,0.172583 -2.37663,0.359465 -0.23974,0.152816 -0.33362,0.298187 -0.34156,0.378401 -0.023,0.283028 0.66676,1.035667 2.5421,1.203565 1.29507,0.117383 2.25349,1.260708 2.1361,2.555777 -0.11503,1.295025 -1.25604,2.251043 -2.55578,2.136103 -4.80505,-0.427007 -7.06612,-3.500935 -6.81429,-6.315122 0.25186,-2.811829 3.01762,-5.436943 7.82743,-5.007669 1.36348,0.123185 2.07158,-0.172496 2.37193,-0.359378 0.24212,-0.150518 0.33601,-0.295874 0.3416,-0.376047 0.0277,-0.285468 -0.66681,-1.038022 -2.54214,-1.205919 -4.8051,-0.429361 -7.06612,-3.500934 -6.8143,-6.3151185 0.25187,-2.811832 3.01759,-5.439298 7.82277,-5.005229 1.36343,0.120831 2.07625,-0.174936 2.37659,-0.36182 0.23981,-0.150409 0.33366,-0.295832 0.3416,-0.376045 0.023,-0.285383 -0.6715,-1.037939 -2.54214,-1.205921 -1.29502,-0.115028 -2.25348,-1.26070502 -2.1361,-2.555777 0.0633,-0.651155 0.38031,-1.212792 0.8418,-1.600473 z"
       id="path9586"
       style="stroke-width:2.35461" />
    <path
       fill="#aa8dd8"
       d="m 71.776157,42.906841 c 0.59654,0.07504 1.164249,0.377717 1.565206,0.890722 1.259767,1.621578 1.944838,3.353328 1.973612,4.999032 0.03047,1.742317 -0.681985,3.30221 -1.950931,4.289853 -2.22735,1.730765 -6.035062,1.498154 -8.999572,-2.313698 -1.153895,-1.481566 -2.163289,-1.661833 -2.387769,-1.48413 -0.227744,0.174326 -0.301707,1.198836 0.850501,2.682043 1.259767,1.621578 1.944838,3.353317 1.973611,4.999031 0.03047,1.742317 -0.678712,3.305601 -1.95093,4.289854 -2.229042,1.732397 -6.035063,1.498153 -8.997993,-2.308678 -0.840973,-1.079954 -1.541578,-1.401541 -1.883048,-1.49391 -0.275226,-0.07124 -0.445583,-0.04083 -0.509687,0.008 -0.222794,0.176069 -0.303282,1.193814 0.852193,2.680411 0.796901,1.027594 0.613653,2.508186 -0.413935,3.305087 -1.025953,0.798589 -2.503222,0.615401 -3.305088,-0.41394 -2.962927,-3.806832 -2.255051,-7.556545 -0.02431,-9.290574 2.229042,-1.732397 6.035062,-1.498154 8.999571,2.313699 0.83928,1.081596 1.538305,1.398152 1.879773,1.490523 0.275174,0.07454 0.445528,0.04417 0.50799,-0.0064 0.227755,-0.174323 0.304971,-1.195455 -0.850501,-2.682053 -2.961237,-3.808463 -2.255052,-7.556535 -0.02432,-9.290573 2.229045,-1.732398 6.036756,-1.499786 8.994607,2.311951 0.840973,1.079964 1.543271,1.39991 1.884739,1.49227 0.273515,0.07294 0.443891,0.04248 0.507989,-0.0064 0.224487,-0.177702 0.301709,-1.198836 -0.850498,-2.682044 -0.79859,-1.025962 -0.613651,-2.508197 0.41394,-3.305097 0.519608,-0.39752 1.146612,-0.548429 1.744842,-0.475035 z"
       id="path12881"
       style="stroke-width:2.35461" />
  </g>
</svg>
