<?xml version="1.0" encoding="UTF-8" standalone="no"?>
<svg
   width="37.011169mm"
   height="45.653469mm"
   viewBox="0 0 104.92166 129.41983"
   version="1.1"
   id="svg39"
   xmlns="http://www.w3.org/2000/svg"
   xmlns:svg="http://www.w3.org/2000/svg">
  <defs
     id="defs7">
    <style
       id="style2">
      .cls-1 {
        fill: none;
      }

      .cls-2 {
        fill: #bdcf49;
      }

      .cls-3 {
        fill: #323232;
      }

      .cls-4 {
        fill: #fbee6e;
      }

      .cls-5 {
        fill: #d23216;
      }

      .cls-6 {
        fill: #2b2c29;
      }

      .cls-7 {
        clip-path: url(#clip-path);
      }

      .cls-8 {
        fill: #f39110;
      }

      .cls-9 {
        fill: #66757f;
      }

      .cls-10 {
        fill: #8899a6;
      }
    </style>
    <clipPath
       id="clip-path">
      <path
         class="cls-1"
         d="M 63,0 0,48 39.55,83.34 42.49,82.92 c 0.53,2.58 7.37,3.73 15.42,2.58 C 65.96,84.35 72.2,81.31 72,78.69 l 2.89,-0.42 29.89,-10.45 10.34,-37.4 z"
         id="path4" />
    </clipPath>
  </defs>
  <g
     id="Layer_2"
     data-name="Layer 2"
     transform="translate(-3.0641698,-29.472044)">
    <g
       id="grid">
      <g
         id="mh_copy"
         data-name="mh copy">
        <g
           id="mechs">
          <g
             id="g33">
            <path
               class="cls-2"
               d="m 98.28,103.46 4.28,-2.64 c 0.85,-0.53 4,-2.66 5.21,-0.95 0.72,1 -0.46,4 -2.43,7.08 -1.79,2.85 -6,8.74 -6.18,9.87 -0.18,1.13 1.21,5.61 1.65,7.34 0.44,1.73 1.79,5.89 1.35,7.53 -0.44,1.64 -2.8,6.2 -9.3,6.38 -5.17,0.15 -6.73,-1.31 -6.93,-2.22 -0.15,-0.66 -0.62,-2.86 -0.62,-2.86 0,0 -4.14,2.8 -6.1,3.87 -1.96,1.07 -7.22,4 -7.22,4 0,0 1.23,4.71 1.47,6.62 0.24,1.91 1,4.62 0,6.5 -0.85,1.7 -3.6,4.6 -10.32,4.83 -5.26,0.17 -6.65,-1.41 -7.52,-2.37 -0.87,-0.96 -1.23,-5.7 -1.27,-6.7 -0.04,-1 -0.35,-4.49 -0.35,-4.49 0,0 -7.13,-0.07 -11.44,-0.21 -3.89,-0.13 -9,-0.52 -9,-0.52 0,0 0.27,2.06 0.52,3.55 0.22,1.32 0.37,4.11 -1,5.52 -1.8,1.9 -6.63,2.23 -9.3,2.08 -2.67,-0.15 -6.44,-1.37 -7.62,-3.74 -1.18,-2.37 0.12,-5.6 0.62,-7.45 0.45,-1.62 1.26,-4 0.9,-4.62 -0.36,-0.62 -3.65,-1.35 -8.49,-5.83 -4.84,-4.48 -11.6,-20.44 1.62,-32.27 13.22,-11.83 38.91,-0.58 40.28,0.2 1.37,0.78 47.19,1.5 47.19,1.5 z"
               id="path9" />
            <path
               class="cls-3"
               d="M 55.86,75 C 43.52,76 34.5,82.54 30.16,89.41 a 56.86,56.86 0 0 0 -3.85,7 20.71,20.71 0 0 1 8.21,1.85 c 4.53,2.2 9.78,4.55 13.6,15.57 2.89,8.33 4.19,16.3 10.88,17.8 7.58,1.7 25,0 33.07,-8.45 8.07,-8.45 9.42,-14.64 7,-22.55 -2.42,-7.91 -12.58,-21.76 -26,-25 C 67.22,74.3 61.47,74.53 55.86,75 Z"
               id="path11" />
            <path
               class="cls-4"
               d="m 97.32,96.48 c -0.41,-0.86 -1.25,-2.17 -1.25,-2.17 0,0 0,1.82 -0.11,2.79 -0.18,1.57 -0.91,4.85 -1.43,4.39 A 105.52,105.52 0 0 1 87.09,92.7 C 85.48,90.52 80,84.89 79.82,83 a 19.52,19.52 0 0 1 1,-4.17 l -2.13,-1.1 c -0.8,-0.41 -2,-0.84 -2,-0.84 0,0 -0.51,4.37 -1.23,5.22 -0.72,0.85 -4.63,2.5 -7.73,3.81 C 64,87.49 60.37,89.51 59,89.82 57.8,90.09 50.88,88.89 48.28,88.49 45,88 40.06,86.81 38.9,86.05 a 13.6,13.6 0 0 1 -2.85,-3.24 c 0,0 -0.77,0.57 -1.54,1.22 a 16.79,16.79 0 0 0 -1.72,1.9 c 0,0 2.14,2 2.28,2.74 0.2,1.06 -1,2.55 -2,4 -0.61,0.85 -2.27,4.4 -2.27,4.4 a 6.8,6.8 0 0 1 1.93,0.48 c 1.11,0.47 2.15,1 2.15,1 0,0 2.39,-6.23 4.08,-6.86 1.45,-0.53 5.63,0.66 8.65,1.16 4.28,0.71 8.62,1.32 9.57,2.43 0.95,1.11 2.06,5.86 3.09,9.82 1.11,4.35 4,15.63 3.47,16.52 -0.53,0.89 -5,0.76 -7.61,0.55 a 34,34 0 0 1 -5.75,-1.33 c 0,0 0.59,1.85 0.78,2.34 0.28,0.71 1.14,2.67 1.14,2.67 0,0 5.12,2 19.92,0 a 29.77,29.77 0 0 0 23.66,-17 c 2.54,-6.13 2.77,-9.35 2.77,-9.35 0,0 -0.93,-2.15 -1.33,-3.02 z m -12.78,20 c -3.67,2.52 -13.29,5.38 -15.09,4.52 -1.43,-0.7 -4,-12.23 -5.2,-17.37 -0.77,-3.29 -2.51,-8.27 -1.65,-9.88 0.58,-1.09 4.15,-2.82 6.77,-4.18 2.62,-1.36 6.08,-3 7.15,-2.94 1.51,0.11 5,5.24 8.39,9.61 3.39,4.37 7.17,8.91 7.3,10.53 0.13,1.62 -3.89,7.09 -7.67,9.68 z"
               id="path13" />
            <path
               class="cls-5"
               d="m 102.56,100.82 -3,1.84 c 1.61,7 -0.16,12.83 -7.51,20.56 -8,8.45 -25.49,10.15 -33.07,8.45 -6.69,-1.5 -8,-9.47 -10.88,-17.8 -3.82,-11 -9.07,-13.37 -13.6,-15.57 a 20.71,20.71 0 0 0 -8.21,-1.85 v 0 c -5.63,0.14 -11.21,1.55 -15.51,5.38 -13.22,11.83 -6.47,27.79 -1.62,32.27 4.85,4.48 8.13,5.18 8.49,5.83 0.36,0.65 -0.45,3 -0.9,4.62 -0.5,1.85 -1.8,5.08 -0.62,7.45 1.18,2.37 4.95,3.6 7.62,3.74 2.67,0.14 7.5,-0.18 9.3,-2.08 1.34,-1.41 1.19,-4.2 1,-5.52 -0.25,-1.49 -0.52,-3.55 -0.52,-3.55 0,0 5.16,0.39 9,0.52 4.31,0.14 11.44,0.21 11.44,0.21 0,0 0.31,3.5 0.35,4.49 0.04,0.99 0.4,5.74 1.27,6.7 0.87,0.96 2.26,2.54 7.52,2.37 6.72,-0.23 9.47,-3.13 10.32,-4.83 0.93,-1.88 0.23,-4.6 0,-6.5 C 73.2,145.65 72,140.9 72,140.9 c 0,0 5.27,-3 7.22,-4 1.95,-1 6.1,-3.87 6.1,-3.87 0,0 0.47,2.2 0.62,2.86 0.2,0.91 1.76,2.37 6.93,2.22 6.5,-0.18 8.86,-4.73 9.3,-6.38 0.44,-1.65 -0.9,-5.8 -1.35,-7.53 -0.45,-1.73 -1.82,-6.2 -1.66,-7.38 0.16,-1.18 4.39,-7 6.18,-9.87 2,-3.12 3.15,-6.08 2.43,-7.08 -1.23,-1.71 -4.36,0.42 -5.21,0.95 z"
               id="path15" />
            <path
               class="cls-6"
               d="m 35.06,111.9 c 0.54,2.49 -0.64,5.13 -3.4,5.48 -2.26,0.29 -4.13,-1.23 -4.67,-3.72 a 4.41,4.41 0 0 1 3.05,-5.4 4.39,4.39 0 0 1 5.02,3.64 z"
               id="path17" />
            <path
               class="cls-6"
               d="m 18.78,112.77 c 0.16,2.52 -2,5.14 -4.7,4.73 -2.26,-0.34 -3.64,-2.28 -3.49,-4.79 A 4.39,4.39 0 0 1 15,108.4 c 2.28,0.13 3.61,1.75 3.78,4.37 z"
               id="path19" />
            <path
               class="cls-6"
               d="m 26.21,121.79 c 1,-0.74 2.65,-2.48 3.83,-1.1 1.18,1.38 -0.71,2.79 -1.8,3.64 -1.09,0.85 -3.5,3 -5.31,3 -1.81,0 -4.34,-1.89 -6,-3.2 -1.37,-1.07 -2,-2.49 -1.33,-3.39 0.67,-0.9 1.88,-0.62 2.89,0.2 1.01,0.82 3.42,2.86 4.3,2.83 0.88,-0.03 2.08,-0.99 3.42,-1.98 z"
               id="path21" />
            <g
               class="cls-7"
               clip-path="url(#clip-path)"
               id="g31">
              <g
                 id="g27">
                <path
                   class="cls-8"
                   d="m 30.31,104.86 a 6.31,6.31 0 0 0 1.83,8.69 6.3,6.3 0 0 0 8.57,-2.33 l 37,-60.46 A 6.1038103,6.1038103 0 1 0 67.29,44.4 Z"
                   id="path23" />
                <path
                   class="cls-9"
                   d="m 93.39,68.86 c 0,0 3.26,-14.07 -9.74,-22 L 65.46,35.71 a 3,3 0 0 0 -1,-4.18 l -2.59,-1.59 a 3,3 0 0 0 -4.19,1 l -6.37,10.4 a 3,3 0 0 0 1,4.19 l 2.6,1.59 a 3,3 0 0 0 4.19,-1 l 0.12,-0.2 c 1.94,1.23 4.11,3.27 3.48,6 l 10.4,6.35 c 0,0 5.78,-3.61 11,-0.43 5.22,3.18 5.7,5.28 6.71,9.46 1.01,4.18 2.58,1.56 2.58,1.56 z"
                   id="path25" />
              </g>
              <path
                 class="cls-10"
                 d="m 36.89,46.54 5.46,6 c 0,0 1.74,3.91 -2.25,7.55 -3.99,3.64 -7.73,1.57 -7.73,1.57 l -5.46,-6 c -1.83,-2 -3.68,0.22 -3.76,1.94 a 15.33,15.33 0 0 0 14.62,16 14.76,14.76 0 0 0 3.47,-0.25 l 12.36,13.53 24.45,26.47 a 8.0055044,8.0055044 0 0 0 11.82,-10.8 L 65.57,76 53.22,62.42 A 16.16,16.16 0 0 0 53.78,59 15.32,15.32 0 0 0 39.16,43 c -1.73,-0.11 -4.1,1.54 -2.27,3.54 z m 50.58,61.89 a 3.1,3.1 0 1 1 -3,-3.23 3.11,3.11 0 0 1 3,3.23 z"
                 id="path29" />
            </g>
          </g>
        </g>
      </g>
    </g>
  </g>
</svg>
