<svg xmlns="http://www.w3.org/2000/svg" width="37mm" height="30.63mm" viewBox="0 0 104.89 86.83">
  <defs>
    <style>
      .cls-1 {
        fill: #fad3d7;
      }

      .cls-2 {
        fill: #31373d;
      }

      .cls-3 {
        fill: #5fa9de;
      }

      .cls-4 {
        fill: #2c7ec2;
      }

      .cls-5 {
        fill: #49545a;
      }

      .cls-6 {
        fill: #2a3034;
      }

      .cls-7 {
        fill: #fecc50;
      }

      .cls-8 {
        fill: #2b2c29;
      }
    </style>
  </defs>
  <g id="Layer_2" data-name="Layer 2">
    <g id="grid">
      <g id="mh_copy" data-name="mh copy">
        <g id="mills">
          <g>
            <path class="cls-1" d="M95.19,31.43l4.27-2.64c.86-.53,4-2.66,5.21-.95.73,1-.46,4-2.42,7.08-1.79,2.85-6,8.73-6.18,9.87s1.21,5.6,1.65,7.34S99.5,58,99.06,59.66s-2.8,6.2-9.3,6.38c-5.16.15-6.72-1.31-6.93-2.23-.15-.66-.61-2.85-.61-2.85s-4.14,2.8-6.1,3.87-7.22,4-7.22,4,1.22,4.7,1.47,6.61.95,4.63,0,6.51c-.85,1.7-3.59,4.6-10.32,4.83-5.25.17-6.64-1.41-7.51-2.37s-1.24-5.71-1.28-6.7-.35-4.49-.35-4.49-7.13-.07-11.43-.21c-3.9-.13-9-.52-9-.52s.27,2.06.51,3.55c.23,1.32.37,4.1-1,5.52-1.79,1.9-6.63,2.23-9.3,2.08s-6.43-1.37-7.61-3.74.11-5.6.62-7.45c.45-1.62,1.26-4,.89-4.62S10.94,66.51,6.1,62-5.5,41.6,7.72,29.77,46.63,29.19,48,30,95.19,31.43,95.19,31.43Z"/>
            <path class="cls-2" d="M96,28.64a29.54,29.54,0,0,0-2.63-5.82l.18,16.43s.09,8.75-8.65,8.84l-37.66.4c1.85,5.57,3.87,10.06,8.72,11.15,7.57,1.7,25,0,33.06-8.45S98.39,36.55,96,28.64Z"/>
            <polygon class="cls-3" points="93.32 22.82 93.17 8.65 93.32 22.82 93.32 22.82"/>
            <path class="cls-3" d="M82.19,4.4l-9.52.1a33.38,33.38,0,0,1,9.58,5.43Z"/>
            <path class="cls-3" d="M31.42,26.27a19.55,19.55,0,0,0-5.85-1.68l.21,19.76,20-.21c-.24-.77-.48-1.53-.75-2.3C41.2,30.82,36,28.46,31.42,26.27Z"/>
            <path class="cls-3" d="M43.85,4.81,25.36,5l.16,15c.45-.79,1-1.65,1.55-2.58A31.68,31.68,0,0,1,43.85,4.81Z"/>
            <path class="cls-4" d="M82.25,9.93A33.38,33.38,0,0,0,72.67,4.5l-28.82.31A31.68,31.68,0,0,0,27.07,17.38c-.59.93-1.1,1.79-1.55,2.58l.05,4.63a19.55,19.55,0,0,1,5.85,1.68C36,28.46,41.2,30.82,45,41.84c.27.77.51,1.53.75,2.3l36.83-.4Z"/>
            <g>
              <path class="cls-5" d="M35.36,46.36v-29l4-4h2l4,4v29Zm23-25a1,1,0,0,0-1-1h-7a1,1,0,0,0-1,1v25h9Z"/>
              <path class="cls-6" d="M53.36,27.36a1,1,0,0,0-1-1h-8a1,1,0,0,0-1,1v19h10Zm-17,2h-5v-5a1,1,0,0,0-1-1h-5v19a4,4,0,0,0,4,4h8v-16A1,1,0,0,0,36.36,29.36Zm21,6a1,1,0,0,0-1,1v10h1a4,4,0,0,0,4-4v-7Z"/>
              <path class="cls-7" d="M33.36,39.36h2v2h-2Zm0-8h2v2h-2Zm-2,4h2v2h-2Zm10-16h2v2h-2Zm0,4h2v2h-2Zm-2,4h2v2h-2Zm10,1h2v2h-2Zm-2,4h2v2h-2Zm-2,6h2v2h-2Zm9-16h2v2h-2Zm0,4h2v2h-2Z"/>
            </g>
            <g>
              <path class="cls-5" d="M65.36,44.86v-29l4-4h2l4,4v29Zm23-25a1,1,0,0,0-1-1h-7a1,1,0,0,0-1,1v25h9Z"/>
              <path class="cls-6" d="M83.36,25.86a1,1,0,0,0-1-1h-8a1,1,0,0,0-1,1v19h10Zm-17,2h-5v-5a1,1,0,0,0-1-1h-5v19a4,4,0,0,0,4,4h8v-16A1,1,0,0,0,66.36,27.86Zm21,6a1,1,0,0,0-1,1v10h1a4,4,0,0,0,4-4v-7Z"/>
              <path class="cls-7" d="M63.36,37.86h2v2h-2Zm0-8h2v2h-2Zm-2,4h2v2h-2Zm10-16h2v2h-2Zm0,4h2v2h-2Zm-2,4h2v2h-2Zm10,1h2v2h-2Zm-2,4h2v2h-2Zm-2,6h2v2h-2Zm9-16h2v2h-2Zm0,4h2v2h-2Z"/>
            </g>
            <path class="cls-2" d="M45.78,44.14l-20,.21-.21-19.76a19,19,0,0,0-2.35-.17A47,47,0,0,1,25.52,20L25.36,5l18.49-.19A37.91,37.91,0,0,1,52.77,3c5.6-.47,11.35-.7,17.16.69.93.23,1.84.52,2.74.84l9.52-.1.06,5.53A46.49,46.49,0,0,1,93.32,22.82L93.17,8.65C93.08-.09,84.33,0,84.33,0L23.12.65c-8.74.1-8.65,8.84-8.65,8.84L14.8,40.1c.09,8.74,8.84,8.65,8.84,8.65l23.55-.26C46.73,47.1,46.27,45.63,45.78,44.14Z"/>
            <path class="cls-2" d="M69.93,3.66C64.12,2.27,58.37,2.5,52.77,3a37.91,37.91,0,0,0-8.92,1.84L72.67,4.5C71.77,4.18,70.86,3.89,69.93,3.66Z"/>
            <path class="cls-2" d="M23.22,24.42a19,19,0,0,1,2.35.17L25.52,20A47,47,0,0,0,23.22,24.42Z"/>
            <path class="cls-2" d="M82.25,9.93l.36,33.81-36.83.4c.49,1.49.95,3,1.41,4.35l37.66-.4c8.74-.09,8.65-8.84,8.65-8.84l-.18-16.43A46.49,46.49,0,0,0,82.25,9.93Z"/>
            <path class="cls-1" d="M102.25,34.92c2-3.12,3.15-6.08,2.42-7.08-1.23-1.71-4.35.42-5.21.95l-3,1.84c1.62,7-.15,12.83-7.51,20.56-8,8.45-25.49,10.15-33.06,8.45-6.69-1.5-8-9.47-10.88-17.8C41.2,30.82,36,28.46,31.42,26.27a20.65,20.65,0,0,0-8.2-1.85v0c-5.64.14-11.22,1.55-15.51,5.38C-5.5,41.6,1.24,57.55,6.1,62s8.12,5.19,8.48,5.84-.44,3-.89,4.62c-.51,1.85-1.8,5.08-.62,7.45s4.94,3.59,7.61,3.74,7.51-.18,9.3-2.08c1.34-1.42,1.2-4.2,1-5.52-.24-1.49-.51-3.55-.51-3.55s5.15.39,9.05.52c4.3.14,11.43.21,11.43.21s.31,3.5.35,4.49.4,5.73,1.28,6.7,2.26,2.54,7.51,2.37c6.73-.23,9.47-3.13,10.32-4.83.94-1.88.23-4.6,0-6.51s-1.47-6.61-1.47-6.61,5.26-3,7.22-4S82.22,61,82.22,61s.46,2.19.61,2.85c.21.92,1.77,2.38,6.93,2.23,6.5-.18,8.86-4.73,9.3-6.38s-.9-5.8-1.34-7.53-1.86-6.2-1.65-7.34S100.46,37.77,102.25,34.92Z"/>
            <path class="cls-8" d="M32,39.87c.54,2.49-.64,5.13-3.4,5.48-2.27.29-4.13-1.23-4.67-3.72A4.39,4.39,0,0,1,27,36.23,4.39,4.39,0,0,1,32,39.87Z"/>
            <path class="cls-8" d="M15.68,40.74c.17,2.52-1.94,5.13-4.69,4.73-2.27-.34-3.64-2.28-3.49-4.79a4.37,4.37,0,0,1,4.4-4.31C14.18,36.5,15.52,38.12,15.68,40.74Z"/>
            <path class="cls-8" d="M23.11,49.76c1-.75,2.66-2.48,3.83-1.1s-.7,2.78-1.79,3.64-3.51,3-5.32,3-4.33-1.89-6-3.2c-1.37-1.07-2-2.49-1.33-3.39s1.88-.62,2.89.2c1.17,1,3.42,2.86,4.31,2.83S21.77,50.75,23.11,49.76Z"/>
          </g>
        </g>
      </g>
    </g>
  </g>
</svg>
