<?xml version="1.0" encoding="UTF-8" standalone="no"?>
<svg
   width="37mm"
   height="30.63mm"
   viewBox="0 0 104.89 86.83"
   version="1.1"
   id="svg49861"
   sodipodi:docname="mill.svg"
   inkscape:version="1.2.2 (732a01da63, 2022-12-09)"
   xmlns:inkscape="http://www.inkscape.org/namespaces/inkscape"
   xmlns:sodipodi="http://sodipodi.sourceforge.net/DTD/sodipodi-0.dtd"
   xmlns="http://www.w3.org/2000/svg"
   xmlns:svg="http://www.w3.org/2000/svg">
  <sodipodi:namedview
     id="namedview49863"
     pagecolor="#ffffff"
     bordercolor="#000000"
     borderopacity="0.25"
     inkscape:showpageshadow="2"
     inkscape:pageopacity="0.0"
     inkscape:pagecheckerboard="0"
     inkscape:deskcolor="#d1d1d1"
     inkscape:document-units="mm"
     showgrid="false"
     inkscape:zoom="4"
     inkscape:cx="110.375"
     inkscape:cy="58.5"
     inkscape:window-width="1920"
     inkscape:window-height="1057"
     inkscape:window-x="1912"
     inkscape:window-y="-8"
     inkscape:window-maximized="1"
     inkscape:current-layer="g9662" />
  <defs
     id="defs49807">
    <style
       id="style49805">
      .cls-1 {
        fill: #fad3d7;
      }

      .cls-2 {
        fill: #31373d;
      }

      .cls-3 {
        fill: #5fa9de;
      }

      .cls-4 {
        fill: #2c7ec2;
      }

      .cls-5 {
        fill: #49545a;
      }

      .cls-6 {
        fill: #2a3034;
      }

      .cls-7 {
        fill: #fecc50;
      }

      .cls-8 {
        fill: #2b2c29;
      }
    </style>
  </defs>
  <g
     id="Layer_2"
     data-name="Layer 2">
    <g
       id="grid">
      <g
         id="mh_copy"
         data-name="mh copy">
        <g
           id="mills">
          <g
             id="g49855">
            <path
               class="cls-1"
               d="M95.19,31.43l4.27-2.64c.86-.53,4-2.66,5.21-.95.73,1-.46,4-2.42,7.08-1.79,2.85-6,8.73-6.18,9.87s1.21,5.6,1.65,7.34S99.5,58,99.06,59.66s-2.8,6.2-9.3,6.38c-5.16.15-6.72-1.31-6.93-2.23-.15-.66-.61-2.85-.61-2.85s-4.14,2.8-6.1,3.87-7.22,4-7.22,4,1.22,4.7,1.47,6.61.95,4.63,0,6.51c-.85,1.7-3.59,4.6-10.32,4.83-5.25.17-6.64-1.41-7.51-2.37s-1.24-5.71-1.28-6.7-.35-4.49-.35-4.49-7.13-.07-11.43-.21c-3.9-.13-9-.52-9-.52s.27,2.06.51,3.55c.23,1.32.37,4.1-1,5.52-1.79,1.9-6.63,2.23-9.3,2.08s-6.43-1.37-7.61-3.74.11-5.6.62-7.45c.45-1.62,1.26-4,.89-4.62S10.94,66.51,6.1,62-5.5,41.6,7.72,29.77,46.63,29.19,48,30,95.19,31.43,95.19,31.43Z"
               id="path49809" />
            <path
               class="cls-2"
               d="M96,28.64a29.54,29.54,0,0,0-2.63-5.82l.18,16.43s.09,8.75-8.65,8.84l-37.66.4c1.85,5.57,3.87,10.06,8.72,11.15,7.57,1.7,25,0,33.06-8.45S98.39,36.55,96,28.64Z"
               id="path49811" />
            <polygon
               class="cls-3"
               points="93.32 22.82 93.17 8.65 93.32 22.82 93.32 22.82"
               id="polygon49813" />
            <path
               class="cls-3"
               d="M82.19,4.4l-9.52.1a33.38,33.38,0,0,1,9.58,5.43Z"
               id="path49815" />
            <path
               class="cls-3"
               d="M31.42,26.27a19.55,19.55,0,0,0-5.85-1.68l.21,19.76,20-.21c-.24-.77-.48-1.53-.75-2.3C41.2,30.82,36,28.46,31.42,26.27Z"
               id="path49817" />
            <path
               class="cls-3"
               d="M43.85,4.81,25.36,5l.16,15c.45-.79,1-1.65,1.55-2.58A31.68,31.68,0,0,1,43.85,4.81Z"
               id="path49819" />
            <path
               class="cls-4"
               d="M82.25,9.93A33.38,33.38,0,0,0,72.67,4.5l-28.82.31A31.68,31.68,0,0,0,27.07,17.38c-.59.93-1.1,1.79-1.55,2.58l.05,4.63a19.55,19.55,0,0,1,5.85,1.68C36,28.46,41.2,30.82,45,41.84c.27.77.51,1.53.75,2.3l36.83-.4Z"
               id="path49821" />
            <g
               id="g49829">
              <path
                 class="cls-5"
                 d="M35.36,46.36v-29l4-4h2l4,4v29Zm23-25a1,1,0,0,0-1-1h-7a1,1,0,0,0-1,1v25h9Z"
                 id="path49823" />
              <path
                 class="cls-6"
                 d="M53.36,27.36a1,1,0,0,0-1-1h-8a1,1,0,0,0-1,1v19h10Zm-17,2h-5v-5a1,1,0,0,0-1-1h-5v19a4,4,0,0,0,4,4h8v-16A1,1,0,0,0,36.36,29.36Zm21,6a1,1,0,0,0-1,1v10h1a4,4,0,0,0,4-4v-7Z"
                 id="path49825" />
              <path
                 class="cls-7"
                 d="M33.36,39.36h2v2h-2Zm0-8h2v2h-2Zm-2,4h2v2h-2Zm10-16h2v2h-2Zm0,4h2v2h-2Zm-2,4h2v2h-2Zm10,1h2v2h-2Zm-2,4h2v2h-2Zm-2,6h2v2h-2Zm9-16h2v2h-2Zm0,4h2v2h-2Z"
                 id="path49827" />
            </g>
            <g
               id="g49837">
              <path
                 class="cls-5"
                 d="M65.36,44.86v-29l4-4h2l4,4v29Zm23-25a1,1,0,0,0-1-1h-7a1,1,0,0,0-1,1v25h9Z"
                 id="path49831" />
              <path
                 class="cls-6"
                 d="M83.36,25.86a1,1,0,0,0-1-1h-8a1,1,0,0,0-1,1v19h10Zm-17,2h-5v-5a1,1,0,0,0-1-1h-5v19a4,4,0,0,0,4,4h8v-16A1,1,0,0,0,66.36,27.86Zm21,6a1,1,0,0,0-1,1v10h1a4,4,0,0,0,4-4v-7Z"
                 id="path49833" />
              <path
                 class="cls-7"
                 d="M63.36,37.86h2v2h-2Zm0-8h2v2h-2Zm-2,4h2v2h-2Zm10-16h2v2h-2Zm0,4h2v2h-2Zm-2,4h2v2h-2Zm10,1h2v2h-2Zm-2,4h2v2h-2Zm-2,6h2v2h-2Zm9-16h2v2h-2Zm0,4h2v2h-2Z"
                 id="path49835" />
            </g>
            <path
               class="cls-2"
               d="M45.78,44.14l-20,.21-.21-19.76a19,19,0,0,0-2.35-.17A47,47,0,0,1,25.52,20L25.36,5l18.49-.19A37.91,37.91,0,0,1,52.77,3c5.6-.47,11.35-.7,17.16.69.93.23,1.84.52,2.74.84l9.52-.1.06,5.53A46.49,46.49,0,0,1,93.32,22.82L93.17,8.65C93.08-.09,84.33,0,84.33,0L23.12.65c-8.74.1-8.65,8.84-8.65,8.84L14.8,40.1c.09,8.74,8.84,8.65,8.84,8.65l23.55-.26C46.73,47.1,46.27,45.63,45.78,44.14Z"
               id="path49839" />
            <path
               class="cls-2"
               d="M69.93,3.66C64.12,2.27,58.37,2.5,52.77,3a37.91,37.91,0,0,0-8.92,1.84L72.67,4.5C71.77,4.18,70.86,3.89,69.93,3.66Z"
               id="path49841" />
            <path
               class="cls-2"
               d="M23.22,24.42a19,19,0,0,1,2.35.17L25.52,20A47,47,0,0,0,23.22,24.42Z"
               id="path49843" />
            <path
               class="cls-2"
               d="M82.25,9.93l.36,33.81-36.83.4c.49,1.49.95,3,1.41,4.35l37.66-.4c8.74-.09,8.65-8.84,8.65-8.84l-.18-16.43A46.49,46.49,0,0,0,82.25,9.93Z"
               id="path49845" />
            <path
               class="cls-1"
               d="M102.25,34.92c2-3.12,3.15-6.08,2.42-7.08-1.23-1.71-4.35.42-5.21.95l-3,1.84c1.62,7-.15,12.83-7.51,20.56-8,8.45-25.49,10.15-33.06,8.45-6.69-1.5-8-9.47-10.88-17.8C41.2,30.82,36,28.46,31.42,26.27a20.65,20.65,0,0,0-8.2-1.85v0c-5.64.14-11.22,1.55-15.51,5.38C-5.5,41.6,1.24,57.55,6.1,62s8.12,5.19,8.48,5.84-.44,3-.89,4.62c-.51,1.85-1.8,5.08-.62,7.45s4.94,3.59,7.61,3.74,7.51-.18,9.3-2.08c1.34-1.42,1.2-4.2,1-5.52-.24-1.49-.51-3.55-.51-3.55s5.15.39,9.05.52c4.3.14,11.43.21,11.43.21s.31,3.5.35,4.49.4,5.73,1.28,6.7,2.26,2.54,7.51,2.37c6.73-.23,9.47-3.13,10.32-4.83.94-1.88.23-4.6,0-6.51s-1.47-6.61-1.47-6.61,5.26-3,7.22-4S82.22,61,82.22,61s.46,2.19.61,2.85c.21.92,1.77,2.38,6.93,2.23,6.5-.18,8.86-4.73,9.3-6.38s-.9-5.8-1.34-7.53-1.86-6.2-1.65-7.34S100.46,37.77,102.25,34.92Z"
               id="path49847" />
            <path
               class="cls-8"
               d="M32,39.87c.54,2.49-.64,5.13-3.4,5.48-2.27.29-4.13-1.23-4.67-3.72A4.39,4.39,0,0,1,27,36.23,4.39,4.39,0,0,1,32,39.87Z"
               id="path49849" />
            <path
               class="cls-8"
               d="M15.68,40.74c.17,2.52-1.94,5.13-4.69,4.73-2.27-.34-3.64-2.28-3.49-4.79a4.37,4.37,0,0,1,4.4-4.31C14.18,36.5,15.52,38.12,15.68,40.74Z"
               id="path49851" />
            <path
               class="cls-8"
               d="M23.11,49.76c1-.75,2.66-2.48,3.83-1.1s-.7,2.78-1.79,3.64-3.51,3-5.32,3-4.33-1.89-6-3.2c-1.37-1.07-2-2.49-1.33-3.39s1.88-.62,2.89.2c1.17,1,3.42,2.86,4.31,2.83S21.77,50.75,23.11,49.76Z"
               id="path49853" />
          </g>
        </g>
      </g>
    </g>
  </g>
  <g
     id="g8739"
     transform="matrix(1.2109692,-0.40066178,0.40066178,1.2109692,-38.992741,-2.4195684)"
     inkscape:label="Hat">
    <path
       fill="#dd2e44"
       d="m 50.008438,43.57252 c 0.01096,-0.09019 -0.0233,-0.184885 -0.08113,-0.280885 0,0 -11.659764,-19.349415 -12.931632,-19.49999 -1.271976,-0.148614 -17.095745,15.975997 -17.095745,15.975997 -0.07949,0.08048 -0.134418,0.163293 -0.144433,0.25454 -0.149097,1.263066 6.503563,3.079506 14.856939,4.060565 8.355344,0.981168 15.246902,0.752838 15.396001,-0.510227 z"
       id="path5268"
       style="stroke-width:1.39378" />
    <path
       fill="#ea596e"
       d="m 36.910444,23.815538 c -0.0451,0.01226 -0.09976,0.0369 -0.16307,0.07485 -1.27625,1.439349 -11.565988,13.519252 -14.338925,17.790308 2.168665,0.745234 4.657846,1.24669 7.662388,1.763932 1.414869,-3.989147 7.721325,-18.904972 6.83961,-19.629086 z"
       id="path5270"
       style="stroke-width:1.39378" />
  </g>
  <g
     id="g9662"
     transform="matrix(0.77218912,-0.63531367,0.63531367,0.77218912,-18.757707,41.157024)"
     inkscape:label="Confetti">
    <path
       fill="#77b255"
       d="m 75.628273,-14.482408 c 0.09167,4.8263642 -2.722455,7.4020308 -5.546587,7.4509785 -2.821857,0.049546 -5.730901,-2.4210625 -5.818605,-7.2439595 -0.03263,-1.882756 -0.733045,-2.628467 -1.01804,-2.627657 -0.29134,0.0065 -0.964218,0.781924 -0.930392,2.660125 0.08999,4.8234896 -2.726414,7.3985602 -5.550548,7.4475076 -2.825325,0.053499 -5.728618,-2.4204683 -5.815728,-7.2456426 -0.03551,-1.881074 -0.737601,-2.629659 -1.024387,-2.622017 -0.283908,0.006 -0.960744,0.777966 -0.927515,2.658444 0.0232,1.296117 -1.008861,2.374263 -2.307258,2.396865 -1.302354,0.01913 -2.373068,-1.01342 -2.397354,-2.314688 -0.0883,-4.820615 2.72186,-7.399754 5.551742,-7.452064 2.821856,-0.04954 5.725745,2.42215 5.817409,7.248518 0.03263,1.882755 0.733045,2.628466 1.01983,2.620822 0.285592,-0.0031 0.962427,-0.775091 0.928602,-2.653291 -0.08879,-4.828045 2.722456,-7.402031 5.55174,-7.452063 2.820176,-0.05242 5.724066,2.419273 5.815134,7.24792 0.03155,1.877603 0.738794,2.625104 1.01983,2.620822 0.289062,-0.0071 0.963024,-0.777369 0.932072,-2.657251 -0.02656,-1.301864 1.008267,-2.371982 2.307259,-2.396864 1.298393,-0.0226 2.373069,1.01342 2.392796,2.313495 z"
       id="path9165"
       style="stroke-width:2.35461" />
    <circle
       fill="#5c913b"
       cx="91.613846"
       cy="47.430138"
       r="3.5319221"
       id="circle9167"
       style="stroke-width:2.35461" />
    <circle
       fill="#9266cc"
       cx="66.867844"
       cy="10.202686"
       r="4.7092295"
       id="circle9169"
       style="stroke-width:2.35461" />
    <circle
       fill="#9266cc"
       cx="80.476624"
       cy="70.827919"
       r="4.7092295"
       id="circle9171"
       style="stroke-width:2.35461" />
    <circle
       fill="#5c913b"
       cx="11.448915"
       cy="43.715626"
       r="3.5319221"
       id="circle9173"
       style="stroke-width:2.35461" />
    <circle
       fill="#5c913b"
       cx="51.256451"
       cy="32.626095"
       r="3.5319221"
       id="circle9175"
       style="stroke-width:2.35461" />
    <circle
       fill="#ffcc4d"
       cx="93.915558"
       cy="14.275743"
       r="4.7092295"
       id="circle9177"
       style="stroke-width:2.35461" />
    <circle
       fill="#ffcc4d"
       cx="34.47023"
       cy="68.953568"
       r="3.5319221"
       id="circle9179"
       style="stroke-width:2.35461" />
    <circle
       fill="#ffcc4d"
       cx="28.946676"
       cy="5.1571012"
       r="3.5319221"
       id="circle9181"
       style="stroke-width:2.35461" />
    <path
       fill="#77b255"
       d="m 66.678626,100.30843 c -4.767344,0.75804 -7.707337,-1.672963 -8.146257,-4.463209 -0.439198,-2.787907 1.605507,-6.010581 6.369959,-6.764224 1.860166,-0.292614 2.501881,-1.089398 2.461677,-1.371543 -0.04667,-0.287652 -0.907721,-0.846855 -2.763208,-0.553689 -4.76473,0.75598 -7.704447,-1.677363 -8.143367,-4.467608 -0.443598,-2.790798 1.605231,-6.008244 6.372023,-6.761611 1.858102,-0.295227 2.502434,-1.094076 2.455214,-1.377051 -0.04516,-0.280358 -0.90332,-0.843963 -2.761145,-0.551074 -1.280467,0.202177 -2.490938,-0.670929 -2.692833,-1.953725 -0.199002,-1.287204 0.675604,-2.490387 1.961019,-2.694344 4.762113,-0.753915 7.704996,1.672691 8.148044,4.468164 0.439199,2.787903 -1.607294,6.005629 -6.374637,6.76367 -1.860165,0.292613 -2.501881,1.089398 -2.454662,1.372372 0.04254,0.282422 0.900707,0.846026 2.756194,0.552859 4.769406,-0.755429 7.707338,1.672964 8.148047,4.468162 0.441815,2.785848 -1.604684,6.003566 -6.374365,6.761333 -1.855211,0.290828 -2.497756,1.094627 -2.45466,1.372373 0.04695,0.285312 0.903044,0.846303 2.760594,0.555749 1.285691,-0.206292 2.488596,0.67065 2.692832,1.95373 0.201891,1.282799 -0.675609,2.490386 -1.960469,2.689666 z"
       id="path9584"
       style="stroke-width:2.35461" />
    <path
       fill="#aa8dd8"
       d="m 112.06322,18.258898 c 0.46153,-0.385327 1.06997,-0.594387 1.71864,-0.538068 2.04519,0.183599 3.77925,0.862789 5.003,1.963531 1.29558,1.165354 1.95128,2.749946 1.80895,4.351631 -0.25191,2.809477 -3.01763,5.436944 -7.82744,5.00767 -1.87058,-0.165629 -2.69053,0.450044 -2.71352,0.735425 -0.0277,0.285467 0.6715,1.037938 2.54214,1.205919 2.04518,0.183599 3.77925,0.862789 5.00299,1.963531 1.29558,1.165355 1.95599,2.74986 1.80895,4.351632 -0.25187,2.81183 -3.01763,5.436943 -7.82269,5.009937 -1.36343,-0.120831 -2.07629,0.172583 -2.37663,0.359465 -0.23974,0.152816 -0.33362,0.298187 -0.34156,0.378401 -0.023,0.283028 0.66676,1.035667 2.5421,1.203565 1.29507,0.117383 2.25349,1.260708 2.1361,2.555777 -0.11503,1.295025 -1.25604,2.251043 -2.55578,2.136103 -4.80505,-0.427007 -7.06612,-3.500935 -6.81429,-6.315122 0.25186,-2.811829 3.01762,-5.436943 7.82743,-5.007669 1.36348,0.123185 2.07158,-0.172496 2.37193,-0.359378 0.24212,-0.150518 0.33601,-0.295874 0.3416,-0.376047 0.0277,-0.285468 -0.66681,-1.038022 -2.54214,-1.205919 -4.8051,-0.429361 -7.06612,-3.500934 -6.8143,-6.315119 0.25187,-2.811832 3.01759,-5.439298 7.82277,-5.005229 1.36343,0.120831 2.07625,-0.174936 2.37659,-0.36182 0.23981,-0.150409 0.33366,-0.295832 0.3416,-0.376045 0.023,-0.285383 -0.6715,-1.037939 -2.54214,-1.205921 -1.29502,-0.115028 -2.25348,-1.260705 -2.1361,-2.555777 0.0633,-0.651155 0.38031,-1.212792 0.8418,-1.600473 z"
       id="path9586"
       style="stroke-width:2.35461" />
    <path
       fill="#aa8dd8"
       d="m 59.688164,35.991412 c 0.59654,0.07504 1.164249,0.377717 1.565206,0.890722 1.259767,1.621578 1.944838,3.353328 1.973612,4.999032 0.03047,1.742317 -0.681985,3.30221 -1.950931,4.289853 -2.22735,1.730765 -6.035062,1.498154 -8.999572,-2.313698 -1.153895,-1.481566 -2.163289,-1.661833 -2.387769,-1.48413 -0.227744,0.174326 -0.301707,1.198836 0.850501,2.682043 1.259767,1.621578 1.944838,3.353317 1.973611,4.999031 0.03047,1.742317 -0.678712,3.305601 -1.95093,4.289854 -2.229042,1.732397 -6.035063,1.498153 -8.997993,-2.308678 -0.840973,-1.079954 -1.541578,-1.401541 -1.883048,-1.49391 -0.275226,-0.07124 -0.445583,-0.04083 -0.509687,0.008 -0.222794,0.176069 -0.303282,1.193814 0.852193,2.680411 0.796901,1.027594 0.613653,2.508186 -0.413935,3.305087 -1.025953,0.798589 -2.503222,0.615401 -3.305088,-0.41394 -2.962927,-3.806832 -2.255051,-7.556545 -0.02431,-9.290574 2.229042,-1.732397 6.035062,-1.498154 8.999571,2.313699 0.83928,1.081596 1.538305,1.398152 1.879773,1.490523 0.275174,0.07454 0.445528,0.04417 0.50799,-0.0064 0.227755,-0.174323 0.304971,-1.195455 -0.850501,-2.682053 -2.961237,-3.808463 -2.255052,-7.556535 -0.02432,-9.290573 2.229045,-1.732398 6.036756,-1.499786 8.994607,2.311951 0.840973,1.079964 1.543271,1.39991 1.884739,1.49227 0.273515,0.07294 0.443891,0.04248 0.507989,-0.0064 0.224487,-0.177702 0.301709,-1.198836 -0.850498,-2.682044 -0.79859,-1.025962 -0.613651,-2.508197 0.41394,-3.305097 0.519608,-0.39752 1.146612,-0.548429 1.744842,-0.475035 z"
       id="path12881"
       style="stroke-width:2.35461" />
  </g>
</svg>
