<?xml version="1.0" encoding="UTF-8" standalone="no"?>
<svg
   width="39.45mm"
   height="42.63mm"
   viewBox="0 0 111.84 120.83"
   version="1.1"
   id="svg27858"
   xmlns="http://www.w3.org/2000/svg"
   xmlns:svg="http://www.w3.org/2000/svg">
  <defs
     id="defs27820">
    <style
       id="style27818">
      .cls-1 {
        fill: #178f55;
      }

      .cls-2 {
        fill: #de2f45;
      }

      .cls-3 {
        fill: #2b2c29;
      }

      .cls-4 {
        fill: #bf1a32;
      }

      .cls-5 {
        fill: #fff;
      }
    </style>
  </defs>
  <g
     id="Layer_2"
     data-name="Layer 2">
    <g
       id="grid">
      <g
         id="ml_copy"
         data-name="ml copy">
        <g
           id="mints">
          <g
             id="g27852">
            <path
               class="cls-1"
               d="M95.19,65.42l4.27-2.63c.86-.53,4-2.67,5.21-1,.73,1-.46,4-2.42,7.09-1.79,2.85-6,8.73-6.18,9.87s1.21,5.6,1.65,7.33,1.78,5.9,1.34,7.54-2.8,6.2-9.3,6.38c-5.16.14-6.72-1.31-6.93-2.23-.15-.66-.61-2.85-.61-2.85s-4.14,2.79-6.1,3.87-7.22,4-7.22,4,1.22,4.7,1.47,6.61.95,4.63,0,6.5c-.85,1.71-3.59,4.61-10.32,4.83-5.25.18-6.64-1.4-7.51-2.36s-1.24-5.71-1.28-6.7-.35-4.49-.35-4.49-7.13-.07-11.43-.21c-3.9-.13-9-.52-9-.52s.27,2.06.51,3.54.37,4.11-1,5.52c-1.79,1.91-6.63,2.23-9.3,2.08s-6.43-1.37-7.61-3.74.11-5.59.62-7.44c.45-1.63,1.26-4,.89-4.62S10.94,100.51,6.1,96-5.5,75.59,7.72,63.77,46.63,63.19,48,64,95.19,65.42,95.19,65.42Z"
               id="path27822" />
            <path
               class="cls-2"
               d="M52.77,37c-12.34,1-21.37,7.54-25.7,14.41a56.4,56.4,0,0,0-3.85,7,20.76,20.76,0,0,1,8.2,1.86C36,62.46,41.2,64.82,45,75.84c2.88,8.32,4.19,16.3,10.88,17.8,7.57,1.69,25,0,33.06-8.45s9.42-14.64,7-22.55-12.57-21.76-26-25C64.12,36.26,58.37,36.49,52.77,37Z"
               id="path27824" />
            <path
               class="cls-3"
               d="M32,73.86c.54,2.5-.64,5.14-3.4,5.49-2.27.28-4.13-1.23-4.67-3.72A4.4,4.4,0,0,1,27,70.22,4.41,4.41,0,0,1,32,73.86Z"
               id="path27826" />
            <path
               class="cls-3"
               d="M15.68,74.74c.17,2.51-1.94,5.13-4.69,4.73-2.27-.34-3.64-2.28-3.49-4.8a4.37,4.37,0,0,1,4.4-4.31C14.18,70.5,15.52,72.11,15.68,74.74Z"
               id="path27828" />
            <path
               class="cls-3"
               d="M23.11,83.75c1-.74,2.66-2.48,3.83-1.09s-.7,2.78-1.79,3.63-3.51,3-5.32,3-4.33-1.89-6-3.2c-1.37-1.06-2-2.48-1.33-3.38s1.88-.63,2.89.19c1.17,1,3.42,2.87,4.31,2.83S21.77,84.75,23.11,83.75Z"
               id="path27830" />
            <path
               class="cls-2"
               d="M102.81,40.13c14-6.11,9.55-24.55,1.14-24.52l-15.4.84L81,3C76.57-4.15,58.59,1.92,60.9,17l1.74,11.32C65,43.46,78.3,50.82,92.31,44.71Z"
               id="path27832" />
            <path
               class="cls-4"
               d="M62.47,27.06l.2,1.29C65,43.46,78.33,50.82,92.34,44.71l3.13-1.36A38.76,38.76,0,0,0,82.41,32C75.55,28.18,68.39,26.58,62.47,27.06Z"
               id="path27834" />
            <g
               id="g27842">
              <path
                 class="cls-5"
                 d="M41.82,68.91A34.54,34.54,0,0,1,45,75.84c.25.71.48,1.43.71,2.14A54.86,54.86,0,0,0,59.4,74,52,52,0,0,1,41.82,68.91Z"
                 id="path27836" />
              <path
                 class="cls-5"
                 d="M59.65,74.16C54.54,63.51,57.16,49,66.06,41.71a33.12,33.12,0,0,0-20.35,2C45.21,52.37,48.43,63.43,59.65,74.16Z"
                 id="path27838" />
              <path
                 class="cls-5"
                 d="M28.92,59.14s-.05.1-.08.14l.27.08Z"
                 id="path27840" />
            </g>
            <g
               id="g27850">
              <path
                 class="cls-5"
                 d="M48.7,86.54c1.49,3.41,3.4,6,6.66,6.93a45,45,0,0,0,4.26-19.53A44.67,44.67,0,0,1,48.7,86.54Z"
                 id="path27844" />
              <path
                 class="cls-5"
                 d="M68.26,93.85a45.51,45.51,0,0,0,13.51-3.68c-3.19-7.1-9.8-13.55-22.15-16.23A32.92,32.92,0,0,1,68.26,93.85Z"
                 id="path27846" />
              <path
                 class="cls-5"
                 d="M59.62,73.94c8.17-4.45,23.09-3,33.25,4.12a34.13,34.13,0,0,0-.2-8.07A33.66,33.66,0,0,0,89,58.93C79.13,57.37,67.58,60,59.62,73.94Z"
                 id="path27848" />
            </g>
          </g>
        </g>
      </g>
    </g>
  </g>
  <g
     id="g8739"
     transform="matrix(1.2405575,-0.29686065,0.29686065,1.2405575,-34.552109,26.811743)">
    <path
       fill="#dd2e44"
       d="m 50.008438,43.57252 c 0.01096,-0.09019 -0.0233,-0.184885 -0.08113,-0.280885 0,0 -11.659764,-19.349415 -12.931632,-19.49999 -1.271976,-0.148614 -17.095745,15.975997 -17.095745,15.975997 -0.07949,0.08048 -0.134418,0.163293 -0.144433,0.25454 -0.149097,1.263066 6.503563,3.079506 14.856939,4.060565 8.355344,0.981168 15.246902,0.752838 15.396001,-0.510227 z"
       id="path5268"
       style="fill:#bf1a32;fill-opacity:1;stroke-width:1.39378" />
    <path
       fill="#ea596e"
       d="m 36.910444,23.815538 c -0.0451,0.01226 -0.09976,0.0369 -0.16307,0.07485 -1.27625,1.439349 -11.565988,13.519252 -14.338925,17.790308 2.168665,0.745234 4.657846,1.24669 7.662388,1.763932 1.414869,-3.989147 7.721325,-18.904972 6.83961,-19.629086 z"
       id="path5270"
       style="fill:#de2f45;fill-opacity:1;stroke-width:1.39378" />
  </g>
  <g
     id="g9662"
     transform="matrix(-0.26098587,0.96533283,-0.96533283,-0.26098587,111.13064,7.3257808)">
    <path
       fill="#77b255"
       d="m 93.375006,46.880026 c 2.94555,-3.824385 6.752184,-4.075514 8.987064,-2.348256 2.23349,1.725365 2.95958,5.472262 0.0131,9.291443 -1.1515,1.489922 -1.07099,2.509816 -0.84804,2.687344 0.23146,0.177053 1.2414,-0.0075 2.38912,-1.494654 2.94509,-3.821073 6.75311,-4.070328 8.988,-2.34307 2.23865,1.72445 2.95816,5.470374 0.01,9.290961 -1.14821,1.490409 -1.06818,2.513594 -0.83957,2.686909 0.22535,0.172797 1.23621,-0.0066 2.38583,-1.49514 0.79214,-1.026145 2.27167,-1.22248 3.29922,-0.428448 1.02847,0.799214 1.21869,2.274478 0.42418,3.305322 -2.94461,3.817772 -6.7503,4.074107 -8.99177,2.34588 -2.23347,-1.725373 -2.95487,-5.46989 -0.009,-9.294255 1.15151,-1.489922 1.07099,-2.509816 0.84237,-2.683129 -0.22484,-0.176113 -1.23572,0.0033 -2.38345,1.49044 -2.94887,3.823878 -6.75219,4.075512 -8.991774,2.34588 -2.23396,-1.722074 -2.95536,-5.466595 -0.008,-9.292367 1.14913,-1.485224 1.0644,-2.510783 0.84237,-2.683126 -0.23005,-0.175161 -1.23762,0.0047 -2.38864,1.491359 -0.7931,1.032731 -2.26977,1.22107 -3.29921,0.428447 -1.02755,-0.794031 -1.2187,-2.274481 -0.42137,-3.30154 z"
       id="path9165"
       style="stroke-width:2.35461" />
    <circle
       fill="#5c913b"
       cx="25.543264"
       cy="71.200089"
       r="3.5319221"
       id="circle9167"
       style="stroke-width:2.35461" />
    <circle
       fill="#9266cc"
       cx="56.544556"
       cy="0.36092868"
       r="4.7092295"
       id="circle9169"
       style="stroke-width:2.35461" />
    <circle
       fill="#9266cc"
       cx="27.711962"
       cy="97.943176"
       r="4.7092295"
       id="circle9171"
       style="stroke-width:2.35461" />
    <circle
       fill="#5c913b"
       cx="41.496468"
       cy="-0.38203356"
       r="3.5319221"
       id="circle9173"
       style="stroke-width:2.35461" />
    <circle
       fill="#5c913b"
       cx="82.744926"
       cy="25.769674"
       r="3.5319221"
       id="circle9175"
       style="stroke-width:2.35461" />
    <circle
       fill="#ffcc4d"
       cx="77.681313"
       cy="53.042442"
       r="4.7092295"
       id="circle9177"
       style="stroke-width:2.35461" />
    <circle
       fill="#ffcc4d"
       cx="7.9232831"
       cy="24.954374"
       r="3.5319221"
       id="circle9179"
       style="stroke-width:2.35461" />
    <circle
       fill="#ffcc4d"
       cx="117.24697"
       cy="44.906483"
       r="3.5319221"
       id="circle9181"
       style="stroke-width:2.35461" />
    <path
       fill="#77b255"
       d="m 55.625223,93.165282 c -4.767344,0.75804 -7.707337,-1.672963 -8.146257,-4.463209 -0.439198,-2.787907 1.605507,-6.010581 6.369959,-6.764224 1.860166,-0.292614 2.501881,-1.089398 2.461677,-1.371543 -0.04667,-0.287652 -0.907721,-0.846855 -2.763208,-0.553689 -4.76473,0.75598 -7.704447,-1.677363 -8.143367,-4.467608 -0.443598,-2.790798 1.605231,-6.008244 6.372023,-6.761611 1.858102,-0.295227 2.502434,-1.094076 2.455214,-1.377051 -0.04516,-0.280358 -0.90332,-0.843963 -2.761145,-0.551074 -1.280467,0.202177 -2.490938,-0.670929 -2.692833,-1.953725 -0.199002,-1.287204 0.675604,-2.490387 1.961019,-2.694344 4.762113,-0.753915 7.704996,1.672691 8.148044,4.468164 0.439199,2.787903 -1.607294,6.005629 -6.374637,6.76367 -1.860165,0.292613 -2.501881,1.089398 -2.454662,1.372372 0.04254,0.282422 0.900707,0.846026 2.756194,0.552859 4.769406,-0.755429 7.707338,1.672964 8.148047,4.468162 0.441815,2.785848 -1.604684,6.003566 -6.374365,6.761333 -1.855211,0.290828 -2.497756,1.094627 -2.45466,1.372373 0.04695,0.285312 0.903044,0.846303 2.760594,0.555749 1.285691,-0.206292 2.488596,0.67065 2.692832,1.95373 0.201891,1.282799 -0.675609,2.490386 -1.960469,2.689666 z"
       id="path9584"
       style="stroke-width:2.35461" />
    <path
       fill="#aa8dd8"
       d="m 94.74835,-13.271194 c 0.461533,-0.385327 1.069973,-0.594387 1.718643,-0.538068 2.04519,0.183599 3.779247,0.862789 5.002997,1.963531 1.29558,1.165354 1.95128,2.7499459 1.80895,4.3516309 -0.25191,2.8094771 -3.01763,5.4369441 -7.827437,5.0076701 -1.870583,-0.165629 -2.690533,0.450044 -2.713523,0.735425 -0.0277,0.285467 0.6715,1.03793798 2.542143,1.20591898 2.04518,0.183599 3.77925,0.862789 5.002987,1.96353102 1.29558,1.165355 1.95599,2.74986 1.80895,4.351632 -0.25187,2.81183 -3.017627,5.436943 -7.82269,5.009937 -1.36343,-0.120831 -2.07629,0.172583 -2.37663,0.359465 -0.23974,0.152816 -0.33362,0.298187 -0.34156,0.378401 -0.023,0.283028 0.66676,1.035667 2.5421,1.203565 1.295073,0.117383 2.253493,1.260708 2.136103,2.555777 -0.11503,1.295025 -1.25604,2.251043 -2.555783,2.136103 -4.80505,-0.427007 -7.06612,-3.500935 -6.81429,-6.315122 0.25186,-2.811829 3.01762,-5.436943 7.82743,-5.007669 1.363483,0.123185 2.071583,-0.172496 2.371933,-0.359378 0.24212,-0.150518 0.33601,-0.295874 0.3416,-0.376047 0.0277,-0.285468 -0.66681,-1.038022 -2.54214,-1.205919 C 90.05303,3.719829 87.79201,0.64825598 88.04383,-2.165929 c 0.25187,-2.811832 3.01759,-5.4392981 7.822773,-5.0052291 1.36343,0.120831 2.07625,-0.174936 2.37659,-0.36182 0.23981,-0.150409 0.33366,-0.295832 0.3416,-0.376045 0.023,-0.285383 -0.6715,-1.037939 -2.54214,-1.205921 -1.295023,-0.115028 -2.253483,-1.2607049 -2.136103,-2.5557769 0.0633,-0.651155 0.38031,-1.212792 0.8418,-1.600473 z"
       id="path9586"
       style="stroke-width:2.35461" />
    <path
       fill="#aa8dd8"
       d="m 52.271044,20.604792 c 0.59654,0.07504 1.164249,0.377717 1.565206,0.890722 1.259767,1.621578 1.944838,3.353328 1.973612,4.999032 0.03047,1.742317 -0.681985,3.30221 -1.950931,4.289853 -2.22735,1.730765 -6.035062,1.498154 -8.999572,-2.313698 -1.153895,-1.481566 -2.163289,-1.661833 -2.387769,-1.48413 -0.227744,0.174326 -0.301707,1.198836 0.850501,2.682043 1.259767,1.621578 1.944838,3.353317 1.973611,4.999031 0.03047,1.742317 -0.678712,3.305601 -1.95093,4.289854 -2.229042,1.732397 -6.035063,1.498153 -8.997993,-2.308678 -0.840973,-1.079954 -1.541578,-1.401541 -1.883048,-1.49391 -0.275226,-0.07124 -0.445583,-0.04083 -0.509687,0.008 -0.222794,0.176069 -0.303282,1.193814 0.852193,2.680411 0.796901,1.027594 0.613653,2.508186 -0.413935,3.305087 -1.025953,0.798589 -2.503223,0.615401 -3.305089,-0.41394 -2.962927,-3.806832 -2.255051,-7.556545 -0.02431,-9.290574 2.229043,-1.732397 6.035063,-1.498154 8.999572,2.313699 0.83928,1.081596 1.538305,1.398152 1.879773,1.490523 0.275174,0.07454 0.445528,0.04417 0.50799,-0.0064 0.227755,-0.174323 0.304971,-1.195455 -0.850501,-2.682053 -2.961237,-3.808463 -2.255052,-7.556535 -0.02432,-9.290573 2.229045,-1.732398 6.036756,-1.499786 8.994607,2.311951 0.840973,1.079964 1.543271,1.39991 1.884739,1.49227 0.273515,0.07294 0.443891,0.04248 0.507989,-0.0064 0.224487,-0.177702 0.301709,-1.198836 -0.850498,-2.682044 -0.79859,-1.025962 -0.613651,-2.508197 0.41394,-3.305097 0.519608,-0.39752 1.146612,-0.548429 1.744842,-0.475035 z"
       id="path12881"
       style="stroke-width:2.35461" />
  </g>
</svg>
