<svg xmlns="http://www.w3.org/2000/svg" width="39.45mm" height="42.63mm" viewBox="0 0 111.84 120.83">
  <defs>
    <style>
      .cls-1 {
        fill: #178f55;
      }

      .cls-2 {
        fill: #de2f45;
      }

      .cls-3 {
        fill: #2b2c29;
      }

      .cls-4 {
        fill: #bf1a32;
      }

      .cls-5 {
        fill: #fff;
      }
    </style>
  </defs>
  <g id="Layer_2" data-name="Layer 2">
    <g id="grid">
      <g id="ml_copy" data-name="ml copy">
        <g id="mints">
          <g>
            <path class="cls-1" d="M95.19,65.42l4.27-2.63c.86-.53,4-2.67,5.21-1,.73,1-.46,4-2.42,7.09-1.79,2.85-6,8.73-6.18,9.87s1.21,5.6,1.65,7.33,1.78,5.9,1.34,7.54-2.8,6.2-9.3,6.38c-5.16.14-6.72-1.31-6.93-2.23-.15-.66-.61-2.85-.61-2.85s-4.14,2.79-6.1,3.87-7.22,4-7.22,4,1.22,4.7,1.47,6.61.95,4.63,0,6.5c-.85,1.71-3.59,4.61-10.32,4.83-5.25.18-6.64-1.4-7.51-2.36s-1.24-5.71-1.28-6.7-.35-4.49-.35-4.49-7.13-.07-11.43-.21c-3.9-.13-9-.52-9-.52s.27,2.06.51,3.54.37,4.11-1,5.52c-1.79,1.91-6.63,2.23-9.3,2.08s-6.43-1.37-7.61-3.74.11-5.59.62-7.44c.45-1.63,1.26-4,.89-4.62S10.94,100.51,6.1,96-5.5,75.59,7.72,63.77,46.63,63.19,48,64,95.19,65.42,95.19,65.42Z"/>
            <path class="cls-2" d="M52.77,37c-12.34,1-21.37,7.54-25.7,14.41a56.4,56.4,0,0,0-3.85,7,20.76,20.76,0,0,1,8.2,1.86C36,62.46,41.2,64.82,45,75.84c2.88,8.32,4.19,16.3,10.88,17.8,7.57,1.69,25,0,33.06-8.45s9.42-14.64,7-22.55-12.57-21.76-26-25C64.12,36.26,58.37,36.49,52.77,37Z"/>
            <path class="cls-3" d="M32,73.86c.54,2.5-.64,5.14-3.4,5.49-2.27.28-4.13-1.23-4.67-3.72A4.4,4.4,0,0,1,27,70.22,4.41,4.41,0,0,1,32,73.86Z"/>
            <path class="cls-3" d="M15.68,74.74c.17,2.51-1.94,5.13-4.69,4.73-2.27-.34-3.64-2.28-3.49-4.8a4.37,4.37,0,0,1,4.4-4.31C14.18,70.5,15.52,72.11,15.68,74.74Z"/>
            <path class="cls-3" d="M23.11,83.75c1-.74,2.66-2.48,3.83-1.09s-.7,2.78-1.79,3.63-3.51,3-5.32,3-4.33-1.89-6-3.2c-1.37-1.06-2-2.48-1.33-3.38s1.88-.63,2.89.19c1.17,1,3.42,2.87,4.31,2.83S21.77,84.75,23.11,83.75Z"/>
            <path class="cls-2" d="M102.81,40.13c14-6.11,9.55-24.55,1.14-24.52l-15.4.84L81,3C76.57-4.15,58.59,1.92,60.9,17l1.74,11.32C65,43.46,78.3,50.82,92.31,44.71Z"/>
            <path class="cls-4" d="M62.47,27.06l.2,1.29C65,43.46,78.33,50.82,92.34,44.71l3.13-1.36A38.76,38.76,0,0,0,82.41,32C75.55,28.18,68.39,26.58,62.47,27.06Z"/>
            <g>
              <path class="cls-5" d="M41.82,68.91A34.54,34.54,0,0,1,45,75.84c.25.71.48,1.43.71,2.14A54.86,54.86,0,0,0,59.4,74,52,52,0,0,1,41.82,68.91Z"/>
              <path class="cls-5" d="M59.65,74.16C54.54,63.51,57.16,49,66.06,41.71a33.12,33.12,0,0,0-20.35,2C45.21,52.37,48.43,63.43,59.65,74.16Z"/>
              <path class="cls-5" d="M28.92,59.14s-.05.1-.08.14l.27.08Z"/>
            </g>
            <g>
              <path class="cls-5" d="M48.7,86.54c1.49,3.41,3.4,6,6.66,6.93a45,45,0,0,0,4.26-19.53A44.67,44.67,0,0,1,48.7,86.54Z"/>
              <path class="cls-5" d="M68.26,93.85a45.51,45.51,0,0,0,13.51-3.68c-3.19-7.1-9.8-13.55-22.15-16.23A32.92,32.92,0,0,1,68.26,93.85Z"/>
              <path class="cls-5" d="M59.62,73.94c8.17-4.45,23.09-3,33.25,4.12a34.13,34.13,0,0,0-.2-8.07A33.66,33.66,0,0,0,89,58.93C79.13,57.37,67.58,60,59.62,73.94Z"/>
            </g>
          </g>
        </g>
      </g>
    </g>
  </g>
</svg>
