<svg xmlns="http://www.w3.org/2000/svg" width="45.03mm" height="61.15mm" viewBox="0 0 127.64 173.35">
  <defs>
    <style>
      .cls-1 {
        fill: #3d7abe;
      }

      .cls-2 {
        fill: #2b2c29;
      }
    </style>
  </defs>
  <g id="Layer_2" data-name="Layer 2">
    <g id="gods">
      <g>
        <path class="cls-1" d="M45,20.24C32.3,30.15,16.71,44.11,11.68,57.35,13.84,65.42,19.43,70.7,25,75.89,30.7,57,37.55,36.8,45,20.24Z"/>
        <path class="cls-1" d="M88.24,20.28C96.4,39.84,103.12,58,108.17,75.89c5-5.27,12.41-11,13.35-18.54C113.3,40.22,101.39,30.41,88.24,20.28Z"/>
        <path class="cls-1" d="M28,95.84A28.92,28.92,0,0,1,39,98.93l.28.15c5.35,2.85,12.66,6.75,17.08,21.33.49,1.62.93,3.22,1.36,4.78,1.88,6.87,3.18,11.13,6.12,11.91a32.75,32.75,0,0,0,7.8.8c7.72,0,18.74-1.94,24.38-7.41,7.84-7.61,8.78-12.24,7.75-17.67a5.66,5.66,0,0,1,2.8-6l1.26-.72A300.34,300.34,0,0,0,100,73.88,388,388,0,0,0,80.32,20.81C78.54,16.76,72.22-.09,66.6,0,60.38.1,55,16.26,52.87,20.81A389.28,389.28,0,0,0,33.15,73.88C30.94,81.39,29,88.82,27.46,95.79,27.65,95.81,27.84,95.81,28,95.84Z"/>
        <path class="cls-1" d="M115.59,116.85c2.35-3.42,3.82-6.7,3-7.86-1.31-2-4.92.28-5.91.84l-3.44,1.93c1.51,7.94-.75,14.43-9.37,22.8-9.43,9.15-29.14,10.27-37.59,8-7.46-2-8.57-11-11.44-20.52-3.81-12.57-9.61-15.46-14.61-18.13a23.28,23.28,0,0,0-9.15-2.46v0c-6.34-.1-12.69,1.24-17.69,5.36C-6,119.51.91,137.77,6.17,143s8.91,6.2,9.29,6.95-.64,3.35-1.22,5.16c-.65,2.06-2.25,5.63-1,8.35s5.4,4.27,8.4,4.55,8.45.14,10.56-1.92c1.57-1.53,1.53-4.67,1.34-6.17-.21-1.68-.42-4-.42-4s5.78.67,10.16,1c4.84.35,12.86.75,12.86.75s.19,3.95.19,5.07.19,6.47,1.13,7.6,2.43,3,8.35,3c7.58.05,10.8-3.09,11.83-5,1.14-2.07.47-5.16.28-7.32s-1.36-7.51-1.36-7.51,6.06-3.1,8.31-4.22,7-4.08,7-4.08.42,2.49.56,3.24c.19,1,1.88,2.75,7.7,2.82,7.32.09,10.18-4.93,10.75-6.76s-.75-6.57-1.17-8.54-1.81-7.06-1.53-8.33S113.45,120,115.59,116.85Z"/>
        <path class="cls-2" d="M36.28,119.25c.5,2.83-1,5.75-4.07,6-2.56.22-4.59-1.57-5.09-4.4a5,5,0,0,1,3.68-5.94A5,5,0,0,1,36.28,119.25Z"/>
        <path class="cls-2" d="M17.92,119.5c.07,2.84-2.42,5.69-5.5,5.11-2.53-.48-4-2.73-3.71-5.55a4.93,4.93,0,0,1,5.15-4.65C16.42,114.66,17.85,116.54,17.92,119.5Z"/>
        <path class="cls-2" d="M25.87,130c1.16-.79,3.1-2.67,4.36-1.06s-.92,3.1-2.18,4S24,136.1,21.93,136.1s-4.79-2.32-6.62-3.87c-1.49-1.26-2.18-2.89-1.34-3.87s2.14-.62,3.24.35c1.27,1.13,3.72,3.38,4.72,3.38S24.32,131,25.87,130Z"/>
        <path class="cls-1" d="M123.54,92.77c.37,1.59,1.1,3.43.84,5.09-.7,3.68-5.43,7.65-9.74,11.51a31.57,31.57,0,0,0-4.57,4.72c-.31.43,3,1.27,3.85.39s1.8-1.8,2.84-2.73c4.2-3.75,9.7-7.71,10.75-13.29a12.81,12.81,0,0,0-.63-5.66c-1.2-4.26-3.83-9.55-7.27-11.72-1.17,2.78-1.81,6.86.27,12.17A10.48,10.48,0,0,0,123.54,92.77Z"/>
      </g>
    </g>
  </g>
</svg>
