<svg xmlns="http://www.w3.org/2000/svg" width="104.89" height="122.44" viewBox="0 0 104.89 122.44">
  <defs>
    <style>
      .cls-1 {
        fill: #ebbd24;
      }

      .cls-2 {
        fill: #1d1e1c;
      }

      .cls-3 {
        fill: #662113;
      }
    </style>
  </defs>
  <g id="Layer_2" data-name="Layer 2">
    <g id="grid">
      <g id="hybrids">
        <g id="lovers">
          <g>
            <path class="cls-1" d="M95.19,67l4.27-2.64c.86-.53,4-2.66,5.21-1,.73,1-.46,4-2.42,7.08-1.79,2.85-6,8.74-6.18,9.87s1.21,5.61,1.65,7.34,1.78,5.89,1.34,7.53-2.8,6.2-9.3,6.38c-5.16.15-6.72-1.31-6.93-2.22-.15-.66-.61-2.86-.61-2.86s-4.14,2.8-6.1,3.87-7.22,4-7.22,4,1.22,4.71,1.47,6.62.95,4.62,0,6.5c-.85,1.7-3.59,4.6-10.32,4.83-5.25.17-6.64-1.41-7.51-2.37s-1.24-5.7-1.28-6.7-.35-4.49-.35-4.49-7.13-.07-11.43-.21c-3.9-.13-9-.52-9-.52s.27,2.06.51,3.55c.23,1.32.37,4.11-1,5.52-1.79,1.9-6.63,2.23-9.3,2.08s-6.43-1.37-7.61-3.74.11-5.6.62-7.45c.45-1.62,1.26-4,.89-4.62s-3.64-1.35-8.48-5.83S-5.5,77.21,7.72,65.38s38.91-.58,40.27.21S95.19,67,95.19,67Z"/>
            <path class="cls-2" d="M32,75.48c.54,2.49-.64,5.13-3.4,5.48-2.27.29-4.13-1.23-4.67-3.72A4.39,4.39,0,0,1,27,71.84,4.4,4.4,0,0,1,32,75.48Z"/>
            <path class="cls-2" d="M15.68,76.35c.17,2.52-1.94,5.14-4.69,4.73-2.27-.34-3.64-2.28-3.49-4.79A4.37,4.37,0,0,1,11.9,72C14.18,72.11,15.52,73.73,15.68,76.35Z"/>
            <path class="cls-2" d="M23.11,85.37c1-.74,2.66-2.48,3.83-1.1s-.7,2.79-1.79,3.64-3.51,3-5.32,3-4.33-1.89-6-3.2c-1.37-1.07-2-2.49-1.33-3.39s1.88-.62,2.89.2c1.17,1,3.42,2.87,4.31,2.83S21.77,86.36,23.11,85.37Z"/>
            <path class="cls-3" d="M99,74.75a37.15,37.15,0,0,0-2.67-9.24c-.11-.41-.22-.83-.36-1.26-2.44-7.91-12.57-21.76-26-25-5.81-1.39-11.56-1.16-17.16-.69C40.43,39.63,31.4,46.12,27.07,53a56.86,56.86,0,0,0-3.85,7,21,21,0,0,1,5.42.81,17.27,17.27,0,0,1,2.78,1C36,64.08,41.2,66.43,45,77.45c2.88,8.33,4.19,16.3,10.88,17.8l.29.06a48.15,48.15,0,0,1,7.25-1.67,62.3,62.3,0,0,1,14-.17C91.84,94.61,102.28,97.3,99,74.75Z"/>
            <path class="cls-1" d="M94.22,60.06C93.81,59.2,93,57.89,93,57.89s0,1.82-.11,2.79c-.19,1.57-.92,4.85-1.43,4.39A105.24,105.24,0,0,1,84,56.28c-1.6-2.18-7.06-7.81-7.26-9.72a19.52,19.52,0,0,1,1-4.17l-2.14-1.1a21.18,21.18,0,0,0-2-.84s-.51,4.38-1.23,5.22-4.63,2.5-7.73,3.81c-3.75,1.59-7.36,3.61-8.73,3.92-1.2.27-8.11-.93-10.72-1.33-3.27-.49-8.22-1.68-9.38-2.44A13.73,13.73,0,0,1,33,46.39s-.77.57-1.53,1.22a15.79,15.79,0,0,0-1.72,1.9s2.13,2,2.28,2.74c.2,1.06-1,2.55-2,4-.61.85-2.27,4.4-2.27,4.4a6.72,6.72,0,0,1,1.93.48c1.11.47,2.16.95,2.16.95s2.39-6.23,4.08-6.86c1.44-.53,5.62.66,8.64,1.16,4.29.71,8.62,1.32,9.58,2.43s2.06,5.86,3.08,9.82c1.12,4.35,4,15.63,3.48,16.52s-5,.76-7.61.55a33.78,33.78,0,0,1-5.75-1.33s.59,1.85.78,2.34c.27.71,1.13,2.67,1.13,2.67s5.12,2,19.93.05S90.86,77,92.76,72.44c2.55-6.13,2.77-9.34,2.77-9.34S94.63,60.93,94.22,60.06ZM81.44,80c-3.66,2.52-13.29,5.41-15.08,4.54-1.44-.7-4-12.23-5.2-17.37-.78-3.29-2.51-8.27-1.65-9.88.58-1.09,4.14-2.82,6.77-4.18s6.07-3,7.14-2.94c1.52.11,5,5.24,8.39,9.61s7.18,8.91,7.3,10.53S85.22,77.44,81.44,80Z"/>
            <path class="cls-3" d="M19.11,42c2.7,5.86,1.79,12-2,13.78S8,54.19,5.31,48.34s-1.8-12,2-13.79S16.41,36.12,19.11,42Z"/>
            <path class="cls-3" d="M99.39,33.53c-1,6.37-5.13,11-9.3,10.39s-6.75-6.31-5.78-12.68,5.13-11,9.3-10.4S100.36,27.15,99.39,33.53Z"/>
            <path class="cls-3" d="M44.06,16.82c2.94,8.45,1.42,16.67-3.4,18.35S29.52,31.38,26.57,22.92,25.14,6.26,30,4.57,41.11,8.37,44.06,16.82Z"/>
            <path class="cls-3" d="M74.75,16.71c-.51,8.93-5,15.95-10.15,15.66s-8.85-7.76-8.35-16.7S61.3-.28,66.4,0,75.25,7.78,74.75,16.71Z"/>
          </g>
        </g>
      </g>
    </g>
  </g>
</svg>
