<?xml version="1.0" encoding="UTF-8" standalone="no"?>
<svg
   width="36.994862mm"
   height="48.010662mm"
   viewBox="0 0 104.87543 136.09135"
   version="1.1"
   id="svg1134"
   xmlns="http://www.w3.org/2000/svg"
   xmlns:svg="http://www.w3.org/2000/svg">
  <defs
     id="defs1080">
    <style
       id="style1078">
      .cls-1 {
        fill: #399d8f;
      }

      .cls-2 {
        fill: #a11a23;
      }

      .cls-3 {
        fill: #f39110;
      }

      .cls-4 {
        fill: #a11922;
      }

      .cls-5 {
        fill: #bf1a32;
      }

      .cls-6 {
        fill: #fecc50;
      }

      .cls-7 {
        fill: #2b2c29;
      }
    </style>
  </defs>
  <g
     id="Layer_2"
     data-name="Layer 2"
     transform="translate(-0.01138548,9.9653207)">
    <g
       id="grid">
      <g
         id="mh_copy"
         data-name="mh copy">
        <g
           id="pies">
          <g
             id="g1128">
            <path
               class="cls-1"
               d="m 95.19,70.74 4.27,-2.64 c 0.86,-0.53 4,-2.66 5.21,-0.95 0.73,1 -0.46,4 -2.42,7.08 -1.79,2.85 -6,8.73 -6.18,9.87 -0.18,1.14 1.21,5.6 1.65,7.34 0.44,1.74 1.78,5.89 1.34,7.56 -0.44,1.67 -2.8,6.2 -9.3,6.38 -5.16,0.15 -6.72,-1.31 -6.93,-2.23 -0.15,-0.66 -0.61,-2.85 -0.61,-2.85 0,0 -4.14,2.8 -6.1,3.87 -1.96,1.07 -7.22,4 -7.22,4 0,0 1.22,4.7 1.47,6.61 0.25,1.91 0.95,4.63 0,6.51 -0.85,1.7 -3.59,4.6 -10.32,4.83 -5.25,0.17 -6.64,-1.41 -7.51,-2.37 -0.87,-0.96 -1.24,-5.71 -1.28,-6.7 -0.04,-0.99 -0.35,-4.49 -0.35,-4.49 0,0 -7.13,-0.07 -11.43,-0.21 -3.9,-0.13 -9,-0.52 -9,-0.52 0,0 0.27,2.06 0.51,3.55 0.23,1.32 0.37,4.1 -1,5.52 -1.79,1.9 -6.63,2.23 -9.3,2.08 -2.67,-0.15 -6.43,-1.37 -7.61,-3.74 -1.18,-2.37 0.11,-5.6 0.62,-7.45 0.45,-1.62 1.26,-4 0.89,-4.62 -0.37,-0.62 -3.64,-1.36 -8.48,-5.84 C 1.27,96.85 -5.5,80.91 7.72,69.08 c 13.22,-11.83 38.91,-0.58 40.27,0.2 1.36,0.78 47.2,1.46 47.2,1.46 z"
               id="path1082" />
            <g
               id="g1088">
              <path
                 class="cls-2"
                 d="m 62.3,97 a 27.58,27.58 0 0 1 -5.84,-0.53 c -4,-0.88 -5.5,-5.15 -7.69,-12 -0.42,-1.35 -0.86,-2.73 -1.34,-4.12 -4.11,-11.81 -10,-14.63 -14.65,-16.9 l -0.25,-0.12 a 21.75,21.75 0 0 0 -5.4,-1.72 c 0.55,-1 1.24,-2.2 2.08,-3.53 C 32.83,52.31 41,45.83 53,44.81 c 2,-0.17 4.57,-0.36 7.18,-0.36 a 38.73,38.73 0 0 1 9.18,1 c 13,3.11 22.16,16.68 24.19,23.26 2,6.37 1.55,11.7 -6.39,20 C 81.71,94.45 70.76,97 62.3,97 Z"
                 id="path1084" />
              <path
                 class="cls-3"
                 d="m 60.16,47 a 36.38,36.38 0 0 1 8.59,0.92 c 11.84,2.82 20.53,15.62 22.35,21.53 1.77,5.73 1.36,10 -5.8,17.55 -4.91,5.16 -15.09,7.47 -23,7.47 A 25.72,25.72 0 0 1 57,94 C 54.52,93.44 53.27,90.27 51.17,83.67 50.74,82.32 50.3,80.92 49.8,79.49 45.36,66.69 38.71,63.49 33.87,61.14 L 33.63,61 A 19.7,19.7 0 0 0 31,60 c 0.11,-0.19 0.23,-0.37 0.35,-0.56 3.29,-5.22 10.75,-11.12 21.83,-12.06 1.92,-0.17 4.45,-0.35 7,-0.35 m 0,-5.08 c -2.48,0 -4.95,0.16 -7.39,0.37 -12.34,1 -21.37,7.54 -25.7,14.41 a 56.86,56.86 0 0 0 -3.85,7 v 0 a 20.72,20.72 0 0 1 8.18,1.85 C 36,67.77 41.2,70.13 45,81.15 c 2.88,8.33 4.19,16.3 10.88,17.8 a 30.35,30.35 0 0 0 6.39,0.59 c 8.56,0 20.44,-2.49 26.67,-9 8,-8.45 9.42,-14.64 7,-22.55 -2.42,-7.91 -12.57,-21.76 -26,-25 a 41.41,41.41 0 0 0 -9.77,-1.06 z"
                 id="path1086" />
            </g>
            <g
               id="g1114">
              <path
                 class="cls-3"
                 d="m 37.61,1.37 a 4.08,4.08 0 0 1 4.86,-1 C 45.55,1.72 66.14,11.38 75.1,19 c 8.96,7.62 19,16.49 23.88,27 1.29,2.8 0,4.24 0,4.24 l -8,18.34 a 6.89,6.89 0 0 1 -5.8,3.6 L 3.54,72.07 c 0,0 -4.11,-0.19 -3,-4.17 L 6.07,48 A 38.5,38.5 0 0 1 8.85,43.17 C 10.58,40.61 37.61,1.37 37.61,1.37 Z"
                 id="path1090" />
              <polygon
                 class="cls-4"
                 points="83.94,79.59 90.9,68.93 86.99,60.88 42.84,66.79 47.48,73.85 "
                 id="polygon1092" />
              <path
                 class="cls-4"
                 d="M 84.79,66.29 1.18,65.59 6.25,47.34 c 0,0 22.21,-26.93 30.14,-44.84 C 77.63,20.64 92,48.66 92,48.66 Z"
                 id="path1094" />
              <path
                 class="cls-4"
                 d="M 83.91,62.36 C 75.53,48.27 52,28 32.42,20.52 A 1.31,1.31 0 0 0 30.89,21 c 0,0 -29.37,43.28 -29.59,44.07 a 1.31,1.31 0 0 0 0.2,1.12 1.26,1.26 0 0 0 0.7,0.47 1.06,1.06 0 0 0 0.31,0 l 81.27,0.15 a 1,1 0 0 0 1,-0.66 c 0.44,-0.75 0.34,-1.76 -0.87,-3.79 z"
                 id="path1096" />
              <path
                 class="cls-5"
                 d="m 22.83,59.17 a 6.86,6.86 0 1 1 -4.77,-8.43 6.86,6.86 0 0 1 4.77,8.43 z m 15.68,-6.7 A 6.86,6.86 0 1 1 33.74,44 a 6.86,6.86 0 0 1 4.77,8.47 z m 14.68,6.85 a 6.85,6.85 0 1 1 -4.77,-8.44 6.86,6.86 0 0 1 4.77,8.44 z m 15.68,-6.7 a 6.85,6.85 0 1 1 -4.77,-8.44 6.85,6.85 0 0 1 4.77,8.44 z m 14.68,6.84 A 6.85,6.85 0 1 1 78.78,51 a 6.85,6.85 0 0 1 4.77,8.46 z"
                 id="path1098" />
              <path
                 class="cls-3"
                 d="M 92.75,45.34 C 84.37,31.24 57,10.05 37.41,2.56 A 1.3,1.3 0 0 0 35.88,3 c 0,0 -22.64,32 -28.45,40.84 a 9.52,9.52 0 0 0 -1.14,3.27 1.31,1.31 0 0 0 0.2,1.12 1.26,1.26 0 0 0 0.7,0.47 1.06,1.06 0 0 0 0.31,0 L 92,50.83 a 1.3,1.3 0 0 0 1.2,-0.74 5.27,5.27 0 0 0 -0.45,-4.75 z"
                 id="path1100" />
              <path
                 class="cls-3"
                 d="M 92.75,45.34 C 84.37,31.24 57,10.05 37.41,2.56 A 1.3,1.3 0 0 0 35.88,3 C 35.88,3 7.22,43.75 7,44.54 a 1.31,1.31 0 0 0 0.2,1.12 1.41,1.41 0 0 0 0.7,0.48 1.64,1.64 0 0 0 0.32,0 l 83,1.67 a 1.3,1.3 0 0 0 1.2,-0.75 c 0.37,-0.75 1.58,0.31 0.33,-1.72 z"
                 id="path1102" />
              <path
                 class="cls-6"
                 d="m 30.35,46.63 -3,-7.6 11.81,1.82 2.3,6 15.35,0.31 -1.49,-3.82 11.18,1.73 0.91,2.38 15.34,0.24 v -0.12 l 0.86,0.13 9.94,0.16 a 5.78,5.78 0 0 0 -0.8,-2.53 50.15,50.15 0 0 0 -4.5,-6.18 l -9.41,-1.63 -3.13,-8 3.75,0.58 A 166.46,166.46 0 0 0 53.33,10.55 l 2.3,6 -11.46,-2 -2.69,-6.9 9.34,1.45 A 98.17,98.17 0 0 0 37.41,2.56 1.3,1.3 0 0 0 35.88,3 c 0,0 -6.09,8.22 -12.62,17.89 l 9,1.85 2.74,7.18 -12,-2.07 -1.67,-4.17 c -3.38,5 -7.13,10.08 -9.88,14.18 L 15,46.33 Z M 59.63,27 l 2.95,7.71 -11.34,-2 -2.91,-7.49 z"
                 id="path1104" />
              <path
                 class="cls-3"
                 d="m 35.42,40.44 c 2.23,0 7.09,-1.45 11.34,-0.88 4.25,0.57 8.62,4.1 10.15,4.34 l 6.12,1 c 1.37,0.21 8.22,-1.42 11.8,-0.94 3.58,0.48 7.52,4.19 9.31,4.2 0,0 1.7,1 -0.21,0.75 -1.91,-0.25 -6.21,-3.51 -9,-3.81 -4,-0.43 -7.39,1 -12.07,0.5 -2.82,-0.32 -4.82,-0.49 -6.47,-0.81 -3,-0.59 -6.11,-3.85 -10.06,-4.26 -3.95,-0.41 -6.72,1.57 -11.12,0.79 -2.63,-0.51 -1.49,-0.89 0.21,-0.88 z M 22.23,45 c 3.26,0.14 7.12,-0.07 8.12,1.68 l -7.64,0.73 -7.68,-1 c 0,0 0.71,-1.73 7.2,-1.41 z m 27.1,0.48 c 4.07,0.15 6.62,0.67 7.53,1.74 l -7.71,0.69 -7.64,-1 c 0,0 1.15,-1.72 7.82,-1.48 z"
                 id="path1106" />
              <path
                 class="cls-3"
                 d="m 74.87,46.13 c 3,0 6.67,0.65 7.52,1.12 0,0 7.86,0.13 10.86,0.61 0,0 -7.31,0.43 -9.54,0.39 -2.23,-0.04 -16.29,-0.06 -16.25,-0.79 0.04,-0.73 2.81,-1.34 7.41,-1.33 z"
                 id="path1108" />
              <path
                 class="cls-6"
                 d="m 11.51,37.86 c 0,0 0.66,-3.12 4.34,-8.08 3.68,-4.96 5.23,-6.88 5.54,-6.1 0.31,0.78 -3.57,7.3 -4.8,8.8 -1.23,1.5 -3.39,4.69 -4.16,5.23 -0.77,0.54 -0.92,0.15 -0.92,0.15 z M 23.26,20.93 a 28.73,28.73 0 0 1 3,-6.33 C 28,12.14 30.11,11 30.52,10.45 30.93,9.9 31.78,6.64 32.83,5.32 33.88,4 36,1.47 37.41,2.56 c 1.41,1.09 -6.65,10.07 -7.85,12 -1.2,1.93 -6.3,6.37 -6.3,6.37 z"
                 id="path1110" />
              <path
                 class="cls-3"
                 d="m 29.44,22.19 c 2.22,0 7.09,-1.45 11.33,-0.87 4.24,0.58 8.62,4.1 10.15,4.33 l 6.13,1 c 1.37,0.21 8.21,-1.41 11.79,-0.94 3.58,0.47 7.53,4.2 9.31,4.2 0,0 1.7,1 -0.21,0.76 -1.91,-0.24 -6.21,-3.51 -9,-3.81 -4,-0.43 -7.4,1 -12.08,0.49 C 54,27 52,26.81 50.39,26.49 47.33,25.9 44.27,22.64 40.33,22.23 36.39,21.82 33.6,23.8 29.2,23 26.6,22.57 27.73,22.18 29.44,22.19 Z m 0.69,17.26 c -2,-0.32 -4.09,-3.28 -9.19,-3.77 a 17,17 0 0 0 -9.43,2.18 l -0.1,1.56 c 0,0 -1,-1.21 0.87,-1.26 1.87,-0.05 4.38,-2.16 8.72,-1.48 4.34,0.68 5.25,2.53 8,3.39 2.75,0.86 1.13,-0.62 1.13,-0.62 z m 50.87,7.43 4,1.36 1.32,-0.54 -1.36,2.08 -3.65,0.1 z M 34.94,5 c 4.05,0 6,2.56 8.81,3 2.81,0.44 2.65,1.2 0.43,1.05 -2.22,-0.15 -7,-3.44 -9.32,-3.33 A 4.06,4.06 0 0 0 31.52,8 l 1,-2.15 c 0,0 -0.25,-0.85 2.42,-0.85 z m -1.4,24.65 c 5.52,0.62 6.25,-0.6 10.43,-0.29 3.81,0.29 5.58,2.61 7.61,3.17 3.3,0.92 2.85,-1.37 1.61,-1.21 -2.6,0.35 -6.51,-3.77 -11.63,-3.23 -2.61,0.28 -4.05,1.27 -7.79,0.72 -3.74,-0.55 -2.21,0.63 -0.23,0.85 z m 27.34,4.75 c 2.27,0.4 6.24,-0.7 9.76,-0.31 3.52,0.39 6,3 8.19,3.43 2.19,0.43 2.92,-0.64 1.22,-0.93 -1.7,-0.29 -5.39,-3.27 -9.7,-3.61 -4.31,-0.34 -6.39,0.91 -9.23,0.55 -2.84,-0.36 -1.94,0.59 -0.24,0.88 z M 18.27,26.57 c 2,0 3.58,1.64 5.79,1.45 2.21,-0.19 2.58,-1 0.61,-1.07 C 22.7,26.88 20.79,25.5 19,25.69 Z M 36.94,11.79 c 3.52,0.81 5.14,2.42 7.68,2.86 2.54,0.44 1.68,-0.48 -0.15,-0.88 -1.83,-0.4 -4.11,-2.33 -8.06,-2.65 -3.95,-0.32 -4,0.48 -7,0.3 l -0.91,0.75 a 15.73,15.73 0 0 0 3,-0.16 14.26,14.26 0 0 1 5.44,-0.22 z m 18.13,4.67 c 2.32,0.5 4.7,-0.64 7.18,-0.14 L 61,15.44 a 17.05,17.05 0 0 1 -5.68,0.23 c -2.4,-0.48 -2.69,0.27 -0.25,0.79 z"
                 id="path1112" />
            </g>
            <path
               class="cls-7"
               d="m 32,79.18 c 0.54,2.49 -0.64,5.13 -3.4,5.48 -2.27,0.29 -4.13,-1.23 -4.67,-3.72 a 4.39,4.39 0 0 1 3.07,-5.4 4.39,4.39 0 0 1 5,3.64 z"
               id="path1116" />
            <path
               class="cls-7"
               d="m 15.68,80.05 c 0.17,2.52 -1.94,5.13 -4.69,4.73 C 8.72,84.44 7.35,82.5 7.5,80 a 4.37,4.37 0 0 1 4.4,-4.31 c 2.28,0.12 3.62,1.74 3.78,4.36 z"
               id="path1118" />
            <path
               class="cls-7"
               d="m 23.11,89.07 c 1,-0.75 2.66,-2.48 3.83,-1.1 1.17,1.38 -0.7,2.78 -1.79,3.64 -1.09,0.86 -3.51,3 -5.32,3 -1.81,0 -4.33,-1.89 -6,-3.2 -1.37,-1.07 -2,-2.49 -1.33,-3.39 0.67,-0.9 1.88,-0.63 2.89,0.2 1.17,1 3.42,2.86 4.31,2.83 0.89,-0.03 2.07,-0.99 3.41,-1.98 z"
               id="path1120" />
            <path
               class="cls-5"
               d="m 74.13,73.2 a 6.85,6.85 0 1 1 -4.77,-8.43 6.86,6.86 0 0 1 4.77,8.43 z"
               id="path1122" />
            <path
               class="cls-5"
               d="M 91.8,82.05 A 6.85,6.85 0 1 1 87,73.61 6.84,6.84 0 0 1 91.8,82.05 Z"
               id="path1124" />
            <path
               class="cls-5"
               d="M 61.78,86.17 A 6.85,6.85 0 1 1 57,77.73 a 6.83,6.83 0 0 1 4.78,8.44 z"
               id="path1126" />
          </g>
        </g>
      </g>
    </g>
  </g>
  <g
     id="g8739"
     transform="matrix(1.2149801,-0.38833167,0.38833167,1.2149801,-15.758463,-14.54175)">
    <path
       fill="#dd2e44"
       d="m 50.008438,43.57252 c 0.01096,-0.09019 -0.0233,-0.184885 -0.08113,-0.280885 0,0 -11.659764,-19.349415 -12.931632,-19.49999 -1.271976,-0.148614 -17.095745,15.975997 -17.095745,15.975997 -0.07949,0.08048 -0.134418,0.163293 -0.144433,0.25454 -0.149097,1.263066 6.503563,3.079506 14.856939,4.060565 8.355344,0.981168 15.246902,0.752838 15.396001,-0.510227 z"
       id="path5268"
       style="stroke-width:1.39378" />
    <path
       fill="#ea596e"
       d="m 36.910444,23.815538 c -0.0451,0.01226 -0.09976,0.0369 -0.16307,0.07485 -1.27625,1.439349 -11.565988,13.519252 -14.338925,17.790308 2.168665,0.745234 4.657846,1.24669 7.662388,1.763932 1.414869,-3.989147 7.721325,-18.904972 6.83961,-19.629086 z"
       id="path5270"
       style="stroke-width:1.39378" />
  </g>
  <g
     id="g9662"
     transform="matrix(0.77218909,-0.63531367,0.63531367,0.77218909,-19.950574,87.895051)">
    <path
       fill="#77b255"
       d="m 121.92426,39.634429 c 0.0917,4.826364 -2.72246,7.40203 -5.54659,7.450978 -2.82185,0.04955 -5.7309,-2.421062 -5.8186,-7.243959 -0.0326,-1.882756 -0.73305,-2.628467 -1.01804,-2.627657 -0.29134,0.0065 -0.96422,0.781924 -0.93039,2.660125 0.09,4.823489 -2.72642,7.39856 -5.55055,7.447507 -2.82532,0.0535 -5.728618,-2.420468 -5.815728,-7.245642 -0.03551,-1.881074 -0.737601,-2.629659 -1.024387,-2.622017 -0.283908,0.006 -0.960744,0.777966 -0.927515,2.658444 0.0232,1.296117 -1.008861,2.374263 -2.307258,2.396865 -1.302354,0.01913 -2.373068,-1.01342 -2.397354,-2.314688 -0.0883,-4.820615 2.72186,-7.399754 5.551742,-7.452064 2.821856,-0.04954 5.72574,2.42215 5.81741,7.248518 0.0326,1.882755 0.73304,2.628466 1.01983,2.620822 0.28559,-0.0031 0.96242,-0.775091 0.9286,-2.653291 -0.0888,-4.828045 2.72245,-7.402031 5.55174,-7.452063 2.82017,-0.05242 5.72406,2.419273 5.81513,7.24792 0.0315,1.877603 0.7388,2.625104 1.01983,2.620822 0.28906,-0.0071 0.96303,-0.777369 0.93207,-2.657251 -0.0266,-1.301864 1.00827,-2.371982 2.30726,-2.396864 1.2984,-0.0226 2.37307,1.01342 2.3928,2.313495 z"
       id="path9165"
       style="stroke-width:2.35461" />
    <circle
       fill="#5c913b"
       cx="45.099857"
       cy="11.886689"
       r="3.5319221"
       id="circle9167"
       style="stroke-width:2.35461" />
    <circle
       fill="#9266cc"
       cx="76.725159"
       cy="25.391418"
       r="4.7092295"
       id="circle9169"
       style="stroke-width:2.35461" />
    <circle
       fill="#9266cc"
       cx="12.183474"
       cy="53.759228"
       r="4.7092295"
       id="circle9171"
       style="stroke-width:2.35461" />
    <circle
       fill="#5c913b"
       cx="106.71043"
       cy="14.420868"
       r="3.5319221"
       id="circle9173"
       style="stroke-width:2.35461" />
    <circle
       fill="#5c913b"
       cx="65.490135"
       cy="-29.242222"
       r="3.5319221"
       id="circle9175"
       style="stroke-width:2.35461" />
    <circle
       fill="#ffcc4d"
       cx="62.754692"
       cy="77.896828"
       r="4.7092295"
       id="circle9177"
       style="stroke-width:2.35461" />
    <circle
       fill="#ffcc4d"
       cx="83.86747"
       cy="50.320019"
       r="3.5319221"
       id="circle9179"
       style="stroke-width:2.35461" />
    <circle
       fill="#ffcc4d"
       cx="48.414272"
       cy="33.275528"
       r="3.5319221"
       id="circle9181"
       style="stroke-width:2.35461" />
    <path
       fill="#77b255"
       d="m 90.217828,12.377165 c -4.767344,0.75804 -7.707337,-1.672963 -8.146257,-4.4632091 -0.439198,-2.787907 1.605507,-6.010581 6.369959,-6.764224 1.860166,-0.29261405 2.501881,-1.08939805 2.461677,-1.37154305 -0.04667,-0.287652 -0.907721,-0.84685495 -2.763208,-0.553689 -4.76473,0.75598 -7.704447,-1.67736255 -8.143367,-4.46760755 -0.443598,-2.790798 1.605231,-6.0082443 6.372023,-6.7616113 1.858102,-0.295227 2.502434,-1.094076 2.455214,-1.377051 -0.04516,-0.280358 -0.90332,-0.843963 -2.761145,-0.551074 -1.280467,0.202177 -2.490938,-0.670929 -2.692833,-1.953725 -0.199002,-1.287204 0.675604,-2.490387 1.961019,-2.694344 4.762113,-0.753915 7.704996,1.672691 8.148044,4.468164 0.439199,2.787903 -1.607294,6.0056293 -6.374637,6.7636703 -1.860165,0.292613 -2.501881,1.089398 -2.454662,1.372372 0.04254,0.282422 0.900707,0.846026 2.756194,0.552859 4.769406,-0.755429 7.707338,1.672964 8.148047,4.46816155 0.441815,2.78584805 -1.604684,6.00356605 -6.374365,6.76133305 -1.855211,0.290828 -2.497756,1.094627 -2.45466,1.372373 0.04695,0.285312 0.903044,0.846303 2.760594,0.555749 1.285691,-0.206292 2.488596,0.67065 2.692832,1.95373 0.201891,1.2827991 -0.675609,2.4903861 -1.960469,2.6896661 z"
       id="path9584"
       style="stroke-width:2.35461" />
    <path
       fill="#aa8dd8"
       d="m 59.665426,51.2413 c 0.59654,0.07504 1.164249,0.377717 1.565206,0.890722 1.259767,1.621578 1.944838,3.353328 1.973612,4.999032 0.03047,1.742317 -0.681985,3.30221 -1.950931,4.289853 -2.22735,1.730765 -6.035062,1.498154 -8.999572,-2.313698 -1.153895,-1.481566 -2.163289,-1.661833 -2.387769,-1.48413 -0.227744,0.174326 -0.301707,1.198836 0.850501,2.682043 1.259767,1.621578 1.944838,3.353317 1.973611,4.999031 0.03047,1.742317 -0.678712,3.305601 -1.95093,4.289854 -2.229042,1.732397 -6.035063,1.498153 -8.997993,-2.308678 -0.840973,-1.079954 -1.541578,-1.401541 -1.883048,-1.49391 -0.275226,-0.07124 -0.445583,-0.04083 -0.509687,0.008 -0.222794,0.176069 -0.303282,1.193814 0.852193,2.680411 0.796901,1.027594 0.613653,2.508186 -0.413935,3.305087 -1.025953,0.798589 -2.503222,0.615401 -3.305088,-0.41394 -2.962927,-3.806832 -2.255051,-7.556545 -0.02431,-9.290574 2.229042,-1.732397 6.035062,-1.498154 8.999571,2.313699 0.83928,1.081596 1.538305,1.398152 1.879773,1.490523 0.275174,0.07454 0.445528,0.04417 0.50799,-0.0064 0.227755,-0.174323 0.304971,-1.195455 -0.850501,-2.682053 -2.961237,-3.808463 -2.255052,-7.556535 -0.02432,-9.290573 2.229045,-1.732398 6.036756,-1.499786 8.994607,2.311951 0.840973,1.079964 1.543271,1.39991 1.884739,1.49227 0.273515,0.07294 0.443891,0.04248 0.507989,-0.0064 0.224487,-0.177702 0.301709,-1.198836 -0.850498,-2.682044 -0.79859,-1.025962 -0.613651,-2.508197 0.41394,-3.305097 0.519608,-0.39752 1.146612,-0.548429 1.744842,-0.475035 z"
       id="path12881"
       style="stroke-width:2.35461" />
    <path
       fill="#aa8dd8"
       d="m 68.560166,-9.0783376 c 0.42576,0.424519 0.68937,1.0113819 0.69237,1.662484 0.003,2.0534176 -0.51496,3.8421383 -1.49966,5.161054 -1.04247,1.39636946 -2.56077,2.19366266 -4.16876,2.19780866 -2.82075,0.00505 -5.68921,-2.50983896 -5.69984,-7.33875406 -0.005,-1.8778899 -0.69325,-2.638354 -0.97954,-2.635259 -0.2868,-0.0016 -0.97246,0.7632554 -0.96935,2.6414145 0.003,2.0534175 -0.51495,3.8421295 -1.49966,5.1610531 -1.04247,1.39636946 -2.560253,2.19834576 -4.168761,2.19780946 -2.823082,0.00531 -5.68921,-2.50983896 -5.701661,-7.33381676 -0.0039,-1.3687664 -0.360989,-2.0519422 -0.574454,-2.3340179 -0.174018,-0.224816 -0.32734,-0.3050574 -0.407921,-0.3056884 -0.283953,0.0028 -0.970628,0.7583224 -0.967009,2.6411607 0.0011,1.3003844 -1.050199,2.3589511 -2.350579,2.3600263 -1.30012,0.00341 -2.356096,-1.0457779 -2.360024,-2.3505831 -0.01245,-4.8239769 2.842745,-7.3556399 5.66817,-7.3611969 2.823084,-0.0053 5.689213,2.50984 5.699838,7.3387563 0.0015,1.3690283 0.360476,2.0472586 0.573938,2.3293347 0.171954,0.2273911 0.325253,0.3076657 0.4056,0.3059146 0.286803,0.00158 0.972967,-0.7585865 0.969352,-2.6414231 -0.01011,-4.8242325 2.842741,-7.3556325 5.668161,-7.3612015 2.82308,-0.0053 5.69155,2.509583 5.69699,7.3343371 0.004,1.3687724 0.36332,2.0516882 0.57678,2.3337507 0.17163,0.2251159 0.325,0.3053315 0.4056,0.3059146 0.2863,-0.00309 0.97246,-0.7632557 0.96936,-2.6414093 -0.003,-1.3001279 1.0502,-2.358964 2.35059,-2.360031 0.65421,0.00375 1.24238,0.26826 1.67049,0.6925119 z"
       id="path12603"
       style="stroke-width:2.35461" />
  </g>
</svg>
