<?xml version="1.0" encoding="UTF-8" standalone="no"?>
<svg
   width="39.982697mm"
   height="45.715698mm"
   viewBox="0 0 113.34554 129.56795"
   version="1.1"
   id="svg54"
   sodipodi:docname="shoe.svg"
   inkscape:version="1.2.2 (732a01da63, 2022-12-09)"
   xmlns:inkscape="http://www.inkscape.org/namespaces/inkscape"
   xmlns:sodipodi="http://sodipodi.sourceforge.net/DTD/sodipodi-0.dtd"
   xmlns="http://www.w3.org/2000/svg"
   xmlns:svg="http://www.w3.org/2000/svg">
  <sodipodi:namedview
     id="namedview56"
     pagecolor="#ffffff"
     bordercolor="#000000"
     borderopacity="0.25"
     inkscape:showpageshadow="2"
     inkscape:pageopacity="0.0"
     inkscape:pagecheckerboard="0"
     inkscape:deskcolor="#d1d1d1"
     inkscape:document-units="mm"
     showgrid="false"
     inkscape:zoom="3.2165177"
     inkscape:cx="187.46982"
     inkscape:cy="46.012494"
     inkscape:window-width="1920"
     inkscape:window-height="1057"
     inkscape:window-x="3832"
     inkscape:window-y="-8"
     inkscape:window-maximized="1"
     inkscape:current-layer="g2440" />
  <defs
     id="defs4">
    <style
       id="style2">
      .cls-1 {
        fill: #ffce0b;
      }

      .cls-2 {
        fill: #1f91cd;
      }

      .cls-3 {
        fill: #122a22;
      }

      .cls-4 {
        fill: #8899a6;
      }

      .cls-5 {
        fill: #6399d2;
      }

      .cls-6 {
        fill: #ccd6dd;
      }

      .cls-7 {
        fill: #2b2c29;
      }

      .cls-8 {
        fill: #2191ce;
        stroke: #fecc50;
      }

      .cls-8, .cls-9 {
        stroke-linejoin: round;
        stroke-width: 2px;
      }

      .cls-9 {
        fill: none;
        stroke: #fff;
        stroke-linecap: round;
      }
    </style>
  </defs>
  <g
     id="Layer_2"
     data-name="Layer 2"
     transform="translate(8.45871,27.390215)">
    <g
       id="grid">
      <g
         id="ml_copy"
         data-name="ml copy">
        <g
           id="thieves">
          <g
             id="g48">
            <path
               class="cls-1"
               d="m 95.19,46.83 4.27,-2.64 c 0.86,-0.53 4,-2.66 5.21,-0.95 0.73,1 -0.46,4 -2.42,7.08 -1.79,2.85 -6,8.74 -6.18,9.87 -0.18,1.13 1.21,5.61 1.65,7.34 0.44,1.73 1.78,5.89 1.34,7.53 -0.44,1.64 -2.8,6.2 -9.3,6.38 -5.16,0.15 -6.72,-1.31 -6.93,-2.22 -0.15,-0.66 -0.61,-2.86 -0.61,-2.86 0,0 -4.14,2.8 -6.1,3.87 -1.96,1.07 -7.22,4 -7.22,4 0,0 1.22,4.71 1.47,6.62 0.25,1.91 0.95,4.62 0,6.5 -0.85,1.7 -3.59,4.6 -10.32,4.83 -5.25,0.17 -6.64,-1.41 -7.51,-2.37 -0.87,-0.96 -1.24,-5.7 -1.28,-6.7 -0.04,-1 -0.35,-4.49 -0.35,-4.49 0,0 -7.13,-0.07 -11.43,-0.21 -3.9,-0.13 -9,-0.52 -9,-0.52 0,0 0.27,2.06 0.51,3.55 0.23,1.32 0.37,4.11 -1,5.52 -1.79,1.9 -6.63,2.23 -9.3,2.08 -2.67,-0.15 -6.43,-1.37 -7.61,-3.74 -1.18,-2.37 0.11,-5.6 0.62,-7.45 0.45,-1.62 1.26,-4 0.89,-4.62 C 14.22,82.61 10.95,81.88 6.11,77.4 1.27,72.92 -5.5,57 7.72,45.17 c 13.22,-11.83 38.91,-0.58 40.27,0.2 1.36,0.78 47.2,1.46 47.2,1.46 z"
               id="path6" />
            <path
               class="cls-2"
               d="M 52.77,18.37 C 40.43,19.42 31.4,25.91 27.07,32.78 a 56.86,56.86 0 0 0 -3.85,7 20.65,20.65 0 0 1 8.2,1.85 C 36,43.87 41.2,46.22 45,57.24 c 2.88,8.33 4.19,16.3 10.88,17.8 7.57,1.7 25,0 33.06,-8.45 C 97,58.14 98.39,52 96,44 93.61,36 83.43,22.24 70,19 64.12,17.67 58.37,17.9 52.77,18.37 Z"
               id="path8" />
            <path
               class="cls-3"
               d="M 94.22,39.85 C 93.81,39 93,37.68 93,37.68 c 0,0 0,1.82 -0.11,2.79 -0.19,1.57 -0.92,4.85 -1.43,4.39 A 105.24,105.24 0 0 1 84,36.07 c -1.6,-2.18 -7.06,-7.81 -7.26,-9.72 a 19.52,19.52 0 0 1 1,-4.17 l -2.14,-1.1 a 21.18,21.18 0 0 0 -2,-0.84 c 0,0 -0.51,4.37 -1.23,5.22 -0.72,0.85 -4.63,2.5 -7.73,3.81 -3.75,1.59 -7.36,3.61 -8.73,3.92 -1.2,0.27 -8.11,-0.93 -10.72,-1.33 -3.27,-0.49 -8.22,-1.68 -9.38,-2.44 A 13.73,13.73 0 0 1 33,26.18 c 0,0 -0.77,0.57 -1.53,1.22 a 15.79,15.79 0 0 0 -1.72,1.9 c 0,0 2.13,2 2.28,2.74 0.2,1.06 -1,2.55 -2,4 -0.61,0.85 -2.27,4.4 -2.27,4.4 a 6.72,6.72 0 0 1 1.93,0.48 c 1.11,0.47 2.16,1 2.16,1 0,0 2.39,-6.23 4.08,-6.86 1.44,-0.53 5.62,0.66 8.64,1.16 4.29,0.71 8.62,1.32 9.58,2.43 0.96,1.11 2.06,5.86 3.08,9.82 1.12,4.35 4,15.63 3.48,16.52 -0.52,0.89 -5,0.76 -7.61,0.55 a 33.78,33.78 0 0 1 -5.75,-1.33 c 0,0 0.59,1.85 0.78,2.34 0.27,0.71 1.13,2.67 1.13,2.67 0,0 5.12,2 19.93,0 14.81,-2 21.75,-12.39 23.65,-17 2.55,-6.13 2.77,-9.35 2.77,-9.35 0,0 -0.98,-2.15 -1.39,-3.02 z m -12.78,20 c -3.66,2.52 -13.29,5.41 -15.08,4.54 -1.44,-0.7 -4,-12.23 -5.2,-17.37 -0.78,-3.29 -2.51,-8.27 -1.65,-9.88 0.58,-1.09 4.14,-2.82 6.77,-4.18 2.63,-1.36 6.07,-3 7.14,-2.94 1.52,0.11 5,5.24 8.39,9.61 3.39,4.37 7.18,8.91 7.3,10.53 0.12,1.62 -3.89,7.07 -7.67,9.66 z"
               id="path10" />
            <g
               id="g24"
               style="display:none"
               inkscape:label="Shoe">
              <path
                 class="cls-4"
                 d="M 53.71,2.08 55.89,0.15 A 0.76,0.76 0 0 1 57,0.36 C 57.75,1.55 59.57,3.9 60.26,4.71 58.26,4.34 55.13,4.1 54.01,3.29 53.58,3 53.29,2.39 53.71,2.08 Z M 25,24 c 0.32,0.53 6.51,6.41 27.94,2.17 6.48,-1.29 25.89,-5.36 26,-5.84 0,0 0.14,0.65 0.21,1.27 a 1.55,1.55 0 0 1 -0.26,1.18 c -1.69,2.11 -6.25,2.38 -12.78,3.25 l -0.93,0.12 -0.62,0.09 c -1,0.13 -4,0.56 -7.4,1.06 -4.71,0.68 -14.14,2 -14.41,2 A 31.63,31.63 0 0 1 31.25,28.41 C 26,27.16 25,24 25,24 Z"
                 id="path12" />
              <path
                 class="cls-2"
                 d="m 25,24 a 3.77,3.77 0 0 1 -0.51,-1.74 4.07,4.07 0 0 1 2.15,-3.85 c 1.77,-1.05 7.54,-3.67 9.63,-4.89 1,-0.59 1.33,-1.5 3.25,-2.57 l 9.1,-5.28 c 3.5,-2 3.64,-4 5.33,-4.24 1.13,-0.15 8.48,5.15 11.91,4.7 2.4,-0.28 4.7,-4.2 6.14,-5.13 1.14,-0.71 2.7,0.81 3.56,2.23 0.86,1.42 2.09,7.15 2.3,8.7 0.21,1.55 0.59,3.33 0,4.58 l -0.6,1.25 c 0,0 -28.93,7 -36.31,7.57 C 28.35,26.26 25,24 25,24 Z"
                 id="path14" />
              <path
                 class="cls-5"
                 d="M 52.83,2 A 2,2 0 0 1 54,1.47 C 55.13,1.32 62.48,6.62 65.91,6.17 68.26,5.85 70.56,1.92 72,1 a 1.4,1.4 0 0 1 1.46,0.06 C 71.7,2.23 68.95,7.19 66.08,7.57 62.61,8.06 55.88,3.49 52.83,2 Z"
                 id="path16" />
              <path
                 class="cls-5"
                 d="m 61.29,18.54 c 0.4,-2.08 2.11,-6.49 4.64,-8.24 2.37,-1.63 9.26,-4 10.57,-4.43 a 49.24,49.24 0 0 1 1.5,6.64 c 0.19,1.46 0.47,3.13 -0.15,4.31 a 1.28,1.28 0 0 1 -0.45,0.54 c 0,0 -16.13,1.26 -16.11,1.18 z"
                 id="path18" />
              <path
                 class="cls-6"
                 d="m 52.18,7.61 a 1.14,1.14 0 0 0 1.45,-1.7 L 52,3.83 a 1.146342,1.146342 0 1 0 -1.8,1.42 l 1.65,2.08 a 1.26,1.26 0 0 0 0.33,0.28 z m -3.67,2.68 A 1.14,1.14 0 0 0 50.07,8.74 L 48.66,6.31 a 1.151043,1.151043 0 1 0 -2,1.14 l 1.44,2.43 a 1.08,1.08 0 0 0 0.41,0.41 z m -4,2 a 1.16,1.16 0 0 0 1,0.06 1.14,1.14 0 0 0 0.59,-1.49 L 45.1,8.5 A 1.142366,1.142366 0 0 0 43,9.4 l 1,2.36 a 1.16,1.16 0 0 0 0.5,0.53 z m -4,1.7 a 1.1,1.1 0 0 0 1,0.08 1.14,1.14 0 0 0 0.67,-1.46 l -0.72,-1.9 a 1.14,1.14 0 1 0 -2.13,0.8 l 0.72,1.9 A 1.08,1.08 0 0 0 40.47,14 Z M 78,17 a 4.35,4.35 0 0 1 -2.17,-0.12 12.35,12.35 0 0 0 -4.64,-0.09 97.42,97.42 0 0 0 -11.38,2 c -4,1.08 -10.92,4 -13.33,4.63 A 50.64,50.64 0 0 1 37.36,25 c -2.9,0.13 -5.51,0.16 -7.14,0.09 A 14.81,14.81 0 0 1 25,24 c 0.29,0.5 2.08,2.68 6.83,3.62 A 33.33,33.33 0 0 0 42.58,28.2 C 45.5,27.87 61.73,25.46 64.36,25.11 66.99,24.76 74.87,23.79 76.45,23 78.7,22 79.08,21.17 79,20.73 78.88,19.64 78.84,16.89 78,17 Z"
                 id="path20" />
              <path
                 class="cls-5"
                 d="m 26.67,18.45 c 1.77,-1.05 7.54,-3.67 9.63,-4.89 a 5.07,5.07 0 0 0 1,-0.86 1.18,1.18 0 0 1 0.24,0.31 c 0.82,1.72 -0.81,4.53 -4.53,6.3 -3,1.42 -6.63,1.74 -8.1,0.92 a 4.4,4.4 0 0 1 1.76,-1.78 z"
                 id="path22" />
            </g>
            <path
               class="cls-7"
               d="m 32,55.27 c 0.54,2.49 -0.64,5.13 -3.4,5.48 C 26.3,61 24.44,59.52 23.9,57 a 4.39,4.39 0 0 1 3.1,-5.37 4.4,4.4 0 0 1 5,3.64 z"
               id="path26" />
            <path
               class="cls-7"
               d="m 15.68,56.14 c 0.17,2.52 -1.94,5.14 -4.69,4.73 C 8.72,60.53 7.35,58.59 7.5,56.08 a 4.37,4.37 0 0 1 4.4,-4.31 c 2.28,0.13 3.62,1.75 3.78,4.37 z"
               id="path28" />
            <path
               class="cls-7"
               d="m 23.11,65.16 c 1,-0.74 2.66,-2.48 3.83,-1.1 1.17,1.38 -0.7,2.79 -1.79,3.64 -1.09,0.85 -3.51,3 -5.32,3 -1.81,0 -4.33,-1.89 -6,-3.2 -1.37,-1.07 -2,-2.49 -1.33,-3.39 0.67,-0.9 1.88,-0.62 2.89,0.2 1.17,1 3.42,2.86 4.31,2.83 0.89,-0.03 2.07,-0.99 3.41,-1.98 z"
               id="path30" />
            <circle
               class="cls-8"
               cx="57.93"
               cy="41.759998"
               r="2.55"
               id="circle32" />
            <circle
               class="cls-8"
               cx="77.389999"
               cy="31.6"
               r="2.55"
               id="circle34" />
            <circle
               class="cls-8"
               cx="62.529999"
               cy="61.790001"
               r="2.55"
               id="circle36" />
            <circle
               class="cls-8"
               cx="89.120003"
               cy="45.150002"
               r="2.55"
               id="circle38" />
            <circle
               class="cls-8"
               cx="60.130001"
               cy="51.619999"
               r="2.55"
               id="circle40" />
            <circle
               class="cls-8"
               cx="83.260002"
               cy="38.360001"
               r="2.55"
               id="circle42" />
            <polyline
               class="cls-9"
               points="89.12 45.15 60.13 51.62 77.39 31.6"
               id="polyline44" />
            <polyline
               class="cls-9"
               points="62.53 61.79 83.26 38.36 57.93 41.76"
               id="polyline46" />
          </g>
        </g>
      </g>
    </g>
  </g>
  <g
     id="g2440"
     transform="matrix(0.85728804,0,0,0.85728804,128.26315,28.691331)">
    <path
       fill="#ffac33"
       d="m -72.374768,-2.0971989 c -2.388003,-18.6030451 -7.242836,0.9297354 -7.242836,0.9297354 0,0 -10.40886,-17.5734375 -8.020858,1.02960718 C -85.250459,18.465186 -93.00532,27.727816 -93.00532,27.727816 l 32.864129,-4.218643 c -0.0027,3.45e-4 -9.845576,-7.003328 -12.233577,-25.6063719 z"
       id="path736"
       sodipodi:nodetypes="scsccs"
       style="stroke-width:2.69556" />
    <path
       fill="#c1694f"
       d="m -52.108658,25.195742 c 0.378895,2.951676 1.293317,5.269332 -1.65836,5.648227 l -42.77791,5.491239 c -2.95435,0.379239 -3.309984,-2.010147 -3.688882,-4.961823 l -0.3432,-2.67362 c -0.3789,-2.951675 2.425688,-5.746726 5.2116,-6.104343 l 37.208761,-4.776348 c 2.785912,-0.357617 5.325893,1.751373 5.704788,4.703048 z"
       id="path740"
       style="stroke-width:2.69556" />
    <path
       fill="#c1694f"
       d="m -46.203715,28.853969 c 0.260833,2.03195 0.91305,3.619598 -2.875468,4.105915 l -51.467167,6.606647 c -3.45433,0.443417 -4.21617,-1.130159 -4.477,-3.162108 l -0.0858,-0.668407 c -0.26084,-2.03195 1.50122,-3.92951 3.53318,-4.190343 l 51.467176,-6.606646 c 2.029278,-0.260491 3.558442,1.214586 3.819276,3.246536 z"
       id="path742"
       style="stroke-width:2.69556" />
    <g
       id="g3324"
       style="display:inline"
       inkscape:label="Shoe"
       transform="matrix(1.4461974,0,0,1.4461974,-157.47679,-33.477181)">
      <path
         class="cls-4"
         d="M 53.71,2.08 55.89,0.15 A 0.76,0.76 0 0 1 57,0.36 C 57.75,1.55 59.57,3.9 60.26,4.71 58.26,4.34 55.13,4.1 54.01,3.29 53.58,3 53.29,2.39 53.71,2.08 Z M 25,24 c 0.32,0.53 6.51,6.41 27.94,2.17 6.48,-1.29 25.89,-5.36 26,-5.84 0,0 0.14,0.65 0.21,1.27 a 1.55,1.55 0 0 1 -0.26,1.18 c -1.69,2.11 -6.25,2.38 -12.78,3.25 l -0.93,0.12 -0.62,0.09 c -1,0.13 -4,0.56 -7.4,1.06 -4.71,0.68 -14.14,2 -14.41,2 A 31.63,31.63 0 0 1 31.25,28.41 C 26,27.16 25,24 25,24 Z"
         id="path3312"
         style="fill:#ffcc4d;fill-opacity:1" />
      <path
         class="cls-2"
         d="m 25,24 a 3.77,3.77 0 0 1 -0.51,-1.74 4.07,4.07 0 0 1 2.15,-3.85 c 1.77,-1.05 7.54,-3.67 9.63,-4.89 1,-0.59 1.33,-1.5 3.25,-2.57 l 9.1,-5.28 c 3.5,-2 3.64,-4 5.33,-4.24 1.13,-0.15 8.48,5.15 11.91,4.7 2.4,-0.28 4.7,-4.2 6.14,-5.13 1.14,-0.71 2.7,0.81 3.56,2.23 0.86,1.42 2.09,7.15 2.3,8.7 0.21,1.55 0.59,3.33 0,4.58 l -0.6,1.25 c 0,0 -28.93,7 -36.31,7.57 C 28.35,26.26 25,24 25,24 Z"
         id="path3314"
         style="fill:#ffcc4d;fill-opacity:1" />
      <path
         class="cls-5"
         d="M 52.83,2 A 2,2 0 0 1 54,1.47 C 55.13,1.32 62.48,6.62 65.91,6.17 68.26,5.85 70.56,1.92 72,1 a 1.4,1.4 0 0 1 1.46,0.06 C 71.7,2.23 68.95,7.19 66.08,7.57 62.61,8.06 55.88,3.49 52.83,2 Z"
         id="path3316"
         style="fill:#ffbe1a;fill-opacity:1" />
      <path
         class="cls-5"
         d="m 61.29,18.54 c 0.4,-2.08 2.11,-6.49 4.64,-8.24 2.37,-1.63 9.26,-4 10.57,-4.43 a 49.24,49.24 0 0 1 1.5,6.64 c 0.19,1.46 0.47,3.13 -0.15,4.31 a 1.28,1.28 0 0 1 -0.45,0.54 c 0,0 -16.13,1.26 -16.11,1.18 z"
         id="path3318"
         style="fill:#ffbe1a;fill-opacity:1" />
      <path
         class="cls-6"
         d="m 52.18,7.61 a 1.14,1.14 0 0 0 1.45,-1.7 L 52,3.83 a 1.146342,1.146342 0 1 0 -1.8,1.42 l 1.65,2.08 a 1.26,1.26 0 0 0 0.33,0.28 z m -3.67,2.68 A 1.14,1.14 0 0 0 50.07,8.74 L 48.66,6.31 a 1.151043,1.151043 0 1 0 -2,1.14 l 1.44,2.43 a 1.08,1.08 0 0 0 0.41,0.41 z m -4,2 a 1.16,1.16 0 0 0 1,0.06 1.14,1.14 0 0 0 0.59,-1.49 L 45.1,8.5 A 1.142366,1.142366 0 0 0 43,9.4 l 1,2.36 a 1.16,1.16 0 0 0 0.5,0.53 z m -4,1.7 a 1.1,1.1 0 0 0 1,0.08 1.14,1.14 0 0 0 0.67,-1.46 l -0.72,-1.9 a 1.14,1.14 0 1 0 -2.13,0.8 l 0.72,1.9 A 1.08,1.08 0 0 0 40.47,14 Z M 78,17 a 4.35,4.35 0 0 1 -2.17,-0.12 12.35,12.35 0 0 0 -4.64,-0.09 97.42,97.42 0 0 0 -11.38,2 c -4,1.08 -10.92,4 -13.33,4.63 A 50.64,50.64 0 0 1 37.36,25 c -2.9,0.13 -5.51,0.16 -7.14,0.09 A 14.81,14.81 0 0 1 25,24 c 0.29,0.5 2.08,2.68 6.83,3.62 A 33.33,33.33 0 0 0 42.58,28.2 C 45.5,27.87 61.73,25.46 64.36,25.11 66.99,24.76 74.87,23.79 76.45,23 78.7,22 79.08,21.17 79,20.73 78.88,19.64 78.84,16.89 78,17 Z"
         id="path3320"
         style="fill:#ffac33;fill-opacity:1" />
      <path
         class="cls-5"
         d="m 26.67,18.45 c 1.77,-1.05 7.54,-3.67 9.63,-4.89 a 5.07,5.07 0 0 0 1,-0.86 1.18,1.18 0 0 1 0.24,0.31 c 0.82,1.72 -0.81,4.53 -4.53,6.3 -3,1.42 -6.63,1.74 -8.1,0.92 a 4.4,4.4 0 0 1 1.76,-1.78 z"
         id="path3322"
         style="fill:#ffbe1a;fill-opacity:1" />
    </g>
    <g
       id="g12662"
       inkscape:label="Crown"
       transform="matrix(1.6551848,-0.20211595,0.20211595,1.6551848,-151.28932,9.1182148)">
      <path
         fill="#f4900c"
         d="M 14.174,17.075 6.75,7.594 3.028,17.075 Z"
         id="path9063" />
      <path
         fill="#f4900c"
         d="M 17.938,5.534 11.375,17.923 H 24.5 Z"
         id="path9065" />
      <path
         fill="#f4900c"
         d="m 21.826,17.075 7.424,-9.481 3.722,9.481 z"
         id="path9067" />
      <path
         fill="#ffcc4d"
         d="M 28.669,15.19 23.887,3.523 18.007,15.191 18,15.194 17.993,15.19 12.113,3.522 7.331,15.19 C 4.197,10.833 1.28,8.042 1.28,8.042 1.28,8.042 3,20.75 3,33 h 30 c 0,-12.25 1.72,-24.958 1.72,-24.958 0,0 -2.917,2.791 -6.051,7.148 z"
         id="path9069" />
      <circle
         fill="#5c913b"
         cx="17.957001"
         cy="22"
         r="3.688"
         id="circle9071" />
      <circle
         fill="#981ceb"
         cx="26.462999"
         cy="22"
         r="2.4119999"
         id="circle9073" />
      <circle
         fill="#dd2e44"
         cx="32.852001"
         cy="22"
         r="1.9859999"
         id="circle9075" />
      <circle
         fill="#981ceb"
         cx="9.4499998"
         cy="22"
         r="2.4119999"
         id="circle9077" />
      <circle
         fill="#dd2e44"
         cx="3.0610001"
         cy="22"
         r="1.9859999"
         id="circle9079" />
      <path
         fill="#ffac33"
         d="M 33,34 H 3 C 2.448,34 2,33.553 2,33 2,32.447 2.448,32 3,32 h 30 c 0.553,0 1,0.447 1,1 0,0.553 -0.447,1 -1,1 z m 0,-3.486 H 3 c -0.552,0 -1,-0.447 -1,-1 0,-0.553 0.448,-1 1,-1 h 30 c 0.553,0 1,0.447 1,1 0,0.553 -0.447,1 -1,1 z"
         id="path9081" />
      <circle
         fill="#ffcc4d"
         cx="1.447"
         cy="8.0419998"
         r="1.4069999"
         id="circle9083" />
      <circle
         fill="#f4900c"
         cx="6.75"
         cy="7.5939999"
         r="1.192"
         id="circle9085" />
      <circle
         fill="#ffcc4d"
         cx="12.113"
         cy="3.523"
         r="1.784"
         id="circle9087" />
      <circle
         fill="#ffcc4d"
         cx="34.553001"
         cy="8.0419998"
         r="1.4069999"
         id="circle9089" />
      <circle
         fill="#f4900c"
         cx="29.25"
         cy="7.5939999"
         r="1.192"
         id="circle9091" />
      <circle
         fill="#ffcc4d"
         cx="23.886999"
         cy="3.523"
         r="1.784"
         id="circle9093" />
      <circle
         fill="#f4900c"
         cx="17.938"
         cy="5.5339999"
         r="1.784"
         id="circle9095" />
    </g>
  </g>
</svg>
