<?xml version="1.0" encoding="UTF-8" standalone="no"?>
<svg
   width="36.994862mm"
   height="40.669533mm"
   viewBox="0 0 104.87543 115.26605"
   version="1.1"
   id="svg32577"
   xmlns="http://www.w3.org/2000/svg"
   xmlns:svg="http://www.w3.org/2000/svg">
  <defs
     id="defs32527">
    <style
       id="style32525">
      .cls-1 {
        fill: #ffce0b;
      }

      .cls-2 {
        fill: #1f91cd;
      }

      .cls-3 {
        fill: #122a22;
      }

      .cls-4 {
        fill: #8899a6;
      }

      .cls-5 {
        fill: #6399d2;
      }

      .cls-6 {
        fill: #ccd6dd;
      }

      .cls-7 {
        fill: #2b2c29;
      }

      .cls-8 {
        fill: #2191ce;
        stroke: #fecc50;
      }

      .cls-8, .cls-9 {
        stroke-linejoin: round;
        stroke-width: 2px;
      }

      .cls-9 {
        fill: none;
        stroke: #fff;
        stroke-linecap: round;
      }
    </style>
  </defs>
  <g
     id="Layer_2"
     data-name="Layer 2"
     transform="translate(-0.01138548,13.088172)">
    <g
       id="grid">
      <g
         id="ml_copy"
         data-name="ml copy">
        <g
           id="thieves">
          <g
             id="g32571">
            <path
               class="cls-1"
               d="m 95.19,46.83 4.27,-2.64 c 0.86,-0.53 4,-2.66 5.21,-0.95 0.73,1 -0.46,4 -2.42,7.08 -1.79,2.85 -6,8.74 -6.18,9.87 -0.18,1.13 1.21,5.61 1.65,7.34 0.44,1.73 1.78,5.89 1.34,7.53 -0.44,1.64 -2.8,6.2 -9.3,6.38 -5.16,0.15 -6.72,-1.31 -6.93,-2.22 -0.15,-0.66 -0.61,-2.86 -0.61,-2.86 0,0 -4.14,2.8 -6.1,3.87 -1.96,1.07 -7.22,4 -7.22,4 0,0 1.22,4.71 1.47,6.62 0.25,1.91 0.95,4.62 0,6.5 -0.85,1.7 -3.59,4.6 -10.32,4.83 -5.25,0.17 -6.64,-1.41 -7.51,-2.37 -0.87,-0.96 -1.24,-5.7 -1.28,-6.7 -0.04,-1 -0.35,-4.49 -0.35,-4.49 0,0 -7.13,-0.07 -11.43,-0.21 -3.9,-0.13 -9,-0.52 -9,-0.52 0,0 0.27,2.06 0.51,3.55 0.23,1.32 0.37,4.11 -1,5.52 -1.79,1.9 -6.63,2.23 -9.3,2.08 -2.67,-0.15 -6.43,-1.37 -7.61,-3.74 -1.18,-2.37 0.11,-5.6 0.62,-7.45 0.45,-1.62 1.26,-4 0.89,-4.62 C 14.22,82.61 10.95,81.88 6.11,77.4 1.27,72.92 -5.5,57 7.72,45.17 c 13.22,-11.83 38.91,-0.58 40.27,0.2 1.36,0.78 47.2,1.46 47.2,1.46 z"
               id="path32529" />
            <path
               class="cls-2"
               d="M 52.77,18.37 C 40.43,19.42 31.4,25.91 27.07,32.78 a 56.86,56.86 0 0 0 -3.85,7 20.65,20.65 0 0 1 8.2,1.85 C 36,43.87 41.2,46.22 45,57.24 c 2.88,8.33 4.19,16.3 10.88,17.8 7.57,1.7 25,0 33.06,-8.45 C 97,58.14 98.39,52 96,44 93.61,36 83.43,22.24 70,19 64.12,17.67 58.37,17.9 52.77,18.37 Z"
               id="path32531" />
            <path
               class="cls-3"
               d="M 94.22,39.85 C 93.81,39 93,37.68 93,37.68 c 0,0 0,1.82 -0.11,2.79 -0.19,1.57 -0.92,4.85 -1.43,4.39 A 105.24,105.24 0 0 1 84,36.07 c -1.6,-2.18 -7.06,-7.81 -7.26,-9.72 a 19.52,19.52 0 0 1 1,-4.17 l -2.14,-1.1 a 21.18,21.18 0 0 0 -2,-0.84 c 0,0 -0.51,4.37 -1.23,5.22 -0.72,0.85 -4.63,2.5 -7.73,3.81 -3.75,1.59 -7.36,3.61 -8.73,3.92 -1.2,0.27 -8.11,-0.93 -10.72,-1.33 -3.27,-0.49 -8.22,-1.68 -9.38,-2.44 A 13.73,13.73 0 0 1 33,26.18 c 0,0 -0.77,0.57 -1.53,1.22 a 15.79,15.79 0 0 0 -1.72,1.9 c 0,0 2.13,2 2.28,2.74 0.2,1.06 -1,2.55 -2,4 -0.61,0.85 -2.27,4.4 -2.27,4.4 a 6.72,6.72 0 0 1 1.93,0.48 c 1.11,0.47 2.16,1 2.16,1 0,0 2.39,-6.23 4.08,-6.86 1.44,-0.53 5.62,0.66 8.64,1.16 4.29,0.71 8.62,1.32 9.58,2.43 0.96,1.11 2.06,5.86 3.08,9.82 1.12,4.35 4,15.63 3.48,16.52 -0.52,0.89 -5,0.76 -7.61,0.55 a 33.78,33.78 0 0 1 -5.75,-1.33 c 0,0 0.59,1.85 0.78,2.34 0.27,0.71 1.13,2.67 1.13,2.67 0,0 5.12,2 19.93,0 14.81,-2 21.75,-12.39 23.65,-17 2.55,-6.13 2.77,-9.35 2.77,-9.35 0,0 -0.98,-2.15 -1.39,-3.02 z m -12.78,20 c -3.66,2.52 -13.29,5.41 -15.08,4.54 -1.44,-0.7 -4,-12.23 -5.2,-17.37 -0.78,-3.29 -2.51,-8.27 -1.65,-9.88 0.58,-1.09 4.14,-2.82 6.77,-4.18 2.63,-1.36 6.07,-3 7.14,-2.94 1.52,0.11 5,5.24 8.39,9.61 3.39,4.37 7.18,8.91 7.3,10.53 0.12,1.62 -3.89,7.07 -7.67,9.66 z"
               id="path32533" />
            <path
               fill="#aa8dd8"
               d="m 63.778042,17.518455 c -0.479451,0.362737 -1.097187,0.542374 -1.742378,0.455028 -2.033934,-0.28143 -3.733353,-1.04294 -4.902856,-2.201029 -1.238162,-1.226071 -1.817107,-2.840196 -1.598154,-4.433136 0.386301,-2.7940285 3.274667,-5.2857489 8.058123,-4.6263986 1.860402,0.2551099 2.708884,-0.320518 2.745529,-0.6044504 C 66.379652,5.8246712 65.717363,5.0395856 63.85703,4.7821218 61.823097,4.5006906 60.123677,3.7391823 58.954176,2.5810925 57.716013,1.3550219 57.132362,-0.25924236 57.356021,-1.8520439 c 0.386369,-2.796382 3.274667,-5.2857487 8.053485,-4.6288913 1.356003,0.1860511 2.082075,-0.072833 2.39102,-0.2450933 0.246782,-0.1411166 0.34751,-0.2818312 0.359286,-0.3615709 0.03658,-0.2815842 -0.616306,-1.0663922 -2.481345,-1.3239942 -1.287891,-0.179331 -2.19034,-1.36723 -2.01101,-2.6551204 0.176978,-1.287961 1.362454,-2.188125 2.65512,-2.01101 4.778818,0.656858 6.889802,3.8354984 6.503363,6.6342348 -0.386369,2.7963829 -3.274666,5.2857496 -8.058122,4.6263992 -1.355933,-0.188404 -2.077368,0.072972 -2.386312,0.2452333 -0.249066,0.1386937 -0.349794,0.2794083 -0.359217,0.3592181 -0.04135,0.28379874 0.616236,1.06874544 2.481275,1.32634734 4.778749,0.6592123 6.889801,3.83549786 6.503364,6.63423466 -0.38637,2.796383 -3.274737,5.2881026 -8.053347,4.6241846 -1.356002,-0.186051 -2.082144,0.07519 -2.391089,0.247448 -0.246713,0.138763 -0.347441,0.279477 -0.359216,0.359217 -0.03665,0.283938 0.620943,1.068884 2.481274,1.326347 1.287961,0.176978 2.190341,1.36723 2.011011,2.655121 -0.09448,0.647337 -0.437997,1.193105 -0.917518,1.558196 z"
               id="path9163"
               style="stroke-width:2.35449" />
            <g
               id="g32547">
              <path
                 class="cls-4"
                 d="M 53.71,2.08 55.89,0.15 A 0.76,0.76 0 0 1 57,0.36 C 57.75,1.55 59.57,3.9 60.26,4.71 58.26,4.34 55.13,4.1 54.01,3.29 53.58,3 53.29,2.39 53.71,2.08 Z M 25,24 c 0.32,0.53 6.51,6.41 27.94,2.17 6.48,-1.29 25.89,-5.36 26,-5.84 0,0 0.14,0.65 0.21,1.27 a 1.55,1.55 0 0 1 -0.26,1.18 c -1.69,2.11 -6.25,2.38 -12.78,3.25 l -0.93,0.12 -0.62,0.09 c -1,0.13 -4,0.56 -7.4,1.06 -4.71,0.68 -14.14,2 -14.41,2 A 31.63,31.63 0 0 1 31.25,28.41 C 26,27.16 25,24 25,24 Z"
                 id="path32535" />
              <path
                 class="cls-2"
                 d="m 25,24 a 3.77,3.77 0 0 1 -0.51,-1.74 4.07,4.07 0 0 1 2.15,-3.85 c 1.77,-1.05 7.54,-3.67 9.63,-4.89 1,-0.59 1.33,-1.5 3.25,-2.57 l 9.1,-5.28 c 3.5,-2 3.64,-4 5.33,-4.24 1.13,-0.15 8.48,5.15 11.91,4.7 2.4,-0.28 4.7,-4.2 6.14,-5.13 1.14,-0.71 2.7,0.81 3.56,2.23 0.86,1.42 2.09,7.15 2.3,8.7 0.21,1.55 0.59,3.33 0,4.58 l -0.6,1.25 c 0,0 -28.93,7 -36.31,7.57 C 28.35,26.26 25,24 25,24 Z"
                 id="path32537" />
              <path
                 class="cls-5"
                 d="M 52.83,2 A 2,2 0 0 1 54,1.47 C 55.13,1.32 62.48,6.62 65.91,6.17 68.26,5.85 70.56,1.92 72,1 a 1.4,1.4 0 0 1 1.46,0.06 C 71.7,2.23 68.95,7.19 66.08,7.57 62.61,8.06 55.88,3.49 52.83,2 Z"
                 id="path32539" />
              <path
                 class="cls-5"
                 d="m 61.29,18.54 c 0.4,-2.08 2.11,-6.49 4.64,-8.24 2.37,-1.63 9.26,-4 10.57,-4.43 a 49.24,49.24 0 0 1 1.5,6.64 c 0.19,1.46 0.47,3.13 -0.15,4.31 a 1.28,1.28 0 0 1 -0.45,0.54 c 0,0 -16.13,1.26 -16.11,1.18 z"
                 id="path32541" />
              <path
                 class="cls-6"
                 d="m 52.18,7.61 a 1.14,1.14 0 0 0 1.45,-1.7 L 52,3.83 a 1.146342,1.146342 0 1 0 -1.8,1.42 l 1.65,2.08 a 1.26,1.26 0 0 0 0.33,0.28 z m -3.67,2.68 A 1.14,1.14 0 0 0 50.07,8.74 L 48.66,6.31 a 1.151043,1.151043 0 1 0 -2,1.14 l 1.44,2.43 a 1.08,1.08 0 0 0 0.41,0.41 z m -4,2 a 1.16,1.16 0 0 0 1,0.06 1.14,1.14 0 0 0 0.59,-1.49 L 45.1,8.5 A 1.142366,1.142366 0 0 0 43,9.4 l 1,2.36 a 1.16,1.16 0 0 0 0.5,0.53 z m -4,1.7 a 1.1,1.1 0 0 0 1,0.08 1.14,1.14 0 0 0 0.67,-1.46 l -0.72,-1.9 a 1.14,1.14 0 1 0 -2.13,0.8 l 0.72,1.9 A 1.08,1.08 0 0 0 40.47,14 Z M 78,17 a 4.35,4.35 0 0 1 -2.17,-0.12 12.35,12.35 0 0 0 -4.64,-0.09 97.42,97.42 0 0 0 -11.38,2 c -4,1.08 -10.92,4 -13.33,4.63 A 50.64,50.64 0 0 1 37.36,25 c -2.9,0.13 -5.51,0.16 -7.14,0.09 A 14.81,14.81 0 0 1 25,24 c 0.29,0.5 2.08,2.68 6.83,3.62 A 33.33,33.33 0 0 0 42.58,28.2 C 45.5,27.87 61.73,25.46 64.36,25.11 66.99,24.76 74.87,23.79 76.45,23 78.7,22 79.08,21.17 79,20.73 78.88,19.64 78.84,16.89 78,17 Z"
                 id="path32543" />
              <path
                 class="cls-5"
                 d="m 26.67,18.45 c 1.77,-1.05 7.54,-3.67 9.63,-4.89 a 5.07,5.07 0 0 0 1,-0.86 1.18,1.18 0 0 1 0.24,0.31 c 0.82,1.72 -0.81,4.53 -4.53,6.3 -3,1.42 -6.63,1.74 -8.1,0.92 a 4.4,4.4 0 0 1 1.76,-1.78 z"
                 id="path32545" />
            </g>
            <path
               class="cls-7"
               d="m 32,55.27 c 0.54,2.49 -0.64,5.13 -3.4,5.48 C 26.3,61 24.44,59.52 23.9,57 a 4.39,4.39 0 0 1 3.1,-5.37 4.4,4.4 0 0 1 5,3.64 z"
               id="path32549" />
            <path
               class="cls-7"
               d="m 15.68,56.14 c 0.17,2.52 -1.94,5.14 -4.69,4.73 C 8.72,60.53 7.35,58.59 7.5,56.08 a 4.37,4.37 0 0 1 4.4,-4.31 c 2.28,0.13 3.62,1.75 3.78,4.37 z"
               id="path32551" />
            <path
               class="cls-7"
               d="m 23.11,65.16 c 1,-0.74 2.66,-2.48 3.83,-1.1 1.17,1.38 -0.7,2.79 -1.79,3.64 -1.09,0.85 -3.51,3 -5.32,3 -1.81,0 -4.33,-1.89 -6,-3.2 -1.37,-1.07 -2,-2.49 -1.33,-3.39 0.67,-0.9 1.88,-0.62 2.89,0.2 1.17,1 3.42,2.86 4.31,2.83 0.89,-0.03 2.07,-0.99 3.41,-1.98 z"
               id="path32553" />
            <circle
               class="cls-8"
               cx="57.93"
               cy="41.759998"
               r="2.55"
               id="circle32555" />
            <circle
               class="cls-8"
               cx="77.389999"
               cy="31.6"
               r="2.55"
               id="circle32557" />
            <circle
               class="cls-8"
               cx="62.529999"
               cy="61.790001"
               r="2.55"
               id="circle32559" />
            <circle
               class="cls-8"
               cx="89.120003"
               cy="45.150002"
               r="2.55"
               id="circle32561" />
            <circle
               class="cls-8"
               cx="60.130001"
               cy="51.619999"
               r="2.55"
               id="circle32563" />
            <circle
               class="cls-8"
               cx="83.260002"
               cy="38.360001"
               r="2.55"
               id="circle32565" />
            <polyline
               class="cls-9"
               points="89.12 45.15 60.13 51.62 77.39 31.6"
               id="polyline32567" />
            <polyline
               class="cls-9"
               points="62.53 61.79 83.26 38.36 57.93 41.76"
               id="polyline32569" />
          </g>
        </g>
      </g>
    </g>
  </g>
  <g
     id="g8739"
     transform="matrix(1.0300627,-0.14219801,0.14219801,1.0300627,-19.322344,21.002126)">
    <path
       fill="#dd2e44"
       d="m 52.506368,47.082867 c 0.01328,-0.109301 -0.02824,-0.224062 -0.09832,-0.340404 0,0 -14.130429,-23.449491 -15.671802,-23.631973 -1.541503,-0.180105 -20.718276,19.361258 -20.718276,19.361258 -0.09633,0.09753 -0.162901,0.197894 -0.175038,0.308476 -0.18069,1.530706 7.881646,3.732043 18.005075,4.920985 10.125813,1.189074 18.47767,0.912362 18.658362,-0.618342 z"
       id="path5268"
       style="stroke-width:1.68912" />
    <path
       fill="#ea596e"
       d="m 36.910444,23.815538 c -0.0451,0.01226 -0.09976,0.0369 -0.16307,0.07485 -1.27625,1.439349 -11.565988,13.519252 -14.338925,17.790308 2.168665,0.745234 4.657846,1.24669 7.662388,1.763932 1.414869,-3.989147 7.721325,-18.904972 6.83961,-19.629086 z"
       id="path5270"
       style="stroke-width:1.39378" />
  </g>
  <g
     id="g9662"
     transform="matrix(-0.81908484,0.57358561,-0.57358561,-0.81908484,118.22956,55.258247)">
    <path
       fill="#77b255"
       d="m 36.464888,23.714639 c -4.645655,1.31152 -7.850286,-0.758186 -8.613181,-3.477766 -0.762896,-2.717225 0.890044,-6.157318 5.533344,-7.464129 1.813054,-0.508597 2.35697,-1.375095 2.283977,-1.650585 -0.08006,-0.280199 -1.000712,-0.73464 -2.809056,-0.226043 -4.6433,1.309166 -7.847931,-0.762895 -8.610826,-3.4824742 -0.767604,-2.71958 0.890044,-6.154963 5.535699,-7.46177508 1.810699,-0.510951 2.35697,-1.37980392 2.276913,-1.65529392 -0.0777,-0.273135 -0.996002,-0.732285 -2.806701,-0.223688 -1.247946,0.350837 -2.552402,-0.374384 -2.90324,-1.624684 -0.348483,-1.25501 0.379093,-2.552403 1.631748,-2.905595 4.640946,-1.306811 7.847931,0.758186 8.615536,3.482475 0.762895,2.71722592 -0.892399,6.152609 -5.538054,7.464129 -1.813054,0.508597 -2.35697,1.375095 -2.276913,1.650585 0.07535,0.27549 0.993648,0.73464 2.801992,0.226043 4.648009,-1.309166 7.850285,0.758186 8.615535,3.482475 0.76525,2.7148702 -0.890044,6.1502532 -5.538054,7.4617742 -1.808344,0.506242 -2.35226,1.379804 -2.276912,1.650585 0.08006,0.277844 0.996002,0.73464 2.806701,0.228397 1.252655,-0.355546 2.550047,0.374384 2.90324,1.624685 0.350837,1.2503 -0.379093,2.552402 -1.631748,2.900885 z"
       id="path9165"
       style="stroke-width:2.35461" />
    <circle
       fill="#5c913b"
       cx="115.08487"
       cy="29.281055"
       r="3.5319221"
       id="circle9167"
       style="stroke-width:2.35461" />
    <circle
       fill="#9266cc"
       cx="-1.5609223"
       cy="54.225868"
       r="4.7092295"
       id="circle9169"
       style="stroke-width:2.35461" />
    <circle
       fill="#9266cc"
       cx="68.721565"
       cy="-4.6494675"
       r="4.7092295"
       id="circle9171"
       style="stroke-width:2.35461" />
    <circle
       fill="#5c913b"
       cx="40.396275"
       cy="-15.63764"
       r="3.5319221"
       id="circle9173"
       style="stroke-width:2.35461" />
    <circle
       fill="#5c913b"
       cx="58.245148"
       cy="48.778267"
       r="3.5319221"
       id="circle9175"
       style="stroke-width:2.35461" />
    <circle
       fill="#ffcc4d"
       cx="4.7459846"
       cy="31.533159"
       r="4.7092295"
       id="circle9177"
       style="stroke-width:2.35461" />
    <circle
       fill="#ffcc4d"
       cx="72.41819"
       cy="90.217278"
       r="3.5319221"
       id="circle9179"
       style="stroke-width:2.35461" />
    <circle
       fill="#ffcc4d"
       cx="65.119316"
       cy="14.010614"
       r="3.5319221"
       id="circle9181"
       style="stroke-width:2.35461" />
    <path
       fill="#77b255"
       d="m 52.222969,81.358457 c -2.728381,-3.982231 -1.792258,-7.680476 0.540508,-9.273061 2.330534,-1.591833 6.118587,-1.125891 8.841753,2.85561 1.061725,1.555178 2.056666,1.79341 2.294343,1.636146 0.239879,-0.165467 0.376017,-1.183103 -0.684201,-2.733818 -2.725397,-3.980749 -1.787043,-7.679747 0.545723,-9.272332 2.33126,-1.597047 6.116356,-1.125138 8.840277,2.858594 1.0632,1.552194 2.061129,1.791905 2.296549,1.627947 0.23394,-0.160972 0.37529,-1.177887 -0.68568,-2.730833 -0.731529,-1.070203 -0.461569,-2.538085 0.61086,-3.270359 1.07765,-0.73155 2.53959,-0.457109 3.27485,0.616802 2.72241,3.979271 1.7915,7.678241 -0.54422,9.276795 -2.33053,1.591832 -6.114879,1.122154 -8.843258,-2.860073 -1.061724,-1.555178 -2.056666,-1.79341 -2.292084,-1.629453 -0.236924,0.159498 -0.378276,1.17641 0.681942,2.727125 2.726904,3.98521 1.792258,7.680474 -0.544216,9.2768 -2.327551,1.59331 -6.111896,1.12362 -8.84103,-2.860832 -1.057987,-1.551468 -2.059622,-1.787442 -2.292084,-1.629451 -0.237648,0.164713 -0.377523,1.17864 0.681218,2.732339 0.737488,1.073154 0.460817,2.535854 -0.610864,3.270364 -1.072432,0.73227 -2.53959,0.4571 -3.270386,-0.61831 z"
       id="path9584"
       style="stroke-width:2.35461" />
    <path
       fill="#aa8dd8"
       d="m 107.72496,8.9597897 c 0.48346,0.3574249 0.83035,0.8992485 0.92889,1.5428613 0.3048,2.030666 0.0545,3.876102 -0.72592,5.325265 -0.82626,1.534238 -2.21107,2.545757 -3.80104,2.785872 -2.78945,0.419001 -5.995973,-1.64764 -6.71524,-6.422697 -0.281012,-1.85676 -1.07298,-2.5080348 -1.355713,-2.4629486 -0.283929,0.040537 -0.8499,0.8977216 -0.571161,2.7550836 0.304804,2.030666 0.05454,3.876102 -0.725912,5.325265 -0.826262,1.534238 -2.209877,2.550312 -3.801043,2.785874 -2.791732,0.419601 -5.995974,-1.647641 -6.716322,-6.417544 -0.204719,-1.35338 -0.658248,-1.976735 -0.910801,-2.224426 -0.20513,-0.196838 -0.368565,-0.253716 -0.448385,-0.242481 -0.280458,0.04448 -0.848815,0.892575 -0.568884,2.754486 0.191921,1.286139 -0.692594,2.487545 -1.978731,2.679462 -1.285547,0.194201 -2.484072,-0.688639 -2.679468,-1.978735 -0.720347,-4.769902 1.732344,-7.6932143 4.526354,-8.1134119 2.791732,-0.4196 5.995976,1.6476398 6.715241,6.4226959 0.202444,1.353978 0.657054,1.972181 0.909606,2.219869 0.203464,0.199703 0.366885,0.256595 0.446108,0.24308 0.283932,-0.04053 0.851092,-0.893171 0.571161,-2.755083 -0.718069,-4.7705025 1.732345,-7.6932166 4.526355,-8.1134149 2.791732,-0.4196 5.998255,1.6470415 6.711765,6.4187409 0.20472,1.353379 0.66053,1.976136 0.91308,2.223824 0.20281,0.197481 0.36629,0.254317 0.44611,0.24308 0.28273,-0.04508 0.8499,-0.897722 0.57116,-2.755083 -0.1942,-1.2855418 0.6926,-2.4875457 1.97874,-2.6794649 0.64768,-0.092301 1.26831,0.083002 1.75405,0.4398306 z"
       id="path9586"
       style="stroke-width:2.35461" />
  </g>
</svg>
