<?xml version="1.0" encoding="UTF-8" standalone="no"?>
<svg
   width="37.13068mm"
   height="38.071278mm"
   viewBox="0 0 105.26358 107.91747"
   version="1.1"
   id="svg78180"
   sodipodi:docname="spy.svg"
   inkscape:version="1.2.2 (732a01da63, 2022-12-09)"
   xmlns:inkscape="http://www.inkscape.org/namespaces/inkscape"
   xmlns:sodipodi="http://sodipodi.sourceforge.net/DTD/sodipodi-0.dtd"
   xmlns="http://www.w3.org/2000/svg"
   xmlns:svg="http://www.w3.org/2000/svg">
  <sodipodi:namedview
     id="namedview78182"
     pagecolor="#ffffff"
     bordercolor="#000000"
     borderopacity="0.25"
     inkscape:showpageshadow="2"
     inkscape:pageopacity="0.0"
     inkscape:pagecheckerboard="0"
     inkscape:deskcolor="#d1d1d1"
     inkscape:document-units="mm"
     showgrid="false"
     inkscape:zoom="3.0798991"
     inkscape:cx="-12.013381"
     inkscape:cy="94.808301"
     inkscape:window-width="1920"
     inkscape:window-height="1057"
     inkscape:window-x="1912"
     inkscape:window-y="-8"
     inkscape:window-maximized="1"
     inkscape:current-layer="svg78180" />
  <defs
     id="defs78152">
    <style
       id="style78150">
      .cls-1 {
        fill: #67556c;
      }

      .cls-2, .cls-5 {
        fill: #2b2c29;
      }

      .cls-3 {
        fill: #66757f;
      }

      .cls-4 {
        fill: #2a3034;
      }

      .cls-5 {
        fill-rule: evenodd;
      }
    </style>
  </defs>
  <g
     id="Layer_2"
     data-name="Layer 2"
     transform="translate(-0.02316629,1.181193)">
    <g
       id="grid">
      <g
         id="wl_copy"
         data-name="wl copy">
        <g
           id="spies">
          <g
             id="g78166">
            <path
               class="cls-1"
               d="m 95.58,51.37 4.28,-2.63 c 0.86,-0.53 4,-2.66 5.21,-1 0.73,1 -0.46,4 -2.43,7.08 -1.78,2.85 -6,8.73 -6.18,9.87 -0.18,1.14 1.21,5.6 1.66,7.34 0.45,1.74 1.78,5.97 1.34,7.58 -0.44,1.61 -2.8,6.2 -9.3,6.38 -5.17,0.15 -6.73,-1.31 -6.93,-2.23 -0.15,-0.66 -0.61,-2.85 -0.61,-2.85 0,0 -4.15,2.79 -6.1,3.87 -1.95,1.08 -7.23,4 -7.23,4 0,0 1.23,4.7 1.48,6.61 0.25,1.91 1,4.63 0,6.51 -0.85,1.7 -3.6,4.6 -10.32,4.83 -5.26,0.17 -6.64,-1.41 -7.52,-2.37 -0.88,-0.96 -1.23,-5.71 -1.27,-6.7 -0.04,-0.99 -0.35,-4.49 -0.35,-4.49 0,0 -7.13,-0.07 -11.44,-0.21 -3.89,-0.13 -9,-0.52 -9,-0.52 0,0 0.26,2.06 0.51,3.54 0.25,1.48 0.37,4.11 -1,5.53 -1.8,1.9 -6.63,2.22 -9.3,2.07 -2.67,-0.15 -6.44,-1.36 -7.61,-3.73 -1.17,-2.37 0.11,-5.6 0.61,-7.45 0.45,-1.63 1.27,-4 0.9,-4.62 C 14.61,87.16 11.34,86.46 6.49,82 1.64,77.54 -5.11,61.55 8.12,49.72 c 13.23,-11.83 38.9,-0.58 40.27,0.2 1.37,0.78 47.19,1.45 47.19,1.45 z"
               id="path78154" />
            <path
               class="cls-2"
               d="m 53.16,22.92 c -12.33,1 -21.36,7.54 -25.7,14.41 a 56.4,56.4 0 0 0 -3.85,7 20.79,20.79 0 0 1 8.21,1.86 c 4.53,2.19 9.78,4.55 13.6,15.57 2.89,8.33 4.19,16.3 10.88,17.8 7.58,1.69 25,0 33.07,-8.45 8.07,-8.45 9.42,-14.64 7,-22.55 -2.42,-7.91 -12.57,-21.76 -26,-25 -5.85,-1.34 -11.6,-1.11 -17.21,-0.64 z"
               id="path78156" />
            <path
               class="cls-1"
               d="m 94.62,44.4 c -0.41,-0.86 -1.24,-2.17 -1.24,-2.17 0,0 0,1.82 -0.11,2.78 -0.19,1.58 -0.92,4.86 -1.44,4.4 A 109,109 0 0 1 84.39,40.62 C 82.78,38.44 77.32,32.8 77.12,30.9 a 19.37,19.37 0 0 1 1,-4.17 L 76,25.62 c -0.8,-0.4 -2,-0.83 -2,-0.83 0,0 -0.51,4.37 -1.23,5.22 -0.72,0.85 -4.63,2.49 -7.77,3.81 -3.75,1.59 -7.37,3.61 -8.73,3.91 C 55.07,38 48.15,36.8 45.55,36.41 42.28,35.92 37.33,34.73 36.17,33.97 a 13.7,13.7 0 0 1 -2.86,-3.25 c 0,0 -0.77,0.58 -1.53,1.23 a 15,15 0 0 0 -1.72,1.9 c 0,0 2.13,2 2.27,2.73 0.21,1.06 -1,2.56 -2,4 -0.61,0.85 -2.27,4.4 -2.27,4.4 a 6.4,6.4 0 0 1 1.93,0.48 c 1.11,0.46 2.15,1 2.15,1 0,0 2.39,-6.23 4.08,-6.86 1.45,-0.54 5.63,0.65 8.65,1.16 4.29,0.7 8.62,1.31 9.57,2.43 0.95,1.12 2.07,5.85 3.09,9.82 1.11,4.35 4,15.62 3.48,16.51 -0.52,0.89 -5,0.77 -7.62,0.56 a 33.69,33.69 0 0 1 -5.75,-1.34 c 0,0 0.59,1.86 0.78,2.35 0.28,0.7 1.14,2.67 1.14,2.67 0,0 5.12,2 19.93,0 a 29.76,29.76 0 0 0 23.65,-17 c 2.54,-6.13 2.77,-9.35 2.77,-9.35 0,0 -0.91,-2.15 -1.29,-3.01 z m -12.78,20 c -3.67,2.52 -13.29,5.42 -15.09,4.55 -1.43,-0.7 -4,-12.23 -5.2,-17.37 -0.77,-3.3 -2.51,-8.27 -1.65,-9.88 0.58,-1.09 4.15,-2.83 6.78,-4.18 2.63,-1.35 6.07,-3 7.14,-2.95 1.52,0.12 5,5.24 8.39,9.61 3.39,4.37 7.17,8.91 7.3,10.53 0.13,1.62 -3.89,7.07 -7.67,9.65 z"
               id="path78158" />
            <path
               class="cls-2"
               d="m 32.36,59.81 c 0.55,2.5 -0.64,5.14 -3.39,5.49 -2.27,0.29 -4.13,-1.23 -4.68,-3.72 a 4.4,4.4 0 0 1 3.06,-5.4 4.38,4.38 0 0 1 5.01,3.63 z"
               id="path78160" />
            <path
               class="cls-2"
               d="m 16.08,60.69 c 0.16,2.52 -1.94,5.13 -4.7,4.73 -2.26,-0.34 -3.63,-2.28 -3.49,-4.8 a 4.38,4.38 0 0 1 4.41,-4.3 c 2.28,0.13 3.61,1.74 3.78,4.37 z"
               id="path78162" />
            <path
               class="cls-2"
               d="m 23.51,69.7 c 1,-0.74 2.65,-2.48 3.83,-1.09 1.18,1.39 -0.71,2.78 -1.79,3.63 -1.08,0.85 -3.51,3 -5.32,3 -1.81,0 -4.33,-1.88 -6,-3.19 -1.37,-1.07 -2,-2.49 -1.33,-3.39 0.67,-0.9 1.88,-0.63 2.89,0.19 1.17,1 3.42,2.87 4.31,2.84 0.89,-0.03 2.07,-0.99 3.41,-1.99 z"
               id="path78164" />
          </g>
          <g
             id="g78172"
             style="display:none"
             inkscape:label="old hat">
            <path
               class="cls-3"
               d="m 26.41,23.85 c 0,0 3.86,-25.29 16.85,-23.79 10,1.16 13.89,2.35 22.25,0.28 C 71,-1 77.06,3.57 80.68,12.78 a 78.51,78.51 0 0 1 3.48,11.48 c 0,0 11.19,-1.1 11.84,4.92 0.65,6.02 -12.37,13.4 -45.13,13.4 -18.37,0 -37.32,-6.7 -38.22,-12.31 -0.9,-5.61 13.76,-6.42 13.76,-6.42 z"
               id="path78168" />
            <path
               class="cls-4"
               d="m 27.17,20.31 c 0,0 -0.77,3.14 -1.17,5.31 -0.4,2.17 0.64,3.69 7.69,5.19 9.33,2 30.33,2 42.77,-1.09 5,-1.23 8.2,-2 7.82,-4.5 A 31.94,31.94 0 0 0 82.75,19 c 0,0 -4.2,1.43 -9.74,2.73 -7.55,1.77 -28.3,2.58 -38.29,0.41 -5.32,-1.22 -7.55,-1.83 -7.55,-1.83 z"
               id="path78170" />
          </g>
          <path
             class="cls-5"
             d="m 0.22,67.08 c 0.29,0.28 1.72,1.12 2,2 0.28,0.88 0.92,5.68 2.64,7.08 1.72,1.4 8.42,0.83 9.69,0.18 2.84,-1.45 3.14,-5.42 3.63,-7.43 0.27,-1.14 2,-1.16 2,-1.16 0,0 1.71,0 2,1.11 0.52,2 0.91,6 3.78,7.36 1.28,0.62 7.94,1.1 9.69,-0.39 1.75,-1.49 2.21,-6.28 2.48,-7.14 0.27,-0.86 1.69,-1.72 2,-2 a 1.82,1.82 0 0 0 0,-1.71 c -0.58,-0.56 -7.31,-1 -14.54,-0.13 a 24.91,24.91 0 0 1 -5.41,0.63 25.37,25.37 0 0 1 -5.42,-0.51 C 7.52,64.26 0.76,64.84 0.24,65.41 a 1.79,1.79 0 0 0 -0.02,1.67 z"
             id="path78174" />
        </g>
      </g>
    </g>
  </g>
  <g
     id="g8739"
     transform="matrix(2.0560382,-0.3060103,0.3060103,2.0560382,-26.278932,-37.601601)"
     inkscape:label="Hat">
    <path
       fill="#dd2e44"
       d="m 50.008438,43.57252 c 0.01096,-0.09019 -0.0233,-0.184885 -0.08113,-0.280885 0,0 -11.659764,-19.349415 -12.931632,-19.49999 -1.271976,-0.148614 -17.095745,15.975997 -17.095745,15.975997 -0.07949,0.08048 -0.134418,0.163293 -0.144433,0.25454 -0.149097,1.263066 6.503563,3.079506 14.856939,4.060565 8.355344,0.981168 15.246902,0.752838 15.396001,-0.510227 z"
       id="path5268"
       style="fill:#66757f;fill-opacity:1;stroke-width:1.39378" />
    <path
       fill="#ea596e"
       d="m 36.910444,23.815538 c -0.0451,0.01226 -0.09976,0.0369 -0.16307,0.07485 -1.27625,1.439349 -11.565988,13.519252 -14.338925,17.790308 2.168665,0.745234 4.657846,1.24669 7.662388,1.763932 1.414869,-3.989147 7.721325,-18.904972 6.83961,-19.629086 z"
       id="path5270"
       style="fill:#81909a;fill-opacity:1;stroke-width:1.39378" />
  </g>
  <g
     id="g9662"
     transform="matrix(0.77221198,-0.63533248,0.63533248,0.77221198,-18.261525,63.297939)"
     inkscape:label="Confetti">
    <path
       fill="#77b255"
       d="m 75.628273,-14.482408 c 0.09167,4.8263642 -2.722455,7.4020308 -5.546587,7.4509785 -2.821857,0.049546 -5.730901,-2.4210625 -5.818605,-7.2439595 -0.03263,-1.882756 -0.733045,-2.628467 -1.01804,-2.627657 -0.29134,0.0065 -0.964218,0.781924 -0.930392,2.660125 0.08999,4.8234896 -2.726414,7.3985602 -5.550548,7.4475076 -2.825325,0.053499 -5.728618,-2.4204683 -5.815728,-7.2456426 -0.03551,-1.881074 -0.737601,-2.629659 -1.024387,-2.622017 -0.283908,0.006 -0.960744,0.777966 -0.927515,2.658444 0.0232,1.296117 -1.008861,2.374263 -2.307258,2.396865 -1.302354,0.01913 -2.373068,-1.01342 -2.397354,-2.314688 -0.0883,-4.820615 2.72186,-7.399754 5.551742,-7.452064 2.821856,-0.04954 5.725745,2.42215 5.817409,7.248518 0.03263,1.882755 0.733045,2.628466 1.01983,2.620822 0.285592,-0.0031 0.962427,-0.775091 0.928602,-2.653291 -0.08879,-4.828045 2.722456,-7.402031 5.55174,-7.452063 2.820176,-0.05242 5.724066,2.419273 5.815134,7.24792 0.03155,1.877603 0.738794,2.625104 1.01983,2.620822 0.289062,-0.0071 0.963024,-0.777369 0.932072,-2.657251 -0.02656,-1.301864 1.008267,-2.371982 2.307259,-2.396864 1.298393,-0.0226 2.373069,1.01342 2.392796,2.313495 z"
       id="path9165"
       style="stroke-width:2.35461" />
    <circle
       fill="#5c913b"
       cx="91.613846"
       cy="47.430138"
       r="3.5319221"
       id="circle9167"
       style="stroke-width:2.35461" />
    <circle
       fill="#9266cc"
       cx="66.867844"
       cy="10.202686"
       r="4.7092295"
       id="circle9169"
       style="stroke-width:2.35461" />
    <circle
       fill="#9266cc"
       cx="80.476624"
       cy="70.827919"
       r="4.7092295"
       id="circle9171"
       style="stroke-width:2.35461" />
    <circle
       fill="#5c913b"
       cx="11.448915"
       cy="43.715626"
       r="3.5319221"
       id="circle9173"
       style="stroke-width:2.35461" />
    <circle
       fill="#5c913b"
       cx="51.256451"
       cy="32.626095"
       r="3.5319221"
       id="circle9175"
       style="stroke-width:2.35461" />
    <circle
       fill="#ffcc4d"
       cx="93.915558"
       cy="14.275743"
       r="4.7092295"
       id="circle9177"
       style="stroke-width:2.35461" />
    <circle
       fill="#ffcc4d"
       cx="34.47023"
       cy="68.953568"
       r="3.5319221"
       id="circle9179"
       style="stroke-width:2.35461" />
    <circle
       fill="#ffcc4d"
       cx="28.946676"
       cy="5.1571012"
       r="3.5319221"
       id="circle9181"
       style="stroke-width:2.35461" />
    <path
       fill="#77b255"
       d="m 66.678626,100.30843 c -4.767344,0.75804 -7.707337,-1.672963 -8.146257,-4.463209 -0.439198,-2.787907 1.605507,-6.010581 6.369959,-6.764224 1.860166,-0.292614 2.501881,-1.089398 2.461677,-1.371543 -0.04667,-0.287652 -0.907721,-0.846855 -2.763208,-0.553689 -4.76473,0.75598 -7.704447,-1.677363 -8.143367,-4.467608 -0.443598,-2.790798 1.605231,-6.008244 6.372023,-6.761611 1.858102,-0.295227 2.502434,-1.094076 2.455214,-1.377051 -0.04516,-0.280358 -0.90332,-0.843963 -2.761145,-0.551074 -1.280467,0.202177 -2.490938,-0.670929 -2.692833,-1.953725 -0.199002,-1.287204 0.675604,-2.490387 1.961019,-2.694344 4.762113,-0.753915 7.704996,1.672691 8.148044,4.468164 0.439199,2.787903 -1.607294,6.005629 -6.374637,6.76367 -1.860165,0.292613 -2.501881,1.089398 -2.454662,1.372372 0.04254,0.282422 0.900707,0.846026 2.756194,0.552859 4.769406,-0.755429 7.707338,1.672964 8.148047,4.468162 0.441815,2.785848 -1.604684,6.003566 -6.374365,6.761333 -1.855211,0.290828 -2.497756,1.094627 -2.45466,1.372373 0.04695,0.285312 0.903044,0.846303 2.760594,0.555749 1.285691,-0.206292 2.488596,0.67065 2.692832,1.95373 0.201891,1.282799 -0.675609,2.490386 -1.960469,2.689666 z"
       id="path9584"
       style="stroke-width:2.35461" />
    <path
       fill="#aa8dd8"
       d="m 112.06322,18.258898 c 0.46153,-0.385327 1.06997,-0.594387 1.71864,-0.538068 2.04519,0.183599 3.77925,0.862789 5.003,1.963531 1.29558,1.165354 1.95128,2.749946 1.80895,4.351631 -0.25191,2.809477 -3.01763,5.436944 -7.82744,5.00767 -1.87058,-0.165629 -2.69053,0.450044 -2.71352,0.735425 -0.0277,0.285467 0.6715,1.037938 2.54214,1.205919 2.04518,0.183599 3.77925,0.862789 5.00299,1.963531 1.29558,1.165355 1.95599,2.74986 1.80895,4.351632 -0.25187,2.81183 -3.01763,5.436943 -7.82269,5.009937 -1.36343,-0.120831 -2.07629,0.172583 -2.37663,0.359465 -0.23974,0.152816 -0.33362,0.298187 -0.34156,0.378401 -0.023,0.283028 0.66676,1.035667 2.5421,1.203565 1.29507,0.117383 2.25349,1.260708 2.1361,2.555777 -0.11503,1.295025 -1.25604,2.251043 -2.55578,2.136103 -4.80505,-0.427007 -7.06612,-3.500935 -6.81429,-6.315122 0.25186,-2.811829 3.01762,-5.436943 7.82743,-5.007669 1.36348,0.123185 2.07158,-0.172496 2.37193,-0.359378 0.24212,-0.150518 0.33601,-0.295874 0.3416,-0.376047 0.0277,-0.285468 -0.66681,-1.038022 -2.54214,-1.205919 -4.8051,-0.429361 -7.06612,-3.500934 -6.8143,-6.315119 0.25187,-2.811832 3.01759,-5.439298 7.82277,-5.005229 1.36343,0.120831 2.07625,-0.174936 2.37659,-0.36182 0.23981,-0.150409 0.33366,-0.295832 0.3416,-0.376045 0.023,-0.285383 -0.6715,-1.037939 -2.54214,-1.205921 -1.29502,-0.115028 -2.25348,-1.260705 -2.1361,-2.555777 0.0633,-0.651155 0.38031,-1.212792 0.8418,-1.600473 z"
       id="path9586"
       style="stroke-width:2.35461" />
    <path
       fill="#aa8dd8"
       d="m 59.688164,35.991412 c 0.59654,0.07504 1.164249,0.377717 1.565206,0.890722 1.259767,1.621578 1.944838,3.353328 1.973612,4.999032 0.03047,1.742317 -0.681985,3.30221 -1.950931,4.289853 -2.22735,1.730765 -6.035062,1.498154 -8.999572,-2.313698 -1.153895,-1.481566 -2.163289,-1.661833 -2.387769,-1.48413 -0.227744,0.174326 -0.301707,1.198836 0.850501,2.682043 1.259767,1.621578 1.944838,3.353317 1.973611,4.999031 0.03047,1.742317 -0.678712,3.305601 -1.95093,4.289854 -2.229042,1.732397 -6.035063,1.498153 -8.997993,-2.308678 -0.840973,-1.079954 -1.541578,-1.401541 -1.883048,-1.49391 -0.275226,-0.07124 -0.445583,-0.04083 -0.509687,0.008 -0.222794,0.176069 -0.303282,1.193814 0.852193,2.680411 0.796901,1.027594 0.613653,2.508186 -0.413935,3.305087 -1.025953,0.798589 -2.503222,0.615401 -3.305088,-0.41394 -2.962927,-3.806832 -2.255051,-7.556545 -0.02431,-9.290574 2.229042,-1.732397 6.035062,-1.498154 8.999571,2.313699 0.83928,1.081596 1.538305,1.398152 1.879773,1.490523 0.275174,0.07454 0.445528,0.04417 0.50799,-0.0064 0.227755,-0.174323 0.304971,-1.195455 -0.850501,-2.682053 -2.961237,-3.808463 -2.255052,-7.556535 -0.02432,-9.290573 2.229045,-1.732398 6.036756,-1.499786 8.994607,2.311951 0.840973,1.079964 1.543271,1.39991 1.884739,1.49227 0.273515,0.07294 0.443891,0.04248 0.507989,-0.0064 0.224487,-0.177702 0.301709,-1.198836 -0.850498,-2.682044 -0.79859,-1.025962 -0.613651,-2.508197 0.41394,-3.305097 0.519608,-0.39752 1.146612,-0.548429 1.744842,-0.475035 z"
       id="path12881"
       style="stroke-width:2.35461" />
  </g>
</svg>
