<?xml version="1.0" encoding="UTF-8" standalone="no"?>
<svg
   width="37mm"
   height="33.97mm"
   viewBox="0 0 104.89 96.28"
   version="1.1"
   id="svg19713"
   xmlns="http://www.w3.org/2000/svg"
   xmlns:svg="http://www.w3.org/2000/svg">
  <defs
     id="defs19677">
    <style
       id="style19675">
      .cls-1 {
        fill: #b2b2b2;
      }

      .cls-2 {
        fill: #ffd984;
      }

      .cls-3 {
        fill: #a11922;
      }

      .cls-4 {
        fill: #ffe9b7;
      }

      .cls-5 {
        fill: #a7a9ab;
      }

      .cls-6 {
        fill: #e7e8e9;
      }

      .cls-7 {
        fill: #2b2c29;
      }
    </style>
  </defs>
  <g
     id="Layer_2"
     data-name="Layer 2">
    <g
       id="grid">
      <g
         id="mh_copy"
         data-name="mh copy">
        <g
           id="steaks">
          <g
             id="g19707">
            <path
               class="cls-1"
               d="M95.19,40.88l4.27-2.64c.86-.53,4-2.66,5.21-1,.73,1-.46,4-2.42,7.08-1.79,2.85-6,8.74-6.18,9.87s1.21,5.61,1.65,7.34,1.78,5.89,1.34,7.53-2.8,6.2-9.3,6.38c-5.16.15-6.72-1.31-6.93-2.22-.15-.67-.61-2.86-.61-2.86s-4.14,2.8-6.1,3.87-7.22,4-7.22,4,1.22,4.7,1.47,6.61.95,4.63,0,6.51c-.85,1.7-3.59,4.6-10.32,4.83-5.25.17-6.64-1.41-7.51-2.37s-1.24-5.71-1.28-6.7-.35-4.49-.35-4.49-7.13-.07-11.43-.21c-3.9-.13-9-.52-9-.52s.27,2.06.51,3.55c.23,1.32.37,4.1-1,5.52-1.79,1.9-6.63,2.23-9.3,2.08s-6.43-1.37-7.61-3.74.11-5.6.62-7.45c.45-1.62,1.26-4,.89-4.62S10.94,76,6.1,71.49-5.5,51.05,7.72,39.22s38.91-.58,40.27.2S95.19,40.88,95.19,40.88Z"
               id="path19679" />
            <path
               class="cls-2"
               d="M52.77,12.42C40.43,13.47,31.4,20,27.07,26.83a56.86,56.86,0,0,0-3.85,7,20.65,20.65,0,0,1,8.2,1.85C36,37.92,41.2,40.27,45,51.29c2.88,8.33,4.19,16.3,10.88,17.8,7.57,1.7,25,0,33.06-8.45S98.39,46,96,38.09s-12.57-21.76-26-25C64.12,11.72,58.37,12,52.77,12.42Z"
               id="path19681" />
            <g
               id="g19697">
              <path
                 class="cls-2"
                 d="M58.69,9.78C36.83,8.91,17.06,16.54,16.53,30c-.41,10.09,9,18.88,23.55,19.46,8.39.33,17.47-4.38,23.82-4.12l.67,0c9.47.95,9.38,8.8,21.52,9.28,5.69.23,12.35-4.56,12.81-16.33C99.51,23.2,83,10.75,58.69,9.78Z"
                 id="path19683" />
              <path
                 class="cls-2"
                 d="M94.44,28.23l4.86.2-.39,9.71L94.05,38ZM16.91,20.28l4.86.2-.39,9.71L16.53,30Z"
                 id="path19685" />
              <path
                 class="cls-3"
                 d="M86.54,43.27c-5.51-.22-7.89-2.16-10.66-4.39-2.52-2-5.37-4.35-10.65-4.88l-.87-.06c-3.48-.14-7.28.89-11.3,2-4.21,1.14-8.56,2.31-12.53,2.15C27.87,37.56,19,30.12,19.34,20.38,19.87,7.27,40.17,1,59,1.75c22.52.89,38.44,12.15,37.85,26.77C96.42,39.62,90.45,43.42,86.54,43.27Z"
                 id="path19687" />
              <path
                 class="cls-4"
                 d="M58.94,3.43c21.11.84,36,11.35,35.49,25-.4,10.07-5.54,13.25-7.82,13.16-4.45-.18-6.22-1.61-8.9-3.78s-6-4.84-12.2-5.47c-.36,0-.72-.06-1.09-.07-4-.16-8,.93-12.3,2.08-4,1.07-8.08,2.18-11.52,2-9.66-.38-19.23-6-18.83-15.9.48-12,19.51-17.75,37.17-17M59.07.07C37.21-.8,17.45,6.83,16.91,20.28c-.4,10.09,9,18.88,23.55,19.46,8.39.34,17.48-4.37,23.83-4.12l.66.05c9.47.95,9.38,8.79,21.53,9.28,5.68.22,12.34-4.57,12.81-16.34C99.89,13.48,83.36,1,59.07.07Z"
                 id="path19689" />
              <path
                 class="cls-5"
                 d="M70.55,17.37c-.08,1.85-2.31,3.27-5,3.17s-4.8-1.7-4.73-3.56,2.31-3.28,5-3.17S70.62,15.51,70.55,17.37Z"
                 id="path19691" />
              <path
                 class="cls-4"
                 d="M54.47,3.39s6.9.14,11.62,3.69c2.36,1.78.6,5.5.6,5.5l4,1.42s-.07-2,7.42-3.07c5.51-.76,10.9,3.8,10.9,3.8A28.83,28.83,0,0,0,71.08,3.91C59,1.75,54.47,3.39,54.47,3.39Z"
                 id="path19693" />
              <path
                 class="cls-6"
                 d="M75.4,17.56c-.14,3.71-4.61,6.55-10,6.34S55.83,20.5,56,16.78s4.62-6.55,10-6.33S75.55,13.84,75.4,17.56Z"
                 id="path19695" />
            </g>
            <path
               class="cls-1"
               d="M89,60.64c-8,8.45-25.49,10.15-33.06,8.45-6.69-1.5-8-9.47-10.88-17.8C41.2,40.27,36,37.92,31.42,35.72a20.65,20.65,0,0,0-8.2-1.85v0C17.59,34,12,35.39,7.72,39.22-5.5,51.05,1.24,67,6.1,71.49s8.12,5.18,8.48,5.83-.44,3-.89,4.62c-.51,1.85-1.8,5.08-.62,7.45S18,93,20.68,93.13,28.19,93,30,91.05c1.34-1.42,1.2-4.2,1-5.52C30.71,84,30.44,82,30.44,82s5.15.39,9.05.52c4.3.14,11.43.21,11.43.21s.31,3.5.35,4.49.4,5.73,1.28,6.7,2.26,2.54,7.51,2.37c6.73-.23,9.47-3.13,10.32-4.83.94-1.88.23-4.6,0-6.51s-1.47-6.61-1.47-6.61,5.26-3,7.22-4,6.1-3.87,6.1-3.87.46,2.19.61,2.86c.21.91,1.77,2.37,6.93,2.22,6.5-.18,8.86-4.73,9.3-6.38s-.9-5.8-1.34-7.53-1.86-6.2-1.65-7.34"
               id="path19699" />
            <path
               class="cls-7"
               d="M32,49.32c.54,2.49-.64,5.13-3.4,5.48-2.27.29-4.13-1.23-4.67-3.72A4.39,4.39,0,0,1,27,45.68,4.39,4.39,0,0,1,32,49.32Z"
               id="path19701" />
            <path
               class="cls-7"
               d="M15.68,50.19c.17,2.52-1.94,5.14-4.69,4.73-2.27-.34-3.64-2.28-3.49-4.79a4.37,4.37,0,0,1,4.4-4.31C14.18,46,15.52,47.57,15.68,50.19Z"
               id="path19703" />
            <path
               class="cls-7"
               d="M23.11,59.21c1-.75,2.66-2.48,3.83-1.1s-.7,2.78-1.79,3.64-3.51,3-5.32,3-4.33-1.89-6-3.2c-1.37-1.07-2-2.49-1.33-3.39s1.88-.62,2.89.2c1.17,1,3.42,2.86,4.31,2.83S21.77,60.2,23.11,59.21Z"
               id="path19705" />
          </g>
        </g>
      </g>
    </g>
  </g>
  <g
     id="g8739"
     transform="matrix(1.0300627,-0.14219801,0.14219801,1.0300627,-19.285985,1.3585584)">
    <path
       fill="#dd2e44"
       d="m 52.506368,47.082867 c 0.01328,-0.109301 -0.02824,-0.224062 -0.09832,-0.340404 0,0 -14.130429,-23.449491 -15.671802,-23.631973 -1.541503,-0.180105 -20.718276,19.361258 -20.718276,19.361258 -0.09633,0.09753 -0.162901,0.197894 -0.175038,0.308476 -0.18069,1.530706 7.881646,3.732043 18.005075,4.920985 10.125813,1.189074 18.47767,0.912362 18.658362,-0.618342 z"
       id="path5268"
       style="stroke-width:1.68912" />
    <path
       fill="#ea596e"
       d="m 36.910444,23.815538 c -0.0451,0.01226 -0.09976,0.0369 -0.16307,0.07485 -1.27625,1.439349 -11.565988,13.519252 -14.338925,17.790308 2.168665,0.745234 4.657846,1.24669 7.662388,1.763932 1.414869,-3.989147 7.721325,-18.904972 6.83961,-19.629086 z"
       id="path5270"
       style="stroke-width:1.39378" />
  </g>
  <g
     id="g9662"
     transform="matrix(0.57358561,0.81908484,-0.81908484,0.57358561,55.526924,-28.175973)">
    <path
       fill="#aa8dd8"
       d="m 18.679008,28.888646 c 0.509283,-0.31956 1.140363,-0.444649 1.77551,-0.301364 2.001743,0.457752 3.62836,1.364605 4.692468,2.620333 1.126581,1.329441 1.56258,2.987987 1.20553,4.555843 -0.628517,2.749833 -3.723326,4.980289 -8.431294,3.906251 -1.831158,-0.416397 -2.726651,0.08307 -2.78792,0.362739 -0.06594,0.279125 0.525391,1.119017 2.356275,1.537753 2.001742,0.457753 3.62836,1.364605 4.692467,2.620333 1.126581,1.329441 1.567257,2.988536 1.20553,4.555843 -0.62879,2.752172 -3.723326,4.980289 -8.42689,3.909139 -1.334679,-0.303609 -2.080598,-0.109019 -2.403405,0.03565 -0.258161,0.119064 -0.370782,0.250465 -0.389467,0.328878 -0.061,0.277335 0.520988,1.116131 2.356548,1.535415 1.267409,0.290974 2.062868,1.553109 1.771895,2.820517 -0.288636,1.267684 -1.548158,2.061078 -2.820518,1.771895 -4.7035647,-1.071151 -6.5294009,-4.421939 -5.9003357,-7.17645 0.6287897,-2.752173 3.7233257,-4.98029 8.4312927,-3.906252 1.334404,0.305947 2.075921,0.10847 2.398727,-0.0362 0.260225,-0.116451 0.372846,-0.247852 0.389193,-0.32654 0.06595,-0.279125 -0.520713,-1.118469 -2.356274,-1.537753 -4.70329,-1.07349 -6.5293999,-4.421938 -5.900336,-7.17645 0.62879,-2.752173 3.723601,-4.982628 8.426342,-3.904462 1.334678,0.303609 2.080872,0.10668 2.403678,-0.03799 0.257887,-0.116725 0.370508,-0.248126 0.389193,-0.326539 0.06127,-0.279674 -0.52539,-1.119018 -2.356273,-1.537753 -1.267684,-0.288636 -2.062868,-1.553109 -1.771895,-2.820518 0.150578,-0.636664 0.540401,-1.150421 1.049959,-1.47232 z"
       id="path9163"
       style="stroke-width:2.35461" />
    <path
       fill="#77b255"
       d="m 70.446001,64.018212 c -4.645655,1.31152 -7.850286,-0.758186 -8.613181,-3.477766 -0.762896,-2.717225 0.890044,-6.157318 5.533344,-7.464129 1.813054,-0.508597 2.35697,-1.375095 2.283977,-1.650585 -0.08006,-0.280199 -1.000712,-0.73464 -2.809056,-0.226043 -4.6433,1.309166 -7.847931,-0.762895 -8.610826,-3.482475 -0.767604,-2.71958 0.890044,-6.154963 5.535699,-7.461775 1.810699,-0.510951 2.35697,-1.379804 2.276913,-1.655294 -0.0777,-0.273135 -0.996002,-0.732285 -2.806701,-0.223688 -1.247946,0.350837 -2.552402,-0.374384 -2.90324,-1.624684 -0.348483,-1.25501 0.379093,-2.552403 1.631748,-2.905595 4.640946,-1.306811 7.847931,0.758186 8.615536,3.482475 0.762895,2.717226 -0.892399,6.152609 -5.538054,7.464129 -1.813054,0.508597 -2.35697,1.375095 -2.276913,1.650585 0.07535,0.27549 0.993648,0.73464 2.801992,0.226043 4.648009,-1.309166 7.850285,0.758186 8.615535,3.482475 0.76525,2.714871 -0.890044,6.150254 -5.538054,7.461775 -1.808344,0.506242 -2.35226,1.379804 -2.276912,1.650585 0.08006,0.277844 0.996002,0.73464 2.806701,0.228397 1.252655,-0.355546 2.550047,0.374384 2.90324,1.624685 0.350837,1.2503 -0.379093,2.552402 -1.631748,2.900885 z"
       id="path9165"
       style="stroke-width:2.35461" />
    <circle
       fill="#5c913b"
       cx="24.188353"
       cy="73.127853"
       r="3.5319221"
       id="circle9167"
       style="stroke-width:2.35461" />
    <circle
       fill="#9266cc"
       cx="85.492378"
       cy="46.339252"
       r="4.7092295"
       id="circle9169"
       style="stroke-width:2.35461" />
    <circle
       fill="#9266cc"
       cx="68.721565"
       cy="-4.6494675"
       r="4.7092295"
       id="circle9171"
       style="stroke-width:2.35461" />
    <circle
       fill="#5c913b"
       cx="43.322903"
       cy="10.367681"
       r="3.5319221"
       id="circle9173"
       style="stroke-width:2.35461" />
    <circle
       fill="#5c913b"
       cx="76.067032"
       cy="29.652859"
       r="3.5319221"
       id="circle9175"
       style="stroke-width:2.35461" />
    <circle
       fill="#ffcc4d"
       cx="110.73738"
       cy="31.674385"
       r="4.7092295"
       id="circle9177"
       style="stroke-width:2.35461" />
    <circle
       fill="#ffcc4d"
       cx="80.72979"
       cy="70.87397"
       r="3.5319221"
       id="circle9179"
       style="stroke-width:2.35461" />
    <circle
       fill="#ffcc4d"
       cx="41.810963"
       cy="42.983047"
       r="3.5319221"
       id="circle9181"
       style="stroke-width:2.35461" />
    <path
       fill="#77b255"
       d="m 48.463708,101.67526 c -2.728381,-3.982231 -1.792258,-7.680476 0.540508,-9.273061 2.330534,-1.591833 6.118587,-1.125891 8.841753,2.85561 1.061725,1.555178 2.056666,1.79341 2.294343,1.636146 0.239879,-0.165467 0.376017,-1.183103 -0.684201,-2.733818 -2.725397,-3.980749 -1.787043,-7.679747 0.545723,-9.272332 2.33126,-1.597047 6.116356,-1.125138 8.840277,2.858594 1.0632,1.552194 2.061129,1.791905 2.296549,1.627947 0.23394,-0.160972 0.37529,-1.177887 -0.68568,-2.730833 -0.731529,-1.070203 -0.461569,-2.538085 0.61086,-3.270359 1.07765,-0.73155 2.53959,-0.457109 3.27485,0.616802 2.72241,3.979271 1.7915,7.678241 -0.54422,9.276795 -2.33053,1.591832 -6.114879,1.122154 -8.843258,-2.860073 -1.061724,-1.555178 -2.056666,-1.79341 -2.292084,-1.629453 -0.236924,0.159498 -0.378276,1.17641 0.681942,2.727125 2.726904,3.98521 1.792258,7.680474 -0.544216,9.2768 -2.327551,1.59331 -6.111896,1.12362 -8.84103,-2.860832 -1.057987,-1.551468 -2.059622,-1.787442 -2.292084,-1.629451 -0.237648,0.164713 -0.377523,1.17864 0.681218,2.732339 0.737488,1.073154 0.460817,2.535854 -0.610864,3.270364 -1.072432,0.73227 -2.53959,0.4571 -3.270386,-0.61831 z"
       id="path9584"
       style="stroke-width:2.35461" />
    <path
       fill="#aa8dd8"
       d="m 72.327461,10.357954 c -0.0915,-0.5942352 0.04382,-1.2232002 0.427146,-1.7495152 1.213751,-1.656297 2.691109,-2.790174 4.26578,-3.26933 1.667109,-0.50729 3.362613,-0.250115 4.660486,0.699189 2.27541,1.667072 3.096341,5.3925052 0.244033,9.2890242 -1.108164,1.51608 -1.004596,2.5362 -0.772122,2.703313 0.230119,0.171185 1.23561,-0.03876 2.345812,-1.553666 1.213751,-1.656297 2.691109,-2.790175 4.26578,-3.26933 1.667109,-0.50729 3.364971,-0.254191 4.660487,0.699189 2.277447,1.66825 3.09634,5.392505 0.248429,9.286126 -0.807809,1.104984 -0.924846,1.866931 -0.919992,2.22064 0.007,0.284209 0.08297,0.439691 0.147549,0.487929 0.230435,0.165938 1.231215,-0.03587 2.343775,-1.554845 0.769542,-1.048234 2.243602,-1.27821 3.291835,-0.508668 1.049413,0.767505 1.27853,2.238347 0.508668,3.291837 -2.847912,3.89362 -6.647959,4.241609 -8.927446,2.572178 -2.277448,-1.66825 -3.096341,-5.392505 -0.244033,-9.289022 0.809847,-1.103806 0.922488,-1.862856 0.917633,-2.216563 -0.0038,-0.285069 -0.07975,-0.440551 -0.145511,-0.486751 -0.230114,-0.171194 -1.233252,0.03469 -2.345812,1.553666 -2.84995,3.892441 -6.647958,4.241609 -8.927445,2.572179 -2.277449,-1.668251 -3.098379,-5.393684 -0.244353,-9.283768 0.807809,-1.104984 0.922808,-1.86811 0.917952,-2.221818 -0.0049,-0.283031 -0.08093,-0.4385132 -0.14551,-0.4867502 -0.232473,-0.167117 -1.23561,0.03876 -2.345812,1.5536652 -0.767504,1.049413 -2.243602,1.27821 -3.291836,0.508667 -0.524816,-0.390618 -0.841956,-0.95216 -0.935493,-1.547576 z"
       id="path9586"
       style="stroke-width:2.35461" />
  </g>
</svg>
