<?xml version="1.0" encoding="UTF-8" standalone="no"?>
<svg
   width="41.883324mm"
   height="40.210106mm"
   viewBox="0 0 118.71108 113.9964"
   version="1.1"
   id="svg37276"
   xmlns="http://www.w3.org/2000/svg"
   xmlns:svg="http://www.w3.org/2000/svg">
  <defs
     id="defs37252">
    <style
       id="style37250">
      .cls-1 {
        fill: #f39110;
      }

      .cls-2 {
        fill: #fcf4ae;
      }

      .cls-3 {
        fill: #fecc50;
      }

      .cls-4 {
        fill: #2b2c29;
      }
    </style>
  </defs>
  <g
     id="Layer_2"
     data-name="Layer 2"
     transform="translate(-0.02183558,15.92226)">
    <g
       id="grid">
      <g
         id="wl_copy"
         data-name="wl copy">
        <g
           id="sunbeams">
          <g
             id="g37270">
            <path
               class="cls-1"
               d="m 20.17,45.67 -2.46,1.41 43.74,31.8 40.36,-36.33 -2.7,-1.19 7,-9.13 a 3,3 0 0 0 0.32,-3.1 3,3 0 0 0 -2.62,-1.7 l -11.51,-0.25 3,-11.12 a 3,3 0 0 0 -4,-3.55 L 80.61,16.69 79.1,5.27 A 3,3 0 0 0 74.86,3 2.86,2.86 0 0 0 74.09,3.53 l -8.32,8 L 60,1.49 A 3,3 0 0 0 57.27,0 3.3,3.3 0 0 0 56.14,0.29 3.07,3.07 0 0 0 54.7,1.78 l -4.64,10.54 -9.13,-7 A 3,3 0 0 0 37.83,5 3,3 0 0 0 36.13,7.62 l -0.25,11.51 -11.12,-3 a 3,3 0 0 0 -3,0.9 3,3 0 0 0 -0.55,3.07 L 25.38,30.83 14,32.33 a 2.76,2.76 0 0 0 -0.9,0.27 2.94,2.94 0 0 0 -1.52,1.7 3,3 0 0 0 0.65,3.05 z"
               id="path37254" />
            <path
               class="cls-2"
               d="m 110.52,30.45 c -1.48,1.13 -0.89,4.26 -2.68,5.05 -1.13,0.5 -10.83,4.36 -14.73,6.2 -3.9,1.84 -7.67,4.12 -8.65,4.62 -0.58,0.29 -2.92,-2.29 -4.62,-1.54 A 3.17,3.17 0 0 0 78,49.11 c 0.48,1.11 2,1.26 2.11,2 0.11,0.74 -0.25,2.28 0.24,3.39 A 3.19,3.19 0 0 0 85,55.84 c 1.7,-1.08 1.38,-3.81 2,-4.6 0.83,-1.07 5.65,-2.88 11.6,-5.51 a 104.81,104.81 0 0 1 11.92,-4.22 c 1.08,-0.4 3,2.74 6,1.6 a 3.58,3.58 0 0 0 1.94,-4.72 c -0.49,-1.11 -3.18,-2.1 -3.43,-3 -0.25,-0.9 0.87,-2.38 0.38,-3.49 a 3.41,3.41 0 0 0 -4.89,-1.45 z"
               id="path37256" />
            <path
               class="cls-2"
               d="m 95.19,42.71 4.27,-2.63 c 0.86,-0.54 4,-2.67 5.21,-1 0.73,1 -0.46,4 -2.42,7.08 -1.79,2.86 -6,8.74 -6.18,9.88 -0.18,1.14 1.21,5.6 1.65,7.33 0.44,1.73 1.78,5.93 1.34,7.63 -0.44,1.7 -2.8,6.2 -9.3,6.38 C 84.6,77.47 83,76 82.83,75.1 c -0.15,-0.66 -0.61,-2.86 -0.61,-2.86 0,0 -4.14,2.8 -6.1,3.87 -1.96,1.07 -7.22,4 -7.22,4 0,0 1.22,4.71 1.47,6.62 0.25,1.91 0.95,4.63 0,6.5 -0.85,1.71 -3.59,4.61 -10.32,4.83 -5.25,0.18 -6.64,-1.4 -7.51,-2.36 -0.87,-0.96 -1.23,-5.7 -1.27,-6.7 -0.04,-1 -0.35,-4.49 -0.35,-4.49 0,0 -7.13,-0.07 -11.43,-0.21 -3.9,-0.12 -9,-0.51 -9,-0.51 0,0 0.27,2.06 0.51,3.54 0.23,1.32 0.37,4.11 -1,5.52 -1.79,1.9 -6.63,2.23 -9.3,2.08 -2.67,-0.15 -6.43,-1.37 -7.61,-3.74 -1.18,-2.37 0.11,-5.59 0.62,-7.44 0.45,-1.63 1.26,-4 0.89,-4.63 C 14.23,78.49 10.94,77.8 6.1,73.32 1.26,68.84 -5.5,52.88 7.72,41.06 c 13.22,-11.82 38.91,-0.58 40.27,0.2 1.36,0.78 47.2,1.45 47.2,1.45 z"
               id="path37258" />
            <path
               class="cls-3"
               d="m 52.77,14.26 c -12.34,1 -21.37,7.53 -25.7,14.41 a 56.4,56.4 0 0 0 -3.85,7 20.56,20.56 0 0 1 8.2,1.86 C 36,39.75 41.2,42.11 45,53.12 c 2.88,8.33 4.19,16.3 10.88,17.8 7.57,1.7 25,0 33.06,-8.45 8.06,-8.45 9.42,-14.64 7,-22.55 -2.42,-7.91 -12.57,-21.75 -26,-25 -5.82,-1.37 -11.57,-1.14 -17.17,-0.66 z"
               id="path37260" />
            <path
               class="cls-1"
               d="m 94.22,35.74 c -0.41,-0.87 -1.24,-2.18 -1.24,-2.18 0,0 0,1.83 -0.11,2.79 -0.19,1.57 -0.92,4.85 -1.43,4.39 A 105.24,105.24 0 0 1 84,32 c -1.6,-2.17 -7.06,-7.81 -7.26,-9.71 a 19.37,19.37 0 0 1 1,-4.17 L 75.55,17 c -0.79,-0.4 -2,-0.84 -2,-0.84 0,0 -0.51,4.38 -1.23,5.22 -0.72,0.84 -4.63,2.5 -7.73,3.81 -3.75,1.59 -7.36,3.61 -8.73,3.92 -1.2,0.27 -8.11,-0.93 -10.72,-1.32 -3.27,-0.49 -8.22,-1.68 -9.38,-2.45 A 13.53,13.53 0 0 1 33,22.06 c 0,0 -0.77,0.57 -1.53,1.23 a 15,15 0 0 0 -1.72,1.9 c 0,0 2.13,2 2.28,2.73 0.2,1.06 -1,2.56 -2,4 -0.61,0.85 -2.27,4.4 -2.27,4.4 a 6.56,6.56 0 0 1 1.93,0.49 c 1.11,0.46 2.16,0.94 2.16,0.94 0,0 2.39,-6.23 4.08,-6.85 1.44,-0.54 5.62,0.65 8.64,1.15 4.29,0.71 8.62,1.32 9.58,2.44 0.96,1.12 2.06,5.85 3.08,9.82 1.12,4.34 4,15.62 3.48,16.51 -0.52,0.89 -5,0.76 -7.61,0.55 A 32.78,32.78 0 0 1 47.27,60 c 0,0 0.59,1.85 0.78,2.34 0.27,0.71 1.13,2.68 1.13,2.68 0,0 5.12,2 19.93,0 14.81,-2 21.75,-12.39 23.65,-17 2.55,-6.13 2.77,-9.34 2.77,-9.34 0,0 -0.9,-2.08 -1.31,-2.94 z m -12.78,20 c -3.66,2.52 -13.29,5.41 -15.08,4.54 -1.44,-0.7 -4,-12.23 -5.2,-17.37 -0.78,-3.29 -2.51,-8.27 -1.65,-9.88 0.58,-1.09 4.14,-2.82 6.77,-4.18 2.63,-1.36 6.07,-3 7.14,-2.94 1.52,0.12 5,5.24 8.39,9.61 3.39,4.37 7.19,8.87 7.3,10.48 0.11,1.61 -3.89,7.11 -7.67,9.7 z"
               id="path37262" />
            <path
               class="cls-4"
               d="m 32,51.15 c 0.54,2.49 -0.64,5.14 -3.4,5.49 -2.27,0.28 -4.13,-1.23 -4.67,-3.73 a 4.39,4.39 0 0 1 3.07,-5.4 4.4,4.4 0 0 1 5,3.64 z"
               id="path37264" />
            <path
               class="cls-4"
               d="m 15.68,52 c 0.17,2.52 -1.94,5.14 -4.69,4.73 C 8.72,56.42 7.35,54.47 7.5,52 a 4.37,4.37 0 0 1 4.4,-4.31 c 2.28,0.09 3.62,1.71 3.78,4.31 z"
               id="path37266" />
            <path
               class="cls-4"
               d="m 23.11,61 c 1,-0.74 2.66,-2.48 3.83,-1.1 1.17,1.38 -0.7,2.79 -1.79,3.64 -1.09,0.85 -3.51,3 -5.32,3 -1.81,0 -4.33,-1.89 -6,-3.2 -1.37,-1.06 -2,-2.49 -1.33,-3.38 0.67,-0.89 1.88,-0.63 2.89,0.19 1.17,1 3.42,2.87 4.31,2.83 C 20.59,62.94 21.77,62 23.11,61 Z"
               id="path37268" />
          </g>
        </g>
      </g>
    </g>
  </g>
  <g
     id="g8739"
     transform="matrix(1.2747775,0.04577439,-0.04577439,1.2747775,-18.128065,6.7068978)">
    <path
       fill="#dd2e44"
       d="m 50.008438,43.57252 c 0.01096,-0.09019 -0.0233,-0.184885 -0.08113,-0.280885 0,0 -11.659764,-19.349415 -12.931632,-19.49999 -1.271976,-0.148614 -17.095745,15.975997 -17.095745,15.975997 -0.07949,0.08048 -0.134418,0.163293 -0.144433,0.25454 -0.149097,1.263066 6.503563,3.079506 14.856939,4.060565 8.355344,0.981168 15.246902,0.752838 15.396001,-0.510227 z"
       id="path5268"
       style="stroke-width:1.39378" />
    <path
       fill="#ea596e"
       d="m 36.910444,23.815538 c -0.0451,0.01226 -0.09976,0.0369 -0.16307,0.07485 -1.27625,1.439349 -11.565988,13.519252 -14.338925,17.790308 2.168665,0.745234 4.657846,1.24669 7.662388,1.763932 1.414869,-3.989147 7.721325,-18.904972 6.83961,-19.629086 z"
       id="path5270"
       style="stroke-width:1.39378" />
  </g>
  <g
     id="g9662"
     transform="matrix(0.96284611,-0.27006564,0.27006564,0.96284611,-14.270533,43.178812)">
    <path
       fill="#77b255"
       d="m 61.488389,-22.622652 c 1.359965,4.631706 -0.676167,7.857775 -3.387631,8.649027 -2.70911,0.791234 -6.166279,-0.825691 -7.521505,-5.455096 -0.5275,-1.807645 -1.399632,-2.342482 -1.674346,-2.266617 -0.279335,0.08302 -0.724151,1.008328 -0.196697,2.811263 1.357587,4.629375 -0.6809,7.855471 -3.392366,8.646723 -2.711416,0.7959577 -6.163921,-0.825719 -7.519174,-5.457478 -0.529835,-1.805263 -1.404341,-2.342432 -1.678982,-2.259504 -0.272297,0.08058 -0.721843,1.003595 -0.194365,2.808884 0.36385,1.244215 -0.347706,2.556174 -1.594278,2.920048 -1.251304,0.361567 -2.556222,-0.352419 -2.922477,-1.601317 -1.355199,-4.627047 0.676193,-7.855421 3.392318,-8.651432 2.709112,-0.791224 6.161592,0.828098 7.521552,5.459808 0.5275,1.807644 1.399633,2.342482 1.674272,2.259553 0.274686,-0.07823 0.724224,-1.001266 0.196771,-2.8042 -1.35763,-4.634085 0.676168,-7.857775 3.392316,-8.651431 2.706733,-0.79356 6.159215,0.825766 7.5192,5.459831 0.525101,1.802958 1.404293,2.337724 1.674272,2.259552 0.276979,-0.083 0.724199,-1.00362 0.199075,-2.808934 -0.368605,-1.248873 0.347734,-2.553817 1.594279,-2.920047 1.246569,-0.36387 2.556224,0.352419 2.917766,1.601367 z"
       id="path9165"
       style="stroke-width:2.35461" />
    <circle
       fill="#5c913b"
       cx="91.613846"
       cy="47.430138"
       r="3.5319221"
       id="circle9167"
       style="stroke-width:2.35461" />
    <circle
       fill="#9266cc"
       cx="76.996498"
       cy="7.233707"
       r="4.7092295"
       id="circle9169"
       style="stroke-width:2.35461" />
    <circle
       fill="#9266cc"
       cx="75.486893"
       cy="31.450424"
       r="4.7092295"
       id="circle9171"
       style="stroke-width:2.35461" />
    <circle
       fill="#5c913b"
       cx="11.448915"
       cy="43.715626"
       r="3.5319221"
       id="circle9173"
       style="stroke-width:2.35461" />
    <circle
       fill="#5c913b"
       cx="16.522257"
       cy="65.533607"
       r="3.5319221"
       id="circle9175"
       style="stroke-width:2.35461" />
    <circle
       fill="#ffcc4d"
       cx="90.179367"
       cy="-14.659887"
       r="4.7092295"
       id="circle9177"
       style="stroke-width:2.35461" />
    <circle
       fill="#ffcc4d"
       cx="93.93634"
       cy="79.823097"
       r="3.5319221"
       id="circle9179"
       style="stroke-width:2.35461" />
    <circle
       fill="#ffcc4d"
       cx="28.946676"
       cy="5.1571012"
       r="3.5319221"
       id="circle9181"
       style="stroke-width:2.35461" />
    <path
       fill="#77b255"
       d="m 79.834825,81.04305 c -4.767344,0.75804 -7.707337,-1.672963 -8.146257,-4.463209 -0.439198,-2.787907 1.605507,-6.010581 6.369959,-6.764224 1.860166,-0.292614 2.501881,-1.089398 2.461677,-1.371543 -0.04667,-0.287652 -0.907721,-0.846855 -2.763208,-0.553689 -4.76473,0.75598 -7.704447,-1.677363 -8.143367,-4.467608 -0.443598,-2.790798 1.605231,-6.008244 6.372023,-6.761611 1.858102,-0.295227 2.502434,-1.094076 2.455214,-1.377051 -0.04516,-0.280358 -0.90332,-0.843963 -2.761145,-0.551074 -1.280467,0.202177 -2.490938,-0.670929 -2.692833,-1.953725 -0.199002,-1.287204 0.675604,-2.490387 1.961019,-2.694344 4.762113,-0.753915 7.704996,1.672691 8.148044,4.468164 0.439199,2.787903 -1.607294,6.005629 -6.374637,6.76367 -1.860165,0.292613 -2.501881,1.089398 -2.454662,1.372372 0.04254,0.282422 0.900707,0.846026 2.756194,0.552859 4.769406,-0.755429 7.707338,1.672964 8.148047,4.468162 0.441815,2.785848 -1.604684,6.003566 -6.374365,6.761333 -1.855211,0.290828 -2.497756,1.094627 -2.45466,1.372373 0.04695,0.285312 0.903044,0.846303 2.760594,0.555749 1.285691,-0.206292 2.488596,0.67065 2.692832,1.95373 0.201891,1.282799 -0.675609,2.490386 -1.960469,2.689666 z"
       id="path9584"
       style="stroke-width:2.35461" />
    <path
       fill="#aa8dd8"
       d="m 108.34453,-2.8932264 c 0.37648,-0.4687765 0.93175,-0.793719 1.57878,-0.8664276 2.04124,-0.2233303 3.87518,0.1005548 5.29197,0.9383496 1.49996,0.8869727 2.45527,2.31113868 2.6316,3.9094382 0.30708,2.8039825 -1.88617,5.9252681 -6.68618,6.4529476 -1.86651,0.2065132 -2.54895,0.9717947 -2.51521,1.2561052 0.0291,0.2853236 0.863,0.8851312 2.73004,0.680912 2.04122,-0.2233283 3.87518,0.1005547 5.29196,0.9383514 1.49995,0.886974 2.45987,2.310126 2.63159,3.90944 0.30759,2.806281 -1.88617,5.925267 -6.68108,6.454233 -1.36048,0.150419 -2.00148,0.578651 -2.25907,0.821092 -0.20489,0.197093 -0.26826,0.358123 -0.26023,0.438328 0.0333,0.282005 0.85791,0.883839 2.72953,0.678612 1.29279,-0.140318 2.45786,0.791548 2.59817,2.084335 0.14261,1.292278 -0.78746,2.454536 -2.08434,2.598169 -4.7949,0.528964 -7.61776,-2.038702 -7.92585,-4.847287 -0.3076,-2.806279 1.88616,-5.925265 6.68617,-6.452945 1.361,-0.14812 1.99688,-0.577636 2.25448,-0.820079 0.20768,-0.19531 0.27107,-0.356327 0.26073,-0.436028 -0.0291,-0.285325 -0.85841,-0.886139 -2.73003,-0.680912 -4.79541,0.526665 -7.61776,-2.038702 -7.92586,-4.8472825 -0.30758,-2.8062838 1.88567,-5.927568 6.68209,-6.4496336 1.36048,-0.1504185 2.00098,-0.5809496 2.25856,-0.8233924 0.20544,-0.1947473 0.26877,-0.3558223 0.26074,-0.4360259 -0.0337,-0.2843144 -0.863,-0.88513215 -2.73004,-0.68091387 -1.29227,0.14261667 -2.45784,-0.79154758 -2.59816,-2.08433503 -0.0664,-0.6508508 0.13367,-1.2639747 0.50964,-1.7350511 z"
       id="path9586"
       style="stroke-width:2.35461" />
    <path
       fill="#aa8dd8"
       d="m 56.038703,44.031281 c 0.59654,0.07504 1.164249,0.377717 1.565206,0.890722 1.259767,1.621578 1.944838,3.353328 1.973612,4.999032 0.03047,1.742317 -0.681985,3.30221 -1.950931,4.289853 -2.22735,1.730765 -6.035062,1.498154 -8.999572,-2.313698 -1.153895,-1.481566 -2.163289,-1.661833 -2.387769,-1.48413 -0.227744,0.174326 -0.301707,1.198836 0.850501,2.682043 1.259767,1.621578 1.944838,3.353317 1.973611,4.999031 0.03047,1.742317 -0.678712,3.305601 -1.95093,4.289854 -2.229042,1.732397 -6.035063,1.498153 -8.997993,-2.308678 -0.840973,-1.079954 -1.541578,-1.401541 -1.883048,-1.49391 -0.275226,-0.07124 -0.445583,-0.04083 -0.509687,0.008 -0.222794,0.176069 -0.303282,1.193814 0.852193,2.680411 0.796901,1.027594 0.613653,2.508186 -0.413935,3.305087 -1.025953,0.798589 -2.503222,0.615401 -3.305088,-0.41394 -2.962927,-3.806832 -2.255051,-7.556545 -0.02431,-9.290574 2.229042,-1.732397 6.035062,-1.498154 8.999571,2.313699 0.83928,1.081596 1.538305,1.398152 1.879773,1.490523 0.275174,0.07454 0.445528,0.04417 0.50799,-0.0064 0.227755,-0.174323 0.304971,-1.195455 -0.850501,-2.682053 -2.961237,-3.808463 -2.255052,-7.556535 -0.02432,-9.290573 2.229045,-1.732398 6.036756,-1.499786 8.994607,2.311951 0.840973,1.079964 1.543271,1.39991 1.884739,1.49227 0.273515,0.07294 0.443891,0.04248 0.507989,-0.0064 0.224487,-0.177702 0.301709,-1.198836 -0.850498,-2.682044 -0.79859,-1.025962 -0.613651,-2.508197 0.41394,-3.305097 0.519608,-0.39752 1.146612,-0.548429 1.744842,-0.475035 z"
       id="path12881"
       style="stroke-width:2.35461" />
  </g>
</svg>
