<svg xmlns="http://www.w3.org/2000/svg" width="41.89mm" height="34.61mm" viewBox="0 0 118.73 98.12">
  <defs>
    <style>
      .cls-1 {
        fill: #f39110;
      }

      .cls-2 {
        fill: #fcf4ae;
      }

      .cls-3 {
        fill: #fecc50;
      }

      .cls-4 {
        fill: #2b2c29;
      }
    </style>
  </defs>
  <g id="Layer_2" data-name="Layer 2">
    <g id="grid">
      <g id="wl_copy" data-name="wl copy">
        <g id="sunbeams">
          <g>
            <path class="cls-1" d="M20.17,45.67l-2.46,1.41,43.74,31.8,40.36-36.33-2.7-1.19,7-9.13a3,3,0,0,0,.32-3.1,3,3,0,0,0-2.62-1.7l-11.51-.25,3-11.12a3,3,0,0,0-4-3.55L80.61,16.69,79.1,5.27A3,3,0,0,0,74.86,3a2.86,2.86,0,0,0-.77.53l-8.32,8L60,1.49A3,3,0,0,0,57.27,0a3.3,3.3,0,0,0-1.13.29A3.07,3.07,0,0,0,54.7,1.78L50.06,12.32l-9.13-7A3,3,0,0,0,37.83,5a3,3,0,0,0-1.7,2.62l-.25,11.51-11.12-3a3,3,0,0,0-3,.9,3,3,0,0,0-.55,3.07l4.17,10.73L14,32.33a2.76,2.76,0,0,0-.9.27,2.94,2.94,0,0,0-1.52,1.7,3,3,0,0,0,.65,3.05Z"/>
            <path class="cls-2" d="M110.52,30.45c-1.48,1.13-.89,4.26-2.68,5.05-1.13.5-10.83,4.36-14.73,6.2s-7.67,4.12-8.65,4.62c-.58.29-2.92-2.29-4.62-1.54A3.17,3.17,0,0,0,78,49.11c.48,1.11,2,1.26,2.11,2s-.25,2.28.24,3.39A3.19,3.19,0,0,0,85,55.84c1.7-1.08,1.38-3.81,2-4.6.83-1.07,5.65-2.88,11.6-5.51a104.81,104.81,0,0,1,11.92-4.22c1.08-.4,3,2.74,6,1.6a3.58,3.58,0,0,0,1.94-4.72c-.49-1.11-3.18-2.1-3.43-3s.87-2.38.38-3.49A3.41,3.41,0,0,0,110.52,30.45Z"/>
            <path class="cls-2" d="M95.19,42.71l4.27-2.63c.86-.54,4-2.67,5.21-1,.73,1-.46,4-2.42,7.08-1.79,2.86-6,8.74-6.18,9.88s1.21,5.6,1.65,7.33S99.5,69.3,99.06,71s-2.8,6.2-9.3,6.38C84.6,77.47,83,76,82.83,75.1c-.15-.66-.61-2.86-.61-2.86s-4.14,2.8-6.1,3.87-7.22,4-7.22,4,1.22,4.71,1.47,6.62.95,4.63,0,6.5c-.85,1.71-3.59,4.61-10.32,4.83-5.25.18-6.64-1.4-7.51-2.36S51.31,90,51.27,89s-.35-4.49-.35-4.49-7.13-.07-11.43-.21c-3.9-.12-9-.51-9-.51s.27,2.06.51,3.54c.23,1.32.37,4.11-1,5.52-1.79,1.9-6.63,2.23-9.3,2.08s-6.43-1.37-7.61-3.74.11-5.59.62-7.44c.45-1.63,1.26-4,.89-4.63S10.94,77.8,6.1,73.32-5.5,52.88,7.72,41.06s38.91-.58,40.27.2S95.19,42.71,95.19,42.71Z"/>
            <path class="cls-3" d="M52.77,14.26c-12.34,1-21.37,7.53-25.7,14.41a56.4,56.4,0,0,0-3.85,7,20.56,20.56,0,0,1,8.2,1.86C36,39.75,41.2,42.11,45,53.12c2.88,8.33,4.19,16.3,10.88,17.8,7.57,1.7,25,0,33.06-8.45s9.42-14.64,7-22.55-12.57-21.75-26-25C64.12,13.55,58.37,13.78,52.77,14.26Z"/>
            <path class="cls-1" d="M94.22,35.74c-.41-.87-1.24-2.18-1.24-2.18s0,1.83-.11,2.79c-.19,1.57-.92,4.85-1.43,4.39A105.24,105.24,0,0,1,84,32c-1.6-2.17-7.06-7.81-7.26-9.71a19.37,19.37,0,0,1,1-4.17L75.55,17c-.79-.4-2-.84-2-.84s-.51,4.38-1.23,5.22-4.63,2.5-7.73,3.81c-3.75,1.59-7.36,3.61-8.73,3.92-1.2.27-8.11-.93-10.72-1.32-3.27-.49-8.22-1.68-9.38-2.45A13.53,13.53,0,0,1,33,22.06s-.77.57-1.53,1.23a15,15,0,0,0-1.72,1.9s2.13,2,2.28,2.73c.2,1.06-1,2.56-2,4-.61.85-2.27,4.4-2.27,4.4a6.56,6.56,0,0,1,1.93.49c1.11.46,2.16.94,2.16.94s2.39-6.23,4.08-6.85c1.44-.54,5.62.65,8.64,1.15,4.29.71,8.62,1.32,9.58,2.44s2.06,5.85,3.08,9.82c1.12,4.34,4,15.62,3.48,16.51s-5,.76-7.61.55A32.78,32.78,0,0,1,47.27,60s.59,1.85.78,2.34c.27.71,1.13,2.68,1.13,2.68s5.12,2,19.93,0,21.75-12.39,23.65-17c2.55-6.13,2.77-9.34,2.77-9.34S94.63,36.6,94.22,35.74Zm-12.78,20c-3.66,2.52-13.29,5.41-15.08,4.54-1.44-.7-4-12.23-5.2-17.37-.78-3.29-2.51-8.27-1.65-9.88.58-1.09,4.14-2.82,6.77-4.18s6.07-3,7.14-2.94c1.52.12,5,5.24,8.39,9.61S89,44.39,89.11,46,85.22,53.11,81.44,55.7Z"/>
            <path class="cls-4" d="M32,51.15c.54,2.49-.64,5.14-3.4,5.49-2.27.28-4.13-1.23-4.67-3.73A4.39,4.39,0,0,1,27,47.51,4.4,4.4,0,0,1,32,51.15Z"/>
            <path class="cls-4" d="M15.68,52c.17,2.52-1.94,5.14-4.69,4.73C8.72,56.42,7.35,54.47,7.5,52a4.37,4.37,0,0,1,4.4-4.31C14.18,47.78,15.52,49.4,15.68,52Z"/>
            <path class="cls-4" d="M23.11,61c1-.74,2.66-2.48,3.83-1.1s-.7,2.79-1.79,3.64-3.51,3-5.32,3-4.33-1.89-6-3.2c-1.37-1.06-2-2.49-1.33-3.38s1.88-.63,2.89.19c1.17,1,3.42,2.87,4.31,2.83S21.77,62,23.11,61Z"/>
          </g>
        </g>
      </g>
    </g>
  </g>
</svg>
