<?xml version="1.0" encoding="UTF-8" standalone="no"?>
<svg
   width="44.254738mm"
   height="34.59491mm"
   viewBox="0 0 125.43244 98.077217"
   version="1.1"
   id="svg214"
   sodipodi:docname="sunbeam.svg"
   inkscape:version="1.2.2 (732a01da63, 2022-12-09)"
   xmlns:inkscape="http://www.inkscape.org/namespaces/inkscape"
   xmlns:sodipodi="http://sodipodi.sourceforge.net/DTD/sodipodi-0.dtd"
   xmlns="http://www.w3.org/2000/svg"
   xmlns:svg="http://www.w3.org/2000/svg">
  <sodipodi:namedview
     id="namedview216"
     pagecolor="#ffffff"
     bordercolor="#000000"
     borderopacity="0.25"
     inkscape:showpageshadow="2"
     inkscape:pageopacity="0.0"
     inkscape:pagecheckerboard="0"
     inkscape:deskcolor="#d1d1d1"
     inkscape:document-units="mm"
     showgrid="false"
     inkscape:zoom="6.7044085"
     inkscape:cx="88.150953"
     inkscape:cy="53.546856"
     inkscape:window-width="1920"
     inkscape:window-height="1057"
     inkscape:window-x="-8"
     inkscape:window-y="-8"
     inkscape:window-maximized="1"
     inkscape:current-layer="svg214" />
  <defs
     id="defs190">
    <style
       id="style188">
      .cls-1 {
        fill: #f39110;
      }

      .cls-2 {
        fill: #fcf4ae;
      }

      .cls-3 {
        fill: #fecc50;
      }

      .cls-4 {
        fill: #2b2c29;
      }
    </style>
  </defs>
  <g
     id="Layer_2"
     data-name="Layer 2"
     transform="translate(6.7011661,0.00308111)">
    <g
       id="grid">
      <g
         id="wl_copy"
         data-name="wl copy">
        <g
           id="sunbeams">
          <g
             id="g208">
            <path
               class="cls-1"
               d="m 20.17,45.67 -2.46,1.41 43.74,31.8 40.36,-36.33 -2.7,-1.19 7,-9.13 a 3,3 0 0 0 0.32,-3.1 3,3 0 0 0 -2.62,-1.7 l -11.51,-0.25 3,-11.12 a 3,3 0 0 0 -4,-3.55 L 80.61,16.69 79.1,5.27 A 3,3 0 0 0 74.86,3 2.86,2.86 0 0 0 74.09,3.53 l -8.32,8 L 60,1.49 A 3,3 0 0 0 57.27,0 3.3,3.3 0 0 0 56.14,0.29 3.07,3.07 0 0 0 54.7,1.78 l -4.64,10.54 -9.13,-7 A 3,3 0 0 0 37.83,5 3,3 0 0 0 36.13,7.62 l -0.25,11.51 -11.12,-3 a 3,3 0 0 0 -3,0.9 3,3 0 0 0 -0.55,3.07 L 25.38,30.83 14,32.33 a 2.76,2.76 0 0 0 -0.9,0.27 2.94,2.94 0 0 0 -1.52,1.7 3,3 0 0 0 0.65,3.05 z"
               id="path192" />
            <path
               class="cls-2"
               d="m 110.52,30.45 c -1.48,1.13 -0.89,4.26 -2.68,5.05 -1.13,0.5 -10.83,4.36 -14.73,6.2 -3.9,1.84 -7.67,4.12 -8.65,4.62 -0.58,0.29 -2.92,-2.29 -4.62,-1.54 A 3.17,3.17 0 0 0 78,49.11 c 0.48,1.11 2,1.26 2.11,2 0.11,0.74 -0.25,2.28 0.24,3.39 A 3.19,3.19 0 0 0 85,55.84 c 1.7,-1.08 1.38,-3.81 2,-4.6 0.83,-1.07 5.65,-2.88 11.6,-5.51 a 104.81,104.81 0 0 1 11.92,-4.22 c 1.08,-0.4 3,2.74 6,1.6 a 3.58,3.58 0 0 0 1.94,-4.72 c -0.49,-1.11 -3.18,-2.1 -3.43,-3 -0.25,-0.9 0.87,-2.38 0.38,-3.49 a 3.41,3.41 0 0 0 -4.89,-1.45 z"
               id="path194" />
            <path
               class="cls-2"
               d="m 95.19,42.71 4.27,-2.63 c 0.86,-0.54 4,-2.67 5.21,-1 0.73,1 -0.46,4 -2.42,7.08 -1.79,2.86 -6,8.74 -6.18,9.88 -0.18,1.14 1.21,5.6 1.65,7.33 0.44,1.73 1.78,5.93 1.34,7.63 -0.44,1.7 -2.8,6.2 -9.3,6.38 C 84.6,77.47 83,76 82.83,75.1 c -0.15,-0.66 -0.61,-2.86 -0.61,-2.86 0,0 -4.14,2.8 -6.1,3.87 -1.96,1.07 -7.22,4 -7.22,4 0,0 1.22,4.71 1.47,6.62 0.25,1.91 0.95,4.63 0,6.5 -0.85,1.71 -3.59,4.61 -10.32,4.83 -5.25,0.18 -6.64,-1.4 -7.51,-2.36 -0.87,-0.96 -1.23,-5.7 -1.27,-6.7 -0.04,-1 -0.35,-4.49 -0.35,-4.49 0,0 -7.13,-0.07 -11.43,-0.21 -3.9,-0.12 -9,-0.51 -9,-0.51 0,0 0.27,2.06 0.51,3.54 0.23,1.32 0.37,4.11 -1,5.52 -1.79,1.9 -6.63,2.23 -9.3,2.08 -2.67,-0.15 -6.43,-1.37 -7.61,-3.74 -1.18,-2.37 0.11,-5.59 0.62,-7.44 0.45,-1.63 1.26,-4 0.89,-4.63 C 14.23,78.49 10.94,77.8 6.1,73.32 1.26,68.84 -5.5,52.88 7.72,41.06 c 13.22,-11.82 38.91,-0.58 40.27,0.2 1.36,0.78 47.2,1.45 47.2,1.45 z"
               id="path196" />
            <path
               class="cls-3"
               d="m 52.77,14.26 c -12.34,1 -21.37,7.53 -25.7,14.41 a 56.4,56.4 0 0 0 -3.85,7 20.56,20.56 0 0 1 8.2,1.86 C 36,39.75 41.2,42.11 45,53.12 c 2.88,8.33 4.19,16.3 10.88,17.8 7.57,1.7 25,0 33.06,-8.45 8.06,-8.45 9.42,-14.64 7,-22.55 -2.42,-7.91 -12.57,-21.75 -26,-25 -5.82,-1.37 -11.57,-1.14 -17.17,-0.66 z"
               id="path198" />
            <path
               class="cls-1"
               d="m 94.22,35.74 c -0.41,-0.87 -1.24,-2.18 -1.24,-2.18 0,0 0,1.83 -0.11,2.79 -0.19,1.57 -0.92,4.85 -1.43,4.39 A 105.24,105.24 0 0 1 84,32 c -1.6,-2.17 -7.06,-7.81 -7.26,-9.71 a 19.37,19.37 0 0 1 1,-4.17 L 75.55,17 c -0.79,-0.4 -2,-0.84 -2,-0.84 0,0 -0.51,4.38 -1.23,5.22 -0.72,0.84 -4.63,2.5 -7.73,3.81 -3.75,1.59 -7.36,3.61 -8.73,3.92 -1.2,0.27 -8.11,-0.93 -10.72,-1.32 -3.27,-0.49 -8.22,-1.68 -9.38,-2.45 A 13.53,13.53 0 0 1 33,22.06 c 0,0 -0.77,0.57 -1.53,1.23 a 15,15 0 0 0 -1.72,1.9 c 0,0 2.13,2 2.28,2.73 0.2,1.06 -1,2.56 -2,4 -0.61,0.85 -2.27,4.4 -2.27,4.4 a 6.56,6.56 0 0 1 1.93,0.49 c 1.11,0.46 2.16,0.94 2.16,0.94 0,0 2.39,-6.23 4.08,-6.85 1.44,-0.54 5.62,0.65 8.64,1.15 4.29,0.71 8.62,1.32 9.58,2.44 0.96,1.12 2.06,5.85 3.08,9.82 1.12,4.34 4,15.62 3.48,16.51 -0.52,0.89 -5,0.76 -7.61,0.55 A 32.78,32.78 0 0 1 47.27,60 c 0,0 0.59,1.85 0.78,2.34 0.27,0.71 1.13,2.68 1.13,2.68 0,0 5.12,2 19.93,0 14.81,-2 21.75,-12.39 23.65,-17 2.55,-6.13 2.77,-9.34 2.77,-9.34 0,0 -0.9,-2.08 -1.31,-2.94 z m -12.78,20 c -3.66,2.52 -13.29,5.41 -15.08,4.54 -1.44,-0.7 -4,-12.23 -5.2,-17.37 -0.78,-3.29 -2.51,-8.27 -1.65,-9.88 0.58,-1.09 4.14,-2.82 6.77,-4.18 2.63,-1.36 6.07,-3 7.14,-2.94 1.52,0.12 5,5.24 8.39,9.61 3.39,4.37 7.19,8.87 7.3,10.48 0.11,1.61 -3.89,7.11 -7.67,9.7 z"
               id="path200" />
            <path
               class="cls-4"
               d="m 32,51.15 c 0.54,2.49 -0.64,5.14 -3.4,5.49 -2.27,0.28 -4.13,-1.23 -4.67,-3.73 a 4.39,4.39 0 0 1 3.07,-5.4 4.4,4.4 0 0 1 5,3.64 z"
               id="path202" />
            <path
               class="cls-4"
               d="m 15.68,52 c 0.17,2.52 -1.94,5.14 -4.69,4.73 C 8.72,56.42 7.35,54.47 7.5,52 a 4.37,4.37 0 0 1 4.4,-4.31 c 2.28,0.09 3.62,1.71 3.78,4.31 z"
               id="path204" />
            <path
               class="cls-4"
               d="m 23.11,61 c 1,-0.74 2.66,-2.48 3.83,-1.1 1.17,1.38 -0.7,2.79 -1.79,3.64 -1.09,0.85 -3.51,3 -5.32,3 -1.81,0 -4.33,-1.89 -6,-3.2 -1.37,-1.06 -2,-2.49 -1.33,-3.38 0.67,-0.89 1.88,-0.63 2.89,0.19 1.17,1 3.42,2.87 4.31,2.83 C 20.59,62.94 21.77,62 23.11,61 Z"
               id="path206" />
          </g>
        </g>
      </g>
    </g>
  </g>
  <g
     id="g31393"
     transform="matrix(1.4259947,-0.10129526,0.10129526,1.4259947,-0.88106648,3.9136804)">
    <path
       fill="#f4900c"
       d="M 14.174,17.075 6.75,7.594 3.028,17.075 Z"
       id="path16823" />
    <path
       fill="#f4900c"
       d="M 17.938,5.534 11.375,17.923 H 24.5 Z"
       id="path16825" />
    <path
       fill="#f4900c"
       d="m 21.826,17.075 7.424,-9.481 3.722,9.481 z"
       id="path16827" />
    <path
       fill="#ffcc4d"
       d="M 28.669,15.19 23.887,3.523 18.007,15.191 18,15.194 17.993,15.19 12.113,3.522 7.331,15.19 C 4.197,10.833 1.28,8.042 1.28,8.042 1.28,8.042 3,20.75 3,33 h 30 c 0,-12.25 1.72,-24.958 1.72,-24.958 0,0 -2.917,2.791 -6.051,7.148 z"
       id="path16829" />
    <g
       id="g31363">
      <path
         style="fill:none;stroke:#ffac33;stroke-width:1;stroke-linecap:round;stroke-dasharray:none;stroke-opacity:1"
         d="m 9.45,22 c 0,0 2.538879,-5 8.55,-5 6.011121,0 8.463,5 8.463,5"
         id="path27610" />
      <path
         style="fill:none;stroke:#ffac33;stroke-width:1;stroke-linecap:round;stroke-dasharray:none;stroke-opacity:1"
         d="m 9.45,22 c 0,0 2.538879,5 8.55,5 6.011121,0 8.463,-5 8.463,-5"
         id="path27612" />
    </g>
    <circle
       fill="#5c913b"
       cx="17.957001"
       cy="22"
       id="circle16831"
       r="3.688" />
    <circle
       fill="#981ceb"
       cx="26.462999"
       cy="22"
       r="2.4119999"
       id="circle16833" />
    <circle
       fill="#dd2e44"
       cx="32.852001"
       cy="22"
       r="1.9859999"
       id="circle16835" />
    <circle
       fill="#981ceb"
       cx="9.4499998"
       cy="22"
       r="2.4119999"
       id="circle16837" />
    <circle
       fill="#dd2e44"
       cx="3.0610001"
       cy="22"
       r="1.9859999"
       id="circle16839" />
    <path
       fill="#ffac33"
       d="M 33,34 H 3 C 2.448,34 2,33.553 2,33 2,32.447 2.448,32 3,32 h 30 c 0.553,0 1,0.447 1,1 0,0.553 -0.447,1 -1,1 z m 0,-3.486 H 3 c -0.552,0 -1,-0.447 -1,-1 0,-0.553 0.448,-1 1,-1 h 30 c 0.553,0 1,0.447 1,1 0,0.553 -0.447,1 -1,1 z"
       id="path16841" />
    <circle
       fill="#ffcc4d"
       cx="1.447"
       cy="8.0419998"
       r="1.4069999"
       id="circle16843" />
    <circle
       fill="#f4900c"
       cx="6.75"
       cy="7.5939999"
       r="1.192"
       id="circle16845" />
    <circle
       fill="#ffcc4d"
       cx="12.113"
       cy="3.523"
       r="1.784"
       id="circle16847" />
    <circle
       fill="#ffcc4d"
       cx="34.553001"
       cy="8.0419998"
       r="1.4069999"
       id="circle16849" />
    <circle
       fill="#f4900c"
       cx="29.25"
       cy="7.5939999"
       r="1.192"
       id="circle16851" />
    <circle
       fill="#ffcc4d"
       cx="23.886999"
       cy="3.523"
       r="1.784"
       id="circle16853" />
    <circle
       fill="#f4900c"
       cx="17.938"
       cy="5.5339999"
       r="1.784"
       id="circle16855" />
  </g>
</svg>
