<svg xmlns="http://www.w3.org/2000/svg" width="37mm" height="30.52mm" viewBox="0 0 104.89 86.52">
  <defs>
    <style>
      .cls-1 {
        fill: #bdcf49;
      }

      .cls-2 {
        fill: #f8aa37;
      }

      .cls-3 {
        fill: #ffe9b7;
      }

      .cls-4 {
        fill: #f8ac37;
        stroke: #f8ac37;
        stroke-miterlimit: 10;
        stroke-width: 0.32px;
      }

      .cls-5 {
        fill: #d99e83;
      }

      .cls-6 {
        fill: #c16a4f;
      }

      .cls-7 {
        fill: #fecc50;
      }

      .cls-8 {
        fill: #ffd984;
      }

      .cls-9 {
        fill: #78b355;
      }

      .cls-10 {
        fill: #a7ce88;
      }

      .cls-11 {
        fill: #de2f45;
      }

      .cls-12 {
        fill: #64376e;
      }

      .cls-13 {
        fill: #2b2c29;
      }

      .cls-14 {
        fill: #f3903a;
      }
    </style>
  </defs>
  <g id="Layer_2" data-name="Layer 2">
    <g id="grid">
      <g id="wl_copy" data-name="wl copy">
        <g id="tacos">
          <g>
            <path class="cls-1" d="M95.19,31.11l4.27-2.63c.86-.54,4-2.67,5.21-1,.73,1-.46,4-2.42,7.08-1.79,2.86-6,8.74-6.18,9.88s1.21,5.6,1.65,7.33,1.78,5.89,1.34,7.54-2.8,6.2-9.3,6.38c-5.16.14-6.72-1.32-6.93-2.23-.15-.66-.61-2.86-.61-2.86s-4.14,2.8-6.1,3.87-7.22,4-7.22,4,1.22,4.71,1.47,6.62.95,4.63,0,6.5c-.85,1.71-3.59,4.61-10.32,4.83-5.25.18-6.64-1.4-7.51-2.36s-1.24-5.71-1.28-6.71-.35-4.49-.35-4.49-7.13-.07-11.43-.21c-3.9-.12-9-.51-9-.51s.27,2.06.51,3.54c.23,1.32.37,4.11-1,5.52-1.79,1.9-6.63,2.23-9.3,2.08S14.25,82,13.07,79.62s.11-5.59.62-7.44c.45-1.63,1.26-4,.89-4.63S10.94,66.2,6.1,61.72-5.5,41.28,7.72,29.46s38.91-.58,40.27.2S95.19,31.11,95.19,31.11Z"/>
            <path class="cls-2" d="M52.77,2.66c-12.34,1-21.37,7.53-25.7,14.41a56.4,56.4,0,0,0-3.85,7A20.56,20.56,0,0,1,31.42,26C36,28.15,41.2,30.51,45,41.52c2.88,8.33,4.19,16.3,10.88,17.8,7.57,1.7,25,0,33.06-8.45s9.42-14.64,7-22.55-12.57-21.75-26-25C64.12,2,58.37,2.18,52.77,2.66Z"/>
            <g>
              <path class="cls-3" d="M45.91,0C32-.07,20.7,14.86,20.59,33.36l12.56.07L33.08,46l35.84.21a43.05,43.05,0,0,0,1.91-12.55C70.94,15.16,59.78.09,45.91,0Z"/>
              <path class="cls-3" d="M81.32,29.53l10.25.06C90.12,13.06,79.65.21,66.84.13,53,.05,41.64,15,41.53,33.48A43,43,0,0,0,43.3,46.05l37.93.22Z"/>
              <path class="cls-4" d="M96,33.8C96.06,15.3,84.9.24,71,.16S45.82,15,45.71,33.5a43.59,43.59,0,0,0,1.77,12.57l35.84.22A12.56,12.56,0,0,0,96,33.8Z"/>
              <path class="cls-4" d="M33.15,33.43l20.94.12L54,46.11,33.08,46Z"/>
              <path class="cls-3" d="M20.59,33.36A12.56,12.56,0,1,1,33.08,46,12.57,12.57,0,0,1,20.59,33.36Z"/>
              <path class="cls-2" d="M50.1,0C36.23,0,24.89,14.88,24.78,33.38a8.38,8.38,0,0,0,16.75.1C41.61,18.9,48.68,6.58,58.46,2A19.47,19.47,0,0,0,50.1,0Z"/>
              <circle class="cls-5" cx="28.97" cy="33.41" r="2.09"/>
              <path class="cls-6" d="M41.47,34a3.13,3.13,0,0,0-3.07-2.63,3.17,3.17,0,0,0-1.07.19,1.36,1.36,0,0,0,0-.2,4.19,4.19,0,1,0-7.26,2.8,3.11,3.11,0,0,0,1.08,5.39,3.1,3.1,0,0,0,2.59,2.19A8.31,8.31,0,0,0,41.47,34Z"/>
              <path class="cls-5" d="M40.51,29.29a3.14,3.14,0,0,0,0,6.28,2.88,2.88,0,0,0,.78-.11,8.09,8.09,0,0,0,.28-2c0-1.33.09-2.64.21-3.93A3,3,0,0,0,40.51,29.29Z"/>
              <ellipse class="cls-7" cx="34.24" cy="27.16" rx="2.09" ry="3.14" transform="translate(6.88 61.23) rotate(-89.66)"/>
              <circle class="cls-7" cx="35.27" cy="29.26" r="2.09"/>
              <circle class="cls-6" cx="39.46" cy="29.28" r="2.09"/>
              <circle class="cls-5" cx="31.07" cy="31.32" r="2.09"/>
              <circle class="cls-5" cx="35.26" cy="31.35" r="2.09"/>
              <circle class="cls-8" cx="37.38" cy="27.17" r="2.09"/>
              <circle class="cls-3" cx="35.31" cy="22.98" r="2.09"/>
              <circle class="cls-3" cx="33.19" cy="27.15" r="2.09"/>
              <circle class="cls-8" cx="39.5" cy="23" r="2.09"/>
              <circle class="cls-8" cx="39.47" cy="27.19" r="2.09"/>
              <circle class="cls-8" cx="39.48" cy="25.09" r="2.09"/>
              <circle class="cls-3" cx="39.48" cy="25.09" r="2.09"/>
              <path class="cls-9" d="M42.85,11.41a3.06,3.06,0,0,0-2.23-1A3.13,3.13,0,0,0,37.52,13a3.08,3.08,0,0,0-1.63-.5,2.39,2.39,0,0,0-2.62,2.08,1.72,1.72,0,0,0,.41,1.07,1.63,1.63,0,0,0-.43,1,2.1,2.1,0,0,0-2.1,2.08,2,2,0,0,0,.36,1.13,1.56,1.56,0,0,0-.37,1c0,1.15,1.39,2.1,3.12,2.11a4.07,4.07,0,0,0,2.29-.65,3.09,3.09,0,0,0,1.9.67,3,3,0,0,0,1.17-.22,3.11,3.11,0,0,0,2.77,2.3,37.74,37.74,0,0,1,5.82-14,5.11,5.11,0,0,0-2.36-.56A4.94,4.94,0,0,0,42.85,11.41Z"/>
              <circle class="cls-10" cx="37.44" cy="16.71" r="2.09"/>
              <path class="cls-10" d="M41.64,13.59a1,1,0,1,1-2.09,0,1,1,0,0,1,2.09,0Z"/>
              <circle class="cls-10" cx="34.28" cy="19.83" r="1.05"/>
              <path class="cls-10" d="M41.61,19.87a1.05,1.05,0,1,1-1-1.05A1,1,0,0,1,41.61,19.87Z"/>
              <circle class="cls-10" cx="41.63" cy="16.73" r="2.09"/>
              <circle class="cls-11" cx="39.57" cy="10.44" r="2.09"/>
              <circle class="cls-8" cx="43.76" cy="10.47" r="2.09"/>
              <circle class="cls-8" cx="45.87" cy="6.29" r="2.09"/>
              <circle class="cls-8" cx="39.55" cy="14.63" r="2.09"/>
              <path class="cls-10" d="M52.17,4.23a2.11,2.11,0,0,0-2.11,2.09,1.42,1.42,0,0,0,0,.2A3,3,0,0,0,49,6.31a3.14,3.14,0,0,0-3.15,3.12,3.08,3.08,0,0,0,1.59,2.73A29.11,29.11,0,0,1,53.74,5,2.07,2.07,0,0,0,52.17,4.23Z"/>
              <circle class="cls-11" cx="45.86" cy="8.38" r="2.09"/>
              <circle class="cls-11" cx="50.07" cy="4.22" r="2.09"/>
            </g>
            <path class="cls-12" d="M30,81.28c1.34-1.41,1.2-4.2,1-5.52-.24-1.48-.51-3.54-.51-3.54s5.15.39,9.05.51c4.3.14,11.43.21,11.43.21s.31,3.5.35,4.49.4,5.74,1.28,6.71,2.26,2.54,7.51,2.36c6.73-.22,9.47-3.12,10.32-4.83.94-1.87.23-4.59,0-6.5s-1.47-6.62-1.47-6.62,5.26-3,7.22-4,6.1-3.87,6.1-3.87.46,2.2.61,2.86c.21.91,1.77,2.37,6.93,2.23,6.5-.18,8.86-4.74,9.3-6.38s-.9-5.81-1.34-7.54-1.86-6.2-1.65-7.33,4.39-7,6.18-9.88c2-3.11,3.15-6.08,2.42-7.08-1.23-1.71-4.35.42-5.21,1l-3,1.83c1.62,7-.15,12.83-7.51,20.56-8,8.46-25.49,10.15-33.06,8.45-6.69-1.5-8-9.47-10.88-17.8C41.2,30.51,36,28.15,31.42,26a20.56,20.56,0,0,0-8.2-1.86v0c-5.64.13-11.22,1.54-15.51,5.38C-5.5,41.28,1.24,57.24,6.1,61.72s8.12,5.18,8.48,5.83-.44,3-.89,4.63c-.51,1.85-1.8,5.07-.62,7.44s4.94,3.6,7.61,3.74S28.19,83.18,30,81.28Z"/>
            <path class="cls-13" d="M32,39.55c.54,2.49-.64,5.14-3.4,5.49-2.27.28-4.13-1.23-4.67-3.73A4.39,4.39,0,0,1,27,35.91,4.4,4.4,0,0,1,32,39.55Z"/>
            <path class="cls-13" d="M15.68,40.42c.17,2.52-1.94,5.14-4.69,4.73-2.27-.33-3.64-2.28-3.49-4.79a4.37,4.37,0,0,1,4.4-4.31C14.18,36.18,15.52,37.8,15.68,40.42Z"/>
            <path class="cls-13" d="M23.11,49.44c1-.74,2.66-2.48,3.83-1.1s-.7,2.79-1.79,3.64-3.51,3-5.32,3-4.33-1.89-6-3.2c-1.37-1.06-2-2.49-1.33-3.38s1.88-.63,2.89.19c1.17,1,3.42,2.87,4.31,2.83S21.77,50.44,23.11,49.44Z"/>
            <path class="cls-14" d="M72,29.27c-2.53,3.2-5.16,6.68-9.44,7.67-4.43,1-7.8-1.4-8.08-5.76-.25-4,2.91-8.28,7.56-9.35,3.91-.9,7,1.43,9.7,3.28,2.53-3.2,5.15-6.69,9.43-7.67,4.49-1,7.81,1.4,8.08,5.76.26,4-2.91,8.28-7.56,9.34C77.82,33.44,74.73,31.12,72,29.27ZM86,24c-.17-2.59-2.19-4-4.78-3.43-3,.69-5.29,3.74-7.17,6.17,2.18,1.36,4.51,3.49,7.57,2.79A5.66,5.66,0,0,0,86,24ZM69.79,27.67c-2.17-1.35-4.5-3.49-7.57-2.78a5.63,5.63,0,0,0-4.37,5.53,3.63,3.63,0,0,0,4.77,3.43C65.64,33.16,67.91,30.11,69.79,27.67Z"/>
          </g>
        </g>
      </g>
    </g>
  </g>
</svg>
