<?xml version="1.0" encoding="UTF-8" standalone="no"?>
<svg
   width="37.728695mm"
   height="34.519875mm"
   viewBox="0 0 106.95575 97.859092"
   version="1.1"
   id="svg30959"
   xmlns="http://www.w3.org/2000/svg"
   xmlns:svg="http://www.w3.org/2000/svg">
  <defs
     id="defs30867">
    <style
       id="style30865">
      .cls-1 {
        fill: #bdcf49;
      }

      .cls-2 {
        fill: #f8aa37;
      }

      .cls-3 {
        fill: #ffe9b7;
      }

      .cls-4 {
        fill: #f8ac37;
        stroke: #f8ac37;
        stroke-miterlimit: 10;
        stroke-width: 0.32px;
      }

      .cls-5 {
        fill: #d99e83;
      }

      .cls-6 {
        fill: #c16a4f;
      }

      .cls-7 {
        fill: #fecc50;
      }

      .cls-8 {
        fill: #ffd984;
      }

      .cls-9 {
        fill: #78b355;
      }

      .cls-10 {
        fill: #a7ce88;
      }

      .cls-11 {
        fill: #de2f45;
      }

      .cls-12 {
        fill: #64376e;
      }

      .cls-13 {
        fill: #2b2c29;
      }

      .cls-14 {
        fill: #f3903a;
      }
    </style>
  </defs>
  <g
     id="Layer_2"
     data-name="Layer 2"
     transform="translate(2.0049034,11.344917)">
    <g
       id="grid">
      <g
         id="wl_copy"
         data-name="wl copy">
        <g
           id="tacos">
          <g
             id="g30953">
            <path
               class="cls-1"
               d="m 95.19,31.11 4.27,-2.63 c 0.86,-0.54 4,-2.67 5.21,-1 0.73,1 -0.46,4 -2.42,7.08 -1.79,2.86 -6,8.74 -6.18,9.88 -0.18,1.14 1.21,5.6 1.65,7.33 0.44,1.73 1.78,5.89 1.34,7.54 -0.44,1.65 -2.8,6.2 -9.3,6.38 -5.16,0.14 -6.72,-1.32 -6.93,-2.23 -0.15,-0.66 -0.61,-2.86 -0.61,-2.86 0,0 -4.14,2.8 -6.1,3.87 -1.96,1.07 -7.22,4 -7.22,4 0,0 1.22,4.71 1.47,6.62 0.25,1.91 0.95,4.63 0,6.5 -0.85,1.71 -3.59,4.61 -10.32,4.83 -5.25,0.18 -6.64,-1.4 -7.51,-2.36 -0.87,-0.96 -1.24,-5.71 -1.28,-6.71 -0.04,-1 -0.35,-4.49 -0.35,-4.49 0,0 -7.13,-0.07 -11.43,-0.21 -3.9,-0.12 -9,-0.51 -9,-0.51 0,0 0.27,2.06 0.51,3.54 0.23,1.32 0.37,4.11 -1,5.52 -1.79,1.9 -6.63,2.23 -9.3,2.08 -2.67,-0.15 -6.44,-1.28 -7.62,-3.66 -1.18,-2.38 0.11,-5.59 0.62,-7.44 0.45,-1.63 1.26,-4 0.89,-4.63 C 14.21,66.92 10.94,66.2 6.1,61.72 1.26,57.24 -5.5,41.28 7.72,29.46 c 13.22,-11.82 38.91,-0.58 40.27,0.2 1.36,0.78 47.2,1.45 47.2,1.45 z"
               id="path30869" />
            <path
               class="cls-2"
               d="m 52.77,2.66 c -12.34,1 -21.37,7.53 -25.7,14.41 a 56.4,56.4 0 0 0 -3.85,7 20.56,20.56 0 0 1 8.2,1.93 C 36,28.15 41.2,30.51 45,41.52 c 2.88,8.33 4.19,16.3 10.88,17.8 7.57,1.7 25,0 33.06,-8.45 8.06,-8.45 9.42,-14.64 7,-22.55 C 93.52,20.41 83.37,6.57 69.94,3.32 64.12,2 58.37,2.18 52.77,2.66 Z"
               id="path30871" />
            <g
               id="g30941">
              <path
                 class="cls-3"
                 d="M 45.91,0 C 32,-0.07 20.7,14.86 20.59,33.36 L 33.15,33.43 33.08,46 68.92,46.21 A 43.05,43.05 0 0 0 70.83,33.66 C 70.94,15.16 59.78,0.09 45.91,0 Z"
                 id="path30873" />
              <path
                 class="cls-4"
                 d="M 33.15,33.43 54.09,33.55 54,46.11 33.08,46 Z"
                 id="path30879" />
              <path
                 class="cls-3"
                 d="M 20.59,33.36 A 12.56,12.56 0 1 1 33.08,46 12.57,12.57 0 0 1 20.59,33.36 Z"
                 id="path30881" />
              <path
                 class="cls-2"
                 d="M 50.1,0 C 36.23,0 24.89,14.88 24.78,33.38 a 8.38,8.38 0 0 0 16.75,0.1 C 41.61,18.9 48.68,6.58 58.46,2 A 19.47,19.47 0 0 0 50.1,0 Z"
                 id="path30883" />
              <circle
                 class="cls-5"
                 cx="28.969999"
                 cy="33.41"
                 r="2.0899999"
                 id="circle30885" />
              <path
                 class="cls-6"
                 d="m 41.47,34 a 3.13,3.13 0 0 0 -3.07,-2.63 3.17,3.17 0 0 0 -1.07,0.19 1.36,1.36 0 0 0 0,-0.2 4.19,4.19 0 1 0 -7.26,2.8 3.11,3.11 0 0 0 1.08,5.39 3.1,3.1 0 0 0 2.59,2.19 8.31,8.31 0 0 0 7.73,-7.74 z"
                 id="path30887" />
              <path
                 class="cls-5"
                 d="m 40.51,29.29 a 3.14,3.14 0 0 0 0,6.28 2.88,2.88 0 0 0 0.78,-0.11 8.09,8.09 0 0 0 0.28,-2 c 0,-1.33 0.09,-2.64 0.21,-3.93 a 3,3 0 0 0 -1.27,-0.24 z"
                 id="path30889" />
              <ellipse
                 class="cls-7"
                 cx="34.240002"
                 cy="27.16"
                 rx="2.0899999"
                 ry="3.1400001"
                 transform="rotate(-89.66,34.237214,27.154526)"
                 id="ellipse30891" />
              <circle
                 class="cls-7"
                 cx="35.27"
                 cy="29.26"
                 r="2.0899999"
                 id="circle30893" />
              <circle
                 class="cls-6"
                 cx="39.459999"
                 cy="29.280001"
                 r="2.0899999"
                 id="circle30895" />
              <circle
                 class="cls-5"
                 cx="31.07"
                 cy="31.32"
                 r="2.0899999"
                 id="circle30897" />
              <circle
                 class="cls-5"
                 cx="35.259998"
                 cy="31.35"
                 r="2.0899999"
                 id="circle30899" />
              <circle
                 class="cls-8"
                 cx="37.380001"
                 cy="27.17"
                 r="2.0899999"
                 id="circle30901" />
              <circle
                 class="cls-3"
                 cx="35.310001"
                 cy="22.98"
                 r="2.0899999"
                 id="circle30903" />
              <circle
                 class="cls-3"
                 cx="33.189999"
                 cy="27.15"
                 r="2.0899999"
                 id="circle30905" />
              <circle
                 class="cls-8"
                 cx="39.5"
                 cy="23"
                 r="2.0899999"
                 id="circle30907" />
              <circle
                 class="cls-8"
                 cx="39.470001"
                 cy="27.190001"
                 r="2.0899999"
                 id="circle30909" />
              <circle
                 class="cls-8"
                 cx="39.48"
                 cy="25.09"
                 r="2.0899999"
                 id="circle30911" />
              <circle
                 class="cls-3"
                 cx="39.48"
                 cy="25.09"
                 r="2.0899999"
                 id="circle30913" />
              <path
                 class="cls-9"
                 d="m 42.85,11.41 a 3.06,3.06 0 0 0 -2.23,-1 3.13,3.13 0 0 0 -3.1,2.59 3.08,3.08 0 0 0 -1.63,-0.5 2.39,2.39 0 0 0 -2.62,2.08 1.72,1.72 0 0 0 0.41,1.07 1.63,1.63 0 0 0 -0.43,1 2.1,2.1 0 0 0 -2.1,2.08 2,2 0 0 0 0.36,1.13 1.56,1.56 0 0 0 -0.37,1 c 0,1.15 1.39,2.1 3.12,2.11 a 4.07,4.07 0 0 0 2.29,-0.65 3.09,3.09 0 0 0 1.9,0.67 3,3 0 0 0 1.17,-0.22 3.11,3.11 0 0 0 2.77,2.3 37.74,37.74 0 0 1 5.82,-14 5.11,5.11 0 0 0 -2.36,-0.56 4.94,4.94 0 0 0 -3,0.9 z"
                 id="path30915" />
              <circle
                 class="cls-10"
                 cx="37.439999"
                 cy="16.709999"
                 r="2.0899999"
                 id="circle30917" />
              <path
                 class="cls-10"
                 d="m 41.64,13.59 a 1.045,1.045 0 1 1 -2.09,0 1.045,1.045 0 0 1 2.09,0 z"
                 id="path30919" />
              <circle
                 class="cls-10"
                 cx="34.279999"
                 cy="19.83"
                 r="1.05"
                 id="circle30921" />
              <path
                 class="cls-10"
                 d="m 41.61,19.87 a 1.05,1.05 0 1 1 -1,-1.05 1,1 0 0 1 1,1.05 z"
                 id="path30923" />
              <circle
                 class="cls-10"
                 cx="41.630001"
                 cy="16.73"
                 r="2.0899999"
                 id="circle30925" />
              <circle
                 class="cls-11"
                 cx="39.57"
                 cy="10.44"
                 r="2.0899999"
                 id="circle30927" />
              <circle
                 class="cls-8"
                 cx="43.759998"
                 cy="10.47"
                 r="2.0899999"
                 id="circle30929" />
              <circle
                 class="cls-8"
                 cx="45.869999"
                 cy="6.29"
                 r="2.0899999"
                 id="circle30931" />
              <circle
                 class="cls-8"
                 cx="39.549999"
                 cy="14.63"
                 r="2.0899999"
                 id="circle30933" />
              <path
                 class="cls-10"
                 d="m 52.17,4.23 a 2.11,2.11 0 0 0 -2.11,2.09 1.42,1.42 0 0 0 0,0.2 A 3,3 0 0 0 49,6.31 3.14,3.14 0 0 0 45.85,9.43 3.08,3.08 0 0 0 47.44,12.16 29.11,29.11 0 0 1 53.74,5 2.07,2.07 0 0 0 52.17,4.23 Z"
                 id="path30935" />
              <circle
                 class="cls-11"
                 cx="45.860001"
                 cy="8.3800001"
                 r="2.0899999"
                 id="circle30937" />
              <circle
                 class="cls-11"
                 cx="50.07"
                 cy="4.2199998"
                 r="2.0899999"
                 id="circle30939" />
              <path
                 fill="#aa8dd8"
                 d="m 35.256465,-8.8122908 c 0.178397,-0.5741316 0.575853,-1.0799907 1.15116,-1.3848322 1.817147,-0.956069 3.642051,-1.32706 5.267255,-1.067017 1.720609,0.275305 3.131452,1.250031 3.881411,2.6723391 1.313606,2.4960498 0.417398,6.2038964 -3.854741,8.45445467 -1.660763,0.8763748 -2.015104,1.83851263 -1.87949,2.09064573 0.131713,0.2547591 1.12736,0.5070919 2.789443,-0.3673351 1.817144,-0.95606983 3.64205,-1.32706133 5.267253,-1.06701683 1.72061,0.2753058 3.13536,1.24740253 3.881414,2.67233893 1.314919,2.4980021 0.417396,6.2038965 -3.84952,8.4537785 -1.210553,0.638684 -1.649907,1.272063 -1.800678,1.592047 -0.118357,0.25847 -0.118274,0.431512 -0.0814,0.503183 0.134299,0.250184 1.122143,0.507761 2.788128,-0.369288 1.151276,-0.60447 2.576782,-0.164629 3.181246,0.986646 0.60642,1.149961 0.167221,2.572199 -0.986646,3.18125 -4.266918,2.249881 -7.834389,0.895947 -9.150623,-1.60401 -1.314919,-2.498001 -0.417396,-6.203896 3.85474,-8.4544525 1.211871,-0.6367293 1.646001,-1.2694351 1.796769,-1.5894165 0.121605,-0.2578418 0.12155,-0.4308735 0.08273,-0.5012288 -0.131707,-0.2547644 -1.123458,-0.5097113 -2.789442,0.3673355 -4.26823,2.247929 -7.834386,0.8959478 -9.15062,-1.6040076 -1.314919,-2.4980037 -0.418711,-6.20585 3.852149,-8.4498724 1.210555,-0.638681 1.648593,-1.2740148 1.79936,-1.5939989 0.119735,-0.2564871 0.1196,-0.4295573 0.08272,-0.501227 -0.135611,-0.2521382 -1.127359,-0.5070919 -2.789441,0.3673336 -1.149975,0.6064183 -2.576792,0.164625 -3.181259,-0.9866526 -0.300298,-0.5811978 -0.339004,-1.2249117 -0.161918,-1.8009966 z"
                 id="path12881"
                 style="stroke-width:2.35449" />
              <path
                 class="cls-3"
                 d="m 81.32,29.53 10.25,0.06 C 90.12,13.06 79.65,0.21 66.84,0.13 53,0.05 41.64,15 41.53,33.48 a 43,43 0 0 0 1.77,12.57 l 37.93,0.22 z"
                 id="path30875" />
              <path
                 class="cls-4"
                 d="M 96,33.8 C 96.06,15.3 84.9,0.24 71,0.16 57.1,0.08 45.82,15 45.71,33.5 a 43.59,43.59 0 0 0 1.77,12.57 l 35.84,0.22 A 12.56,12.56 0 0 0 96,33.8 Z"
                 id="path30877" />
            </g>
            <path
               class="cls-12"
               d="m 30,81.28 c 1.34,-1.41 1.2,-4.2 1,-5.52 -0.24,-1.48 -0.51,-3.54 -0.51,-3.54 0,0 5.15,0.39 9.05,0.51 4.3,0.14 11.43,0.21 11.43,0.21 0,0 0.31,3.5 0.35,4.49 0.04,0.99 0.4,5.74 1.28,6.71 0.88,0.97 2.26,2.54 7.51,2.36 6.73,-0.22 9.47,-3.12 10.32,-4.83 0.94,-1.87 0.23,-4.59 0,-6.5 -0.23,-1.91 -1.47,-6.62 -1.47,-6.62 0,0 5.26,-3 7.22,-4 1.96,-1 6.1,-3.87 6.1,-3.87 0,0 0.46,2.2 0.61,2.86 0.21,0.91 1.77,2.37 6.93,2.23 6.5,-0.18 8.86,-4.74 9.3,-6.38 0.44,-1.64 -0.9,-5.81 -1.34,-7.54 -0.44,-1.73 -1.86,-6.2 -1.65,-7.33 0.21,-1.13 4.39,-7 6.18,-9.88 2,-3.11 3.15,-6.08 2.42,-7.08 -1.23,-1.71 -4.35,0.42 -5.21,1 l -3,1.83 c 1.62,7 -0.15,12.83 -7.51,20.56 -8,8.46 -25.49,10.15 -33.06,8.45 -6.69,-1.5 -8,-9.47 -10.88,-17.8 C 41.2,30.51 36,28.15 31.42,26 a 20.56,20.56 0 0 0 -8.2,-1.86 v 0 C 17.58,24.27 12,25.68 7.71,29.52 -5.5,41.28 1.24,57.24 6.1,61.72 c 4.86,4.48 8.12,5.18 8.48,5.83 0.36,0.65 -0.44,3 -0.89,4.63 -0.51,1.85 -1.8,5.07 -0.62,7.44 1.18,2.37 4.94,3.6 7.61,3.74 2.67,0.14 7.51,-0.18 9.32,-2.08 z"
               id="path30943" />
            <path
               class="cls-13"
               d="m 32,39.55 c 0.54,2.49 -0.64,5.14 -3.4,5.49 -2.27,0.28 -4.13,-1.23 -4.67,-3.73 a 4.39,4.39 0 0 1 3.07,-5.4 4.4,4.4 0 0 1 5,3.64 z"
               id="path30945" />
            <path
               class="cls-13"
               d="m 15.68,40.42 c 0.17,2.52 -1.94,5.14 -4.69,4.73 C 8.72,44.82 7.35,42.87 7.5,40.36 a 4.37,4.37 0 0 1 4.4,-4.31 c 2.28,0.13 3.62,1.75 3.78,4.37 z"
               id="path30947" />
            <path
               class="cls-13"
               d="m 23.11,49.44 c 1,-0.74 2.66,-2.48 3.83,-1.1 1.17,1.38 -0.7,2.79 -1.79,3.64 -1.09,0.85 -3.51,3 -5.32,3 -1.81,0 -4.33,-1.89 -6,-3.2 -1.37,-1.06 -2,-2.49 -1.33,-3.38 0.67,-0.89 1.88,-0.63 2.89,0.19 1.17,1 3.42,2.87 4.31,2.83 0.89,-0.04 2.07,-0.98 3.41,-1.98 z"
               id="path30949" />
            <path
               class="cls-14"
               d="m 72,29.27 c -2.53,3.2 -5.16,6.68 -9.44,7.67 -4.43,1 -7.8,-1.4 -8.08,-5.76 -0.25,-4 2.91,-8.28 7.56,-9.35 3.91,-0.9 7,1.43 9.7,3.28 2.53,-3.2 5.15,-6.69 9.43,-7.67 4.49,-1 7.81,1.4 8.08,5.76 0.26,4 -2.91,8.28 -7.56,9.34 -3.87,0.9 -6.96,-1.42 -9.69,-3.27 z M 86,24 c -0.17,-2.59 -2.19,-4 -4.78,-3.43 -3,0.69 -5.29,3.74 -7.17,6.17 2.18,1.36 4.51,3.49 7.57,2.79 A 5.66,5.66 0 0 0 86,24 Z m -16.21,3.67 c -2.17,-1.35 -4.5,-3.49 -7.57,-2.78 a 5.63,5.63 0 0 0 -4.37,5.53 3.63,3.63 0 0 0 4.77,3.43 c 3.02,-0.69 5.29,-3.74 7.17,-6.18 z"
               id="path30951" />
          </g>
        </g>
      </g>
    </g>
  </g>
  <g
     id="g8739"
     transform="matrix(1.2726009,-0.08638931,0.08638931,1.2726009,-22.80147,-4.6604325)">
    <path
       fill="#dd2e44"
       d="m 50.008438,43.57252 c 0.01096,-0.09019 -0.0233,-0.184885 -0.08113,-0.280885 0,0 -11.659764,-19.349415 -12.931632,-19.49999 -1.271976,-0.148614 -17.095745,15.975997 -17.095745,15.975997 -0.07949,0.08048 -0.134418,0.163293 -0.144433,0.25454 -0.149097,1.263066 6.503563,3.079506 14.856939,4.060565 8.355344,0.981168 15.246902,0.752838 15.396001,-0.510227 z"
       id="path5268"
       style="stroke-width:1.39378" />
    <path
       fill="#ea596e"
       d="m 36.910444,23.815538 c -0.0451,0.01226 -0.09976,0.0369 -0.16307,0.07485 -1.27625,1.439349 -11.565988,13.519252 -14.338925,17.790308 2.168665,0.745234 4.657846,1.24669 7.662388,1.763932 1.414869,-3.989147 7.721325,-18.904972 6.83961,-19.629086 z"
       id="path5270"
       style="stroke-width:1.39378" />
  </g>
  <g
     id="g9662"
     transform="matrix(0.46231395,-0.88665964,0.88665964,0.46231395,-5.0424726,84.903368)">
    <path
       fill="#77b255"
       d="m 53.881956,60.784468 c 1.923741,4.427349 0.303314,7.880979 -2.289123,9.002313 -2.590105,1.12102 -6.221074,-0.05478 -8.13983,-4.480433 -0.747557,-1.728292 -1.67927,-2.150871 -1.942457,-2.04153 -0.266903,0.116978 -0.593544,1.090334 0.153381,2.813959 1.921091,4.425332 0.298331,7.879279 -2.294107,9.000613 -2.591806,1.125997 -6.218738,-0.0551 -8.137812,-4.483085 -0.749576,-1.725641 -1.683937,-2.150237 -1.946176,-2.033897 -0.260221,0.113686 -0.59184,1.08535 0.1554,2.811309 0.515305,1.189503 -0.02809,2.579561 -1.219928,3.095186 -1.196817,0.513927 -2.580193,-0.03276 -3.098469,-1.22661 -1.91844,-4.423316 -0.302997,-7.878647 2.293475,-9.005281 2.590105,-1.121018 6.216722,0.05775 8.140461,4.485103 0.747557,1.728291 1.67927,2.15087 1.941509,2.034529 0.262851,-0.111722 0.594491,-1.083334 -0.152433,-2.806959 -1.921722,-4.429998 -0.303313,-7.880979 2.293474,-9.005279 2.587455,-1.123039 6.214073,0.05573 8.13813,4.485418 0.744588,1.723942 1.683304,2.14557 1.941508,2.034528 0.264569,-0.116662 0.594175,-1.085667 -0.150733,-2.811942 -0.520608,-1.193534 0.02841,-2.577226 1.219929,-3.095186 1.191835,-0.515621 2.580194,0.03276 3.093801,1.227244 z"
       id="path9165"
       style="stroke-width:2.35461" />
    <circle
       fill="#5c913b"
       cx="96.058357"
       cy="49.541439"
       r="3.5319221"
       id="circle9167"
       style="stroke-width:2.35461" />
    <circle
       fill="#9266cc"
       cx="61.721638"
       cy="-11.717478"
       r="4.7092295"
       id="circle9169"
       style="stroke-width:2.35461" />
    <circle
       fill="#9266cc"
       cx="86.20472"
       cy="36.734154"
       r="4.7092295"
       id="circle9171"
       style="stroke-width:2.35461" />
    <circle
       fill="#5c913b"
       cx="58.187855"
       cy="51.605366"
       r="3.5319221"
       id="circle9173"
       style="stroke-width:2.35461" />
    <circle
       fill="#5c913b"
       cx="51.256451"
       cy="32.626095"
       r="3.5319221"
       id="circle9175"
       style="stroke-width:2.35461" />
    <circle
       fill="#ffcc4d"
       cx="24.035192"
       cy="52.253017"
       r="4.7092295"
       id="circle9177"
       style="stroke-width:2.35461" />
    <circle
       fill="#ffcc4d"
       cx="107.0033"
       cy="64.066643"
       r="3.5319221"
       id="circle9179"
       style="stroke-width:2.35461" />
    <circle
       fill="#ffcc4d"
       cx="25.54669"
       cy="-3.6500747"
       r="3.5319221"
       id="circle9181"
       style="stroke-width:2.35461" />
    <path
       fill="#77b255"
       d="m 22.604446,35.542779 c -4.767344,0.758043 -7.707337,-1.672962 -8.146257,-4.463208 -0.439198,-2.787907 1.605507,-6.010581 6.369959,-6.764224 1.860166,-0.292614 2.501881,-1.089398 2.461677,-1.371543 -0.04667,-0.287652 -0.907721,-0.846855 -2.763208,-0.553689 -4.76473,0.75598 -7.704447,-1.677363 -8.143367,-4.467608 -0.443598,-2.790798 1.605231,-6.008244 6.372023,-6.761611 1.858102,-0.295227 2.502434,-1.094076 2.455214,-1.3770516 -0.04516,-0.2803582 -0.90332,-0.8439623 -2.761145,-0.5510734 -1.280467,0.2021768 -2.490938,-0.6709289 -2.692833,-1.9537254 -0.199002,-1.287204 0.675604,-2.490387 1.961019,-2.6943438 4.762113,-0.7539152 7.704996,1.6726906 8.148044,4.468164 0.439199,2.7879032 -1.607294,6.0056292 -6.374637,6.7636702 -1.860165,0.292613 -2.501881,1.089398 -2.454662,1.372372 0.04254,0.282422 0.900707,0.846026 2.756194,0.552859 4.769406,-0.755429 7.707338,1.672964 8.148047,4.468162 0.441815,2.785848 -1.604684,6.003566 -6.374365,6.761333 -1.855211,0.290828 -2.497756,1.094627 -2.45466,1.372373 0.04695,0.285312 0.903044,0.846303 2.760594,0.555749 1.285691,-0.206292 2.488596,0.67065 2.692832,1.95373 0.201891,1.282799 -0.675609,2.490384 -1.960469,2.689665 z"
       id="path9584"
       style="stroke-width:2.35461" />
    <path
       fill="#aa8dd8"
       d="m 72.275904,57.732914 c 0.461532,-0.385327 1.069974,-0.594387 1.718645,-0.538068 2.04519,0.183599 3.77925,0.862789 5.002994,1.963531 1.295585,1.165354 1.951285,2.749946 1.80895,4.351631 -0.251911,2.809477 -3.017629,5.436944 -7.827436,5.00767 -1.870586,-0.165629 -2.690536,0.450044 -2.713527,0.735425 -0.02769,0.285467 0.671505,1.037938 2.54214,1.205919 2.045189,0.183599 3.779251,0.862789 5.002993,1.963531 1.295586,1.165355 1.955993,2.74986 1.80895,4.351632 -0.251866,2.81183 -3.017629,5.436943 -7.822684,5.009937 -1.363431,-0.120831 -2.076291,0.172583 -2.376639,0.359465 -0.239731,0.152816 -0.333612,0.298187 -0.341553,0.378401 -0.02304,0.283028 0.666761,1.035667 2.542096,1.203565 1.295072,0.117383 2.253487,1.260708 2.136102,2.555777 -0.115031,1.295025 -1.256041,2.251043 -2.555777,2.136103 -4.805055,-0.427007 -7.066122,-3.500935 -6.814298,-6.315122 0.251866,-2.811829 3.017629,-5.436943 7.827434,-5.007669 1.363476,0.123185 2.071584,-0.172496 2.37193,-0.359378 0.242121,-0.150518 0.336012,-0.295874 0.341598,-0.376047 0.0277,-0.285468 -0.666803,-1.038022 -2.54214,-1.205919 -4.805097,-0.429361 -7.066121,-3.500934 -6.814297,-6.315119 0.251866,-2.811832 3.017585,-5.439298 7.82277,-5.005229 1.363432,0.120831 2.076249,-0.174936 2.376593,-0.36182 0.239809,-0.150409 0.333659,-0.295832 0.341598,-0.376045 0.02299,-0.285383 -0.671506,-1.037939 -2.542138,-1.205921 -1.295028,-0.115028 -2.253485,-1.260705 -2.136101,-2.555777 0.06334,-0.651155 0.380308,-1.212792 0.841797,-1.600473 z"
       id="path9586"
       style="stroke-width:2.35461" />
  </g>
</svg>
