<?xml version="1.0" encoding="UTF-8" standalone="no"?>
<svg
   width="37.00058mm"
   height="29.715771mm"
   viewBox="0 0 104.89164 84.233682"
   version="1.1"
   id="svg9907"
   sodipodi:docname="tiger.svg"
   inkscape:version="1.2.2 (732a01da63, 2022-12-09)"
   xmlns:inkscape="http://www.inkscape.org/namespaces/inkscape"
   xmlns:sodipodi="http://sodipodi.sourceforge.net/DTD/sodipodi-0.dtd"
   xmlns="http://www.w3.org/2000/svg"
   xmlns:svg="http://www.w3.org/2000/svg">
  <sodipodi:namedview
     id="namedview9909"
     pagecolor="#ffffff"
     bordercolor="#000000"
     borderopacity="0.25"
     inkscape:showpageshadow="2"
     inkscape:pageopacity="0.0"
     inkscape:pagecheckerboard="0"
     inkscape:deskcolor="#d1d1d1"
     inkscape:document-units="mm"
     showgrid="false"
     inkscape:zoom="7.6128473"
     inkscape:cx="69.881869"
     inkscape:cy="57.665678"
     inkscape:window-width="1920"
     inkscape:window-height="1057"
     inkscape:window-x="1912"
     inkscape:window-y="-8"
     inkscape:window-maximized="1"
     inkscape:current-layer="svg9907" />
  <defs
     id="defs9861">
    <style
       id="style9856">
      .cls-1 {
        fill: none;
      }

      .cls-2 {
        fill: #e85637;
      }

      .cls-3 {
        fill: #f8aa37;
      }

      .cls-4 {
        clip-path: url(#clip-path);
      }

      .cls-5 {
        fill: #2a3034;
      }

      .cls-6 {
        fill: #2b2c29;
      }
    </style>
    <clipPath
       id="clip-path">
      <path
         class="cls-1"
         d="M 52.77,0.37 C 40.43,1.37 31.4,7.9 27.07,14.78 a 56.4,56.4 0 0 0 -3.85,7 20.56,20.56 0 0 1 8.2,1.86 c 4.58,2.22 9.78,4.58 13.58,15.6 2.91,8.32 4.22,16.29 10.91,17.76 7.57,1.7 25,0 33.06,-8.45 C 97.03,40.1 98.39,33.94 96,26 93.61,18.06 83.43,4.25 70,1 64.12,-0.34 58.37,-0.11 52.77,0.37 Z"
         id="path9858" />
    </clipPath>
  </defs>
  <g
     id="Layer_2"
     data-name="Layer 2"
     transform="translate(8.4152711e-4,0.00263381)">
    <g
       id="grid">
      <g
         id="wh_copy"
         data-name="wh copy">
        <g
           id="tigers">
          <g
             id="g9901">
            <path
               class="cls-2"
               d="m 95.19,28.82 4.27,-2.63 c 0.86,-0.53 4,-2.67 5.21,-1 0.73,1 -0.46,4 -2.42,7.08 -1.79,2.86 -6,8.74 -6.18,9.88 -0.18,1.14 1.21,5.6 1.65,7.33 0.44,1.73 1.78,5.89 1.34,7.54 -0.44,1.65 -2.8,6.2 -9.3,6.38 -5.16,0.14 -6.72,-1.32 -6.93,-2.23 -0.15,-0.66 -0.61,-2.86 -0.61,-2.86 0,0 -4.14,2.8 -6.1,3.87 -1.96,1.07 -7.22,4 -7.22,4 0,0 1.22,4.71 1.47,6.62 0.25,1.91 0.95,4.63 0,6.5 -0.85,1.71 -3.59,4.61 -10.32,4.83 -5.25,0.18 -6.64,-1.4 -7.51,-2.36 -0.87,-0.96 -1.24,-5.71 -1.28,-6.71 -0.04,-1 -0.35,-4.49 -0.35,-4.49 0,0 -7.13,-0.07 -11.43,-0.21 -3.9,-0.12 -9,-0.51 -9,-0.51 0,0 0.27,2.06 0.51,3.54 0.23,1.32 0.37,4.11 -1,5.52 -1.79,1.9 -6.63,2.23 -9.3,2.08 -2.67,-0.15 -6.43,-1.37 -7.61,-3.74 -1.18,-2.37 0.11,-5.59 0.62,-7.44 0.45,-1.63 1.26,-4 0.89,-4.62 C 14.22,64.57 10.95,63.83 6.11,59.35 1.27,54.87 -5.5,39 7.72,27.17 c 13.22,-11.83 38.91,-0.58 40.27,0.2 1.36,0.78 47.2,1.45 47.2,1.45 z"
               id="path9863" />
            <path
               class="cls-3"
               d="M 52.77,0.37 C 40.43,1.37 31.4,7.9 27.07,14.78 a 56.4,56.4 0 0 0 -3.85,7 20.56,20.56 0 0 1 8.2,1.86 c 4.58,2.22 9.78,4.58 13.58,15.6 2.91,8.32 4.22,16.29 10.91,17.76 7.57,1.7 25,0 33.06,-8.45 C 97.03,40.1 98.39,33.94 96,26 93.61,18.06 83.43,4.25 70,1 64.12,-0.34 58.37,-0.11 52.77,0.37 Z"
               id="path9865" />
            <g
               class="cls-4"
               clip-path="url(#clip-path)"
               id="g9879">
              <path
                 class="cls-5"
                 d="M 51.11,44 C 52.65,29.4 44.45,10.84 39.69,1.51 A 52.16,52.16 0 0 0 27.27,3.07 C 31.74,7.34 46.41,22.64 51.11,44 Z"
                 id="path9867" />
              <path
                 class="cls-5"
                 d="m 57.65,27.87 c 1.9,-9.13 -1.06,-21.57 -3.5,-29.51 -3,1 -6.72,0.42 -11.25,-0.25 a 63.16,63.16 0 0 1 14.75,29.76 z"
                 id="path9869" />
              <path
                 class="cls-5"
                 d="M 62.71,31.28 C 68.93,22.42 72,8.57 73.47,-2.18 c -3.24,0.22 -6.7,0.34 -10.24,0.38 a 82.94,82.94 0 0 1 -0.52,33.08 z"
                 id="path9871" />
              <path
                 class="cls-5"
                 d="m 82.93,38.76 c 6.28,-3.3 12.24,-10 16.75,-16 -1.91,-0.89 -3.93,-1.78 -6.12,-2.7 a 61.24,61.24 0 0 1 -10.63,18.7 z"
                 id="path9873" />
              <path
                 class="cls-5"
                 d="M 75.57,35.34 C 82.91,28.47 87.84,15.17 90.24,7.4 c -2.5,-2 -5.72,-3.15 -9.53,-4 a 63,63 0 0 1 -5.14,31.94 z"
                 id="path9875" />
              <path
                 class="cls-5"
                 d="M 42.27,40.63 C 41.16,30 32.59,17.09 28,10.84 a 46.94,46.94 0 0 0 -6.6,4.6 12.91,12.91 0 0 0 -1.6,1.71 63.19,63.19 0 0 1 22.47,23.48 z"
                 id="path9877" />
            </g>
            <g
               id="g9885">
              <path
                 class="cls-3"
                 d="M 2.6,21.7 A 1.68,1.68 0 0 1 3,20.38 1.77,1.77 0 0 1 4.3,19.8 1.66,1.66 0 0 1 5.08,19.99 l 9.87,5 -11.42,7.45 z"
                 id="path9881" />
              <path
                 class="cls-2"
                 d="m 4.34,21.07 a 0.63,0.63 0 0 1 0.22,0.05 l 7.89,4 L 4.61,30.21 3.86,21.6 A 0.44,0.44 0 0 1 4,21.24 0.48,0.48 0 0 1 4.36,21.07 m 0,-2.54 a 3,3 0 0 0 -3,3.29 L 2.45,34.66 17.53,24.8 5.69,18.86 A 2.89,2.89 0 0 0 4.34,18.53 Z"
                 id="path9883" />
            </g>
            <g
               id="g9891">
              <path
                 class="cls-3"
                 d="m 28.93,25 9.45,-5 a 1.77,1.77 0 0 1 0.84,-0.21 1.8,1.8 0 0 1 1.27,0.53 1.74,1.74 0 0 1 0.51,1.18 v 10.92 z"
                 id="path9887" />
              <path
                 class="cls-2"
                 d="m 39.22,21 a 0.59,0.59 0 0 1 0.38,0.16 0.52,0.52 0 0 1 0.14,0.36 v 8.65 L 31.5,25.07 39,21 a 0.53,0.53 0 0 1 0.24,-0.06 m 0,-2.54 a 3,3 0 0 0 -1.44,0.36 l -11.41,6.13 15.86,9.8 V 21.5 A 3,3 0 0 0 39.2,18.44 Z"
                 id="path9889" />
            </g>
            <path
               class="cls-2"
               d="m 102.25,32.31 c 2,-3.11 3.15,-6.08 2.42,-7.08 -1.23,-1.71 -4.35,0.43 -5.21,1 l -3,1.83 c 1.62,7 -0.15,12.83 -7.51,20.56 C 80.93,57 63.48,58.73 55.91,57 49.22,55.5 47.91,47.53 45.03,39.21 41.2,28.22 36,25.86 31.42,23.67 a 20.56,20.56 0 0 0 -8.2,-1.86 v 0 C 17.58,21.94 12,23.35 7.71,27.19 -5.5,39 1.24,55 6.1,59.43 c 4.86,4.43 8.12,5.18 8.48,5.84 0.36,0.66 -0.44,3 -0.89,4.62 -0.51,1.85 -1.8,5.07 -0.62,7.44 1.18,2.37 4.94,3.6 7.61,3.74 2.67,0.14 7.51,-0.18 9.32,-2.07 1.34,-1.41 1.2,-4.2 1,-5.52 -0.24,-1.48 -0.51,-3.54 -0.51,-3.54 0,0 5.15,0.39 9.05,0.51 4.3,0.14 11.43,0.21 11.43,0.21 0,0 0.31,3.5 0.35,4.49 0.04,0.99 0.4,5.74 1.28,6.71 0.88,0.97 2.26,2.54 7.51,2.36 6.73,-0.22 9.47,-3.12 10.32,-4.83 0.94,-1.87 0.23,-4.59 0,-6.5 -0.23,-1.91 -1.47,-6.62 -1.47,-6.62 0,0 5.26,-3 7.22,-4 1.96,-1 6.1,-3.87 6.1,-3.87 0,0 0.46,2.2 0.61,2.86 0.21,0.91 1.77,2.37 6.93,2.23 6.5,-0.18 8.86,-4.74 9.3,-6.38 0.44,-1.64 -0.9,-5.8 -1.34,-7.54 -0.44,-1.74 -1.86,-6.2 -1.65,-7.33 0.21,-1.13 4.33,-7.07 6.12,-9.93 z"
               id="path9893" />
            <path
               class="cls-6"
               d="m 32,37.26 c 0.54,2.49 -0.64,5.14 -3.4,5.49 C 26.3,43 24.44,41.52 23.9,39 a 4.39,4.39 0 0 1 3.1,-5.38 4.4,4.4 0 0 1 5,3.64 z"
               id="path9895" />
            <path
               class="cls-6"
               d="m 15.68,38.13 c 0.17,2.52 -1.94,5.14 -4.69,4.73 C 8.72,42.53 7.35,40.58 7.5,38.07 a 4.37,4.37 0 0 1 4.4,-4.31 c 2.28,0.13 3.62,1.75 3.78,4.37 z"
               id="path9897" />
            <path
               class="cls-6"
               d="m 24.74,52.5 c 1.32,0 3,-1.84 3.75,-2.6 0.75,-0.76 2.08,-2 1.17,-3.29 -0.91,-1.29 -2.05,0.21 -2.75,0.86 -0.93,0.87 -1.78,1.74 -2.41,1.73 -0.63,-0.01 -2.36,-1.85 -3.24,-2.78 a 3.6,3.6 0 0 0 -0.67,-0.55 c -0.87,-0.8 -1.87,0.52 -2.51,1.12 -0.94,0.86 -1.78,1.74 -2.42,1.73 -0.64,-0.01 -2.35,-1.86 -3.24,-2.79 -0.89,-0.93 -1.62,-1.1 -2.11,-0.29 -0.49,0.81 0.06,2.14 1.1,3.18 1.27,1.28 3.27,3.18 4.49,3.18 1.22,0 3,-1.84 3.76,-2.6 l 0.36,-0.35 a 2.61,2.61 0 0 0 0.23,0.25 c 1.27,1.29 3.27,3.2 4.49,3.2 z"
               id="path9899" />
          </g>
        </g>
      </g>
    </g>
  </g>
</svg>
