<?xml version="1.0" encoding="UTF-8" standalone="no"?>
<svg
   width="37.000584mm"
   height="37.325085mm"
   viewBox="0 0 104.89165 105.80339"
   version="1.1"
   id="svg9907"
   xmlns="http://www.w3.org/2000/svg"
   xmlns:svg="http://www.w3.org/2000/svg">
  <defs
     id="defs9861">
    <style
       id="style9856">
      .cls-1 {
        fill: none;
      }

      .cls-2 {
        fill: #e85637;
      }

      .cls-3 {
        fill: #f8aa37;
      }

      .cls-4 {
        clip-path: url(#clip-path);
      }

      .cls-5 {
        fill: #2a3034;
      }

      .cls-6 {
        fill: #2b2c29;
      }
    </style>
    <clipPath
       id="clip-path">
      <path
         class="cls-1"
         d="M 52.77,0.37 C 40.43,1.37 31.4,7.9 27.07,14.78 a 56.4,56.4 0 0 0 -3.85,7 20.56,20.56 0 0 1 8.2,1.86 c 4.58,2.22 9.78,4.58 13.58,15.6 2.91,8.32 4.22,16.29 10.91,17.76 7.57,1.7 25,0 33.06,-8.45 C 97.03,40.1 98.39,33.94 96,26 93.61,18.06 83.43,4.25 70,1 64.12,-0.34 58.37,-0.11 52.77,0.37 Z"
         id="path9858" />
    </clipPath>
    <clipPath
       clipPathUnits="userSpaceOnUse"
       id="clipPath57507">
      <path
         style="display:none;opacity:0.383886;fill:none;fill-opacity:1;stroke-width:3.75029"
         d="m 1.5665024,35.88058 c 0,0 3.1161006,-1.24557 7.4355103,-3.89295 4.3194103,-2.647381 7.3186313,-6.384091 7.3186313,-6.384091 l 11.069388,0.354535 c 0,0 3.300598,3.399122 6.896771,5.566679 3.596173,2.167556 8.916539,3.694699 8.916539,3.694699 l 0.985253,7.980549 -44.53343353,1.280829 z"
         id="path57509" />
      <path
         id="lpe_path-effect57511"
         style="opacity:0.383886;fill:none;fill-opacity:1;stroke-width:3.75029"
         class="powerclip"
         d="M -3.6540528,15.579962 H 47.250609 V 41.87 H -3.6540528 Z M 1.5665024,35.88058 -0.34483853,44.48083 44.188595,43.200001 43.203342,35.219452 c 0,0 -5.320366,-1.527143 -8.916539,-3.694699 -3.596173,-2.167557 -6.896771,-5.566679 -6.896771,-5.566679 L 16.320644,25.603539 c 0,0 -2.999221,3.73671 -7.3186313,6.384091 -4.3194097,2.64738 -7.4355103,3.89295 -7.4355103,3.89295 z" />
    </clipPath>
  </defs>
  <g
     id="Layer_2"
     data-name="Layer 2"
     transform="translate(8.4152711e-4,21.574084)">
    <g
       id="grid">
      <g
         id="wh_copy"
         data-name="wh copy">
        <g
           id="tigers">
          <g
             id="g9901">
            <path
               class="cls-2"
               d="m 95.19,28.82 4.27,-2.63 c 0.86,-0.53 4,-2.67 5.21,-1 0.73,1 -0.46,4 -2.42,7.08 -1.79,2.86 -6,8.74 -6.18,9.88 -0.18,1.14 1.21,5.6 1.65,7.33 0.44,1.73 1.78,5.89 1.34,7.54 -0.44,1.65 -2.8,6.2 -9.3,6.38 -5.16,0.14 -6.72,-1.32 -6.93,-2.23 -0.15,-0.66 -0.61,-2.86 -0.61,-2.86 0,0 -4.14,2.8 -6.1,3.87 -1.96,1.07 -7.22,4 -7.22,4 0,0 1.22,4.71 1.47,6.62 0.25,1.91 0.95,4.63 0,6.5 -0.85,1.71 -3.59,4.61 -10.32,4.83 -5.25,0.18 -6.64,-1.4 -7.51,-2.36 -0.87,-0.96 -1.24,-5.71 -1.28,-6.71 -0.04,-1 -0.35,-4.49 -0.35,-4.49 0,0 -7.13,-0.07 -11.43,-0.21 -3.9,-0.12 -9,-0.51 -9,-0.51 0,0 0.27,2.06 0.51,3.54 0.23,1.32 0.37,4.11 -1,5.52 -1.79,1.9 -6.63,2.23 -9.3,2.08 -2.67,-0.15 -6.43,-1.37 -7.61,-3.74 -1.18,-2.37 0.11,-5.59 0.62,-7.44 0.45,-1.63 1.26,-4 0.89,-4.62 C 14.22,64.57 10.95,63.83 6.11,59.35 1.27,54.87 -5.5,39 7.72,27.17 c 13.22,-11.83 38.91,-0.58 40.27,0.2 1.36,0.78 47.2,1.45 47.2,1.45 z"
               id="path9863" />
            <path
               class="cls-3"
               d="M 52.77,0.37 C 40.43,1.37 31.4,7.9 27.07,14.78 a 56.4,56.4 0 0 0 -3.85,7 20.56,20.56 0 0 1 8.2,1.86 c 4.58,2.22 9.78,4.58 13.58,15.6 2.91,8.32 4.22,16.29 10.91,17.76 7.57,1.7 25,0 33.06,-8.45 C 97.03,40.1 98.39,33.94 96,26 93.61,18.06 83.43,4.25 70,1 64.12,-0.34 58.37,-0.11 52.77,0.37 Z"
               id="path9865" />
            <g
               class="cls-4"
               clip-path="url(#clip-path)"
               id="g9879">
              <path
                 class="cls-5"
                 d="M 51.11,44 C 52.65,29.4 44.45,10.84 39.69,1.51 A 52.16,52.16 0 0 0 27.27,3.07 C 31.74,7.34 46.41,22.64 51.11,44 Z"
                 id="path9867" />
              <path
                 class="cls-5"
                 d="m 57.65,27.87 c 1.9,-9.13 -1.06,-21.57 -3.5,-29.51 -3,1 -6.72,0.42 -11.25,-0.25 a 63.16,63.16 0 0 1 14.75,29.76 z"
                 id="path9869" />
              <path
                 class="cls-5"
                 d="M 62.71,31.28 C 68.93,22.42 72,8.57 73.47,-2.18 c -3.24,0.22 -6.7,0.34 -10.24,0.38 a 82.94,82.94 0 0 1 -0.52,33.08 z"
                 id="path9871" />
              <path
                 class="cls-5"
                 d="m 82.93,38.76 c 6.28,-3.3 12.24,-10 16.75,-16 -1.91,-0.89 -3.93,-1.78 -6.12,-2.7 a 61.24,61.24 0 0 1 -10.63,18.7 z"
                 id="path9873" />
              <path
                 class="cls-5"
                 d="M 75.57,35.34 C 82.91,28.47 87.84,15.17 90.24,7.4 c -2.5,-2 -5.72,-3.15 -9.53,-4 a 63,63 0 0 1 -5.14,31.94 z"
                 id="path9875" />
              <path
                 class="cls-5"
                 d="M 42.27,40.63 C 41.16,30 32.59,17.09 28,10.84 a 46.94,46.94 0 0 0 -6.6,4.6 12.91,12.91 0 0 0 -1.6,1.71 63.19,63.19 0 0 1 22.47,23.48 z"
                 id="path9877" />
            </g>
            <g
               id="g9885">
              <path
                 class="cls-3"
                 d="M 2.6,21.7 A 1.68,1.68 0 0 1 3,20.38 1.77,1.77 0 0 1 4.3,19.8 1.66,1.66 0 0 1 5.08,19.99 l 9.87,5 -11.42,7.45 z"
                 id="path9881" />
              <path
                 class="cls-2"
                 d="m 4.34,21.07 a 0.63,0.63 0 0 1 0.22,0.05 l 7.89,4 L 4.61,30.21 3.86,21.6 A 0.44,0.44 0 0 1 4,21.24 0.48,0.48 0 0 1 4.36,21.07 m 0,-2.54 a 3,3 0 0 0 -3,3.29 L 2.45,34.66 17.53,24.8 5.69,18.86 A 2.89,2.89 0 0 0 4.34,18.53 Z"
                 id="path9883" />
            </g>
            <g
               id="g9891">
              <path
                 class="cls-3"
                 d="m 28.93,25 9.45,-5 a 1.77,1.77 0 0 1 0.84,-0.21 1.8,1.8 0 0 1 1.27,0.53 1.74,1.74 0 0 1 0.51,1.18 v 10.92 z"
                 id="path9887" />
              <path
                 class="cls-2"
                 d="m 39.22,21 a 0.59,0.59 0 0 1 0.38,0.16 0.52,0.52 0 0 1 0.14,0.36 v 8.65 L 31.5,25.07 39,21 a 0.53,0.53 0 0 1 0.24,-0.06 m 0,-2.54 a 3,3 0 0 0 -1.44,0.36 l -11.41,6.13 15.86,9.8 V 21.5 A 3,3 0 0 0 39.2,18.44 Z"
                 id="path9889" />
            </g>
            <path
               class="cls-2"
               d="m 102.25,32.31 c 2,-3.11 3.15,-6.08 2.42,-7.08 -1.23,-1.71 -4.35,0.43 -5.21,1 l -3,1.83 c 1.62,7 -0.15,12.83 -7.51,20.56 C 80.93,57 63.48,58.73 55.91,57 49.22,55.5 47.91,47.53 45.03,39.21 41.2,28.22 36,25.86 31.42,23.67 a 20.56,20.56 0 0 0 -8.2,-1.86 v 0 C 17.58,21.94 12,23.35 7.71,27.19 -5.5,39 1.24,55 6.1,59.43 c 4.86,4.43 8.12,5.18 8.48,5.84 0.36,0.66 -0.44,3 -0.89,4.62 -0.51,1.85 -1.8,5.07 -0.62,7.44 1.18,2.37 4.94,3.6 7.61,3.74 2.67,0.14 7.51,-0.18 9.32,-2.07 1.34,-1.41 1.2,-4.2 1,-5.52 -0.24,-1.48 -0.51,-3.54 -0.51,-3.54 0,0 5.15,0.39 9.05,0.51 4.3,0.14 11.43,0.21 11.43,0.21 0,0 0.31,3.5 0.35,4.49 0.04,0.99 0.4,5.74 1.28,6.71 0.88,0.97 2.26,2.54 7.51,2.36 6.73,-0.22 9.47,-3.12 10.32,-4.83 0.94,-1.87 0.23,-4.59 0,-6.5 -0.23,-1.91 -1.47,-6.62 -1.47,-6.62 0,0 5.26,-3 7.22,-4 1.96,-1 6.1,-3.87 6.1,-3.87 0,0 0.46,2.2 0.61,2.86 0.21,0.91 1.77,2.37 6.93,2.23 6.5,-0.18 8.86,-4.74 9.3,-6.38 0.44,-1.64 -0.9,-5.8 -1.34,-7.54 -0.44,-1.74 -1.86,-6.2 -1.65,-7.33 0.21,-1.13 4.33,-7.07 6.12,-9.93 z"
               id="path9893" />
            <path
               class="cls-6"
               d="m 32,37.26 c 0.54,2.49 -0.64,5.14 -3.4,5.49 C 26.3,43 24.44,41.52 23.9,39 a 4.39,4.39 0 0 1 3.1,-5.38 4.4,4.4 0 0 1 5,3.64 z"
               id="path9895" />
            <path
               class="cls-6"
               d="m 15.68,38.13 c 0.17,2.52 -1.94,5.14 -4.69,4.73 C 8.72,42.53 7.35,40.58 7.5,38.07 a 4.37,4.37 0 0 1 4.4,-4.31 c 2.28,0.13 3.62,1.75 3.78,4.37 z"
               id="path9897" />
            <path
               class="cls-6"
               d="m 24.74,52.5 c 1.32,0 3,-1.84 3.75,-2.6 0.75,-0.76 2.08,-2 1.17,-3.29 -0.91,-1.29 -2.05,0.21 -2.75,0.86 -0.93,0.87 -1.78,1.74 -2.41,1.73 -0.63,-0.01 -2.36,-1.85 -3.24,-2.78 a 3.6,3.6 0 0 0 -0.67,-0.55 c -0.87,-0.8 -1.87,0.52 -2.51,1.12 -0.94,0.86 -1.78,1.74 -2.42,1.73 -0.64,-0.01 -2.35,-1.86 -3.24,-2.79 -0.89,-0.93 -1.62,-1.1 -2.11,-0.29 -0.49,0.81 0.06,2.14 1.1,3.18 1.27,1.28 3.27,3.18 4.49,3.18 1.22,0 3,-1.84 3.76,-2.6 l 0.36,-0.35 a 2.61,2.61 0 0 0 0.23,0.25 c 1.27,1.29 3.27,3.2 4.49,3.2 z"
               id="path9899" />
          </g>
          <g
             id="g8739"
             transform="matrix(1.3550011,-0.20135864,0.20135864,1.3550011,-33.450827,-15.847963)"
             style="display:inline;opacity:1"
             clip-path="none">
            <path
               fill="#dd2e44"
               d="m 50.008438,43.57252 c 0.01096,-0.09019 -0.0233,-0.184885 -0.08113,-0.280885 0,0 -11.659764,-19.349415 -12.931632,-19.49999 -1.271976,-0.148614 -17.095745,15.975997 -17.095745,15.975997 -0.07949,0.08048 -0.134418,0.163293 -0.144433,0.25454 -0.149097,1.263066 6.503563,3.079506 14.856939,4.060565 8.355344,0.981168 15.246902,0.752838 15.396001,-0.510227 z"
               id="path5268"
               style="stroke-width:1.39378" />
            <path
               fill="#ea596e"
               d="m 36.910444,23.815538 c -0.0451,0.01226 -0.09976,0.0369 -0.16307,0.07485 -1.27625,1.439349 -11.565988,13.519252 -14.338925,17.790308 2.168665,0.745234 4.657846,1.24669 7.662388,1.763932 1.414869,-3.989147 7.721325,-18.904972 6.83961,-19.629086 z"
               id="path5270"
               style="stroke-width:1.39378" />
          </g>
          <g
             id="g56731"
             clip-path="url(#clipPath57507)"
             style="display:inline;opacity:1"
             transform="translate(0.00745241,-2.1804188)">
            <g
               id="g48936">
              <path
                 class="cls-3"
                 d="M 2.6,21.7 A 1.68,1.68 0 0 1 3,20.38 1.77,1.77 0 0 1 4.3,19.8 1.66,1.66 0 0 1 5.08,19.99 l 9.87,5 -11.42,7.45 z"
                 transform="translate(0,2.18)"
                 id="path48932"
                 style="fill:#f8aa37" />
              <path
                 class="cls-2"
                 d="m 4.34,21.07 a 0.63,0.63 0 0 1 0.22,0.05 l 7.89,4 L 4.61,30.21 3.86,21.6 A 0.44,0.44 0 0 1 4,21.24 0.48,0.48 0 0 1 4.36,21.07 m 0,-2.54 a 3,3 0 0 0 -3,3.29 L 2.45,34.66 17.53,24.8 5.69,18.86 A 2.89,2.89 0 0 0 4.34,18.53 Z"
                 transform="translate(0,2.18)"
                 id="path48934"
                 style="fill:#e85637" />
            </g>
            <g
               id="g48942">
              <path
                 class="cls-3"
                 d="m 28.93,25 9.45,-5 a 1.77,1.77 0 0 1 0.84,-0.21 1.8,1.8 0 0 1 1.27,0.53 1.74,1.74 0 0 1 0.51,1.18 v 10.92 z"
                 transform="translate(0,2.18)"
                 id="path48938"
                 style="fill:#f8aa37" />
              <path
                 class="cls-2"
                 d="m 39.22,21 a 0.59,0.59 0 0 1 0.38,0.16 0.52,0.52 0 0 1 0.14,0.36 v 8.65 L 31.5,25.07 39,21 a 0.53,0.53 0 0 1 0.24,-0.06 m 0,-2.54 a 3,3 0 0 0 -1.44,0.36 l -11.41,6.13 15.86,9.8 V 21.5 A 3,3 0 0 0 39.2,18.44 Z"
                 transform="translate(0,2.18)"
                 id="path48940"
                 style="fill:#e85637" />
            </g>
          </g>
        </g>
      </g>
    </g>
  </g>
  <g
     id="g9662"
     transform="matrix(-0.41219859,-0.9110394,0.9110394,-0.41219859,30.981658,128.59415)">
    <path
       fill="#aa8dd8"
       d="m 91.239896,46.86356 c -0.489294,-0.349408 -0.845067,-0.885441 -0.954203,-1.527338 -0.33824,-2.025364 -0.118441,-3.874677 0.638016,-5.336509 0.800856,-1.547653 2.168804,-2.581865 3.754595,-2.848162 2.782167,-0.464932 6.022326,1.548562 6.820216,6.311112 0.31159,1.851875 1.11419,2.490001 1.39614,2.440262 0.28322,-0.04521 0.83498,-0.911615 0.52566,-2.764128 -0.33824,-2.025362 -0.11844,-3.874675 0.63802,-5.336508 0.80085,-1.547652 2.16752,-2.586399 3.75459,-2.84816 2.78444,-0.465573 6.02232,1.548561 6.82122,6.305937 0.227,1.349824 0.69074,1.965616 0.94727,2.20914 0.20832,0.193453 0.37269,0.247612 0.45231,0.235061 0.27969,-0.0491 0.83399,-0.906448 0.5234,-2.763491 -0.2131,-1.282803 0.65148,-2.498625 1.93429,-2.711726 1.28217,-0.215367 2.49509,0.647591 2.71173,1.934289 0.79889,4.757379 -1.60528,7.720733 -4.39198,8.18694 -2.78444,0.46557 -6.02233,-1.548559 -6.82022,-6.311112 -0.22474,-1.350453 -0.68948,-1.961079 -0.94634,-2.204457 -0.2067,-0.196352 -0.37107,-0.250511 -0.45005,-0.235694 -0.28323,0.0452 -0.83626,0.907083 -0.52567,2.764128 0.79663,4.758015 -1.60527,7.720732 -4.39197,8.18694 -2.78444,0.465569 -6.024596,-1.547926 -6.816683,-6.307213 -0.227005,-1.34982 -0.693018,-1.964977 -0.949622,-2.208469 -0.206062,-0.194085 -0.370428,-0.248245 -0.450053,-0.235692 -0.281952,0.04975 -0.834979,0.911615 -0.525661,2.764125 0.215365,1.282167 -0.651491,2.498626 -1.93429,2.711725 -0.646074,0.102967 -1.269507,-0.06208 -1.761059,-0.410852 z"
       id="path9163"
       style="stroke-width:2.35461" />
    <path
       fill="#77b255"
       d="m 51.533546,96.654551 c -0.262832,-4.820074 2.458143,-7.493959 5.278762,-7.643067 2.818321,-0.149625 5.813182,2.216229 6.071935,7.032974 0.09941,1.880414 0.825836,2.600806 1.110621,2.589886 0.290929,-0.01678 0.935869,-0.815641 0.835433,-2.691458 -0.261052,-4.817262 2.46222,-7.490628 5.282838,-7.639737 2.821649,-0.153704 5.810879,2.215715 6.069125,7.034757 0.10222,1.878631 0.83043,2.601837 1.11676,2.584023 0.28352,-0.01603 0.93254,-0.811561 0.83262,-2.689675 -0.0692,-1.294478 0.924,-2.408558 2.22077,-2.477211 1.30086,-0.06533 2.40753,0.928591 2.47797,2.22818 0.25926,4.814446 -2.45763,7.491657 -5.28388,7.644337 -2.818319,0.14962 -5.808068,-2.2175 -6.070899,-7.037574 -0.09941,-1.880414 -0.825836,-2.600806 -1.112169,-2.582993 -0.285303,0.01322 -0.934323,0.808748 -0.833886,2.684565 0.260021,4.821862 -2.45814,7.493952 -5.283869,7.644332 -2.816539,0.15244 -5.806289,-2.21468 -6.068607,-7.037055 -0.09814,-1.875302 -0.831464,-2.597239 -1.112167,-2.582991 -0.288631,0.0173 -0.934839,0.811045 -0.837214,2.688645 0.07273,1.300105 -0.923479,2.406258 -2.220776,2.477211 -1.296767,0.06865 -2.407517,-0.928599 -2.473367,-2.227149 z"
       id="path9165"
       style="stroke-width:2.35461" />
    <circle
       fill="#5c913b"
       cx="53.544006"
       cy="58.668968"
       r="3.5319221"
       id="circle9167"
       style="stroke-width:2.35461" />
    <circle
       fill="#9266cc"
       cx="95.840874"
       cy="20.120581"
       r="4.7092295"
       id="circle9169"
       style="stroke-width:2.35461" />
    <circle
       fill="#9266cc"
       cx="51.310734"
       cy="77.564003"
       r="4.7092295"
       id="circle9171"
       style="stroke-width:2.35461" />
    <circle
       fill="#5c913b"
       cx="84.221062"
       cy="58.485241"
       r="3.5319221"
       id="circle9173"
       style="stroke-width:2.35461" />
    <circle
       fill="#5c913b"
       cx="37.28606"
       cy="27.5769"
       r="3.5319221"
       id="circle9175"
       style="stroke-width:2.35461" />
    <circle
       fill="#ffcc4d"
       cx="7.3858705"
       cy="75.474113"
       r="4.7092295"
       id="circle9177"
       style="stroke-width:2.35461" />
    <circle
       fill="#ffcc4d"
       cx="94.595627"
       cy="77.403877"
       r="3.5319221"
       id="circle9179"
       style="stroke-width:2.35461" />
    <circle
       fill="#ffcc4d"
       cx="59.146259"
       cy="-3.0304666"
       r="3.5319221"
       id="circle9181"
       style="stroke-width:2.35461" />
    <path
       fill="#77b255"
       d="m 17.656093,67.861692 c -2.728381,-3.982227 -1.792258,-7.680472 0.540508,-9.273057 2.330534,-1.591833 6.118587,-1.125891 8.841753,2.85561 1.061725,1.555178 2.056666,1.79341 2.294343,1.636146 0.239879,-0.165467 0.376017,-1.183103 -0.684201,-2.733818 -2.725397,-3.980749 -1.787043,-7.679747 0.545723,-9.272332 2.33126,-1.597047 6.116356,-1.125138 8.840277,2.858594 1.0632,1.552194 2.061129,1.791905 2.296549,1.627947 0.23394,-0.160972 0.37529,-1.177887 -0.68568,-2.730833 -0.731529,-1.070203 -0.461569,-2.538085 0.61086,-3.270359 1.07765,-0.73155 2.53959,-0.457109 3.27485,0.616802 2.722409,3.979271 1.791499,7.678241 -0.54422,9.276795 -2.33053,1.591832 -6.114879,1.122154 -8.843258,-2.860073 -1.061724,-1.555178 -2.056666,-1.79341 -2.292084,-1.629453 -0.236924,0.159498 -0.378276,1.17641 0.681942,2.727125 2.726904,3.98521 1.792258,7.680474 -0.544216,9.276797 -2.327551,1.593311 -6.111896,1.123626 -8.84103,-2.860829 -1.057987,-1.551468 -2.059622,-1.787442 -2.292084,-1.629451 -0.237648,0.164713 -0.377523,1.17864 0.681218,2.732339 0.737488,1.073158 0.460817,2.535853 -0.610864,3.270359 -1.072432,0.732275 -2.53959,0.457108 -3.270386,-0.618309 z"
       id="path9584"
       style="stroke-width:2.35461" />
    <path
       fill="#aa8dd8"
       d="m 35.454974,-7.5579628 c 0.322046,-0.507715 0.837757,-0.892357 1.472707,-1.036529 2.003767,-0.44881 3.862349,-0.330758 5.363469,0.344384 1.589244,0.714771 2.696923,2.023939 3.049789,3.592741 0.616817,2.752481 -1.215946,6.098189 -5.927569,7.156077 -1.832,0.412681 -2.425151,1.249067 -2.360021,1.527867 0.06068,0.280316 0.956033,0.783731 2.788795,0.373275 2.003766,-0.44881 3.862349,-0.330759 5.363469,0.344384 1.589244,0.714771 2.70138,2.022421 3.049789,3.592741 0.617576,2.7547088 -1.215946,6.0981888 -5.922352,7.1567868 -1.335338,0.300693 -1.924771,0.797512 -2.153825,1.067082 -0.181712,0.218642 -0.226793,0.385717 -0.209895,0.464532 0.06437,0.276573 0.950822,0.783016 2.788037,0.371047 1.269183,-0.28313 2.530595,0.513476 2.813725,1.782658 0.285359,1.268425 -0.509777,2.526849 -1.782659,2.813727 -4.706406,1.058597 -7.797151,-1.179425 -8.415487,-3.936366 -0.617577,-2.75471 1.215946,-6.09819 5.927568,-7.156076 1.336098,-0.298465 1.920315,-0.795994 2.149366,-1.0655638 0.184689,-0.217184 0.229784,-0.384245 0.210655,-0.462303 -0.06067,-0.28032 -0.95158,-0.785245 -2.788795,-0.373276 -4.707164,1.0563678 -7.79715,-1.179425 -8.415486,-3.936365 -0.617577,-2.754711 1.215187,-6.100418 5.92387,-7.15233 1.335339,-0.300692 1.924013,-0.79974 2.153064,-1.069311 0.182519,-0.216373 0.227554,-0.383487 0.210655,-0.462302 -0.06513,-0.278802 -0.956033,-0.783731 -2.788794,-0.373277 -1.268424,0.28536 -2.530596,-0.513475 -2.813726,-1.782659 -0.138245,-0.639455 -0.0076,-1.271 0.313651,-1.780944 z"
       id="path9586"
       style="stroke-width:2.35461" />
  </g>
</svg>
