<?xml version="1.0" encoding="UTF-8" standalone="no"?>
<svg
   width="46.637188mm"
   height="41.850605mm"
   viewBox="0 0 132.21203 118.63718"
   version="1.1"
   id="svg42272"
   xmlns="http://www.w3.org/2000/svg"
   xmlns:svg="http://www.w3.org/2000/svg">
  <defs
     id="defs42248">
    <style
       id="style42246">
      .cls-1 {
        fill: #d15815;
      }

      .cls-2 {
        fill: #4a4f23;
      }

      .cls-3 {
        fill: #2b2c29;
      }

      .cls-4 {
        fill: #ffe2a1;
      }

      .cls-5 {
        fill: #d99357;
      }
    </style>
  </defs>
  <g
     id="Layer_2"
     data-name="Layer 2"
     transform="translate(-0.01138548,10.795952)">
    <g
       id="grid">
      <g
         id="wh_copy"
         data-name="wh copy">
        <g
           id="wings">
          <g
             id="g42266">
            <path
               class="cls-1"
               d="m 95.19,52.52 4.27,-2.63 c 0.86,-0.54 4,-2.67 5.21,-1 0.73,1 -0.46,4 -2.42,7.08 -1.79,2.86 -6,8.74 -6.18,9.87 -0.18,1.13 1.21,5.61 1.65,7.34 0.44,1.73 1.78,5.89 1.34,7.54 -0.44,1.65 -2.8,6.2 -9.3,6.38 -5.16,0.14 -6.72,-1.32 -6.93,-2.23 -0.15,-0.66 -0.61,-2.86 -0.61,-2.86 0,0 -4.14,2.8 -6.1,3.87 -1.96,1.07 -7.22,4 -7.22,4 0,0 1.22,4.71 1.47,6.62 0.25,1.91 0.95,4.62 0,6.5 -0.85,1.71 -3.59,4.61 -10.32,4.83 -5.25,0.18 -6.64,-1.4 -7.51,-2.36 -0.87,-0.96 -1.24,-5.71 -1.28,-6.71 -0.04,-1 -0.35,-4.49 -0.35,-4.49 0,0 -7.13,-0.07 -11.43,-0.21 -3.9,-0.13 -9,-0.52 -9,-0.52 0,0 0.27,2.06 0.51,3.55 0.23,1.32 0.37,4.11 -1,5.52 -1.79,1.9 -6.63,2.23 -9.3,2.08 -2.67,-0.15 -6.43,-1.37 -7.61,-3.74 -1.18,-2.37 0.11,-5.59 0.62,-7.45 0.45,-1.62 1.26,-4 0.89,-4.62 C 14.22,88.26 10.95,87.53 6.11,83.05 1.27,78.57 -5.5,62.69 7.72,50.87 c 13.22,-11.82 38.91,-0.58 40.27,0.2 1.36,0.78 47.2,1.45 47.2,1.45 z"
               id="path42250" />
            <path
               class="cls-2"
               d="m 94.22,45.54 c -0.41,-0.86 -1.24,-2.17 -1.24,-2.17 0,0 0,1.82 -0.11,2.79 -0.19,1.57 -0.92,4.85 -1.43,4.39 A 105.24,105.24 0 0 1 84,41.76 C 82.39,39.58 76.93,34 76.73,32 a 19.52,19.52 0 0 1 1,-4.17 l -2.14,-1.1 a 21.18,21.18 0 0 0 -2,-0.84 c 0,0 -0.51,4.38 -1.23,5.22 -0.72,0.84 -4.63,2.5 -7.73,3.81 -3.75,1.59 -7.36,3.61 -8.73,3.92 -1.2,0.27 -8.11,-0.93 -10.72,-1.33 -3.27,-0.49 -8.22,-1.67 -9.38,-2.44 A 13.53,13.53 0 0 1 33,31.87 c 0,0 -0.77,0.57 -1.53,1.22 A 15.79,15.79 0 0 0 29.7,35 c 0,0 2.13,2 2.28,2.74 0.2,1.06 -1,2.55 -2,4 -0.61,0.85 -2.27,4.4 -2.27,4.4 a 6.56,6.56 0 0 1 1.93,0.49 c 1.11,0.46 2.16,0.94 2.16,0.94 0,0 2.39,-6.23 4.08,-6.86 1.44,-0.53 5.62,0.66 8.64,1.16 4.29,0.71 8.62,1.32 9.58,2.43 0.96,1.11 2.06,5.86 3.08,9.83 1.12,4.34 4,15.62 3.48,16.51 -0.52,0.89 -5,0.76 -7.61,0.55 A 33.78,33.78 0 0 1 47.3,69.86 c 0,0 0.59,1.85 0.78,2.34 0.27,0.71 1.13,2.67 1.13,2.67 0,0 5.12,2 19.93,0 14.81,-2 21.75,-12.39 23.65,-17 2.55,-6.13 2.77,-9.34 2.77,-9.34 0,0 -0.93,-2.12 -1.34,-2.99 z m -12.78,20 c -3.66,2.46 -13.29,5.38 -15.08,4.51 -1.44,-0.7 -4,-12.23 -5.2,-17.37 -0.78,-3.29 -2.51,-8.27 -1.65,-9.88 0.58,-1.09 4.14,-2.82 6.77,-4.18 2.63,-1.36 6.07,-3 7.14,-2.94 1.52,0.12 5,5.24 8.39,9.61 3.39,4.37 7.19,8.91 7.3,10.53 0.11,1.62 -3.89,7.1 -7.67,9.69 z"
               id="path42252" />
            <path
               class="cls-3"
               d="m 32,61 c 0.54,2.49 -0.64,5.13 -3.4,5.48 -2.27,0.29 -4.13,-1.23 -4.67,-3.72 A 4.39,4.39 0 0 1 27,57.32 4.4,4.4 0 0 1 32,61 Z"
               id="path42254" />
            <path
               class="cls-3"
               d="m 15.68,61.83 c 0.17,2.52 -1.94,5.14 -4.69,4.73 C 8.72,66.23 7.35,64.28 7.5,61.77 a 4.37,4.37 0 0 1 4.4,-4.31 c 2.28,0.13 3.62,1.75 3.78,4.37 z"
               id="path42256" />
            <path
               class="cls-3"
               d="m 23.11,70.85 c 1,-0.74 2.66,-2.48 3.83,-1.1 1.17,1.38 -0.7,2.79 -1.79,3.64 -1.09,0.85 -3.51,3 -5.32,3 -1.81,0 -4.33,-1.89 -6,-3.2 -1.37,-1.07 -2,-2.49 -1.33,-3.39 0.67,-0.9 1.88,-0.62 2.89,0.2 1.17,1 3.42,2.87 4.31,2.83 0.89,-0.04 2.07,-0.99 3.41,-1.98 z"
               id="path42258" />
            <path
               class="cls-4"
               d="M 104.59,30.49 121.1,18.87 a 6.31,6.31 0 1 0 4.78,-10.39 6.32,6.32 0 1 0 -11.4,1 L 98,21.08 Z"
               id="path42260" />
            <path
               class="cls-5"
               d="m 101.62,26.11 c 0,0 0.81,-8.85 -0.85,-11.2 -2.35,1.65 -12.77,9.43 -17.18,10.34 -14.66,2 -21.64,0.23 -33.11,8.3 -5.06,3.57 -8.16,7.28 -9.95,10.89 3.25,-4.72 9.56,-9 18.07,-9.77 a 38.26,38.26 0 0 1 12.32,0.49 c 9.66,2.32 16.94,12.26 18.69,17.94 a 15.27,15.27 0 0 1 0.76,5.26 c 2,-4.33 3.66,-9.3 6.36,-15.43 3,-5.66 11.63,-12.24 14,-13.9 -1.67,-2.35 -9.11,-2.92 -9.11,-2.92 z"
               id="path42262" />
            <path
               class="cls-5"
               d="m 69.93,24.75 c -5.81,-1.39 -11.56,-1.16 -17.16,-0.69 -11.85,1 -20.64,7 -25.16,13.61 a 27.61,27.61 0 0 0 -2.54,8 19.68,19.68 0 0 1 6.35,1.74 C 36,49.56 41.2,51.92 45,62.93 c 2.88,8.33 4.19,16.3 10.88,17.8 5,1.12 14.32,0.75 22.38,-2.06 0.63,-0.4 1.26,-0.81 1.89,-1.25 A 46.52,46.52 0 0 0 97,57.05 21.17,21.17 0 0 0 96,49.73 C 93.51,41.82 83.38,28 69.93,24.75 Z"
               id="path42264" />
          </g>
        </g>
      </g>
    </g>
  </g>
  <g
     id="g8739"
     transform="matrix(1.2417924,-0.2915049,0.2915049,1.2417924,-34.299853,23.347081)">
    <path
       fill="#dd2e44"
       d="m 50.368477,44.72262 c 0.01504,-0.0896 -0.0149,-0.185751 -0.06831,-0.284274 0,0 -10.770635,-19.858081 -12.034369,-20.066158 -1.263932,-0.206122 -17.802391,15.184594 -17.802391,15.184594 -0.08306,0.07679 -0.141682,0.157031 -0.155823,0.247731 -0.206201,1.255008 6.357278,3.371158 14.657593,4.729881 8.302277,1.358922 15.197101,1.443233 15.403304,0.188226 z"
       id="path5268"
       style="stroke-width:1.39378" />
    <path
       fill="#ea596e"
       d="m 38.179566,24.392193 c -0.04561,0.0102 -0.10133,0.03234 -0.166295,0.06738 -1.340186,1.380015 -12.16695,12.981047 -15.130651,17.122011 2.132653,0.842777 4.596543,1.456556 7.574549,2.109468 1.59425,-3.920908 8.570383,-18.535517 7.7224,-19.298856 z"
       id="path5270"
       style="stroke-width:1.39378" />
  </g>
  <g
     id="g9662"
     transform="matrix(0.9628078,-0.2700549,0.2700549,0.9628078,-4.3119951,49.769158)">
    <path
       fill="#77b255"
       d="m 75.628273,-14.482408 c 0.09167,4.8263642 -2.722455,7.4020308 -5.546587,7.4509785 -2.821857,0.049546 -5.730901,-2.4210625 -5.818605,-7.2439595 -0.03263,-1.882756 -0.733045,-2.628467 -1.01804,-2.627657 -0.29134,0.0065 -0.964218,0.781924 -0.930392,2.660125 0.08999,4.8234896 -2.726414,7.3985602 -5.550548,7.4475076 -2.825325,0.053499 -5.728618,-2.4204683 -5.815728,-7.2456426 -0.03551,-1.881074 -0.737601,-2.629659 -1.024387,-2.622017 -0.283908,0.006 -0.960744,0.777966 -0.927515,2.658444 0.0232,1.296117 -1.008861,2.374263 -2.307258,2.396865 -1.302354,0.01913 -2.373068,-1.01342 -2.397354,-2.314688 -0.0883,-4.820615 2.72186,-7.399754 5.551742,-7.452064 2.821856,-0.04954 5.725745,2.42215 5.817409,7.248518 0.03263,1.882755 0.733045,2.628466 1.01983,2.620822 0.285592,-0.0031 0.962427,-0.775091 0.928602,-2.653291 -0.08879,-4.828045 2.722456,-7.402031 5.55174,-7.452063 2.820176,-0.05242 5.724066,2.419273 5.815134,7.24792 0.03155,1.877603 0.738794,2.625104 1.01983,2.620822 0.289062,-0.0071 0.963024,-0.777369 0.932072,-2.657251 -0.02656,-1.301864 1.008267,-2.371982 2.307259,-2.396864 1.298393,-0.0226 2.373069,1.01342 2.392796,2.313495 z"
       id="path9165"
       style="stroke-width:2.35461" />
    <circle
       fill="#5c913b"
       cx="76.940834"
       cy="-0.79037845"
       r="3.5319221"
       id="circle9167"
       style="stroke-width:2.35461" />
    <circle
       fill="#9266cc"
       cx="57.077717"
       cy="14.627706"
       r="4.7092295"
       id="circle9169"
       style="stroke-width:2.35461" />
    <circle
       fill="#9266cc"
       cx="17.721773"
       cy="-19.778658"
       r="4.7092295"
       id="circle9171"
       style="stroke-width:2.35461" />
    <circle
       fill="#5c913b"
       cx="57.102295"
       cy="46.127319"
       r="3.5319221"
       id="circle9173"
       style="stroke-width:2.35461" />
    <circle
       fill="#5c913b"
       cx="27.311127"
       cy="50.779205"
       r="3.5319221"
       id="circle9175"
       style="stroke-width:2.35461" />
    <circle
       fill="#ffcc4d"
       cx="108.2606"
       cy="30.608728"
       r="4.7092295"
       id="circle9177"
       style="stroke-width:2.35461" />
    <circle
       fill="#ffcc4d"
       cx="85.743835"
       cy="18.262293"
       r="3.5319221"
       id="circle9179"
       style="stroke-width:2.35461" />
    <circle
       fill="#ffcc4d"
       cx="28.946676"
       cy="5.1571012"
       r="3.5319221"
       id="circle9181"
       style="stroke-width:2.35461" />
    <path
       fill="#77b255"
       d="m 7.8251166,66.887423 c -4.494906,1.760119 -7.88680253,0.01416 -8.9123338,-2.617646 -1.0253001,-2.629463 0.28283711,-6.214881 4.7758611,-7.970087 1.75454,-0.683687 2.210994,-1.599281 2.1113739,-1.8663 -0.1071075,-0.271014 -1.0678376,-0.633119 -2.8176888,0.05011 -4.4927927,1.757549 -7.8849215,0.0092 -8.9104496,-2.622561 -1.0302191,-2.631346 0.2830677,-6.212538 4.7784346,-7.967976 1.75196494,-0.685798 2.2105332,-1.60397 2.10388484,-1.870297 -0.1040796,-0.264211 -1.06292169,-0.631236 -2.81511724,0.05222 -1.2075965,0.471359 -2.576795,-0.12265 -3.048377,-1.332586 -0.4696988,-1.214858 0.1273429,-2.577257 1.3393878,-3.051413 4.49067694,-1.754972 7.8844568,-0.01393 8.9151374,2.622105 1.0253009,2.629459 -0.2856427,6.210424 -4.78054786,7.970545 -1.75453974,0.683686 -2.21099404,1.599282 -2.10434654,1.865608 0.1019645,0.266786 1.06081079,0.633811 2.8106613,-0.04942 4.4974789,-1.758009 7.8868037,-0.01416 8.9151403,2.622101 1.027418,2.626894 -0.2835327,6.207854 -4.7807812,7.968205 -1.7500822,0.680883 -2.2058467,1.603508 -2.1043444,1.86561 0.1068845,0.26867 1.0631517,0.633581 2.8155778,-0.04754 1.2118203,-0.476497 2.5744469,0.122881 3.0483783,1.332592 0.4715788,1.209935 -0.1273428,2.577257 -1.3398509,3.046725 z"
       id="path9584"
       style="stroke-width:2.35461" />
    <path
       fill="#aa8dd8"
       d="m 116.4089,-18.837317 c 0.59541,-0.08354 1.2225,0.06019 1.74363,0.45053 1.6399,1.235823 2.75389,2.728231 3.21192,4.309177 0.48492,1.673751 0.20506,3.365661 -0.76153,4.6507081 -1.69739,2.2528811 -5.43349,3.0238495 -9.29146,0.1196196 -1.5011,-1.1283587 -2.52252,-1.0384647 -2.69273,-0.8082497 -0.17431,0.2277884 0.0222,1.2360155 1.52211,2.3664066 1.63989,1.2358222 2.75389,2.728237 3.21191,4.3091762 0.48492,1.673751 0.20911,3.36807404 -0.76153,4.650703 -1.6986,2.254907 -5.43349,3.023855 -9.28862,0.124058 -1.09407,-0.82253096 -1.85438,-0.94975796 -2.20812,-0.94964396 -0.28428,0.0032 -0.44077,0.07708 -0.48987,0.140998 -0.16895,0.228224 0.0194,1.23159196 1.52333,2.36438796 1.03784,0.783508 1.24805,2.260523 0.46455,3.298356 -0.7815,1.03903 -2.25526,1.248447 -3.298364,0.46454 -3.855134,-2.899796 -4.152209,-6.70416896 -2.4524,-8.961092 1.69859,-2.2549042 5.433484,-3.0238521 9.291464,-0.119626 1.09286,0.824561 1.85033,0.94735 2.20407,0.947233 0.2851,1.8e-5 0.44158,-0.07384 0.48866,-0.138974 0.17421,-0.227824 -0.0182,-1.233613 -1.52211,-2.3664071 -3.85394,-2.901823 -4.15221,-6.7041687 -2.4524,-8.9610887 1.69859,-2.254908 5.43469,-3.025876 9.2862,-0.120016 1.09407,0.82253 1.85559,0.947737 2.20933,0.947622 0.28307,-0.0011 0.43955,-0.07506 0.48865,-0.138981 0.17027,-0.230196 -0.0222,-1.236016 -1.52211,-2.366407 -1.03904,-0.781489 -1.24805,-2.260514 -0.46455,-3.298356 0.39759,-0.519557 0.96335,-0.82913 1.55998,-0.914679 z"
       id="path9586"
       style="stroke-width:2.35461" />
    <path
       fill="#aa8dd8"
       d="m 77.685372,45.19701 c 0.319809,-0.50913 0.833817,-0.896044 1.46812,-1.043014 2.001772,-0.457643 3.860861,-0.347788 5.364942,0.320726 1.592383,0.707751 2.705821,2.012021 3.065601,3.579254 0.628956,2.749737 -1.189035,6.103494 -5.895949,7.182151 -1.830156,0.420758 -2.419613,1.259753 -2.35326,1.538262 0.06191,0.280042 0.959481,0.779507 2.790414,0.360971 2.001772,-0.457643 3.860851,-0.347792 5.364941,0.320727 1.592384,0.707751 2.710277,2.010485 3.065602,3.579253 0.629722,2.75196 -1.189036,6.103495 -5.89073,7.182839 -1.333996,0.306582 -1.921238,0.805994 -2.1491,1.076572 -0.180746,0.219443 -0.225081,0.386717 -0.207872,0.465441 0.06558,0.276289 0.954264,0.778815 2.789648,0.358747 1.267926,-0.288726 2.532835,0.50231 2.821565,1.770231 0.29095,1.267152 -0.498629,2.529073 -1.770236,2.821564 -4.701694,1.07934 -7.802278,-1.14503 -8.432761,-3.899217 -0.629721,-2.75196 1.189034,-6.103493 5.895948,-7.18215 1.33477,-0.304354 1.916785,-0.804457 2.144648,-1.075032 0.183715,-0.218003 0.228085,-0.385257 0.208607,-0.463225 -0.06191,-0.280052 -0.955039,-0.78104 -2.790423,-0.360976 -4.70246,1.07712 -7.80227,-1.145023 -8.432765,-3.899208 -0.629721,-2.751962 1.18827,-6.105718 5.892268,-7.178387 1.334005,-0.306577 1.920474,-0.808216 2.148327,-1.078797 0.181567,-0.217173 0.225864,-0.384486 0.208604,-0.463226 -0.06635,-0.278515 -0.959481,-0.77951 -2.790415,-0.360975 -1.267159,0.290947 -2.532843,-0.502316 -2.821571,-1.77024 -0.141067,-0.638838 -0.01324,-1.270951 0.305793,-1.782308 z"
       id="path12881"
       style="stroke-width:2.35461" />
  </g>
</svg>
