<?xml version="1.0" encoding="UTF-8" standalone="no"?>
<svg
   width="37.7mm"
   height="39.28mm"
   viewBox="0 0 106.88 111.33"
   version="1.1"
   id="svg14041"
   xmlns="http://www.w3.org/2000/svg"
   xmlns:svg="http://www.w3.org/2000/svg">
  <defs
     id="defs14011">
    <style
       id="style14009">
      .cls-1 {
        fill: #796228;
      }

      .cls-2 {
        fill: #ca9e67;
      }

      .cls-3 {
        fill: #5f4618;
      }

      .cls-4 {
        fill: #2b2c29;
      }
    </style>
    <filter
       id="mask-powermask-path-effect16149_inverse"
       style="color-interpolation-filters:sRGB"
       height="100"
       width="100"
       x="-50"
       y="-50">
      <feColorMatrix
         id="mask-powermask-path-effect16149_primitive1"
         values="1"
         type="saturate"
         result="fbSourceGraphic" />
      <feColorMatrix
         id="mask-powermask-path-effect16149_primitive2"
         values="-1 0 0 0 1 0 -1 0 0 1 0 0 -1 0 1 0 0 0 1 0 "
         in="fbSourceGraphic" />
    </filter>
    <clipPath
       clipPathUnits="userSpaceOnUse"
       id="clipPath16313">
      <path
         style="display:none;opacity:1;fill:#010100;fill-opacity:1;stroke-width:3.75049"
         d="m 8.7990954,50.265889 c 0,0 3.0527486,3.23232 8.4399496,-1.346801 5.387202,-4.579122 6.689109,0.08979 6.689109,0.08979 0,0 3.142533,3.367001 7.811441,-1.840628 5.318176,-5.931812 6.240176,15.488205 6.240176,15.488205 L 34.74745,74.418509 5.9259217,72.802348 5.1178414,60.411785 Z"
         id="path16315" />
      <path
         id="lpe_path-effect16317"
         style="opacity:1;fill:#010100;fill-opacity:1;stroke-width:3.75049"
         class="powerclip"
         d="M -4.2726844,24.266187 H 36.314768 V 77.718583 H -4.2726844 Z M 8.7990954,50.265889 5.1178414,60.411785 5.9259217,72.802348 34.74745,74.418509 37.979771,62.656455 c 0,0 -0.922,-21.420017 -6.240176,-15.488205 -4.668908,5.207629 -7.811441,1.840628 -7.811441,1.840628 0,0 -1.301907,-4.668912 -6.689109,-0.08979 -5.387201,4.579121 -8.4399496,1.346801 -8.4399496,1.346801 z" />
    </clipPath>
  </defs>
  <g
     id="Layer_2"
     data-name="Layer 2">
    <g
       id="grid">
      <g
         id="wl_copy"
         data-name="wl copy">
        <g
           id="worms">
          <g
             id="g14035">
            <path
               class="cls-1"
               d="M95.19,55.93l4.27-2.64c.86-.53,4-2.66,5.21-.95.73,1-.46,4-2.42,7.08-1.79,2.85-6,8.74-6.18,9.87s1.21,5.61,1.65,7.34,1.78,5.89,1.34,7.53-2.8,6.2-9.3,6.38c-5.16.15-6.72-1.31-6.93-2.22-.15-.66-.61-2.86-.61-2.86s-4.14,2.8-6.1,3.87-7.22,4-7.22,4,1.22,4.71,1.47,6.62.95,4.62,0,6.5c-.85,1.7-3.59,4.61-10.32,4.83-5.25.17-6.64-1.4-7.51-2.37s-1.24-5.7-1.28-6.7-.35-4.49-.35-4.49-7.13-.07-11.43-.21c-3.9-.13-9-.52-9-.52s.27,2.06.51,3.55c.23,1.32.37,4.11-1,5.52-1.79,1.9-6.63,2.23-9.3,2.08s-6.43-1.37-7.61-3.74.11-5.6.62-7.45c.45-1.62,1.26-4,.89-4.62S10.94,91,6.1,86.54-5.5,66.1,7.72,54.27s38.91-.58,40.27.21S95.19,55.93,95.19,55.93Z"
               id="path14013" />
            <g
               id="g14021">
              <path
                 class="cls-2"
                 d="M52.77,27.47C40.43,28.52,31.4,35,27.07,41.89a56.4,56.4,0,0,0-3.85,7,20.56,20.56,0,0,1,8.2,1.86C36,53,41.2,55.32,45,66.34c2.88,8.33,4.19,16.3,10.88,17.8,7.57,1.7,25,0,33.06-8.45s9.42-14.64,7-22.55-12.57-21.76-26-25C64.12,26.77,58.37,27,52.77,27.47Z"
                 id="path14015" />
              <path
                 class="cls-2"
                 d="M94.22,49c-.41-.86-1.24-2.17-1.24-2.17s0,1.82-.11,2.79c-.19,1.57-.92,4.85-1.43,4.39A105.24,105.24,0,0,1,84,45.17c-1.6-2.18-7.06-7.81-7.26-9.72a19.52,19.52,0,0,1,1-4.17l-2.14-1.1a21.18,21.18,0,0,0-2-.84s-.51,4.38-1.23,5.22-4.63,2.5-7.73,3.81C60.89,40,57.28,42,55.91,42.29c-1.2.27-8.11-.93-10.72-1.33-3.27-.49-8.22-1.68-9.38-2.44A13.73,13.73,0,0,1,33,35.28s-.77.57-1.53,1.22a15.79,15.79,0,0,0-1.72,1.9s2.13,2,2.28,2.74c.2,1.06-1,2.55-2,4-.61.85-2.27,4.4-2.27,4.4a6.72,6.72,0,0,1,1.93.48c1.11.47,2.16.95,2.16.95s2.39-6.23,4.08-6.86c1.44-.53,5.62.66,8.64,1.16,4.29.71,8.62,1.32,9.58,2.43s2.06,5.86,3.08,9.82c1.12,4.35,4,15.63,3.48,16.52s-5,.76-7.61.55a33.78,33.78,0,0,1-5.75-1.33s.59,1.85.78,2.34c.27.71,1.13,2.67,1.13,2.67s5.12,2,19.93.05,21.75-12.39,23.65-17C95.31,55.2,95.53,52,95.53,52S94.63,49.82,94.22,49Zm-12.78,20c-3.66,2.52-13.29,5.41-15.08,4.54-1.44-.7-4-12.23-5.2-17.37-.78-3.29-2.51-8.27-1.65-9.88.58-1.09,4.14-2.82,6.77-4.18s6.07-3,7.14-2.94c1.52.11,5,5.24,8.39,9.61s7.18,8.91,7.3,10.53S85.22,66.33,81.44,68.92Z"
                 id="path14017" />
              <path
                 class="cls-2"
                 d="M34.25,78.58c10.5-4.6,33.52,15,60-9.51,17.57-16.24,9.91-37.15-4.15-52.36S50.42,2.32,32.85,18.56,30.93,80,34.25,78.58Z"
                 id="path14019" />
            </g>
            <path
               class="cls-3"
               d="M95.72,67.76a34.55,34.55,0,0,0,9.86-16.36A36.85,36.85,0,0,0,102,23.52C90.05,2.1,63.28-6.22,42.35,5c-25.26,13.53-34,45.62-19.57,71.5a7.53,7.53,0,0,0,10,3.13,7.22,7.22,0,0,0,2.73-10C25.09,51,31.43,27.84,49.67,18.06c13.88-7.43,31.65-1.92,39.61,12.31A22,22,0,0,1,91.4,47,20.56,20.56,0,0,1,81.22,59.81,15.57,15.57,0,0,1,69.13,60.9a16.7,16.7,0,0,1-9.65-7.84,11.39,11.39,0,0,1-1.1-8.62c.79-2.89,2.4-5.84,5.27-6.64,5.27-1.48,10.37,4,10.26,9.24-.08,4.07,7.13-1.15,8-7.35.73-5.56-1.82-11.06-7.75-14.29s-12.47-3.51-17.78-.67A24.45,24.45,0,0,0,44.19,40,26.29,26.29,0,0,0,46.72,59.9,32.14,32.14,0,0,0,65.27,75a30,30,0,0,0,23.25-2.1A34.74,34.74,0,0,0,95.72,67.76Z"
               id="path14023" />
            <path
               class="cls-1"
               d="M30,106.1c1.34-1.41,1.2-4.2,1-5.52-.24-1.49-.51-3.55-.51-3.55s5.15.39,9.05.52c4.3.14,11.43.21,11.43.21s.31,3.5.35,4.49.4,5.74,1.28,6.7,2.26,2.54,7.51,2.37c6.73-.22,9.47-3.13,10.32-4.83.94-1.88.23-4.59,0-6.5s-1.47-6.62-1.47-6.62,4.44-2.5,6.68-3.74a41.59,41.59,0,0,0-.81-6.48c-7.12,1.82-14.57,1.95-18.86,1-6.69-1.5-8-9.47-10.88-17.8C41.2,55.32,36,53,31.42,50.78a20.56,20.56,0,0,0-8.2-1.86v0C17.59,49,12,50.44,7.72,54.27-5.5,66.1,1.24,82.06,6.1,86.54s8.12,5.18,8.48,5.83-.44,3-.89,4.62c-.51,1.85-1.8,5.08-.62,7.45s4.94,3.6,7.61,3.74S28.19,108,30,106.1Z"
               id="path14025" />
            <path
               class="cls-1"
               d="M31.26,67.94c-3.21-14.94,1.06-31.49-8-37.36s-9.6,9.88-5.87,9.07c5.29-1.13,9.08,5.87,7.75,17.88S32.06,71.67,31.26,67.94ZM16.78,71.05c-3.21-14.95,1.06-31.5-8-37.36S-.84,43.56,2.9,42.76c5.28-1.13,9.07,5.87,7.74,17.88S17.58,74.78,16.78,71.05Z"
               id="path14027" />
            <g
               id="g8739"
               transform="matrix(1.1942292,-0.16063404,0.16063404,1.1942292,-26.402497,12.456208)"
               style="opacity:1">
              <path
                 fill="#dd2e44"
                 d="m 50.008438,43.57252 c 0.01096,-0.09019 -0.0233,-0.184885 -0.08113,-0.280885 0,0 -11.659764,-19.349415 -12.931632,-19.49999 -1.271976,-0.148614 -17.095745,15.975997 -17.095745,15.975997 -0.07949,0.08048 -0.134418,0.163293 -0.144433,0.25454 -0.149097,1.263066 6.503563,3.079506 14.856939,4.060565 8.355344,0.981168 15.246902,0.752838 15.396001,-0.510227 z"
                 id="path5268"
                 style="stroke-width:1.39378" />
              <path
                 fill="#ea596e"
                 d="m 36.910444,23.815538 c -0.0451,0.01226 -0.09976,0.0369 -0.16307,0.07485 -1.27625,1.439349 -11.565988,13.519252 -14.338925,17.790308 2.168665,0.745234 4.657846,1.24669 7.662388,1.763932 1.414869,-3.989147 7.721325,-18.904972 6.83961,-19.629086 z"
                 id="path5270"
                 style="stroke-width:1.39378" />
            </g>
            <path
               class="cls-1"
               d="m 31.26,67.94 c -3.21,-14.94 1.06,-31.49 -8,-37.36 -9.06,-5.87 -9.6,9.88 -5.87,9.07 5.29,-1.13 9.08,5.87 7.75,17.88 -1.33,12.01 6.92,14.14 6.12,10.41 z m -14.48,3.11 c -3.21,-14.95 1.06,-31.5 -8,-37.36 -9.06,-5.86 -9.62,9.87 -5.88,9.07 5.28,-1.13 9.07,5.87 7.74,17.88 -1.33,12.01 6.94,14.14 6.14,10.41 z"
               id="path16157"
               style="display:inline"
               clip-path="url(#clipPath16313)" />
            <path
               class="cls-4"
               d="M32,64.37c.54,2.49-.64,5.13-3.4,5.48-2.27.29-4.13-1.23-4.67-3.72A4.39,4.39,0,0,1,27,60.73,4.4,4.4,0,0,1,32,64.37Z"
               id="path14029" />
            <path
               class="cls-4"
               d="M23.11,74.26c1-.74,2.66-2.48,3.83-1.1s-.7,2.79-1.79,3.64-3.51,3-5.32,3-4.33-1.89-6-3.2c-1.37-1.07-2-2.49-1.33-3.39s1.88-.62,2.89.2c1.17,1,3.42,2.87,4.31,2.83S21.77,75.25,23.11,74.26Z"
               id="path14031" />
            <path
               class="cls-4"
               d="M15.68,65.24c.17,2.52-1.94,5.14-4.69,4.73-2.27-.33-3.64-2.28-3.49-4.79a4.37,4.37,0,0,1,4.4-4.31C14.18,61,15.52,62.62,15.68,65.24Z"
               id="path14033" />
          </g>
        </g>
      </g>
    </g>
  </g>
  <g
     id="g9662"
     transform="matrix(1.0000025,0,0,1.0000025,-3.0556718,4.8680673)">
    <path
       fill="#aa8dd8"
       d="m 78.850987,95.631074 c -0.332897,0.50067 -0.856768,0.87412 -1.494669,1.0046 -2.012959,0.40559 -3.868572,0.24758 -5.354817,-0.45971 -1.573497,-0.7488 -2.65275,-2.0815 -2.971779,-3.65753 -0.557447,-2.765116 1.34688,-6.070614 6.080175,-7.026876 1.840455,-0.373167 2.451464,-1.1966 2.39235,-1.476733 -0.05463,-0.281556 -0.938952,-0.804116 -2.780118,-0.433195 -2.012959,0.405591 -3.868572,0.247576 -5.354816,-0.45971 -1.573498,-0.748802 -2.65724,-2.080077 -2.971779,-3.657532 -0.55816,-2.767361 1.34688,-6.070614 6.074974,-7.027699 1.3415,-0.271891 1.941486,-0.755912 2.176286,-1.020492 0.186395,-0.214663 0.235043,-0.380745 0.219843,-0.459907 -0.0584,-0.277894 -0.933752,-0.803296 -2.779407,-0.430951 -1.274983,0.255756 -2.51896,-0.567803 -2.774717,-1.842786 -0.258002,-1.274277 0.564029,-2.515296 1.842789,-2.774723 4.728093,-0.957085 7.769969,1.346927 8.328839,4.116533 0.558162,2.767361 -1.346878,6.070614 -6.080173,7.026877 -1.34221,0.269646 -1.936997,0.75449 -2.171796,1.01907 -0.18935,0.21313 -0.237999,0.379211 -0.220554,0.457663 0.05462,0.281561 0.934463,0.80554 2.780118,0.433196 4.728806,-0.95484 7.769968,1.346923 8.32884,4.11653 0.558161,2.767361 -1.346168,6.072859 -6.076396,7.02321 -1.341499,0.27189 -1.940775,0.758157 -2.175574,1.022737 -0.187106,0.212419 -0.235755,0.3785 -0.220554,0.457662 0.05912,0.280138 0.938952,0.804116 2.780117,0.433196 1.274272,-0.258 2.518961,0.56781 2.774718,1.84279 0.124453,0.64228 -0.01971,1.27087 -0.3519,1.77378 z"
       id="path9163"
       style="stroke-width:2.35461" />
    <path
       fill="#77b255"
       d="m 32.548003,94.315602 c -4.442394,-1.888739 -5.643104,-5.509739 -4.533633,-8.107276 1.107994,-2.595702 4.551721,-4.241059 8.989328,-2.350126 1.731693,0.739648 2.698528,0.405145 2.814258,0.144704 0.113172,-0.268539 -0.3196,-1.199574 -2.047621,-1.93627 -4.439084,-1.889098 -5.638318,-5.511933 -4.528847,-8.10947 1.1058,-2.600487 4.550245,-4.239223 8.989688,-2.346815 1.731332,0.736337 2.701479,0.401474 2.811703,0.136607 0.110585,-0.261555 -0.317405,-1.194787 -2.047261,-1.932959 -1.192423,-0.508512 -1.754649,-1.891065 -1.244662,-3.085323 0.514773,-1.196452 1.894736,-1.751698 3.092304,-1.24207 4.435773,1.889458 5.641268,5.508262 4.532518,8.11242 -1.107996,2.595703 -4.550606,4.235914 -8.992999,2.347175 -1.731693,-0.739647 -2.698528,-0.405144 -2.808752,-0.140277 -0.113892,0.261918 0.314094,1.195147 2.042115,1.931843 4.442754,1.892049 5.643103,5.509738 4.532518,8.112421 -1.104685,2.595342 -4.547295,4.235553 -8.991525,2.34534 -1.726545,-0.738532 -2.697807,-0.398523 -2.808751,-0.140277 -0.111696,0.266704 0.315929,1.196623 2.044311,1.936629 1.199043,0.507793 1.752813,1.88959 1.244661,3.085324 -0.509988,1.194256 -1.894736,1.751697 -3.089353,1.2384 z"
       id="path9165"
       style="stroke-width:2.35461" />
    <circle
       fill="#5c913b"
       cx="53.544006"
       cy="58.668968"
       r="3.5319221"
       id="circle9167"
       style="stroke-width:2.35461" />
    <circle
       fill="#9266cc"
       cx="91.749771"
       cy="21.513947"
       r="4.7092295"
       id="circle9169"
       style="stroke-width:2.35461" />
    <circle
       fill="#9266cc"
       cx="99.330338"
       cy="71.82132"
       r="4.7092295"
       id="circle9171"
       style="stroke-width:2.35461" />
    <circle
       fill="#5c913b"
       cx="14.628849"
       cy="19.644403"
       r="3.5319221"
       id="circle9173"
       style="stroke-width:2.35461" />
    <circle
       fill="#5c913b"
       cx="86.302689"
       cy="4.333075"
       r="3.5319221"
       id="circle9175"
       style="stroke-width:2.35461" />
    <circle
       fill="#ffcc4d"
       cx="12.058018"
       cy="79.967232"
       r="4.7092295"
       id="circle9177"
       style="stroke-width:2.35461" />
    <circle
       fill="#ffcc4d"
       cx="29.801262"
       cy="12.183272"
       r="3.5319221"
       id="circle9179"
       style="stroke-width:2.35461" />
    <circle
       fill="#ffcc4d"
       cx="64.810844"
       cy="32.35638"
       r="3.5319221"
       id="circle9181"
       style="stroke-width:2.35461" />
    <path
       fill="#77b255"
       d="m 73.310999,54.326402 c -2.728381,-3.982227 -1.792258,-7.680472 0.540508,-9.273057 2.330534,-1.591833 6.118587,-1.125891 8.841753,2.85561 1.061725,1.555178 2.056666,1.79341 2.294343,1.636146 0.239879,-0.165467 0.376017,-1.183103 -0.684201,-2.733818 -2.725397,-3.980749 -1.787043,-7.679747 0.545723,-9.272332 2.33126,-1.597047 6.116356,-1.125138 8.840277,2.858594 1.0632,1.552194 2.061129,1.791905 2.296549,1.627947 0.23394,-0.160972 0.37529,-1.177887 -0.68568,-2.730833 -0.731529,-1.070203 -0.461569,-2.538085 0.61086,-3.270359 1.07765,-0.73155 2.53959,-0.457109 3.27485,0.616802 2.722409,3.979271 1.791499,7.678241 -0.54422,9.276795 -2.33053,1.591832 -6.114879,1.122154 -8.843258,-2.860073 -1.061724,-1.555178 -2.056666,-1.79341 -2.292084,-1.629453 -0.236924,0.159498 -0.378276,1.17641 0.681942,2.727125 2.726904,3.98521 1.792258,7.680474 -0.544216,9.276797 -2.327551,1.593311 -6.111896,1.123626 -8.84103,-2.860829 -1.057987,-1.551468 -2.059622,-1.787442 -2.292084,-1.629451 -0.237648,0.164713 -0.377523,1.17864 0.681218,2.732339 0.737488,1.073158 0.460817,2.535853 -0.610864,3.270359 -1.072432,0.732275 -2.53959,0.457108 -3.270386,-0.618309 z"
       id="path9584"
       style="stroke-width:2.35461" />
    <path
       fill="#aa8dd8"
       d="m 40.878404,16.308775 c 0.322046,-0.507715 0.837757,-0.892357 1.472707,-1.036529 2.003767,-0.44881 3.862349,-0.330758 5.363469,0.344384 1.589244,0.714771 2.696923,2.023939 3.049789,3.592741 0.616817,2.752481 -1.215946,6.098189 -5.927569,7.156077 -1.832,0.412681 -2.425151,1.249067 -2.360021,1.527867 0.06068,0.280316 0.956033,0.783731 2.788795,0.373275 2.003766,-0.44881 3.862349,-0.330759 5.363469,0.344384 1.589244,0.714771 2.70138,2.022421 3.049789,3.592741 0.617576,2.754709 -1.215946,6.098189 -5.922352,7.156787 -1.335338,0.300693 -1.924771,0.797512 -2.153825,1.067082 -0.181712,0.218642 -0.226793,0.385717 -0.209895,0.464532 0.06437,0.276573 0.950822,0.783016 2.788037,0.371047 1.269183,-0.28313 2.530595,0.513476 2.813725,1.782658 0.285359,1.268425 -0.509777,2.526849 -1.782659,2.813727 -4.706406,1.058597 -7.797151,-1.179425 -8.415487,-3.936366 -0.617577,-2.75471 1.215946,-6.09819 5.927568,-7.156076 1.336098,-0.298465 1.920315,-0.795994 2.149366,-1.065564 0.184689,-0.217184 0.229784,-0.384245 0.210655,-0.462303 -0.06067,-0.28032 -0.95158,-0.785245 -2.788795,-0.373276 -4.707164,1.056368 -7.79715,-1.179425 -8.415486,-3.936365 -0.617577,-2.754711 1.215187,-6.100418 5.92387,-7.15233 1.335339,-0.300692 1.924013,-0.79974 2.153064,-1.069311 0.182519,-0.216373 0.227554,-0.383487 0.210655,-0.462302 -0.06513,-0.278802 -0.956033,-0.783731 -2.788794,-0.373277 -1.268424,0.28536 -2.530596,-0.513475 -2.813726,-1.782659 -0.138245,-0.639455 -0.0076,-1.271 0.313651,-1.780944 z"
       id="path9586"
       style="stroke-width:2.35461" />
  </g>
</svg>
