
<svg xmlns="http://www.w3.org/2000/svg" viewBox="0 0 132.212 107.858"><g>
  <defs>
    <style>
      .cls-1 {
        fill: #d15815;
      }

      .cls-2 {
        fill: #4a4f23;
      }

      .cls-3 {
        fill: #2b2c29;
      }

      .cls-4 {
        fill: #ffe2a1;
      }

      .cls-5 {
        fill: #d99357;
      }
    </style>
  </defs>
  <g id="Layer_2" data-name="Layer 2">
    <g id="grid">
      <g id="wh_copy" data-name="wh copy">
        <g id="wings">
          <g>
            <path class="cls-1" d="M95.19,52.52l4.27-2.63c.86-.54,4-2.67,5.21-1,.73,1-.46,4-2.42,7.08-1.79,2.86-6,8.74-6.18,9.87s1.21,5.61,1.65,7.34,1.78,5.89,1.34,7.54-2.8,6.2-9.3,6.38c-5.16.14-6.72-1.32-6.93-2.23-.15-.66-.61-2.86-.61-2.86s-4.14,2.8-6.1,3.87-7.22,4-7.22,4,1.22,4.71,1.47,6.62.95,4.62,0,6.5c-.85,1.71-3.59,4.61-10.32,4.83-5.25.18-6.64-1.4-7.51-2.36s-1.24-5.71-1.28-6.71-.35-4.49-.35-4.49-7.13-.07-11.43-.21c-3.9-.13-9-.52-9-.52s.27,2.06.51,3.55c.23,1.32.37,4.11-1,5.52-1.79,1.9-6.63,2.23-9.3,2.08s-6.43-1.37-7.61-3.74.11-5.59.62-7.45c.45-1.62,1.26-4,.89-4.62s-3.64-1.35-8.48-5.83S-5.5,62.69,7.72,50.87s38.91-.58,40.27.2S95.19,52.52,95.19,52.52Z"/>
            <path class="cls-2" d="M94.22,45.54c-.41-.86-1.24-2.17-1.24-2.17s0,1.82-.11,2.79c-.19,1.57-.92,4.85-1.43,4.39A105.24,105.24,0,0,1,84,41.76C82.39,39.58,76.93,34,76.73,32a19.52,19.52,0,0,1,1-4.17l-2.14-1.1a21.18,21.18,0,0,0-2-.84s-.51,4.38-1.23,5.22-4.63,2.5-7.73,3.81c-3.75,1.59-7.36,3.61-8.73,3.92-1.2.27-8.11-.93-10.72-1.33-3.27-.49-8.22-1.67-9.38-2.44A13.53,13.53,0,0,1,33,31.87s-.77.57-1.53,1.22A15.79,15.79,0,0,0,29.7,35s2.13,2,2.28,2.74c.2,1.06-1,2.55-2,4-.61.85-2.27,4.4-2.27,4.4a6.56,6.56,0,0,1,1.93.49c1.11.46,2.16.94,2.16.94s2.39-6.23,4.08-6.86c1.44-.53,5.62.66,8.64,1.16,4.29.71,8.62,1.32,9.58,2.43s2.06,5.86,3.08,9.83c1.12,4.34,4,15.62,3.48,16.51s-5,.76-7.61.55a33.78,33.78,0,0,1-5.75-1.33s.59,1.85.78,2.34c.27.71,1.13,2.67,1.13,2.67s5.12,2,19.93,0,21.75-12.39,23.65-17c2.55-6.13,2.77-9.34,2.77-9.34S94.63,46.41,94.22,45.54Zm-12.78,20C77.78,68,68.15,70.92,66.36,70.05c-1.44-.7-4-12.23-5.2-17.37-.78-3.29-2.51-8.27-1.65-9.88.58-1.09,4.14-2.82,6.77-4.18s6.07-3,7.14-2.94c1.52.12,5,5.24,8.39,9.61S89,54.2,89.11,55.82,85.22,62.92,81.44,65.51Z"/>
            <path class="cls-3" d="M32,61c.54,2.49-.64,5.13-3.4,5.48-2.27.29-4.13-1.23-4.67-3.72A4.39,4.39,0,0,1,27,57.32,4.4,4.4,0,0,1,32,61Z"/>
            <path class="cls-3" d="M15.68,61.83c.17,2.52-1.94,5.14-4.69,4.73-2.27-.33-3.64-2.28-3.49-4.79a4.37,4.37,0,0,1,4.4-4.31C14.18,57.59,15.52,59.21,15.68,61.83Z"/>
            <path class="cls-3" d="M23.11,70.85c1-.74,2.66-2.48,3.83-1.1s-.7,2.79-1.79,3.64-3.51,3-5.32,3-4.33-1.89-6-3.2c-1.37-1.07-2-2.49-1.33-3.39s1.88-.62,2.89.2c1.17,1,3.42,2.87,4.31,2.83S21.77,71.84,23.11,70.85Z"/>
            <path class="cls-4" d="M104.59,30.49,121.1,18.87a6.31,6.31,0,1,0,4.78-10.39,6.32,6.32,0,1,0-11.4,1L98,21.08Z"/>
            <path class="cls-5" d="M101.62,26.11s.81-8.85-.85-11.2C98.42,16.56,88,24.34,83.59,25.25c-14.66,2-21.64.23-33.11,8.3-5.06,3.57-8.16,7.28-9.95,10.89,3.25-4.72,9.56-9,18.07-9.77a38.26,38.26,0,0,1,12.32.49c9.66,2.32,16.94,12.26,18.69,17.94a15.27,15.27,0,0,1,.76,5.26c2-4.33,3.66-9.3,6.36-15.43,3-5.66,11.63-12.24,14-13.9C109.06,26.68,101.62,26.11,101.62,26.11Z"/>
            <path class="cls-5" d="M69.93,24.75c-5.81-1.39-11.56-1.16-17.16-.69-11.85,1-20.64,7-25.16,13.61a27.61,27.61,0,0,0-2.54,8,19.68,19.68,0,0,1,6.35,1.74C36,49.56,41.2,51.92,45,62.93c2.88,8.33,4.19,16.3,10.88,17.8,5,1.12,14.32.75,22.38-2.06.63-.4,1.26-.81,1.89-1.25A46.52,46.52,0,0,0,97,57.05,21.17,21.17,0,0,0,96,49.73C93.51,41.82,83.38,28,69.93,24.75Z"/>
          </g>
        </g>
      </g>
    </g>
  </g>
</g></svg>