<svg xmlns="http://www.w3.org/2000/svg" viewBox="0 0 106.85188 111.32899"><g>
  <defs>
    <style>
      .cls-1 {
        fill: #796228;
      }

      .cls-2 {
        fill: #ca9e67;
      }

      .cls-3 {
        fill: #5f4618;
      }

      .cls-4 {
        fill: #2b2c29;
      }
    </style>
  </defs>
  <g id="Layer_2" data-name="Layer 2">
    <g id="grid">
      <g id="wl_copy" data-name="wl copy">
        <g id="worms">
          <g>
            <path class="cls-1" d="M95.19,55.93l4.27-2.64c.86-.53,4-2.66,5.21-.95.73,1-.46,4-2.42,7.08-1.79,2.85-6,8.74-6.18,9.87s1.21,5.61,1.65,7.34,1.78,5.89,1.34,7.53-2.8,6.2-9.3,6.38c-5.16.15-6.72-1.31-6.93-2.22-.15-.66-.61-2.86-.61-2.86s-4.14,2.8-6.1,3.87-7.22,4-7.22,4,1.22,4.71,1.47,6.62.95,4.62,0,6.5c-.85,1.7-3.59,4.61-10.32,4.83-5.25.17-6.64-1.4-7.51-2.37s-1.24-5.7-1.28-6.7-.35-4.49-.35-4.49-7.13-.07-11.43-.21c-3.9-.13-9-.52-9-.52s.27,2.06.51,3.55c.23,1.32.37,4.11-1,5.52-1.79,1.9-6.63,2.23-9.3,2.08s-6.43-1.37-7.61-3.74.11-5.6.62-7.45c.45-1.62,1.26-4,.89-4.62S10.94,91,6.1,86.54-5.5,66.1,7.72,54.27s38.91-.58,40.27.21S95.19,55.93,95.19,55.93Z"/>
            <g>
              <path class="cls-2" d="M52.77,27.47C40.43,28.52,31.4,35,27.07,41.89a56.4,56.4,0,0,0-3.85,7,20.56,20.56,0,0,1,8.2,1.86C36,53,41.2,55.32,45,66.34c2.88,8.33,4.19,16.3,10.88,17.8,7.57,1.7,25,0,33.06-8.45s9.42-14.64,7-22.55-12.57-21.76-26-25C64.12,26.77,58.37,27,52.77,27.47Z"/>
              <path class="cls-2" d="M94.22,49c-.41-.86-1.24-2.17-1.24-2.17s0,1.82-.11,2.79c-.19,1.57-.92,4.85-1.43,4.39A105.24,105.24,0,0,1,84,45.17c-1.6-2.18-7.06-7.81-7.26-9.72a19.52,19.52,0,0,1,1-4.17l-2.14-1.1a21.18,21.18,0,0,0-2-.84s-.51,4.38-1.23,5.22-4.63,2.5-7.73,3.81C60.89,40,57.28,42,55.91,42.29c-1.2.27-8.11-.93-10.72-1.33-3.27-.49-8.22-1.68-9.38-2.44A13.73,13.73,0,0,1,33,35.28s-.77.57-1.53,1.22a15.79,15.79,0,0,0-1.72,1.9s2.13,2,2.28,2.74c.2,1.06-1,2.55-2,4-.61.85-2.27,4.4-2.27,4.4a6.72,6.72,0,0,1,1.93.48c1.11.47,2.16.95,2.16.95s2.39-6.23,4.08-6.86c1.44-.53,5.62.66,8.64,1.16,4.29.71,8.62,1.32,9.58,2.43s2.06,5.86,3.08,9.82c1.12,4.35,4,15.63,3.48,16.52s-5,.76-7.61.55a33.78,33.78,0,0,1-5.75-1.33s.59,1.85.78,2.34c.27.71,1.13,2.67,1.13,2.67s5.12,2,19.93.05,21.75-12.39,23.65-17C95.31,55.2,95.53,52,95.53,52S94.63,49.82,94.22,49Zm-12.78,20c-3.66,2.52-13.29,5.41-15.08,4.54-1.44-.7-4-12.23-5.2-17.37-.78-3.29-2.51-8.27-1.65-9.88.58-1.09,4.14-2.82,6.77-4.18s6.07-3,7.14-2.94c1.52.11,5,5.24,8.39,9.61s7.18,8.91,7.3,10.53S85.22,66.33,81.44,68.92Z"/>
              <path class="cls-2" d="M34.25,78.58c10.5-4.6,33.52,15,60-9.51,17.57-16.24,9.91-37.15-4.15-52.36S50.42,2.32,32.85,18.56,30.93,80,34.25,78.58Z"/>
            </g>
            <path class="cls-3" d="M95.72,67.76a34.55,34.55,0,0,0,9.86-16.36A36.85,36.85,0,0,0,102,23.52C90.05,2.1,63.28-6.22,42.35,5c-25.26,13.53-34,45.62-19.57,71.5a7.53,7.53,0,0,0,10,3.13,7.22,7.22,0,0,0,2.73-10C25.09,51,31.43,27.84,49.67,18.06c13.88-7.43,31.65-1.92,39.61,12.31A22,22,0,0,1,91.4,47,20.56,20.56,0,0,1,81.22,59.81,15.57,15.57,0,0,1,69.13,60.9a16.7,16.7,0,0,1-9.65-7.84,11.39,11.39,0,0,1-1.1-8.62c.79-2.89,2.4-5.84,5.27-6.64,5.27-1.48,10.37,4,10.26,9.24-.08,4.07,7.13-1.15,8-7.35.73-5.56-1.82-11.06-7.75-14.29s-12.47-3.51-17.78-.67A24.45,24.45,0,0,0,44.19,40,26.29,26.29,0,0,0,46.72,59.9,32.14,32.14,0,0,0,65.27,75a30,30,0,0,0,23.25-2.1A34.74,34.74,0,0,0,95.72,67.76Z"/>
            <path class="cls-1" d="M30,106.1c1.34-1.41,1.2-4.2,1-5.52-.24-1.49-.51-3.55-.51-3.55s5.15.39,9.05.52c4.3.14,11.43.21,11.43.21s.31,3.5.35,4.49.4,5.74,1.28,6.7,2.26,2.54,7.51,2.37c6.73-.22,9.47-3.13,10.32-4.83.94-1.88.23-4.59,0-6.5s-1.47-6.62-1.47-6.62,4.44-2.5,6.68-3.74a41.59,41.59,0,0,0-.81-6.48c-7.12,1.82-14.57,1.95-18.86,1-6.69-1.5-8-9.47-10.88-17.8C41.2,55.32,36,53,31.42,50.78a20.56,20.56,0,0,0-8.2-1.86v0C17.59,49,12,50.44,7.72,54.27-5.5,66.1,1.24,82.06,6.1,86.54s8.12,5.18,8.48,5.83-.44,3-.89,4.62c-.51,1.85-1.8,5.08-.62,7.45s4.94,3.6,7.61,3.74S28.19,108,30,106.1Z"/>
            <path class="cls-1" d="M31.26,67.94c-3.21-14.94,1.06-31.49-8-37.36s-9.6,9.88-5.87,9.07c5.29-1.13,9.08,5.87,7.75,17.88S32.06,71.67,31.26,67.94ZM16.78,71.05c-3.21-14.95,1.06-31.5-8-37.36S-.84,43.56,2.9,42.76c5.28-1.13,9.07,5.87,7.74,17.88S17.58,74.78,16.78,71.05Z"/>
            <path class="cls-4" d="M32,64.37c.54,2.49-.64,5.13-3.4,5.48-2.27.29-4.13-1.23-4.67-3.72A4.39,4.39,0,0,1,27,60.73,4.4,4.4,0,0,1,32,64.37Z"/>
            <path class="cls-4" d="M23.11,74.26c1-.74,2.66-2.48,3.83-1.1s-.7,2.79-1.79,3.64-3.51,3-5.32,3-4.33-1.89-6-3.2c-1.37-1.07-2-2.49-1.33-3.39s1.88-.62,2.89.2c1.17,1,3.42,2.87,4.31,2.83S21.77,75.25,23.11,74.26Z"/>
            <path class="cls-4" d="M15.68,65.24c.17,2.52-1.94,5.14-4.69,4.73-2.27-.33-3.64-2.28-3.49-4.79a4.37,4.37,0,0,1,4.4-4.31C14.18,61,15.52,62.62,15.68,65.24Z"/>
          </g>
        </g>
      </g>
    </g>
  </g>
</g></svg>